%TF.GenerationSoftware,KiCad,Pcbnew,7.0.7*%
%TF.CreationDate,2024-03-24T16:11:16-04:00*%
%TF.ProjectId,RCP-FLEX,5243502d-464c-4455-982e-6b696361645f,rev?*%
%TF.SameCoordinates,Original*%
%TF.FileFunction,Copper,L2,Bot*%
%TF.FilePolarity,Positive*%
%FSLAX46Y46*%
G04 Gerber Fmt 4.6, Leading zero omitted, Abs format (unit mm)*
G04 Created by KiCad (PCBNEW 7.0.7) date 2024-03-24 16:11:16*
%MOMM*%
%LPD*%
G01*
G04 APERTURE LIST*
%TA.AperFunction,ComponentPad*%
%ADD10O,0.400000X1.000000*%
%TD*%
%TA.AperFunction,ComponentPad*%
%ADD11O,1.000000X0.400000*%
%TD*%
%TA.AperFunction,ViaPad*%
%ADD12C,0.400000*%
%TD*%
%TA.AperFunction,ViaPad*%
%ADD13C,0.800000*%
%TD*%
%TA.AperFunction,Conductor*%
%ADD14C,0.250000*%
%TD*%
G04 APERTURE END LIST*
D10*
%TO.P,TP2,1,1*%
%TO.N,Net-(J1-Pin_2)*%
X160415000Y-63500000D03*
%TD*%
%TO.P,TP9,1,1*%
%TO.N,Net-(J1-Pin_9)*%
X164965000Y-63500000D03*
%TD*%
D11*
%TO.P,TP31,1,1*%
%TO.N,GND*%
X174390000Y-74910000D03*
%TD*%
D10*
%TO.P,TP5,1,1*%
%TO.N,Net-(J1-Pin_5)*%
X162365000Y-63500000D03*
%TD*%
D11*
%TO.P,TP24,1,1*%
%TO.N,Net-(J1-Pin_24)*%
X174390000Y-70360000D03*
%TD*%
D10*
%TO.P,TP1,1,1*%
%TO.N,Net-(J1-Pin_1)*%
X159765000Y-63500000D03*
%TD*%
%TO.P,TP6,1,1*%
%TO.N,Net-(J1-Pin_6)*%
X163015000Y-63500000D03*
%TD*%
D11*
%TO.P,TP23,1,1*%
%TO.N,GND*%
X174390000Y-69710000D03*
%TD*%
D10*
%TO.P,TP14,1,1*%
%TO.N,Net-(J1-Pin_14)*%
X168215000Y-63500000D03*
%TD*%
%TO.P,TP11,1,1*%
%TO.N,GND*%
X166265000Y-63500000D03*
%TD*%
%TO.P,TP18,1,1*%
%TO.N,Net-(J1-Pin_18)*%
X170815000Y-63500000D03*
%TD*%
%TO.P,TP17,1,1*%
%TO.N,GND*%
X170165000Y-63500000D03*
%TD*%
%TO.P,TP4,1,1*%
%TO.N,GND*%
X161715000Y-63500000D03*
%TD*%
%TO.P,TP10,1,1*%
%TO.N,3v3*%
X165615000Y-63500000D03*
%TD*%
D11*
%TO.P,TP29,1,1*%
%TO.N,GND*%
X174390000Y-73610000D03*
%TD*%
%TO.P,TP27,1,1*%
%TO.N,Net-(J1-Pin_27)*%
X174390000Y-72310000D03*
%TD*%
D10*
%TO.P,TP15,1,1*%
%TO.N,Net-(J1-Pin_15)*%
X168865000Y-63500000D03*
%TD*%
%TO.P,TP12,1,1*%
%TO.N,Net-(J1-Pin_12)*%
X166915000Y-63500000D03*
%TD*%
%TO.P,TP7,1,1*%
%TO.N,Net-(J1-Pin_7)*%
X163665000Y-63500000D03*
%TD*%
%TO.P,TP8,1,1*%
%TO.N,Net-(J1-Pin_8)*%
X164315000Y-63500000D03*
%TD*%
%TO.P,TP16,1,1*%
%TO.N,3v3*%
X169515000Y-63500000D03*
%TD*%
D11*
%TO.P,TP20,1,1*%
%TO.N,Net-(J1-Pin_20)*%
X174390000Y-67760000D03*
%TD*%
%TO.P,TP25,1,1*%
%TO.N,Net-(J1-Pin_25)*%
X174390000Y-71010000D03*
%TD*%
%TO.P,TP21,1,1*%
%TO.N,Net-(J1-Pin_21)*%
X174390000Y-68410000D03*
%TD*%
%TO.P,TP22,1,1*%
%TO.N,3v3*%
X174390000Y-69060000D03*
%TD*%
D10*
%TO.P,TP3,1,1*%
%TO.N,3v3*%
X161065000Y-63500000D03*
%TD*%
D11*
%TO.P,TP30,1,1*%
%TO.N,3v3*%
X174390000Y-74260000D03*
%TD*%
%TO.P,TP19,1,1*%
%TO.N,Net-(J1-Pin_19)*%
X174390000Y-67110000D03*
%TD*%
%TO.P,TP33,1,1*%
%TO.N,Net-(J1-Pin_33)*%
X174390000Y-76210000D03*
%TD*%
%TO.P,TP28,1,1*%
%TO.N,Net-(J1-Pin_28)*%
X174390000Y-72960000D03*
%TD*%
%TO.P,TP26,1,1*%
%TO.N,Net-(J1-Pin_26)*%
X174390000Y-71660000D03*
%TD*%
%TO.P,TP32,1,1*%
%TO.N,3v3*%
X174390000Y-75560000D03*
%TD*%
D10*
%TO.P,TP13,1,1*%
%TO.N,Net-(J1-Pin_13)*%
X167565000Y-63500000D03*
%TD*%
D12*
%TO.N,Net-(J1-Pin_1)*%
X159760000Y-63200000D03*
%TO.N,Net-(J1-Pin_2)*%
X160410000Y-63200000D03*
%TO.N,3v3*%
X174690000Y-74260000D03*
X174690000Y-69060000D03*
X161070000Y-63200000D03*
X165620000Y-63200000D03*
X169510000Y-63200000D03*
X174690000Y-75560000D03*
%TO.N,GND*%
X174690000Y-73610000D03*
D13*
X176900000Y-67000000D03*
X184800000Y-69600000D03*
D12*
X170160000Y-63200000D03*
D13*
X184800000Y-75600000D03*
D12*
X174690000Y-69710000D03*
X174690000Y-74910000D03*
D13*
X184800000Y-66600000D03*
D12*
X166260000Y-63200000D03*
D13*
X184800000Y-63100000D03*
D12*
X161720000Y-63200000D03*
D13*
X184800000Y-72600000D03*
D12*
%TO.N,Net-(J1-Pin_5)*%
X162360000Y-63200000D03*
%TO.N,Net-(J1-Pin_6)*%
X163010000Y-63200000D03*
%TO.N,Net-(J1-Pin_7)*%
X163660000Y-63200000D03*
%TO.N,Net-(J1-Pin_8)*%
X164310000Y-63200000D03*
%TO.N,Net-(J1-Pin_9)*%
X164960000Y-63200000D03*
%TO.N,Net-(J1-Pin_12)*%
X166910000Y-63200000D03*
%TO.N,Net-(J1-Pin_13)*%
X167560000Y-63200000D03*
%TO.N,Net-(J1-Pin_14)*%
X168210000Y-63200000D03*
%TO.N,Net-(J1-Pin_15)*%
X168860000Y-63200000D03*
%TO.N,Net-(J1-Pin_18)*%
X170810000Y-63200000D03*
%TO.N,Net-(J1-Pin_19)*%
X174690000Y-67110000D03*
%TO.N,Net-(J1-Pin_20)*%
X174690000Y-67760000D03*
%TO.N,Net-(J1-Pin_21)*%
X174690000Y-68410000D03*
%TO.N,Net-(J1-Pin_24)*%
X174690000Y-70360000D03*
%TO.N,Net-(J1-Pin_25)*%
X174690000Y-71010000D03*
%TO.N,Net-(J1-Pin_26)*%
X174690000Y-71660000D03*
%TO.N,Net-(J1-Pin_27)*%
X174690000Y-72310000D03*
%TO.N,Net-(J1-Pin_28)*%
X174690000Y-72960000D03*
%TO.N,Net-(J1-Pin_33)*%
X174690000Y-76210000D03*
%TD*%
D14*
%TO.N,3v3*%
X161065000Y-63500000D02*
X161065000Y-63107538D01*
%TD*%
%TA.AperFunction,Conductor*%
%TO.N,GND*%
G36*
X187410691Y-55919407D02*
G01*
X187446655Y-55968907D01*
X187451500Y-55999500D01*
X187451500Y-82958500D01*
X187432593Y-83016691D01*
X187383093Y-83052655D01*
X187352500Y-83057500D01*
X176672815Y-83057500D01*
X176614624Y-83038593D01*
X176602811Y-83028504D01*
X174908505Y-81334197D01*
X174880728Y-81279680D01*
X174879509Y-81264178D01*
X174880496Y-77122359D01*
X174880542Y-77110001D01*
X174880424Y-77109718D01*
X174880424Y-77109717D01*
X174880383Y-77109617D01*
X174880381Y-77109616D01*
X174866790Y-77095957D01*
X174866407Y-77095700D01*
X174550211Y-76779503D01*
X174522434Y-76724987D01*
X174532005Y-76664555D01*
X174575270Y-76621290D01*
X174620215Y-76610500D01*
X174650691Y-76610500D01*
X174666177Y-76611718D01*
X174690000Y-76615492D01*
X174815304Y-76595646D01*
X174928342Y-76538050D01*
X175018050Y-76448342D01*
X175075646Y-76335304D01*
X175095492Y-76210000D01*
X175075646Y-76084696D01*
X175018050Y-75971658D01*
X175001393Y-75955001D01*
X174973618Y-75900487D01*
X174983189Y-75840055D01*
X175001397Y-75814995D01*
X175018048Y-75798344D01*
X175018048Y-75798343D01*
X175018050Y-75798342D01*
X175075646Y-75685304D01*
X175095492Y-75560000D01*
X175075646Y-75434696D01*
X175018050Y-75321658D01*
X174928342Y-75231950D01*
X174924406Y-75229944D01*
X174815307Y-75174355D01*
X174815304Y-75174354D01*
X174690000Y-75154508D01*
X174666178Y-75158281D01*
X174650691Y-75159500D01*
X174489280Y-75159500D01*
X174431089Y-75140593D01*
X174395125Y-75091093D01*
X174390280Y-75060514D01*
X174390237Y-74759514D01*
X174409136Y-74701321D01*
X174458631Y-74665350D01*
X174489237Y-74660500D01*
X174650691Y-74660500D01*
X174666177Y-74661718D01*
X174690000Y-74665492D01*
X174815304Y-74645646D01*
X174928342Y-74588050D01*
X175018050Y-74498342D01*
X175075646Y-74385304D01*
X175095492Y-74260000D01*
X175075646Y-74134696D01*
X175018050Y-74021658D01*
X174928342Y-73931950D01*
X174924406Y-73929944D01*
X174815307Y-73874355D01*
X174815304Y-73874354D01*
X174690000Y-73854508D01*
X174666178Y-73858281D01*
X174650691Y-73859500D01*
X174489096Y-73859500D01*
X174430905Y-73840593D01*
X174394941Y-73791093D01*
X174390096Y-73760514D01*
X174390054Y-73459514D01*
X174408953Y-73401320D01*
X174458448Y-73365350D01*
X174489054Y-73360500D01*
X174650691Y-73360500D01*
X174666177Y-73361718D01*
X174690000Y-73365492D01*
X174815304Y-73345646D01*
X174928342Y-73288050D01*
X175018050Y-73198342D01*
X175075646Y-73085304D01*
X175095492Y-72960000D01*
X175075646Y-72834696D01*
X175018050Y-72721658D01*
X175001393Y-72705001D01*
X174973618Y-72650487D01*
X174983189Y-72590055D01*
X175001392Y-72564999D01*
X175018050Y-72548342D01*
X175075646Y-72435304D01*
X175095492Y-72310000D01*
X175075646Y-72184696D01*
X175018050Y-72071658D01*
X175001393Y-72055001D01*
X174973618Y-72000487D01*
X174983189Y-71940055D01*
X175001397Y-71914995D01*
X175018048Y-71898344D01*
X175018048Y-71898343D01*
X175018050Y-71898342D01*
X175075646Y-71785304D01*
X175095492Y-71660000D01*
X175075646Y-71534696D01*
X175018050Y-71421658D01*
X175001393Y-71405001D01*
X174973618Y-71350487D01*
X174983189Y-71290055D01*
X175001392Y-71264999D01*
X175018050Y-71248342D01*
X175075646Y-71135304D01*
X175095492Y-71010000D01*
X175075646Y-70884696D01*
X175018050Y-70771658D01*
X175001393Y-70755001D01*
X174973618Y-70700487D01*
X174983189Y-70640055D01*
X175001397Y-70614995D01*
X175018048Y-70598344D01*
X175018048Y-70598343D01*
X175018050Y-70598342D01*
X175075646Y-70485304D01*
X175095492Y-70360000D01*
X175075646Y-70234696D01*
X175018050Y-70121658D01*
X174928342Y-70031950D01*
X174924406Y-70029944D01*
X174815307Y-69974355D01*
X174815304Y-69974354D01*
X174690000Y-69954508D01*
X174666178Y-69958281D01*
X174650691Y-69959500D01*
X174488545Y-69959500D01*
X174430354Y-69940593D01*
X174394390Y-69891093D01*
X174389545Y-69860514D01*
X174389503Y-69559514D01*
X174408402Y-69501320D01*
X174457897Y-69465350D01*
X174488503Y-69460500D01*
X174650691Y-69460500D01*
X174666177Y-69461718D01*
X174690000Y-69465492D01*
X174815304Y-69445646D01*
X174928342Y-69388050D01*
X175018050Y-69298342D01*
X175075646Y-69185304D01*
X175095492Y-69060000D01*
X175075646Y-68934696D01*
X175018050Y-68821658D01*
X175001393Y-68805001D01*
X174973618Y-68750487D01*
X174983189Y-68690055D01*
X175001392Y-68664999D01*
X175018050Y-68648342D01*
X175075646Y-68535304D01*
X175095492Y-68410000D01*
X175075646Y-68284696D01*
X175018050Y-68171658D01*
X175001393Y-68155001D01*
X174973618Y-68100487D01*
X174983189Y-68040055D01*
X175001397Y-68014995D01*
X175018048Y-67998344D01*
X175018048Y-67998343D01*
X175018050Y-67998342D01*
X175075646Y-67885304D01*
X175095492Y-67760000D01*
X175075646Y-67634696D01*
X175018050Y-67521658D01*
X175001393Y-67505001D01*
X174973618Y-67450487D01*
X174983189Y-67390055D01*
X175001392Y-67364999D01*
X175018050Y-67348342D01*
X175075646Y-67235304D01*
X175095492Y-67110000D01*
X175075646Y-66984696D01*
X175018050Y-66871658D01*
X174928342Y-66781950D01*
X174815304Y-66724354D01*
X174815305Y-66724354D01*
X174727353Y-66710424D01*
X174721519Y-66709500D01*
X174690001Y-66704508D01*
X174690000Y-66704508D01*
X174666178Y-66708281D01*
X174650691Y-66709500D01*
X174629320Y-66709500D01*
X174571129Y-66690593D01*
X174535165Y-66641093D01*
X174535165Y-66579907D01*
X174559420Y-66540393D01*
X174573596Y-66526257D01*
X174846010Y-66254651D01*
X174846155Y-66254557D01*
X174860381Y-66240383D01*
X174860383Y-66240383D01*
X174860461Y-66240191D01*
X174860542Y-66240001D01*
X174860541Y-66239998D01*
X174860658Y-66221117D01*
X174860500Y-66220315D01*
X174860500Y-64290045D01*
X174860533Y-64289878D01*
X174860516Y-64289878D01*
X174860540Y-64270002D01*
X174860542Y-64270000D01*
X174860424Y-64269717D01*
X174860383Y-64269617D01*
X174860381Y-64269616D01*
X174846724Y-64255890D01*
X174846394Y-64255669D01*
X173623448Y-63031159D01*
X173623349Y-63031010D01*
X173609382Y-63017016D01*
X173609170Y-63016929D01*
X173609000Y-63016857D01*
X173589459Y-63016835D01*
X173589136Y-63016900D01*
X171799988Y-63016900D01*
X171799782Y-63016859D01*
X171780198Y-63016859D01*
X171780101Y-63016899D01*
X171779817Y-63017015D01*
X171766337Y-63030403D01*
X171766029Y-63030861D01*
X171384504Y-63412387D01*
X171329987Y-63440165D01*
X171269555Y-63430594D01*
X171226290Y-63387329D01*
X171215500Y-63342384D01*
X171215500Y-63168478D01*
X171210139Y-63134636D01*
X171200646Y-63074696D01*
X171143050Y-62961658D01*
X171053342Y-62871950D01*
X171008234Y-62848966D01*
X170940307Y-62814355D01*
X170940304Y-62814354D01*
X170815000Y-62794508D01*
X170814999Y-62794508D01*
X170814993Y-62794507D01*
X170813334Y-62794507D01*
X170810529Y-62794506D01*
X170810523Y-62794507D01*
X170810003Y-62794507D01*
X170684696Y-62814354D01*
X170684692Y-62814355D01*
X170571659Y-62871949D01*
X170481949Y-62961659D01*
X170424355Y-63074692D01*
X170424354Y-63074696D01*
X170404508Y-63199999D01*
X170404508Y-63200001D01*
X170413281Y-63255390D01*
X170414500Y-63270877D01*
X170414500Y-63400498D01*
X170395593Y-63458689D01*
X170346093Y-63494653D01*
X170315449Y-63499498D01*
X170014448Y-63499344D01*
X169956267Y-63480407D01*
X169920329Y-63430889D01*
X169915500Y-63400350D01*
X169915500Y-63168481D01*
X169900646Y-63074696D01*
X169843050Y-62961658D01*
X169753342Y-62871950D01*
X169708234Y-62848966D01*
X169640307Y-62814355D01*
X169640304Y-62814354D01*
X169515000Y-62794508D01*
X169514999Y-62794508D01*
X169514993Y-62794507D01*
X169513334Y-62794507D01*
X169510529Y-62794506D01*
X169510523Y-62794507D01*
X169510003Y-62794507D01*
X169384696Y-62814354D01*
X169384692Y-62814355D01*
X169271658Y-62871950D01*
X169271655Y-62871952D01*
X169257502Y-62886105D01*
X169202985Y-62913882D01*
X169142553Y-62904309D01*
X169117498Y-62886105D01*
X169103344Y-62871952D01*
X169103342Y-62871950D01*
X169044005Y-62841716D01*
X168990307Y-62814355D01*
X168990305Y-62814354D01*
X168990304Y-62814354D01*
X168950610Y-62808067D01*
X168864998Y-62794507D01*
X168860002Y-62794507D01*
X168758277Y-62810619D01*
X168734696Y-62814354D01*
X168734695Y-62814354D01*
X168734692Y-62814355D01*
X168621658Y-62871950D01*
X168621654Y-62871952D01*
X168607499Y-62886107D01*
X168552981Y-62913882D01*
X168492549Y-62904307D01*
X168467499Y-62886107D01*
X168453342Y-62871950D01*
X168408234Y-62848966D01*
X168340307Y-62814355D01*
X168340304Y-62814354D01*
X168215000Y-62794508D01*
X168214999Y-62794508D01*
X168214993Y-62794507D01*
X168213334Y-62794507D01*
X168210529Y-62794506D01*
X168210523Y-62794507D01*
X168210003Y-62794507D01*
X168084696Y-62814354D01*
X168084692Y-62814355D01*
X167971658Y-62871950D01*
X167971655Y-62871952D01*
X167957502Y-62886105D01*
X167902985Y-62913882D01*
X167842553Y-62904309D01*
X167817498Y-62886105D01*
X167803344Y-62871952D01*
X167803342Y-62871950D01*
X167744005Y-62841716D01*
X167690307Y-62814355D01*
X167690305Y-62814354D01*
X167690304Y-62814354D01*
X167650610Y-62808067D01*
X167564998Y-62794507D01*
X167560002Y-62794507D01*
X167458277Y-62810619D01*
X167434696Y-62814354D01*
X167434695Y-62814354D01*
X167434692Y-62814355D01*
X167321658Y-62871950D01*
X167321655Y-62871952D01*
X167307502Y-62886105D01*
X167252985Y-62913882D01*
X167192553Y-62904309D01*
X167167498Y-62886105D01*
X167153344Y-62871952D01*
X167153342Y-62871950D01*
X167094005Y-62841716D01*
X167040307Y-62814355D01*
X167040304Y-62814354D01*
X166915000Y-62794508D01*
X166914999Y-62794508D01*
X166914993Y-62794507D01*
X166913334Y-62794507D01*
X166910529Y-62794506D01*
X166910523Y-62794507D01*
X166910003Y-62794507D01*
X166784696Y-62814354D01*
X166784692Y-62814355D01*
X166671659Y-62871949D01*
X166581949Y-62961659D01*
X166524355Y-63074692D01*
X166524354Y-63074696D01*
X166504508Y-63199999D01*
X166504508Y-63200001D01*
X166513281Y-63255390D01*
X166514500Y-63270877D01*
X166514500Y-63398506D01*
X166495593Y-63456697D01*
X166446093Y-63492661D01*
X166415450Y-63497506D01*
X166114450Y-63497353D01*
X166056269Y-63478416D01*
X166020330Y-63428898D01*
X166015500Y-63398353D01*
X166015500Y-63270877D01*
X166016719Y-63255390D01*
X166025492Y-63200001D01*
X166025492Y-63199999D01*
X166020499Y-63168477D01*
X166005646Y-63074696D01*
X165948050Y-62961658D01*
X165858342Y-62871950D01*
X165813234Y-62848966D01*
X165745307Y-62814355D01*
X165745305Y-62814354D01*
X165745304Y-62814354D01*
X165705610Y-62808067D01*
X165619998Y-62794507D01*
X165615002Y-62794507D01*
X165513277Y-62810619D01*
X165489696Y-62814354D01*
X165489695Y-62814354D01*
X165489692Y-62814355D01*
X165376658Y-62871950D01*
X165376655Y-62871952D01*
X165360002Y-62888605D01*
X165305485Y-62916381D01*
X165245053Y-62906809D01*
X165219998Y-62888605D01*
X165203344Y-62871952D01*
X165203342Y-62871950D01*
X165144005Y-62841716D01*
X165090307Y-62814355D01*
X165090305Y-62814354D01*
X165090304Y-62814354D01*
X165050610Y-62808067D01*
X164964998Y-62794507D01*
X164960002Y-62794507D01*
X164858277Y-62810619D01*
X164834696Y-62814354D01*
X164834695Y-62814354D01*
X164834692Y-62814355D01*
X164721658Y-62871950D01*
X164721655Y-62871952D01*
X164707502Y-62886105D01*
X164652985Y-62913882D01*
X164592553Y-62904309D01*
X164567498Y-62886105D01*
X164553344Y-62871952D01*
X164553342Y-62871950D01*
X164494005Y-62841716D01*
X164440307Y-62814355D01*
X164440304Y-62814354D01*
X164315000Y-62794508D01*
X164314999Y-62794508D01*
X164314993Y-62794507D01*
X164313334Y-62794507D01*
X164310529Y-62794506D01*
X164310523Y-62794507D01*
X164310003Y-62794507D01*
X164184696Y-62814354D01*
X164184692Y-62814355D01*
X164071658Y-62871950D01*
X164071655Y-62871952D01*
X164057502Y-62886105D01*
X164002985Y-62913882D01*
X163942553Y-62904309D01*
X163917498Y-62886105D01*
X163903344Y-62871952D01*
X163903342Y-62871950D01*
X163844005Y-62841716D01*
X163790307Y-62814355D01*
X163790305Y-62814354D01*
X163790304Y-62814354D01*
X163750610Y-62808067D01*
X163664998Y-62794507D01*
X163660002Y-62794507D01*
X163558277Y-62810619D01*
X163534696Y-62814354D01*
X163534695Y-62814354D01*
X163534692Y-62814355D01*
X163421658Y-62871950D01*
X163421655Y-62871952D01*
X163407502Y-62886105D01*
X163352985Y-62913882D01*
X163292553Y-62904309D01*
X163267498Y-62886105D01*
X163253344Y-62871952D01*
X163253342Y-62871950D01*
X163194005Y-62841716D01*
X163140307Y-62814355D01*
X163140304Y-62814354D01*
X163015000Y-62794508D01*
X163014999Y-62794508D01*
X163014993Y-62794507D01*
X163013334Y-62794507D01*
X163010529Y-62794506D01*
X163010523Y-62794507D01*
X163010003Y-62794507D01*
X162884696Y-62814354D01*
X162884692Y-62814355D01*
X162771658Y-62871950D01*
X162771655Y-62871952D01*
X162757502Y-62886105D01*
X162702985Y-62913882D01*
X162642553Y-62904309D01*
X162617498Y-62886105D01*
X162603344Y-62871952D01*
X162603342Y-62871950D01*
X162544005Y-62841716D01*
X162490307Y-62814355D01*
X162490305Y-62814354D01*
X162490304Y-62814354D01*
X162450610Y-62808067D01*
X162364998Y-62794507D01*
X162360002Y-62794507D01*
X162258277Y-62810619D01*
X162234696Y-62814354D01*
X162234695Y-62814354D01*
X162234692Y-62814355D01*
X162121659Y-62871949D01*
X162031949Y-62961659D01*
X161974355Y-63074692D01*
X161974354Y-63074696D01*
X161954508Y-63199999D01*
X161954508Y-63200001D01*
X161963281Y-63255390D01*
X161964500Y-63270877D01*
X161964500Y-63396183D01*
X161945593Y-63454374D01*
X161896093Y-63490338D01*
X161865450Y-63495183D01*
X161564450Y-63495030D01*
X161506269Y-63476093D01*
X161470330Y-63426575D01*
X161465500Y-63396030D01*
X161465500Y-63270877D01*
X161466719Y-63255390D01*
X161475492Y-63200001D01*
X161475492Y-63199999D01*
X161470499Y-63168477D01*
X161455646Y-63074696D01*
X161398050Y-62961658D01*
X161308342Y-62871950D01*
X161308339Y-62871948D01*
X161308340Y-62871948D01*
X161273283Y-62854086D01*
X161254600Y-62841721D01*
X161230261Y-62821298D01*
X161122394Y-62782038D01*
X161007606Y-62782038D01*
X160973348Y-62794507D01*
X160899739Y-62821298D01*
X160867675Y-62848203D01*
X160848988Y-62860572D01*
X160826658Y-62871950D01*
X160826656Y-62871951D01*
X160810002Y-62888605D01*
X160755485Y-62916381D01*
X160695053Y-62906809D01*
X160669998Y-62888605D01*
X160653344Y-62871952D01*
X160653342Y-62871950D01*
X160594005Y-62841716D01*
X160540307Y-62814355D01*
X160540304Y-62814354D01*
X160415000Y-62794508D01*
X160414999Y-62794508D01*
X160414993Y-62794507D01*
X160413334Y-62794507D01*
X160410529Y-62794506D01*
X160410523Y-62794507D01*
X160410003Y-62794507D01*
X160284696Y-62814354D01*
X160284692Y-62814355D01*
X160171658Y-62871950D01*
X160171655Y-62871952D01*
X160157502Y-62886105D01*
X160102985Y-62913882D01*
X160042553Y-62904309D01*
X160017498Y-62886105D01*
X160003344Y-62871952D01*
X160003342Y-62871950D01*
X159944005Y-62841716D01*
X159890307Y-62814355D01*
X159890305Y-62814354D01*
X159890304Y-62814354D01*
X159850610Y-62808067D01*
X159764998Y-62794507D01*
X159760002Y-62794507D01*
X159658277Y-62810619D01*
X159634696Y-62814354D01*
X159634695Y-62814354D01*
X159634692Y-62814355D01*
X159521659Y-62871949D01*
X159521658Y-62871949D01*
X159521658Y-62871950D01*
X159519501Y-62874106D01*
X159516786Y-62875489D01*
X159515353Y-62876531D01*
X159515188Y-62876304D01*
X159464987Y-62901882D01*
X159404555Y-62892311D01*
X159361290Y-62849046D01*
X159350500Y-62804101D01*
X159350500Y-62087332D01*
X159369407Y-62029141D01*
X159379519Y-62017306D01*
X165471215Y-55929474D01*
X165525740Y-55901714D01*
X165541196Y-55900500D01*
X187352500Y-55900500D01*
X187410691Y-55919407D01*
G37*
%TD.AperFunction*%
%TD*%
M02*
