%TF.GenerationSoftware,KiCad,Pcbnew,7.0.7*%
%TF.CreationDate,2024-03-24T16:11:16-04:00*%
%TF.ProjectId,RCP-FLEX,5243502d-464c-4455-982e-6b696361645f,rev?*%
%TF.SameCoordinates,Original*%
%TF.FileFunction,Paste,Top*%
%TF.FilePolarity,Positive*%
%FSLAX46Y46*%
G04 Gerber Fmt 4.6, Leading zero omitted, Abs format (unit mm)*
G04 Created by KiCad (PCBNEW 7.0.7) date 2024-03-24 16:11:16*
%MOMM*%
%LPD*%
G01*
G04 APERTURE LIST*
%ADD10R,1.000000X0.300000*%
%ADD11R,1.300000X2.000000*%
G04 APERTURE END LIST*
D10*
%TO.C,J1*%
X182016400Y-59915400D03*
X182016400Y-60415400D03*
X182016400Y-60915400D03*
X182016400Y-61415400D03*
X182016400Y-61915400D03*
X182016400Y-62415400D03*
X182016400Y-62915400D03*
X182016400Y-63415400D03*
X182016400Y-63915400D03*
X182016400Y-64415400D03*
X182016400Y-64915400D03*
X182016400Y-65415400D03*
X182016400Y-65915400D03*
X182016400Y-66415400D03*
X182016400Y-66915400D03*
X182016400Y-67415400D03*
X182016400Y-67915400D03*
X182016400Y-68415400D03*
X182016400Y-68915400D03*
X182016400Y-69415400D03*
X182016400Y-69915400D03*
X182016400Y-70415400D03*
X182016400Y-70915400D03*
X182016400Y-71415400D03*
X182016400Y-71915400D03*
X182016400Y-72415400D03*
X182016400Y-72915400D03*
X182016400Y-73415400D03*
X182016400Y-73915400D03*
X182016400Y-74415400D03*
X182016400Y-74915400D03*
X182016400Y-75415400D03*
X182016400Y-75915400D03*
X182016400Y-76415400D03*
X182016400Y-76915400D03*
X182016400Y-77415400D03*
X182016400Y-77915400D03*
X182016400Y-78415400D03*
X182016400Y-78915400D03*
X182016400Y-79415400D03*
D11*
X184716400Y-81715400D03*
X184716400Y-57615400D03*
%TD*%
M02*
