%TF.GenerationSoftware,KiCad,Pcbnew,7.0.7*%
%TF.CreationDate,2024-03-24T16:11:17-04:00*%
%TF.ProjectId,RCP-FLEX,5243502d-464c-4455-982e-6b696361645f,rev?*%
%TF.SameCoordinates,Original*%
%TF.FileFunction,Legend,Top*%
%TF.FilePolarity,Positive*%
%FSLAX46Y46*%
G04 Gerber Fmt 4.6, Leading zero omitted, Abs format (unit mm)*
G04 Created by KiCad (PCBNEW 7.0.7) date 2024-03-24 16:11:17*
%MOMM*%
%LPD*%
G01*
G04 APERTURE LIST*
%ADD10C,0.150000*%
%ADD11C,0.100000*%
%ADD12C,0.300000*%
%ADD13C,0.120000*%
%ADD14C,0.127000*%
%ADD15C,0.200000*%
G04 APERTURE END LIST*
D10*
X180800000Y-76900000D02*
X180900000Y-76900000D01*
X178800000Y-80400000D02*
X176100000Y-80400000D01*
X180900000Y-76900000D02*
X180900000Y-78900000D01*
X175400000Y-80400000D02*
X175400000Y-76900000D01*
X180900000Y-79000000D02*
X180900000Y-79100000D01*
X175400000Y-76900000D02*
X180800000Y-76900000D01*
X180900000Y-78900000D02*
X180900000Y-79000000D01*
X178800000Y-79100000D02*
X178800000Y-80400000D01*
X180900000Y-79100000D02*
X178800000Y-79100000D01*
X176100000Y-80400000D02*
X175400000Y-80400000D01*
D11*
X179899122Y-80675800D02*
X179999122Y-80709133D01*
X179999122Y-80709133D02*
X180165789Y-80709133D01*
X180165789Y-80709133D02*
X180232455Y-80675800D01*
X180232455Y-80675800D02*
X180265789Y-80642466D01*
X180265789Y-80642466D02*
X180299122Y-80575800D01*
X180299122Y-80575800D02*
X180299122Y-80509133D01*
X180299122Y-80509133D02*
X180265789Y-80442466D01*
X180265789Y-80442466D02*
X180232455Y-80409133D01*
X180232455Y-80409133D02*
X180165789Y-80375800D01*
X180165789Y-80375800D02*
X180032455Y-80342466D01*
X180032455Y-80342466D02*
X179965789Y-80309133D01*
X179965789Y-80309133D02*
X179932455Y-80275800D01*
X179932455Y-80275800D02*
X179899122Y-80209133D01*
X179899122Y-80209133D02*
X179899122Y-80142466D01*
X179899122Y-80142466D02*
X179932455Y-80075800D01*
X179932455Y-80075800D02*
X179965789Y-80042466D01*
X179965789Y-80042466D02*
X180032455Y-80009133D01*
X180032455Y-80009133D02*
X180199122Y-80009133D01*
X180199122Y-80009133D02*
X180299122Y-80042466D01*
D12*
X168311653Y-59300828D02*
X167811653Y-58586542D01*
X167454510Y-59300828D02*
X167454510Y-57800828D01*
X167454510Y-57800828D02*
X168025939Y-57800828D01*
X168025939Y-57800828D02*
X168168796Y-57872257D01*
X168168796Y-57872257D02*
X168240225Y-57943685D01*
X168240225Y-57943685D02*
X168311653Y-58086542D01*
X168311653Y-58086542D02*
X168311653Y-58300828D01*
X168311653Y-58300828D02*
X168240225Y-58443685D01*
X168240225Y-58443685D02*
X168168796Y-58515114D01*
X168168796Y-58515114D02*
X168025939Y-58586542D01*
X168025939Y-58586542D02*
X167454510Y-58586542D01*
X169811653Y-59157971D02*
X169740225Y-59229400D01*
X169740225Y-59229400D02*
X169525939Y-59300828D01*
X169525939Y-59300828D02*
X169383082Y-59300828D01*
X169383082Y-59300828D02*
X169168796Y-59229400D01*
X169168796Y-59229400D02*
X169025939Y-59086542D01*
X169025939Y-59086542D02*
X168954510Y-58943685D01*
X168954510Y-58943685D02*
X168883082Y-58657971D01*
X168883082Y-58657971D02*
X168883082Y-58443685D01*
X168883082Y-58443685D02*
X168954510Y-58157971D01*
X168954510Y-58157971D02*
X169025939Y-58015114D01*
X169025939Y-58015114D02*
X169168796Y-57872257D01*
X169168796Y-57872257D02*
X169383082Y-57800828D01*
X169383082Y-57800828D02*
X169525939Y-57800828D01*
X169525939Y-57800828D02*
X169740225Y-57872257D01*
X169740225Y-57872257D02*
X169811653Y-57943685D01*
X170454510Y-59300828D02*
X170454510Y-57800828D01*
X170454510Y-57800828D02*
X171025939Y-57800828D01*
X171025939Y-57800828D02*
X171168796Y-57872257D01*
X171168796Y-57872257D02*
X171240225Y-57943685D01*
X171240225Y-57943685D02*
X171311653Y-58086542D01*
X171311653Y-58086542D02*
X171311653Y-58300828D01*
X171311653Y-58300828D02*
X171240225Y-58443685D01*
X171240225Y-58443685D02*
X171168796Y-58515114D01*
X171168796Y-58515114D02*
X171025939Y-58586542D01*
X171025939Y-58586542D02*
X170454510Y-58586542D01*
X171954510Y-58729400D02*
X173097368Y-58729400D01*
X174311653Y-58515114D02*
X173811653Y-58515114D01*
X173811653Y-59300828D02*
X173811653Y-57800828D01*
X173811653Y-57800828D02*
X174525939Y-57800828D01*
X175597367Y-58515114D02*
X175097367Y-58515114D01*
X175097367Y-59300828D02*
X175097367Y-57800828D01*
X175097367Y-57800828D02*
X175811653Y-57800828D01*
X177240224Y-59157971D02*
X177168796Y-59229400D01*
X177168796Y-59229400D02*
X176954510Y-59300828D01*
X176954510Y-59300828D02*
X176811653Y-59300828D01*
X176811653Y-59300828D02*
X176597367Y-59229400D01*
X176597367Y-59229400D02*
X176454510Y-59086542D01*
X176454510Y-59086542D02*
X176383081Y-58943685D01*
X176383081Y-58943685D02*
X176311653Y-58657971D01*
X176311653Y-58657971D02*
X176311653Y-58443685D01*
X176311653Y-58443685D02*
X176383081Y-58157971D01*
X176383081Y-58157971D02*
X176454510Y-58015114D01*
X176454510Y-58015114D02*
X176597367Y-57872257D01*
X176597367Y-57872257D02*
X176811653Y-57800828D01*
X176811653Y-57800828D02*
X176954510Y-57800828D01*
X176954510Y-57800828D02*
X177168796Y-57872257D01*
X177168796Y-57872257D02*
X177240224Y-57943685D01*
D11*
X176465789Y-81409133D02*
X176132455Y-81409133D01*
X176132455Y-81409133D02*
X176099122Y-81742466D01*
X176099122Y-81742466D02*
X176132455Y-81709133D01*
X176132455Y-81709133D02*
X176199122Y-81675800D01*
X176199122Y-81675800D02*
X176365789Y-81675800D01*
X176365789Y-81675800D02*
X176432455Y-81709133D01*
X176432455Y-81709133D02*
X176465789Y-81742466D01*
X176465789Y-81742466D02*
X176499122Y-81809133D01*
X176499122Y-81809133D02*
X176499122Y-81975800D01*
X176499122Y-81975800D02*
X176465789Y-82042466D01*
X176465789Y-82042466D02*
X176432455Y-82075800D01*
X176432455Y-82075800D02*
X176365789Y-82109133D01*
X176365789Y-82109133D02*
X176199122Y-82109133D01*
X176199122Y-82109133D02*
X176132455Y-82075800D01*
X176132455Y-82075800D02*
X176099122Y-82042466D01*
X176732456Y-81409133D02*
X177199122Y-81409133D01*
X177199122Y-81409133D02*
X176899122Y-82109133D01*
D10*
X177336779Y-76669819D02*
X177336779Y-75669819D01*
X177336779Y-75669819D02*
X177717731Y-75669819D01*
X177717731Y-75669819D02*
X177812969Y-75717438D01*
X177812969Y-75717438D02*
X177860588Y-75765057D01*
X177860588Y-75765057D02*
X177908207Y-75860295D01*
X177908207Y-75860295D02*
X177908207Y-76003152D01*
X177908207Y-76003152D02*
X177860588Y-76098390D01*
X177860588Y-76098390D02*
X177812969Y-76146009D01*
X177812969Y-76146009D02*
X177717731Y-76193628D01*
X177717731Y-76193628D02*
X177336779Y-76193628D01*
X178336779Y-76669819D02*
X178336779Y-75669819D01*
X179146302Y-76146009D02*
X178812969Y-76146009D01*
X178812969Y-76669819D02*
X178812969Y-75669819D01*
X178812969Y-75669819D02*
X179289159Y-75669819D01*
X166008207Y-60874580D02*
X165960588Y-60922200D01*
X165960588Y-60922200D02*
X165817731Y-60969819D01*
X165817731Y-60969819D02*
X165722493Y-60969819D01*
X165722493Y-60969819D02*
X165579636Y-60922200D01*
X165579636Y-60922200D02*
X165484398Y-60826961D01*
X165484398Y-60826961D02*
X165436779Y-60731723D01*
X165436779Y-60731723D02*
X165389160Y-60541247D01*
X165389160Y-60541247D02*
X165389160Y-60398390D01*
X165389160Y-60398390D02*
X165436779Y-60207914D01*
X165436779Y-60207914D02*
X165484398Y-60112676D01*
X165484398Y-60112676D02*
X165579636Y-60017438D01*
X165579636Y-60017438D02*
X165722493Y-59969819D01*
X165722493Y-59969819D02*
X165817731Y-59969819D01*
X165817731Y-59969819D02*
X165960588Y-60017438D01*
X165960588Y-60017438D02*
X166008207Y-60065057D01*
X166436779Y-60969819D02*
X166436779Y-60303152D01*
X166436779Y-60493628D02*
X166484398Y-60398390D01*
X166484398Y-60398390D02*
X166532017Y-60350771D01*
X166532017Y-60350771D02*
X166627255Y-60303152D01*
X166627255Y-60303152D02*
X166722493Y-60303152D01*
X167484398Y-60969819D02*
X167484398Y-60446009D01*
X167484398Y-60446009D02*
X167436779Y-60350771D01*
X167436779Y-60350771D02*
X167341541Y-60303152D01*
X167341541Y-60303152D02*
X167151065Y-60303152D01*
X167151065Y-60303152D02*
X167055827Y-60350771D01*
X167484398Y-60922200D02*
X167389160Y-60969819D01*
X167389160Y-60969819D02*
X167151065Y-60969819D01*
X167151065Y-60969819D02*
X167055827Y-60922200D01*
X167055827Y-60922200D02*
X167008208Y-60826961D01*
X167008208Y-60826961D02*
X167008208Y-60731723D01*
X167008208Y-60731723D02*
X167055827Y-60636485D01*
X167055827Y-60636485D02*
X167151065Y-60588866D01*
X167151065Y-60588866D02*
X167389160Y-60588866D01*
X167389160Y-60588866D02*
X167484398Y-60541247D01*
X167865351Y-60303152D02*
X168389160Y-60303152D01*
X168389160Y-60303152D02*
X167865351Y-60969819D01*
X167865351Y-60969819D02*
X168389160Y-60969819D01*
X168674875Y-60303152D02*
X168912970Y-60969819D01*
X169151065Y-60303152D02*
X168912970Y-60969819D01*
X168912970Y-60969819D02*
X168817732Y-61207914D01*
X168817732Y-61207914D02*
X168770113Y-61255533D01*
X168770113Y-61255533D02*
X168674875Y-61303152D01*
X170055827Y-60017438D02*
X169960589Y-59969819D01*
X169960589Y-59969819D02*
X169817732Y-59969819D01*
X169817732Y-59969819D02*
X169674875Y-60017438D01*
X169674875Y-60017438D02*
X169579637Y-60112676D01*
X169579637Y-60112676D02*
X169532018Y-60207914D01*
X169532018Y-60207914D02*
X169484399Y-60398390D01*
X169484399Y-60398390D02*
X169484399Y-60541247D01*
X169484399Y-60541247D02*
X169532018Y-60731723D01*
X169532018Y-60731723D02*
X169579637Y-60826961D01*
X169579637Y-60826961D02*
X169674875Y-60922200D01*
X169674875Y-60922200D02*
X169817732Y-60969819D01*
X169817732Y-60969819D02*
X169912970Y-60969819D01*
X169912970Y-60969819D02*
X170055827Y-60922200D01*
X170055827Y-60922200D02*
X170103446Y-60874580D01*
X170103446Y-60874580D02*
X170103446Y-60541247D01*
X170103446Y-60541247D02*
X169912970Y-60541247D01*
X170960589Y-60969819D02*
X170960589Y-60446009D01*
X170960589Y-60446009D02*
X170912970Y-60350771D01*
X170912970Y-60350771D02*
X170817732Y-60303152D01*
X170817732Y-60303152D02*
X170627256Y-60303152D01*
X170627256Y-60303152D02*
X170532018Y-60350771D01*
X170960589Y-60922200D02*
X170865351Y-60969819D01*
X170865351Y-60969819D02*
X170627256Y-60969819D01*
X170627256Y-60969819D02*
X170532018Y-60922200D01*
X170532018Y-60922200D02*
X170484399Y-60826961D01*
X170484399Y-60826961D02*
X170484399Y-60731723D01*
X170484399Y-60731723D02*
X170532018Y-60636485D01*
X170532018Y-60636485D02*
X170627256Y-60588866D01*
X170627256Y-60588866D02*
X170865351Y-60588866D01*
X170865351Y-60588866D02*
X170960589Y-60541247D01*
X171865351Y-60969819D02*
X171865351Y-59969819D01*
X171865351Y-60922200D02*
X171770113Y-60969819D01*
X171770113Y-60969819D02*
X171579637Y-60969819D01*
X171579637Y-60969819D02*
X171484399Y-60922200D01*
X171484399Y-60922200D02*
X171436780Y-60874580D01*
X171436780Y-60874580D02*
X171389161Y-60779342D01*
X171389161Y-60779342D02*
X171389161Y-60493628D01*
X171389161Y-60493628D02*
X171436780Y-60398390D01*
X171436780Y-60398390D02*
X171484399Y-60350771D01*
X171484399Y-60350771D02*
X171579637Y-60303152D01*
X171579637Y-60303152D02*
X171770113Y-60303152D01*
X171770113Y-60303152D02*
X171865351Y-60350771D01*
X172770113Y-60303152D02*
X172770113Y-61112676D01*
X172770113Y-61112676D02*
X172722494Y-61207914D01*
X172722494Y-61207914D02*
X172674875Y-61255533D01*
X172674875Y-61255533D02*
X172579637Y-61303152D01*
X172579637Y-61303152D02*
X172436780Y-61303152D01*
X172436780Y-61303152D02*
X172341542Y-61255533D01*
X172770113Y-60922200D02*
X172674875Y-60969819D01*
X172674875Y-60969819D02*
X172484399Y-60969819D01*
X172484399Y-60969819D02*
X172389161Y-60922200D01*
X172389161Y-60922200D02*
X172341542Y-60874580D01*
X172341542Y-60874580D02*
X172293923Y-60779342D01*
X172293923Y-60779342D02*
X172293923Y-60493628D01*
X172293923Y-60493628D02*
X172341542Y-60398390D01*
X172341542Y-60398390D02*
X172389161Y-60350771D01*
X172389161Y-60350771D02*
X172484399Y-60303152D01*
X172484399Y-60303152D02*
X172674875Y-60303152D01*
X172674875Y-60303152D02*
X172770113Y-60350771D01*
X173627256Y-60922200D02*
X173532018Y-60969819D01*
X173532018Y-60969819D02*
X173341542Y-60969819D01*
X173341542Y-60969819D02*
X173246304Y-60922200D01*
X173246304Y-60922200D02*
X173198685Y-60826961D01*
X173198685Y-60826961D02*
X173198685Y-60446009D01*
X173198685Y-60446009D02*
X173246304Y-60350771D01*
X173246304Y-60350771D02*
X173341542Y-60303152D01*
X173341542Y-60303152D02*
X173532018Y-60303152D01*
X173532018Y-60303152D02*
X173627256Y-60350771D01*
X173627256Y-60350771D02*
X173674875Y-60446009D01*
X173674875Y-60446009D02*
X173674875Y-60541247D01*
X173674875Y-60541247D02*
X173198685Y-60636485D01*
X173960590Y-60303152D02*
X174341542Y-60303152D01*
X174103447Y-59969819D02*
X174103447Y-60826961D01*
X174103447Y-60826961D02*
X174151066Y-60922200D01*
X174151066Y-60922200D02*
X174246304Y-60969819D01*
X174246304Y-60969819D02*
X174341542Y-60969819D01*
X175389162Y-60065057D02*
X175436781Y-60017438D01*
X175436781Y-60017438D02*
X175532019Y-59969819D01*
X175532019Y-59969819D02*
X175770114Y-59969819D01*
X175770114Y-59969819D02*
X175865352Y-60017438D01*
X175865352Y-60017438D02*
X175912971Y-60065057D01*
X175912971Y-60065057D02*
X175960590Y-60160295D01*
X175960590Y-60160295D02*
X175960590Y-60255533D01*
X175960590Y-60255533D02*
X175912971Y-60398390D01*
X175912971Y-60398390D02*
X175341543Y-60969819D01*
X175341543Y-60969819D02*
X175960590Y-60969819D01*
X176579638Y-59969819D02*
X176674876Y-59969819D01*
X176674876Y-59969819D02*
X176770114Y-60017438D01*
X176770114Y-60017438D02*
X176817733Y-60065057D01*
X176817733Y-60065057D02*
X176865352Y-60160295D01*
X176865352Y-60160295D02*
X176912971Y-60350771D01*
X176912971Y-60350771D02*
X176912971Y-60588866D01*
X176912971Y-60588866D02*
X176865352Y-60779342D01*
X176865352Y-60779342D02*
X176817733Y-60874580D01*
X176817733Y-60874580D02*
X176770114Y-60922200D01*
X176770114Y-60922200D02*
X176674876Y-60969819D01*
X176674876Y-60969819D02*
X176579638Y-60969819D01*
X176579638Y-60969819D02*
X176484400Y-60922200D01*
X176484400Y-60922200D02*
X176436781Y-60874580D01*
X176436781Y-60874580D02*
X176389162Y-60779342D01*
X176389162Y-60779342D02*
X176341543Y-60588866D01*
X176341543Y-60588866D02*
X176341543Y-60350771D01*
X176341543Y-60350771D02*
X176389162Y-60160295D01*
X176389162Y-60160295D02*
X176436781Y-60065057D01*
X176436781Y-60065057D02*
X176484400Y-60017438D01*
X176484400Y-60017438D02*
X176579638Y-59969819D01*
X177293924Y-60065057D02*
X177341543Y-60017438D01*
X177341543Y-60017438D02*
X177436781Y-59969819D01*
X177436781Y-59969819D02*
X177674876Y-59969819D01*
X177674876Y-59969819D02*
X177770114Y-60017438D01*
X177770114Y-60017438D02*
X177817733Y-60065057D01*
X177817733Y-60065057D02*
X177865352Y-60160295D01*
X177865352Y-60160295D02*
X177865352Y-60255533D01*
X177865352Y-60255533D02*
X177817733Y-60398390D01*
X177817733Y-60398390D02*
X177246305Y-60969819D01*
X177246305Y-60969819D02*
X177865352Y-60969819D01*
X178722495Y-60303152D02*
X178722495Y-60969819D01*
X178484400Y-59922200D02*
X178246305Y-60636485D01*
X178246305Y-60636485D02*
X178865352Y-60636485D01*
D13*
%TO.C,TP38*%
X178800000Y-79705200D02*
G75*
G03*
X178800000Y-79705200I-700000J0D01*
G01*
%TO.C,TP37*%
X176800000Y-79700000D02*
G75*
G03*
X176800000Y-79700000I-700000J0D01*
G01*
%TO.C,TP34*%
X176798200Y-77647800D02*
G75*
G03*
X176798200Y-77647800I-700000J0D01*
G01*
%TO.C,TP35*%
X178830200Y-77673200D02*
G75*
G03*
X178830200Y-77673200I-700000J0D01*
G01*
%TO.C,TP40*%
X180800000Y-81700000D02*
G75*
G03*
X180800000Y-81700000I-700000J0D01*
G01*
D14*
%TO.C,J1*%
X181816400Y-82015400D02*
X183746400Y-82015400D01*
X185766400Y-82015400D02*
X185766400Y-81215400D01*
X181816400Y-81365400D02*
X181816400Y-82015400D01*
X182216400Y-81365400D02*
X181816400Y-81365400D01*
X182216400Y-81365400D02*
X182216400Y-79885400D01*
X185766400Y-81215400D02*
X187066400Y-81215400D01*
X187066400Y-81215400D02*
X187066400Y-58115400D01*
X182216400Y-59445400D02*
X182216400Y-57965400D01*
X185766400Y-58115400D02*
X185766400Y-57315400D01*
X187066400Y-58115400D02*
X185766400Y-58115400D01*
X181816400Y-57965400D02*
X182216400Y-57965400D01*
X181816400Y-57315400D02*
X181816400Y-57965400D01*
X183746400Y-57315400D02*
X181816400Y-57315400D01*
D15*
X181041400Y-59915400D02*
G75*
G03*
X181041400Y-59915400I-100000J0D01*
G01*
D13*
%TO.C,TP39*%
X178800000Y-81700000D02*
G75*
G03*
X178800000Y-81700000I-700000J0D01*
G01*
%TO.C,TP36*%
X180862200Y-77647800D02*
G75*
G03*
X180862200Y-77647800I-700000J0D01*
G01*
%TD*%
M02*
