%TF.GenerationSoftware,KiCad,Pcbnew,7.0.7*%
%TF.CreationDate,2024-03-24T16:36:29-04:00*%
%TF.ProjectId,RCP-FLEX,5243502d-464c-4455-982e-6b696361645f,rev?*%
%TF.SameCoordinates,Original*%
%TF.FileFunction,Soldermask,Top*%
%TF.FilePolarity,Negative*%
%FSLAX46Y46*%
G04 Gerber Fmt 4.6, Leading zero omitted, Abs format (unit mm)*
G04 Created by KiCad (PCBNEW 7.0.7) date 2024-03-24 16:36:29*
%MOMM*%
%LPD*%
G01*
G04 APERTURE LIST*
%ADD10C,1.000000*%
%ADD11O,0.400000X1.000000*%
%ADD12O,1.000000X0.400000*%
G04 APERTURE END LIST*
D10*
%TO.C,TP51*%
X171900000Y-60050000D03*
%TD*%
%TO.C,TP51*%
X173300000Y-61550000D03*
%TD*%
%TO.C,TP51*%
X177700000Y-65850000D03*
%TD*%
%TO.C,TP51*%
X176200000Y-64450000D03*
%TD*%
%TO.C,TP51*%
X174800000Y-62950000D03*
%TD*%
%TO.C,TP59*%
X177700000Y-72125000D03*
%TD*%
D11*
%TO.C,TP2*%
X160415000Y-63500000D03*
%TD*%
%TO.C,TP9*%
X164965000Y-63500000D03*
%TD*%
D10*
%TO.C,TP42*%
X165325000Y-60200000D03*
%TD*%
%TO.C,TP38*%
X161225000Y-60200000D03*
%TD*%
%TO.C,TP57*%
X177700000Y-70075000D03*
%TD*%
D12*
%TO.C,TP31*%
X174390000Y-74910000D03*
%TD*%
D10*
%TO.C,TP58*%
X179475000Y-71100000D03*
%TD*%
%TO.C,TP54*%
X179475000Y-69050000D03*
%TD*%
D11*
%TO.C,TP5*%
X162365000Y-63500000D03*
%TD*%
D10*
%TO.C,TP66*%
X179475000Y-75200000D03*
%TD*%
D12*
%TO.C,TP24*%
X174390000Y-70360000D03*
%TD*%
D11*
%TO.C,TP1*%
X159765000Y-63500000D03*
%TD*%
%TO.C,TP6*%
X163015000Y-63500000D03*
%TD*%
D12*
%TO.C,TP23*%
X174390000Y-69710000D03*
%TD*%
D11*
%TO.C,TP14*%
X168215000Y-63500000D03*
%TD*%
D10*
%TO.C,TP35*%
X160200000Y-58425000D03*
%TD*%
D11*
%TO.C,TP11*%
X166265000Y-63500000D03*
%TD*%
D10*
%TO.C,TP45*%
X166350000Y-58425000D03*
%TD*%
D11*
%TO.C,TP18*%
X170815000Y-63500000D03*
%TD*%
%TO.C,TP17*%
X170165000Y-63500000D03*
%TD*%
%TO.C,TP4*%
X161715000Y-63500000D03*
%TD*%
%TO.C,TP10*%
X165615000Y-63500000D03*
%TD*%
D12*
%TO.C,TP29*%
X174390000Y-73610000D03*
%TD*%
%TO.C,TP27*%
X174390000Y-72310000D03*
%TD*%
D10*
%TO.C,TP40*%
X163275000Y-60200000D03*
%TD*%
D11*
%TO.C,TP15*%
X168865000Y-63500000D03*
%TD*%
%TO.C,TP12*%
X166915000Y-63500000D03*
%TD*%
D10*
%TO.C,TP34*%
X159175000Y-60200000D03*
%TD*%
%TO.C,TP52*%
X179475000Y-67000000D03*
%TD*%
D11*
%TO.C,TP7*%
X163665000Y-63500000D03*
%TD*%
%TO.C,TP8*%
X164315000Y-63500000D03*
%TD*%
%TO.C,TP16*%
X169515000Y-63500000D03*
%TD*%
D10*
%TO.C,TP39*%
X162250000Y-58425000D03*
%TD*%
%TO.C,TP51*%
X170450000Y-58425000D03*
%TD*%
D12*
%TO.C,TP20*%
X174390000Y-67760000D03*
%TD*%
%TO.C,TP25*%
X174390000Y-71010000D03*
%TD*%
D10*
%TO.C,TP48*%
X169425000Y-60200000D03*
%TD*%
D12*
%TO.C,TP21*%
X174390000Y-68410000D03*
%TD*%
%TO.C,TP22*%
X174390000Y-69060000D03*
%TD*%
D10*
%TO.C,TP61*%
X177700000Y-74175000D03*
%TD*%
D11*
%TO.C,TP3*%
X161065000Y-63500000D03*
%TD*%
D12*
%TO.C,TP30*%
X174390000Y-74260000D03*
%TD*%
D10*
%TO.C,TP60*%
X179475000Y-73150000D03*
%TD*%
D12*
%TO.C,TP19*%
X174390000Y-67110000D03*
%TD*%
%TO.C,TP33*%
X174390000Y-76210000D03*
%TD*%
D10*
%TO.C,TP53*%
X177700000Y-68025000D03*
%TD*%
D12*
%TO.C,TP28*%
X174390000Y-72960000D03*
%TD*%
D10*
%TO.C,TP41*%
X164300000Y-58425000D03*
%TD*%
D12*
%TO.C,TP26*%
X174390000Y-71660000D03*
%TD*%
%TO.C,TP32*%
X174390000Y-75560000D03*
%TD*%
D11*
%TO.C,TP13*%
X167565000Y-63500000D03*
%TD*%
D10*
%TO.C,TP47*%
X168400000Y-58425000D03*
%TD*%
%TO.C,TP46*%
X167375000Y-60200000D03*
%TD*%
M02*
