%TF.GenerationSoftware,KiCad,Pcbnew,7.0.7*%
%TF.CreationDate,2024-03-24T16:36:28-04:00*%
%TF.ProjectId,RCP-FLEX,5243502d-464c-4455-982e-6b696361645f,rev?*%
%TF.SameCoordinates,Original*%
%TF.FileFunction,Copper,L1,Top*%
%TF.FilePolarity,Positive*%
%FSLAX46Y46*%
G04 Gerber Fmt 4.6, Leading zero omitted, Abs format (unit mm)*
G04 Created by KiCad (PCBNEW 7.0.7) date 2024-03-24 16:36:28*
%MOMM*%
%LPD*%
G01*
G04 APERTURE LIST*
%TA.AperFunction,SMDPad,CuDef*%
%ADD10C,1.000000*%
%TD*%
%TA.AperFunction,ComponentPad*%
%ADD11O,0.400000X1.000000*%
%TD*%
%TA.AperFunction,ComponentPad*%
%ADD12O,1.000000X0.400000*%
%TD*%
%TA.AperFunction,ViaPad*%
%ADD13C,0.800000*%
%TD*%
%TA.AperFunction,ViaPad*%
%ADD14C,0.400000*%
%TD*%
%TA.AperFunction,Conductor*%
%ADD15C,0.100000*%
%TD*%
%TA.AperFunction,Conductor*%
%ADD16C,0.250000*%
%TD*%
G04 APERTURE END LIST*
D10*
%TO.P,TP51,1,1*%
%TO.N,GND*%
X171900000Y-60050000D03*
%TD*%
%TO.P,TP51,1,1*%
%TO.N,GND*%
X173300000Y-61550000D03*
%TD*%
%TO.P,TP51,1,1*%
%TO.N,GND*%
X177700000Y-65850000D03*
%TD*%
%TO.P,TP51,1,1*%
%TO.N,GND*%
X176200000Y-64450000D03*
%TD*%
%TO.P,TP51,1,1*%
%TO.N,GND*%
X174800000Y-62950000D03*
%TD*%
%TO.P,TP59,1,1*%
%TO.N,Net-(TP26-Pad1)*%
X177700000Y-72125000D03*
%TD*%
D11*
%TO.P,TP2,1,1*%
%TO.N,Net-(TP2-Pad1)*%
X160415000Y-63500000D03*
%TD*%
%TO.P,TP9,1,1*%
%TO.N,Net-(TP42-Pad1)*%
X164965000Y-63500000D03*
%TD*%
D10*
%TO.P,TP42,1,1*%
%TO.N,Net-(TP42-Pad1)*%
X165325000Y-60200000D03*
%TD*%
%TO.P,TP38,1,1*%
%TO.N,Net-(TP38-Pad1)*%
X161225000Y-60200000D03*
%TD*%
%TO.P,TP57,1,1*%
%TO.N,Net-(TP24-Pad1)*%
X177700000Y-70075000D03*
%TD*%
D12*
%TO.P,TP31,1,1*%
%TO.N,GND*%
X174390000Y-74910000D03*
%TD*%
D10*
%TO.P,TP58,1,1*%
%TO.N,Net-(TP25-Pad1)*%
X179475000Y-71100000D03*
%TD*%
%TO.P,TP54,1,1*%
%TO.N,Net-(TP21-Pad1)*%
X179475000Y-69050000D03*
%TD*%
D11*
%TO.P,TP5,1,1*%
%TO.N,Net-(TP38-Pad1)*%
X162365000Y-63500000D03*
%TD*%
D10*
%TO.P,TP66,1,1*%
%TO.N,Net-(TP33-Pad1)*%
X179475000Y-75200000D03*
%TD*%
D12*
%TO.P,TP24,1,1*%
%TO.N,Net-(TP24-Pad1)*%
X174390000Y-70360000D03*
%TD*%
D11*
%TO.P,TP1,1,1*%
%TO.N,Net-(TP1-Pad1)*%
X159765000Y-63500000D03*
%TD*%
%TO.P,TP6,1,1*%
%TO.N,Net-(TP39-Pad1)*%
X163015000Y-63500000D03*
%TD*%
D12*
%TO.P,TP23,1,1*%
%TO.N,GND*%
X174390000Y-69710000D03*
%TD*%
D11*
%TO.P,TP14,1,1*%
%TO.N,Net-(TP14-Pad1)*%
X168215000Y-63500000D03*
%TD*%
D10*
%TO.P,TP35,1,1*%
%TO.N,Net-(TP2-Pad1)*%
X160200000Y-58425000D03*
%TD*%
D11*
%TO.P,TP11,1,1*%
%TO.N,GND*%
X166265000Y-63500000D03*
%TD*%
D10*
%TO.P,TP45,1,1*%
%TO.N,Net-(TP12-Pad1)*%
X166350000Y-58425000D03*
%TD*%
D11*
%TO.P,TP18,1,1*%
%TO.N,Net-(TP18-Pad1)*%
X170815000Y-63500000D03*
%TD*%
%TO.P,TP17,1,1*%
%TO.N,GND*%
X170165000Y-63500000D03*
%TD*%
%TO.P,TP4,1,1*%
%TO.N,GND*%
X161715000Y-63500000D03*
%TD*%
%TO.P,TP10,1,1*%
%TO.N,unconnected-(TP10-Pad1)*%
X165615000Y-63500000D03*
%TD*%
D12*
%TO.P,TP29,1,1*%
%TO.N,GND*%
X174390000Y-73610000D03*
%TD*%
%TO.P,TP27,1,1*%
%TO.N,Net-(TP27-Pad1)*%
X174390000Y-72310000D03*
%TD*%
D10*
%TO.P,TP40,1,1*%
%TO.N,Net-(TP40-Pad1)*%
X163275000Y-60200000D03*
%TD*%
D11*
%TO.P,TP15,1,1*%
%TO.N,Net-(TP15-Pad1)*%
X168865000Y-63500000D03*
%TD*%
%TO.P,TP12,1,1*%
%TO.N,Net-(TP12-Pad1)*%
X166915000Y-63500000D03*
%TD*%
D10*
%TO.P,TP34,1,1*%
%TO.N,Net-(TP1-Pad1)*%
X159175000Y-60200000D03*
%TD*%
%TO.P,TP52,1,1*%
%TO.N,Net-(TP19-Pad1)*%
X179475000Y-67000000D03*
%TD*%
D11*
%TO.P,TP7,1,1*%
%TO.N,Net-(TP40-Pad1)*%
X163665000Y-63500000D03*
%TD*%
%TO.P,TP8,1,1*%
%TO.N,Net-(TP41-Pad1)*%
X164315000Y-63500000D03*
%TD*%
%TO.P,TP16,1,1*%
%TO.N,unconnected-(TP16-Pad1)*%
X169515000Y-63500000D03*
%TD*%
D10*
%TO.P,TP39,1,1*%
%TO.N,Net-(TP39-Pad1)*%
X162250000Y-58425000D03*
%TD*%
%TO.P,TP51,1,1*%
%TO.N,Net-(TP18-Pad1)*%
X170450000Y-58425000D03*
%TD*%
D12*
%TO.P,TP20,1,1*%
%TO.N,Net-(TP20-Pad1)*%
X174390000Y-67760000D03*
%TD*%
%TO.P,TP25,1,1*%
%TO.N,Net-(TP25-Pad1)*%
X174390000Y-71010000D03*
%TD*%
D10*
%TO.P,TP48,1,1*%
%TO.N,Net-(TP15-Pad1)*%
X169425000Y-60200000D03*
%TD*%
D12*
%TO.P,TP21,1,1*%
%TO.N,Net-(TP21-Pad1)*%
X174390000Y-68410000D03*
%TD*%
%TO.P,TP22,1,1*%
%TO.N,unconnected-(TP22-Pad1)*%
X174390000Y-69060000D03*
%TD*%
D10*
%TO.P,TP61,1,1*%
%TO.N,Net-(TP28-Pad1)*%
X177700000Y-74175000D03*
%TD*%
D11*
%TO.P,TP3,1,1*%
%TO.N,unconnected-(TP3-Pad1)*%
X161065000Y-63500000D03*
%TD*%
D12*
%TO.P,TP30,1,1*%
%TO.N,unconnected-(TP30-Pad1)*%
X174390000Y-74260000D03*
%TD*%
D10*
%TO.P,TP60,1,1*%
%TO.N,Net-(TP27-Pad1)*%
X179475000Y-73150000D03*
%TD*%
D12*
%TO.P,TP19,1,1*%
%TO.N,Net-(TP19-Pad1)*%
X174390000Y-67110000D03*
%TD*%
%TO.P,TP33,1,1*%
%TO.N,Net-(TP33-Pad1)*%
X174390000Y-76210000D03*
%TD*%
D10*
%TO.P,TP53,1,1*%
%TO.N,Net-(TP20-Pad1)*%
X177700000Y-68025000D03*
%TD*%
D12*
%TO.P,TP28,1,1*%
%TO.N,Net-(TP28-Pad1)*%
X174390000Y-72960000D03*
%TD*%
D10*
%TO.P,TP41,1,1*%
%TO.N,Net-(TP41-Pad1)*%
X164300000Y-58425000D03*
%TD*%
D12*
%TO.P,TP26,1,1*%
%TO.N,Net-(TP26-Pad1)*%
X174390000Y-71660000D03*
%TD*%
%TO.P,TP32,1,1*%
%TO.N,unconnected-(TP32-Pad1)*%
X174390000Y-75560000D03*
%TD*%
D11*
%TO.P,TP13,1,1*%
%TO.N,Net-(TP13-Pad1)*%
X167565000Y-63500000D03*
%TD*%
D10*
%TO.P,TP47,1,1*%
%TO.N,Net-(TP14-Pad1)*%
X168400000Y-58425000D03*
%TD*%
%TO.P,TP46,1,1*%
%TO.N,Net-(TP13-Pad1)*%
X167375000Y-60200000D03*
%TD*%
D13*
%TO.N,GND*%
X173325000Y-60125000D03*
X174725000Y-61525000D03*
X176225000Y-63025000D03*
X177625000Y-64425000D03*
X176275000Y-65875000D03*
X174775000Y-64375000D03*
X173375000Y-62975000D03*
X171875000Y-61475000D03*
D14*
%TO.N,Net-(TP1-Pad1)*%
X159760000Y-63200000D03*
%TO.N,Net-(TP2-Pad1)*%
X160410000Y-63200000D03*
%TO.N,Net-(TP38-Pad1)*%
X162360000Y-63200000D03*
%TO.N,Net-(TP39-Pad1)*%
X163010000Y-63200000D03*
%TO.N,Net-(TP40-Pad1)*%
X163660000Y-63200000D03*
%TO.N,Net-(TP41-Pad1)*%
X164310000Y-63200000D03*
%TO.N,Net-(TP42-Pad1)*%
X164960000Y-63200000D03*
%TO.N,Net-(TP12-Pad1)*%
X166910000Y-63200000D03*
%TO.N,Net-(TP13-Pad1)*%
X167560000Y-63200000D03*
%TO.N,Net-(TP14-Pad1)*%
X168210000Y-63200000D03*
%TO.N,Net-(TP15-Pad1)*%
X168860000Y-63200000D03*
%TO.N,Net-(TP18-Pad1)*%
X170810000Y-63200000D03*
%TO.N,Net-(TP19-Pad1)*%
X174690000Y-67110000D03*
%TO.N,Net-(TP20-Pad1)*%
X174690000Y-67760000D03*
%TO.N,Net-(TP21-Pad1)*%
X174690000Y-68410000D03*
%TO.N,Net-(TP24-Pad1)*%
X174690000Y-70360000D03*
%TO.N,Net-(TP25-Pad1)*%
X174690000Y-71010000D03*
%TO.N,Net-(TP26-Pad1)*%
X174690000Y-71660000D03*
%TO.N,Net-(TP27-Pad1)*%
X174690000Y-72310000D03*
%TO.N,Net-(TP28-Pad1)*%
X174690000Y-72960000D03*
%TO.N,Net-(TP33-Pad1)*%
X174690000Y-76210000D03*
%TO.N,unconnected-(TP3-Pad1)*%
X161070000Y-63200000D03*
%TO.N,unconnected-(TP10-Pad1)*%
X165620000Y-63200000D03*
%TO.N,unconnected-(TP16-Pad1)*%
X169510000Y-63200000D03*
%TO.N,unconnected-(TP22-Pad1)*%
X174690000Y-69060000D03*
%TO.N,unconnected-(TP30-Pad1)*%
X174690000Y-74260000D03*
%TO.N,unconnected-(TP32-Pad1)*%
X174690000Y-75560000D03*
%TO.N,GND*%
X174690000Y-73610000D03*
X170160000Y-63200000D03*
X174690000Y-69710000D03*
X174690000Y-74910000D03*
X166260000Y-63200000D03*
X161720000Y-63200000D03*
%TD*%
D15*
%TO.N,Net-(TP1-Pad1)*%
X159765000Y-63205000D02*
X159760000Y-63200000D01*
D16*
X159760000Y-61760000D02*
X159760000Y-63200000D01*
X159175000Y-61175000D02*
X159760000Y-61760000D01*
D15*
X159765000Y-63500000D02*
X159765000Y-63205000D01*
D16*
X159175000Y-60200000D02*
X159175000Y-61175000D01*
D15*
%TO.N,Net-(TP2-Pad1)*%
X160415000Y-63205000D02*
X160410000Y-63200000D01*
X160415000Y-63500000D02*
X160415000Y-63205000D01*
D16*
X160410000Y-61435000D02*
X160410000Y-63200000D01*
X160200000Y-61225000D02*
X160410000Y-61435000D01*
X160200000Y-58425000D02*
X160200000Y-61225000D01*
D15*
%TO.N,Net-(TP38-Pad1)*%
X162365000Y-63500000D02*
X162365000Y-63205000D01*
D16*
X162360000Y-62285000D02*
X162360000Y-63200000D01*
D15*
X162365000Y-63205000D02*
X162360000Y-63200000D01*
D16*
X161225000Y-61150000D02*
X162360000Y-62285000D01*
X161225000Y-60200000D02*
X161225000Y-61150000D01*
D15*
%TO.N,Net-(TP39-Pad1)*%
X163015000Y-63205000D02*
X163010000Y-63200000D01*
D16*
X162250000Y-58425000D02*
X162250000Y-61250000D01*
D15*
X163015000Y-63500000D02*
X163015000Y-63205000D01*
D16*
X163010000Y-62010000D02*
X163010000Y-63200000D01*
X162250000Y-61250000D02*
X163010000Y-62010000D01*
D15*
%TO.N,Net-(TP40-Pad1)*%
X163665000Y-63500000D02*
X163665000Y-63205000D01*
D16*
X163275000Y-60200000D02*
X163275000Y-61225000D01*
X163660000Y-61610000D02*
X163660000Y-63200000D01*
D15*
X163665000Y-63205000D02*
X163660000Y-63200000D01*
D16*
X163275000Y-61225000D02*
X163660000Y-61610000D01*
D15*
%TO.N,Net-(TP41-Pad1)*%
X164315000Y-63500000D02*
X164315000Y-63205000D01*
X164315000Y-63205000D02*
X164310000Y-63200000D01*
D16*
X164300000Y-58425000D02*
X164300000Y-63190000D01*
X164300000Y-63190000D02*
X164310000Y-63200000D01*
%TO.N,Net-(TP42-Pad1)*%
X165325000Y-60200000D02*
X165325000Y-61250000D01*
D15*
X164965000Y-63500000D02*
X164965000Y-63205000D01*
X164965000Y-63205000D02*
X164960000Y-63200000D01*
D16*
X165325000Y-61250000D02*
X164960000Y-61615000D01*
X164960000Y-61615000D02*
X164960000Y-63200000D01*
%TO.N,Net-(TP12-Pad1)*%
X166350000Y-61250000D02*
X166910000Y-61810000D01*
D15*
X166915000Y-63205000D02*
X166910000Y-63200000D01*
D16*
X166910000Y-61810000D02*
X166910000Y-63200000D01*
X166350000Y-58425000D02*
X166350000Y-61250000D01*
D15*
X166915000Y-63500000D02*
X166915000Y-63205000D01*
D16*
%TO.N,Net-(TP13-Pad1)*%
X167375000Y-61175000D02*
X167560000Y-61360000D01*
D15*
X167565000Y-63205000D02*
X167560000Y-63200000D01*
X167565000Y-63500000D02*
X167565000Y-63205000D01*
D16*
X167375000Y-60200000D02*
X167375000Y-61175000D01*
X167560000Y-61360000D02*
X167560000Y-63200000D01*
%TO.N,Net-(TP14-Pad1)*%
X168400000Y-58425000D02*
X168400000Y-61175000D01*
D15*
X168215000Y-63205000D02*
X168210000Y-63200000D01*
D16*
X168210000Y-61365000D02*
X168210000Y-63200000D01*
D15*
X168215000Y-63500000D02*
X168215000Y-63205000D01*
D16*
X168400000Y-61175000D02*
X168210000Y-61365000D01*
%TO.N,Net-(TP15-Pad1)*%
X169425000Y-61175000D02*
X168860000Y-61740000D01*
D15*
X168865000Y-63500000D02*
X168865000Y-63205000D01*
D16*
X169425000Y-60200000D02*
X169425000Y-61175000D01*
D15*
X168865000Y-63205000D02*
X168860000Y-63200000D01*
D16*
X168860000Y-61740000D02*
X168860000Y-63200000D01*
D15*
%TO.N,Net-(TP18-Pad1)*%
X170815000Y-63500000D02*
X170815000Y-63205000D01*
D16*
X170450000Y-58425000D02*
X170450000Y-61450000D01*
D15*
X170815000Y-63205000D02*
X170810000Y-63200000D01*
D16*
X170450000Y-61450000D02*
X170810000Y-61810000D01*
X170810000Y-61810000D02*
X170810000Y-63200000D01*
%TO.N,Net-(TP19-Pad1)*%
X176575000Y-67000000D02*
X176465000Y-67110000D01*
X179475000Y-67000000D02*
X176575000Y-67000000D01*
X176465000Y-67110000D02*
X174690000Y-67110000D01*
D15*
X174390000Y-67110000D02*
X174690000Y-67110000D01*
D16*
%TO.N,Net-(TP20-Pad1)*%
X177700000Y-68025000D02*
X176700000Y-68025000D01*
X176700000Y-68025000D02*
X176435000Y-67760000D01*
X176435000Y-67760000D02*
X174690000Y-67760000D01*
D15*
X174390000Y-67760000D02*
X174690000Y-67760000D01*
D16*
%TO.N,Net-(TP21-Pad1)*%
X179475000Y-69050000D02*
X176775000Y-69050000D01*
X176135000Y-68410000D02*
X174690000Y-68410000D01*
D15*
X174390000Y-68410000D02*
X174690000Y-68410000D01*
D16*
X176775000Y-69050000D02*
X176135000Y-68410000D01*
D15*
%TO.N,Net-(TP24-Pad1)*%
X174390000Y-70360000D02*
X174690000Y-70360000D01*
D16*
X176440000Y-70360000D02*
X174690000Y-70360000D01*
X176725000Y-70075000D02*
X176440000Y-70360000D01*
X177700000Y-70075000D02*
X176725000Y-70075000D01*
D15*
%TO.N,Net-(TP25-Pad1)*%
X174390000Y-71010000D02*
X174690000Y-71010000D01*
D16*
X179475000Y-71100000D02*
X176825000Y-71100000D01*
X176825000Y-71100000D02*
X176735000Y-71010000D01*
X176735000Y-71010000D02*
X174690000Y-71010000D01*
%TO.N,Net-(TP26-Pad1)*%
X176235000Y-71660000D02*
X174690000Y-71660000D01*
X177700000Y-72125000D02*
X176700000Y-72125000D01*
D15*
X174390000Y-71660000D02*
X174690000Y-71660000D01*
D16*
X176700000Y-72125000D02*
X176235000Y-71660000D01*
%TO.N,Net-(TP27-Pad1)*%
X179475000Y-73150000D02*
X176675000Y-73150000D01*
D15*
X174390000Y-72310000D02*
X174690000Y-72310000D01*
D16*
X176675000Y-73150000D02*
X175835000Y-72310000D01*
X175835000Y-72310000D02*
X174690000Y-72310000D01*
%TO.N,Net-(TP28-Pad1)*%
X175535000Y-72960000D02*
X174690000Y-72960000D01*
X176750000Y-74175000D02*
X175535000Y-72960000D01*
D15*
X174390000Y-72960000D02*
X174690000Y-72960000D01*
D16*
X177700000Y-74175000D02*
X176750000Y-74175000D01*
%TO.N,Net-(TP33-Pad1)*%
X175740000Y-76210000D02*
X174690000Y-76210000D01*
D15*
X174390000Y-76210000D02*
X174690000Y-76210000D01*
D16*
X179475000Y-75200000D02*
X176750000Y-75200000D01*
X176750000Y-75200000D02*
X175740000Y-76210000D01*
%TO.N,unconnected-(TP3-Pad1)*%
X161065000Y-63205000D02*
X161070000Y-63200000D01*
X161065000Y-63500000D02*
X161065000Y-63205000D01*
%TO.N,unconnected-(TP10-Pad1)*%
X165615000Y-63205000D02*
X165620000Y-63200000D01*
X165615000Y-63500000D02*
X165615000Y-63205000D01*
%TO.N,unconnected-(TP16-Pad1)*%
X169515000Y-63205000D02*
X169510000Y-63200000D01*
X169515000Y-63500000D02*
X169515000Y-63205000D01*
%TO.N,unconnected-(TP22-Pad1)*%
X174390000Y-69060000D02*
X174690000Y-69060000D01*
%TO.N,unconnected-(TP30-Pad1)*%
X174390000Y-74260000D02*
X174690000Y-74260000D01*
%TO.N,unconnected-(TP32-Pad1)*%
X174390000Y-75560000D02*
X174690000Y-75560000D01*
%TO.N,GND*%
X166265000Y-63500000D02*
X166265000Y-63205000D01*
X174390000Y-73610000D02*
X174690000Y-73610000D01*
X170165000Y-63205000D02*
X170160000Y-63200000D01*
X174390000Y-69710000D02*
X174690000Y-69710000D01*
X161715000Y-63205000D02*
X161720000Y-63200000D01*
X174390000Y-74910000D02*
X174690000Y-74910000D01*
X166265000Y-63205000D02*
X166260000Y-63200000D01*
X161715000Y-63500000D02*
X161715000Y-63205000D01*
X170165000Y-63500000D02*
X170165000Y-63205000D01*
%TD*%
%TA.AperFunction,Conductor*%
%TO.N,GND*%
G36*
X171416819Y-57369407D02*
G01*
X171428820Y-57379685D01*
X177474877Y-63458691D01*
X180545694Y-66546243D01*
X180573323Y-66600835D01*
X180574500Y-66616056D01*
X180574500Y-75583783D01*
X180555593Y-75641974D01*
X180545504Y-75653787D01*
X179603827Y-76595463D01*
X179549310Y-76623240D01*
X179533728Y-76624459D01*
X176032181Y-76621083D01*
X175974008Y-76602120D01*
X175938092Y-76552585D01*
X175938151Y-76491400D01*
X175956436Y-76458449D01*
X175978827Y-76431763D01*
X175981726Y-76428598D01*
X176669771Y-75740555D01*
X176855831Y-75554496D01*
X176910347Y-75526719D01*
X176925834Y-75525500D01*
X178796546Y-75525500D01*
X178854737Y-75544407D01*
X178878019Y-75568259D01*
X178937055Y-75653787D01*
X178946816Y-75667927D01*
X178946818Y-75667930D01*
X178989260Y-75705530D01*
X179074148Y-75780734D01*
X179224775Y-75859790D01*
X179389944Y-75900500D01*
X179389947Y-75900500D01*
X179560053Y-75900500D01*
X179560056Y-75900500D01*
X179725225Y-75859790D01*
X179875852Y-75780734D01*
X180003183Y-75667929D01*
X180099818Y-75527930D01*
X180160140Y-75368872D01*
X180180645Y-75200000D01*
X180160140Y-75031128D01*
X180099818Y-74872070D01*
X180003183Y-74732071D01*
X179875852Y-74619266D01*
X179725225Y-74540210D01*
X179725224Y-74540209D01*
X179725223Y-74540209D01*
X179560058Y-74499500D01*
X179560056Y-74499500D01*
X179389944Y-74499500D01*
X179389941Y-74499500D01*
X179224776Y-74540209D01*
X179074146Y-74619267D01*
X178946818Y-74732069D01*
X178946816Y-74732071D01*
X178946817Y-74732071D01*
X178889550Y-74815037D01*
X178878021Y-74831739D01*
X178829405Y-74868888D01*
X178796546Y-74874500D01*
X178227835Y-74874500D01*
X178169644Y-74855593D01*
X178133680Y-74806093D01*
X178133680Y-74744907D01*
X178162186Y-74701397D01*
X178162361Y-74701242D01*
X178228183Y-74642929D01*
X178324818Y-74502930D01*
X178385140Y-74343872D01*
X178405645Y-74175000D01*
X178385140Y-74006128D01*
X178324818Y-73847070D01*
X178228183Y-73707071D01*
X178162185Y-73648602D01*
X178131167Y-73595863D01*
X178137073Y-73534963D01*
X178177646Y-73489165D01*
X178227835Y-73475500D01*
X178796546Y-73475500D01*
X178854737Y-73494407D01*
X178878019Y-73518259D01*
X178946817Y-73617929D01*
X179074148Y-73730734D01*
X179224775Y-73809790D01*
X179389944Y-73850500D01*
X179389947Y-73850500D01*
X179560053Y-73850500D01*
X179560056Y-73850500D01*
X179725225Y-73809790D01*
X179875852Y-73730734D01*
X180003183Y-73617929D01*
X180099818Y-73477930D01*
X180160140Y-73318872D01*
X180180645Y-73150000D01*
X180160140Y-72981128D01*
X180099818Y-72822070D01*
X180003183Y-72682071D01*
X179978773Y-72660446D01*
X179875853Y-72569267D01*
X179875852Y-72569266D01*
X179725225Y-72490210D01*
X179725224Y-72490209D01*
X179725223Y-72490209D01*
X179560058Y-72449500D01*
X179560056Y-72449500D01*
X179389944Y-72449500D01*
X179389941Y-72449500D01*
X179224776Y-72490209D01*
X179074146Y-72569267D01*
X178946818Y-72682069D01*
X178946816Y-72682072D01*
X178919492Y-72721658D01*
X178889550Y-72765037D01*
X178878021Y-72781739D01*
X178829405Y-72818888D01*
X178796546Y-72824500D01*
X178227835Y-72824500D01*
X178169644Y-72805593D01*
X178133680Y-72756093D01*
X178133680Y-72694907D01*
X178162186Y-72651397D01*
X178194219Y-72623018D01*
X178228183Y-72592929D01*
X178324818Y-72452930D01*
X178385140Y-72293872D01*
X178405645Y-72125000D01*
X178385140Y-71956128D01*
X178324818Y-71797070D01*
X178228183Y-71657071D01*
X178162185Y-71598602D01*
X178131167Y-71545863D01*
X178137073Y-71484963D01*
X178177646Y-71439165D01*
X178227835Y-71425500D01*
X178796546Y-71425500D01*
X178854737Y-71444407D01*
X178878019Y-71468259D01*
X178946817Y-71567929D01*
X179074148Y-71680734D01*
X179224775Y-71759790D01*
X179389944Y-71800500D01*
X179389947Y-71800500D01*
X179560053Y-71800500D01*
X179560056Y-71800500D01*
X179725225Y-71759790D01*
X179875852Y-71680734D01*
X180003183Y-71567929D01*
X180099818Y-71427930D01*
X180160140Y-71268872D01*
X180180645Y-71100000D01*
X180160140Y-70931128D01*
X180099818Y-70772070D01*
X180003183Y-70632071D01*
X179875852Y-70519266D01*
X179725225Y-70440210D01*
X179725224Y-70440209D01*
X179725223Y-70440209D01*
X179560058Y-70399500D01*
X179560056Y-70399500D01*
X179389944Y-70399500D01*
X179389941Y-70399500D01*
X179224776Y-70440209D01*
X179074146Y-70519267D01*
X178946818Y-70632069D01*
X178946816Y-70632071D01*
X178946817Y-70632071D01*
X178889550Y-70715037D01*
X178878021Y-70731739D01*
X178829405Y-70768888D01*
X178796546Y-70774500D01*
X178227835Y-70774500D01*
X178169644Y-70755593D01*
X178133680Y-70706093D01*
X178133680Y-70644907D01*
X178162186Y-70601397D01*
X178186214Y-70580110D01*
X178228183Y-70542929D01*
X178324818Y-70402930D01*
X178385140Y-70243872D01*
X178405645Y-70075000D01*
X178385140Y-69906128D01*
X178324818Y-69747070D01*
X178228183Y-69607071D01*
X178162185Y-69548602D01*
X178131167Y-69495863D01*
X178137073Y-69434963D01*
X178177646Y-69389165D01*
X178227835Y-69375500D01*
X178796546Y-69375500D01*
X178854737Y-69394407D01*
X178878019Y-69418259D01*
X178946817Y-69517929D01*
X179074148Y-69630734D01*
X179224775Y-69709790D01*
X179389944Y-69750500D01*
X179389947Y-69750500D01*
X179560053Y-69750500D01*
X179560056Y-69750500D01*
X179725225Y-69709790D01*
X179875852Y-69630734D01*
X180003183Y-69517929D01*
X180099818Y-69377930D01*
X180160140Y-69218872D01*
X180180645Y-69050000D01*
X180160140Y-68881128D01*
X180099818Y-68722070D01*
X180003183Y-68582071D01*
X179875852Y-68469266D01*
X179725225Y-68390210D01*
X179725224Y-68390209D01*
X179725223Y-68390209D01*
X179560058Y-68349500D01*
X179560056Y-68349500D01*
X179389944Y-68349500D01*
X179389941Y-68349500D01*
X179224776Y-68390209D01*
X179074146Y-68469267D01*
X178946818Y-68582069D01*
X178946816Y-68582071D01*
X178946817Y-68582071D01*
X178889550Y-68665037D01*
X178878021Y-68681739D01*
X178829405Y-68718888D01*
X178796546Y-68724500D01*
X178227835Y-68724500D01*
X178169644Y-68705593D01*
X178133680Y-68656093D01*
X178133680Y-68594907D01*
X178162186Y-68551397D01*
X178180351Y-68535304D01*
X178228183Y-68492929D01*
X178324818Y-68352930D01*
X178385140Y-68193872D01*
X178405645Y-68025000D01*
X178385140Y-67856128D01*
X178324818Y-67697070D01*
X178228183Y-67557071D01*
X178162185Y-67498602D01*
X178131167Y-67445863D01*
X178137073Y-67384963D01*
X178177646Y-67339165D01*
X178227835Y-67325500D01*
X178796546Y-67325500D01*
X178854737Y-67344407D01*
X178878019Y-67368259D01*
X178930483Y-67444266D01*
X178946816Y-67467927D01*
X178946818Y-67467930D01*
X178981441Y-67498603D01*
X179074148Y-67580734D01*
X179224775Y-67659790D01*
X179389944Y-67700500D01*
X179389947Y-67700500D01*
X179560053Y-67700500D01*
X179560056Y-67700500D01*
X179725225Y-67659790D01*
X179875852Y-67580734D01*
X180003183Y-67467929D01*
X180099818Y-67327930D01*
X180160140Y-67168872D01*
X180180645Y-67000000D01*
X180160140Y-66831128D01*
X180099818Y-66672070D01*
X180003183Y-66532071D01*
X179875852Y-66419266D01*
X179725225Y-66340210D01*
X179725224Y-66340209D01*
X179725223Y-66340209D01*
X179560058Y-66299500D01*
X179560056Y-66299500D01*
X179389944Y-66299500D01*
X179389941Y-66299500D01*
X179224776Y-66340209D01*
X179074146Y-66419267D01*
X178946818Y-66532069D01*
X178946816Y-66532072D01*
X178878021Y-66631739D01*
X178829405Y-66668888D01*
X178796546Y-66674500D01*
X176591362Y-66674500D01*
X176587061Y-66674312D01*
X176546193Y-66670737D01*
X176546186Y-66670737D01*
X176506575Y-66681351D01*
X176502360Y-66682285D01*
X176461958Y-66689410D01*
X176461951Y-66689413D01*
X176460632Y-66690175D01*
X176436790Y-66700050D01*
X176435326Y-66700442D01*
X176435312Y-66700448D01*
X176401720Y-66723969D01*
X176398079Y-66726289D01*
X176362545Y-66746804D01*
X176360587Y-66749139D01*
X176357364Y-66751152D01*
X176355911Y-66752372D01*
X176355739Y-66752167D01*
X176308697Y-66781560D01*
X176284751Y-66784500D01*
X174957114Y-66784500D01*
X174912168Y-66773709D01*
X174815304Y-66724354D01*
X174815305Y-66724354D01*
X174721519Y-66709500D01*
X174690001Y-66704508D01*
X174690000Y-66704508D01*
X174666178Y-66708281D01*
X174650691Y-66709500D01*
X174497932Y-66709500D01*
X174439741Y-66690593D01*
X174403777Y-66641093D01*
X174398932Y-66610417D01*
X174400489Y-64761950D01*
X174400540Y-64750002D01*
X174400542Y-64750000D01*
X174400424Y-64749716D01*
X174400423Y-64749715D01*
X174400382Y-64749616D01*
X174387086Y-64736181D01*
X174386489Y-64735781D01*
X173161522Y-63510813D01*
X173150382Y-63499616D01*
X173150284Y-63499576D01*
X173150000Y-63499458D01*
X173149999Y-63499458D01*
X173130330Y-63499460D01*
X173130135Y-63499500D01*
X171314500Y-63499500D01*
X171256309Y-63480593D01*
X171220345Y-63431093D01*
X171215500Y-63400500D01*
X171215500Y-63168478D01*
X171200646Y-63074696D01*
X171151291Y-62977832D01*
X171146289Y-62968016D01*
X171135500Y-62923072D01*
X171135500Y-61826373D01*
X171135687Y-61822072D01*
X171139264Y-61781193D01*
X171128640Y-61741548D01*
X171127710Y-61737348D01*
X171124797Y-61720829D01*
X171120588Y-61696955D01*
X171119840Y-61695659D01*
X171109942Y-61671767D01*
X171109554Y-61670316D01*
X171109552Y-61670313D01*
X171109551Y-61670311D01*
X171086025Y-61636712D01*
X171083703Y-61633068D01*
X171081477Y-61629213D01*
X171063194Y-61597545D01*
X171031759Y-61571167D01*
X171028582Y-61568256D01*
X170804496Y-61344169D01*
X170776719Y-61289653D01*
X170775500Y-61274166D01*
X170775500Y-59105129D01*
X170794407Y-59046938D01*
X170828493Y-59017469D01*
X170850852Y-59005734D01*
X170857803Y-58999576D01*
X170978183Y-58892929D01*
X171074818Y-58752930D01*
X171135140Y-58593872D01*
X171155645Y-58425000D01*
X171135140Y-58256128D01*
X171074818Y-58097070D01*
X170978183Y-57957071D01*
X170850852Y-57844266D01*
X170700225Y-57765210D01*
X170700224Y-57765209D01*
X170700223Y-57765209D01*
X170535058Y-57724500D01*
X170535056Y-57724500D01*
X170364944Y-57724500D01*
X170364941Y-57724500D01*
X170199776Y-57765209D01*
X170049146Y-57844267D01*
X169921818Y-57957069D01*
X169921816Y-57957071D01*
X169921817Y-57957071D01*
X169825182Y-58097070D01*
X169764860Y-58256128D01*
X169744355Y-58425000D01*
X169764860Y-58593872D01*
X169825182Y-58752930D01*
X169921816Y-58892927D01*
X169921818Y-58892930D01*
X170049147Y-59005734D01*
X170071507Y-59017469D01*
X170114246Y-59061253D01*
X170124500Y-59105129D01*
X170124500Y-59664406D01*
X170105593Y-59722597D01*
X170056093Y-59758561D01*
X169994907Y-59758561D01*
X169958717Y-59734853D01*
X169957665Y-59736042D01*
X169953180Y-59732069D01*
X169825852Y-59619266D01*
X169675225Y-59540210D01*
X169675224Y-59540209D01*
X169675223Y-59540209D01*
X169510058Y-59499500D01*
X169510056Y-59499500D01*
X169339944Y-59499500D01*
X169339941Y-59499500D01*
X169174776Y-59540209D01*
X169024146Y-59619267D01*
X168973195Y-59664406D01*
X168896820Y-59732069D01*
X168892335Y-59736042D01*
X168890996Y-59734530D01*
X168845853Y-59761076D01*
X168784954Y-59755165D01*
X168739160Y-59714587D01*
X168725500Y-59664406D01*
X168725500Y-59105129D01*
X168744407Y-59046938D01*
X168778493Y-59017469D01*
X168800852Y-59005734D01*
X168807803Y-58999576D01*
X168928183Y-58892929D01*
X169024818Y-58752930D01*
X169085140Y-58593872D01*
X169105645Y-58425000D01*
X169085140Y-58256128D01*
X169024818Y-58097070D01*
X168928183Y-57957071D01*
X168800852Y-57844266D01*
X168650225Y-57765210D01*
X168650224Y-57765209D01*
X168650223Y-57765209D01*
X168485058Y-57724500D01*
X168485056Y-57724500D01*
X168314944Y-57724500D01*
X168314941Y-57724500D01*
X168149776Y-57765209D01*
X167999146Y-57844267D01*
X167871818Y-57957069D01*
X167871816Y-57957071D01*
X167871817Y-57957071D01*
X167775182Y-58097070D01*
X167714860Y-58256128D01*
X167694355Y-58425000D01*
X167714860Y-58593872D01*
X167775182Y-58752930D01*
X167871816Y-58892927D01*
X167871818Y-58892930D01*
X167999147Y-59005734D01*
X168021507Y-59017469D01*
X168064246Y-59061253D01*
X168074500Y-59105129D01*
X168074500Y-59664406D01*
X168055593Y-59722597D01*
X168006093Y-59758561D01*
X167944907Y-59758561D01*
X167908717Y-59734853D01*
X167907665Y-59736042D01*
X167903180Y-59732069D01*
X167775852Y-59619266D01*
X167625225Y-59540210D01*
X167625224Y-59540209D01*
X167625223Y-59540209D01*
X167460058Y-59499500D01*
X167460056Y-59499500D01*
X167289944Y-59499500D01*
X167289941Y-59499500D01*
X167124776Y-59540209D01*
X166974146Y-59619267D01*
X166923195Y-59664406D01*
X166846820Y-59732069D01*
X166842335Y-59736042D01*
X166840996Y-59734530D01*
X166795853Y-59761076D01*
X166734954Y-59755165D01*
X166689160Y-59714587D01*
X166675500Y-59664406D01*
X166675500Y-59105129D01*
X166694407Y-59046938D01*
X166728493Y-59017469D01*
X166750852Y-59005734D01*
X166757803Y-58999576D01*
X166878183Y-58892929D01*
X166974818Y-58752930D01*
X167035140Y-58593872D01*
X167055645Y-58425000D01*
X167035140Y-58256128D01*
X166974818Y-58097070D01*
X166878183Y-57957071D01*
X166750852Y-57844266D01*
X166600225Y-57765210D01*
X166600224Y-57765209D01*
X166600223Y-57765209D01*
X166435058Y-57724500D01*
X166435056Y-57724500D01*
X166264944Y-57724500D01*
X166264941Y-57724500D01*
X166099776Y-57765209D01*
X165949146Y-57844267D01*
X165821818Y-57957069D01*
X165821816Y-57957071D01*
X165821817Y-57957071D01*
X165725182Y-58097070D01*
X165664860Y-58256128D01*
X165644355Y-58425000D01*
X165664860Y-58593872D01*
X165725182Y-58752930D01*
X165821816Y-58892927D01*
X165821818Y-58892930D01*
X165949147Y-59005734D01*
X165971507Y-59017469D01*
X166014246Y-59061253D01*
X166024500Y-59105129D01*
X166024500Y-59664406D01*
X166005593Y-59722597D01*
X165956093Y-59758561D01*
X165894907Y-59758561D01*
X165858717Y-59734853D01*
X165857665Y-59736042D01*
X165853180Y-59732069D01*
X165725852Y-59619266D01*
X165575225Y-59540210D01*
X165575224Y-59540209D01*
X165575223Y-59540209D01*
X165410058Y-59499500D01*
X165410056Y-59499500D01*
X165239944Y-59499500D01*
X165239941Y-59499500D01*
X165074776Y-59540209D01*
X164924146Y-59619267D01*
X164873195Y-59664406D01*
X164796820Y-59732069D01*
X164792335Y-59736042D01*
X164790996Y-59734530D01*
X164745853Y-59761076D01*
X164684954Y-59755165D01*
X164639160Y-59714587D01*
X164625500Y-59664406D01*
X164625500Y-59105129D01*
X164644407Y-59046938D01*
X164678493Y-59017469D01*
X164700852Y-59005734D01*
X164707803Y-58999576D01*
X164828183Y-58892929D01*
X164924818Y-58752930D01*
X164985140Y-58593872D01*
X165005645Y-58425000D01*
X164985140Y-58256128D01*
X164924818Y-58097070D01*
X164828183Y-57957071D01*
X164700852Y-57844266D01*
X164550225Y-57765210D01*
X164550224Y-57765209D01*
X164550223Y-57765209D01*
X164385058Y-57724500D01*
X164385056Y-57724500D01*
X164214944Y-57724500D01*
X164214941Y-57724500D01*
X164049776Y-57765209D01*
X163899146Y-57844267D01*
X163771818Y-57957069D01*
X163771816Y-57957071D01*
X163771817Y-57957071D01*
X163675182Y-58097070D01*
X163614860Y-58256128D01*
X163594355Y-58425000D01*
X163614860Y-58593872D01*
X163675182Y-58752930D01*
X163771816Y-58892927D01*
X163771818Y-58892930D01*
X163899147Y-59005734D01*
X163921507Y-59017469D01*
X163964246Y-59061253D01*
X163974500Y-59105129D01*
X163974500Y-59664406D01*
X163955593Y-59722597D01*
X163906093Y-59758561D01*
X163844907Y-59758561D01*
X163808717Y-59734853D01*
X163807665Y-59736042D01*
X163803180Y-59732069D01*
X163675852Y-59619266D01*
X163525225Y-59540210D01*
X163525224Y-59540209D01*
X163525223Y-59540209D01*
X163360058Y-59499500D01*
X163360056Y-59499500D01*
X163189944Y-59499500D01*
X163189941Y-59499500D01*
X163024776Y-59540209D01*
X162874146Y-59619267D01*
X162823195Y-59664406D01*
X162746820Y-59732069D01*
X162742335Y-59736042D01*
X162740996Y-59734530D01*
X162695853Y-59761076D01*
X162634954Y-59755165D01*
X162589160Y-59714587D01*
X162575500Y-59664406D01*
X162575500Y-59105129D01*
X162594407Y-59046938D01*
X162628493Y-59017469D01*
X162650852Y-59005734D01*
X162657803Y-58999576D01*
X162778183Y-58892929D01*
X162874818Y-58752930D01*
X162935140Y-58593872D01*
X162955645Y-58425000D01*
X162935140Y-58256128D01*
X162874818Y-58097070D01*
X162778183Y-57957071D01*
X162650852Y-57844266D01*
X162500225Y-57765210D01*
X162500224Y-57765209D01*
X162500223Y-57765209D01*
X162335058Y-57724500D01*
X162335056Y-57724500D01*
X162164944Y-57724500D01*
X162164941Y-57724500D01*
X161999776Y-57765209D01*
X161849146Y-57844267D01*
X161721818Y-57957069D01*
X161721816Y-57957071D01*
X161721817Y-57957071D01*
X161625182Y-58097070D01*
X161564860Y-58256128D01*
X161544355Y-58425000D01*
X161564860Y-58593872D01*
X161625182Y-58752930D01*
X161721816Y-58892927D01*
X161721818Y-58892930D01*
X161849147Y-59005734D01*
X161871507Y-59017469D01*
X161914246Y-59061253D01*
X161924500Y-59105129D01*
X161924500Y-59664406D01*
X161905593Y-59722597D01*
X161856093Y-59758561D01*
X161794907Y-59758561D01*
X161758717Y-59734853D01*
X161757665Y-59736042D01*
X161753180Y-59732069D01*
X161625852Y-59619266D01*
X161475225Y-59540210D01*
X161475224Y-59540209D01*
X161475223Y-59540209D01*
X161310058Y-59499500D01*
X161310056Y-59499500D01*
X161139944Y-59499500D01*
X161139941Y-59499500D01*
X160974776Y-59540209D01*
X160824146Y-59619267D01*
X160773195Y-59664406D01*
X160696820Y-59732069D01*
X160692335Y-59736042D01*
X160690996Y-59734530D01*
X160645853Y-59761076D01*
X160584954Y-59755165D01*
X160539160Y-59714587D01*
X160525500Y-59664406D01*
X160525500Y-59105129D01*
X160544407Y-59046938D01*
X160578493Y-59017469D01*
X160600852Y-59005734D01*
X160607803Y-58999576D01*
X160728183Y-58892929D01*
X160824818Y-58752930D01*
X160885140Y-58593872D01*
X160905645Y-58425000D01*
X160885140Y-58256128D01*
X160824818Y-58097070D01*
X160728183Y-57957071D01*
X160600852Y-57844266D01*
X160450225Y-57765210D01*
X160450224Y-57765209D01*
X160450223Y-57765209D01*
X160285058Y-57724500D01*
X160285056Y-57724500D01*
X160114944Y-57724500D01*
X160114941Y-57724500D01*
X159949776Y-57765209D01*
X159799146Y-57844267D01*
X159671818Y-57957069D01*
X159671816Y-57957071D01*
X159671817Y-57957071D01*
X159575182Y-58097070D01*
X159514860Y-58256128D01*
X159494355Y-58425000D01*
X159514860Y-58593872D01*
X159575182Y-58752930D01*
X159671816Y-58892927D01*
X159671818Y-58892930D01*
X159799147Y-59005734D01*
X159821507Y-59017469D01*
X159864246Y-59061253D01*
X159874500Y-59105129D01*
X159874500Y-59664406D01*
X159855593Y-59722597D01*
X159806093Y-59758561D01*
X159744907Y-59758561D01*
X159708717Y-59734853D01*
X159707665Y-59736042D01*
X159703180Y-59732069D01*
X159575852Y-59619266D01*
X159425225Y-59540210D01*
X159425224Y-59540209D01*
X159425223Y-59540209D01*
X159260058Y-59499500D01*
X159260056Y-59499500D01*
X159089944Y-59499500D01*
X159089941Y-59499500D01*
X158924776Y-59540209D01*
X158774146Y-59619267D01*
X158646818Y-59732069D01*
X158646816Y-59732072D01*
X158644076Y-59736042D01*
X158550182Y-59872070D01*
X158489860Y-60031128D01*
X158469355Y-60200000D01*
X158489860Y-60368872D01*
X158550182Y-60527930D01*
X158630870Y-60644826D01*
X158646816Y-60667927D01*
X158646818Y-60667930D01*
X158774147Y-60780734D01*
X158796507Y-60792469D01*
X158839246Y-60836253D01*
X158849500Y-60880129D01*
X158849500Y-61158625D01*
X158849312Y-61162927D01*
X158846404Y-61196175D01*
X158845736Y-61203806D01*
X158856354Y-61243436D01*
X158857289Y-61247652D01*
X158864411Y-61288045D01*
X158865164Y-61289348D01*
X158875054Y-61313224D01*
X158875443Y-61314679D01*
X158875445Y-61314682D01*
X158875446Y-61314684D01*
X158898968Y-61348278D01*
X158898971Y-61348281D01*
X158901288Y-61351918D01*
X158903695Y-61356086D01*
X158921806Y-61387455D01*
X158953224Y-61413818D01*
X158956410Y-61416737D01*
X159405503Y-61865829D01*
X159433280Y-61920346D01*
X159434499Y-61935833D01*
X159434500Y-62932884D01*
X159423710Y-62977829D01*
X159374354Y-63074694D01*
X159374354Y-63074696D01*
X159354508Y-63199999D01*
X159354508Y-63200001D01*
X159362868Y-63252785D01*
X159353297Y-63313217D01*
X159310032Y-63356482D01*
X159249600Y-63366053D01*
X159195085Y-63338277D01*
X158129493Y-62272685D01*
X158101718Y-62218171D01*
X158100500Y-62202696D01*
X158100500Y-59041213D01*
X158119407Y-58983023D01*
X158129490Y-58971216D01*
X159721210Y-57379495D01*
X159775728Y-57351719D01*
X159791215Y-57350500D01*
X171358628Y-57350500D01*
X171416819Y-57369407D01*
G37*
%TD.AperFunction*%
%TA.AperFunction,Conductor*%
G36*
X175417357Y-73304407D02*
G01*
X175429170Y-73314496D01*
X176508268Y-74393596D01*
X176511187Y-74396782D01*
X176537545Y-74428194D01*
X176573083Y-74448711D01*
X176576716Y-74451026D01*
X176610316Y-74474553D01*
X176611766Y-74474941D01*
X176635649Y-74484834D01*
X176636955Y-74485588D01*
X176677366Y-74492713D01*
X176681555Y-74493641D01*
X176721193Y-74504263D01*
X176762065Y-74500687D01*
X176766365Y-74500500D01*
X177021546Y-74500500D01*
X177079737Y-74519407D01*
X177103019Y-74543259D01*
X177155484Y-74619267D01*
X177171816Y-74642927D01*
X177171818Y-74642930D01*
X177237814Y-74701397D01*
X177268833Y-74754137D01*
X177262927Y-74815037D01*
X177222354Y-74860835D01*
X177172165Y-74874500D01*
X176766374Y-74874500D01*
X176762073Y-74874312D01*
X176721193Y-74870736D01*
X176721187Y-74870736D01*
X176681564Y-74881353D01*
X176677349Y-74882287D01*
X176636960Y-74889410D01*
X176636948Y-74889414D01*
X176635640Y-74890170D01*
X176611786Y-74900051D01*
X176610324Y-74900442D01*
X176610316Y-74900446D01*
X176576716Y-74923972D01*
X176573080Y-74926288D01*
X176564875Y-74931025D01*
X176537545Y-74946805D01*
X176511181Y-74978224D01*
X176508263Y-74981408D01*
X175634170Y-75855503D01*
X175579653Y-75883281D01*
X175564166Y-75884500D01*
X175135704Y-75884500D01*
X175077513Y-75865593D01*
X175041549Y-75816093D01*
X175041549Y-75754907D01*
X175047494Y-75740555D01*
X175075645Y-75685305D01*
X175075646Y-75685304D01*
X175095492Y-75560000D01*
X175075646Y-75434696D01*
X175018050Y-75321658D01*
X174928342Y-75231950D01*
X174815304Y-75174354D01*
X174815305Y-75174354D01*
X174721519Y-75159500D01*
X174690001Y-75154508D01*
X174690000Y-75154508D01*
X174666178Y-75158281D01*
X174650691Y-75159500D01*
X174490814Y-75159500D01*
X174432623Y-75140593D01*
X174396659Y-75091093D01*
X174391814Y-75060416D01*
X174392068Y-74759416D01*
X174411024Y-74701242D01*
X174460555Y-74665320D01*
X174491068Y-74660500D01*
X174650691Y-74660500D01*
X174666177Y-74661718D01*
X174690000Y-74665492D01*
X174815304Y-74645646D01*
X174928342Y-74588050D01*
X175018050Y-74498342D01*
X175075646Y-74385304D01*
X175095492Y-74260000D01*
X175075646Y-74134696D01*
X175018050Y-74021658D01*
X174928342Y-73931950D01*
X174924406Y-73929944D01*
X174815307Y-73874355D01*
X174815304Y-73874354D01*
X174690000Y-73854508D01*
X174666178Y-73858281D01*
X174650691Y-73859500D01*
X174491909Y-73859500D01*
X174433718Y-73840593D01*
X174397754Y-73791093D01*
X174392909Y-73760416D01*
X174393004Y-73648603D01*
X174393149Y-73475500D01*
X174393163Y-73459416D01*
X174412119Y-73401242D01*
X174461650Y-73365320D01*
X174492163Y-73360500D01*
X174650691Y-73360500D01*
X174666177Y-73361718D01*
X174690000Y-73365492D01*
X174815304Y-73345646D01*
X174912168Y-73296290D01*
X174957114Y-73285500D01*
X175359166Y-73285500D01*
X175417357Y-73304407D01*
G37*
%TD.AperFunction*%
%TA.AperFunction,Conductor*%
G36*
X176017357Y-68754407D02*
G01*
X176029170Y-68764496D01*
X176533257Y-69268584D01*
X176536175Y-69271769D01*
X176562544Y-69303193D01*
X176562545Y-69303194D01*
X176598073Y-69323706D01*
X176601712Y-69326025D01*
X176635311Y-69349551D01*
X176635313Y-69349552D01*
X176635316Y-69349554D01*
X176636767Y-69349942D01*
X176660659Y-69359840D01*
X176661186Y-69360143D01*
X176661955Y-69360588D01*
X176702351Y-69367710D01*
X176706548Y-69368640D01*
X176746193Y-69379264D01*
X176787077Y-69375687D01*
X176791377Y-69375500D01*
X177172165Y-69375500D01*
X177230356Y-69394407D01*
X177266320Y-69443907D01*
X177266320Y-69505093D01*
X177237814Y-69548603D01*
X177171818Y-69607069D01*
X177171816Y-69607072D01*
X177103021Y-69706739D01*
X177054405Y-69743888D01*
X177021546Y-69749500D01*
X176741374Y-69749500D01*
X176737073Y-69749312D01*
X176696193Y-69745736D01*
X176696187Y-69745736D01*
X176656564Y-69756353D01*
X176652349Y-69757287D01*
X176611960Y-69764410D01*
X176611948Y-69764414D01*
X176610640Y-69765170D01*
X176586786Y-69775051D01*
X176585324Y-69775442D01*
X176585316Y-69775446D01*
X176551716Y-69798972D01*
X176548080Y-69801288D01*
X176539875Y-69806025D01*
X176512545Y-69821805D01*
X176486175Y-69853231D01*
X176483257Y-69856415D01*
X176334171Y-70005503D01*
X176279655Y-70033281D01*
X176264167Y-70034500D01*
X174957114Y-70034500D01*
X174912168Y-70023709D01*
X174815304Y-69974354D01*
X174815305Y-69974354D01*
X174721519Y-69959500D01*
X174690001Y-69954508D01*
X174690000Y-69954508D01*
X174666178Y-69958281D01*
X174650691Y-69959500D01*
X174495195Y-69959500D01*
X174437004Y-69940593D01*
X174401040Y-69891093D01*
X174396195Y-69860416D01*
X174396449Y-69559416D01*
X174415405Y-69501242D01*
X174464936Y-69465320D01*
X174495449Y-69460500D01*
X174650691Y-69460500D01*
X174666177Y-69461718D01*
X174690000Y-69465492D01*
X174815304Y-69445646D01*
X174928342Y-69388050D01*
X175018050Y-69298342D01*
X175075646Y-69185304D01*
X175095492Y-69060000D01*
X175075646Y-68934696D01*
X175047493Y-68879444D01*
X175037923Y-68819013D01*
X175065700Y-68764497D01*
X175120217Y-68736719D01*
X175135704Y-68735500D01*
X175959166Y-68735500D01*
X176017357Y-68754407D01*
G37*
%TD.AperFunction*%
%TA.AperFunction,Conductor*%
G36*
X160691279Y-60665149D02*
G01*
X160692335Y-60663958D01*
X160824147Y-60780734D01*
X160846507Y-60792469D01*
X160889246Y-60836253D01*
X160899500Y-60880129D01*
X160899500Y-61133625D01*
X160899312Y-61137927D01*
X160895736Y-61178807D01*
X160900017Y-61194784D01*
X160906354Y-61218436D01*
X160907289Y-61222652D01*
X160914411Y-61263045D01*
X160915164Y-61264348D01*
X160925054Y-61288224D01*
X160925443Y-61289679D01*
X160925446Y-61289684D01*
X160948530Y-61322652D01*
X160948971Y-61323281D01*
X160951288Y-61326918D01*
X160964646Y-61350054D01*
X160971806Y-61362455D01*
X161003224Y-61388818D01*
X161006410Y-61391737D01*
X161261629Y-61646955D01*
X162005505Y-62390831D01*
X162033281Y-62445346D01*
X162034500Y-62460833D01*
X162034500Y-62932886D01*
X162023709Y-62977832D01*
X161974355Y-63074692D01*
X161974354Y-63074696D01*
X161954508Y-63199999D01*
X161954508Y-63200001D01*
X161963281Y-63255390D01*
X161964500Y-63270877D01*
X161964500Y-63400500D01*
X161945593Y-63458691D01*
X161896093Y-63494655D01*
X161865500Y-63499500D01*
X161564500Y-63499500D01*
X161506309Y-63480593D01*
X161470345Y-63431093D01*
X161465500Y-63400500D01*
X161465500Y-63270877D01*
X161466719Y-63255390D01*
X161475492Y-63200001D01*
X161475492Y-63199999D01*
X161470499Y-63168478D01*
X161455646Y-63074696D01*
X161398050Y-62961658D01*
X161308342Y-62871950D01*
X161274340Y-62854625D01*
X161195307Y-62814355D01*
X161195305Y-62814354D01*
X161195304Y-62814354D01*
X161155609Y-62808067D01*
X161069998Y-62794507D01*
X161065002Y-62794507D01*
X160963277Y-62810619D01*
X160939696Y-62814354D01*
X160939695Y-62814354D01*
X160939692Y-62814355D01*
X160879446Y-62845053D01*
X160819014Y-62854625D01*
X160764497Y-62826848D01*
X160736719Y-62772332D01*
X160735500Y-62756844D01*
X160735500Y-61451373D01*
X160735687Y-61447072D01*
X160739264Y-61406193D01*
X160728640Y-61366548D01*
X160727710Y-61362348D01*
X160723378Y-61337779D01*
X160720588Y-61321955D01*
X160720587Y-61321953D01*
X160720587Y-61321952D01*
X160719835Y-61320649D01*
X160709942Y-61296766D01*
X160709554Y-61295316D01*
X160709551Y-61295312D01*
X160709551Y-61295311D01*
X160686025Y-61261712D01*
X160683703Y-61258068D01*
X160677689Y-61247652D01*
X160663194Y-61222545D01*
X160631759Y-61196167D01*
X160628582Y-61193256D01*
X160554496Y-61119169D01*
X160526719Y-61064652D01*
X160525500Y-61049166D01*
X160525500Y-60735593D01*
X160544407Y-60677402D01*
X160593907Y-60641438D01*
X160655093Y-60641438D01*
X160691279Y-60665149D01*
G37*
%TD.AperFunction*%
%TA.AperFunction,Conductor*%
G36*
X165965028Y-60644826D02*
G01*
X166010830Y-60685395D01*
X166024500Y-60735593D01*
X166024500Y-61233625D01*
X166024312Y-61237927D01*
X166020736Y-61278807D01*
X166024459Y-61292702D01*
X166031354Y-61318436D01*
X166032289Y-61322652D01*
X166039411Y-61363045D01*
X166040164Y-61364348D01*
X166050054Y-61388224D01*
X166050443Y-61389679D01*
X166050445Y-61389682D01*
X166050446Y-61389684D01*
X166073968Y-61423278D01*
X166073971Y-61423281D01*
X166076288Y-61426918D01*
X166082372Y-61437455D01*
X166096806Y-61462455D01*
X166128224Y-61488818D01*
X166131410Y-61491737D01*
X166555503Y-61915829D01*
X166583281Y-61970346D01*
X166584500Y-61985833D01*
X166584500Y-62932886D01*
X166573709Y-62977832D01*
X166524355Y-63074692D01*
X166524354Y-63074696D01*
X166504508Y-63199999D01*
X166504508Y-63200001D01*
X166513281Y-63255390D01*
X166514500Y-63270877D01*
X166514500Y-63400500D01*
X166495593Y-63458691D01*
X166446093Y-63494655D01*
X166415500Y-63499500D01*
X166114500Y-63499500D01*
X166056309Y-63480593D01*
X166020345Y-63431093D01*
X166015500Y-63400500D01*
X166015500Y-63270877D01*
X166016719Y-63255390D01*
X166025492Y-63200001D01*
X166025492Y-63199999D01*
X166020499Y-63168478D01*
X166005646Y-63074696D01*
X165948050Y-62961658D01*
X165858342Y-62871950D01*
X165824340Y-62854625D01*
X165745307Y-62814355D01*
X165745305Y-62814354D01*
X165745304Y-62814354D01*
X165705610Y-62808067D01*
X165619998Y-62794507D01*
X165615002Y-62794507D01*
X165513277Y-62810619D01*
X165489696Y-62814354D01*
X165489695Y-62814354D01*
X165489692Y-62814355D01*
X165429446Y-62845053D01*
X165369014Y-62854625D01*
X165314497Y-62826848D01*
X165286719Y-62772332D01*
X165285500Y-62756844D01*
X165285500Y-61790832D01*
X165304407Y-61732641D01*
X165314490Y-61720835D01*
X165543589Y-61491735D01*
X165546753Y-61488835D01*
X165578194Y-61462455D01*
X165598714Y-61426911D01*
X165601012Y-61423303D01*
X165624554Y-61389684D01*
X165624941Y-61388236D01*
X165634838Y-61364345D01*
X165635588Y-61363045D01*
X165637776Y-61350637D01*
X165642710Y-61322650D01*
X165643640Y-61318452D01*
X165654264Y-61278807D01*
X165650687Y-61237927D01*
X165650500Y-61233625D01*
X165650500Y-60880129D01*
X165669407Y-60821938D01*
X165703493Y-60792469D01*
X165725852Y-60780734D01*
X165857665Y-60663958D01*
X165859006Y-60665472D01*
X165904127Y-60638928D01*
X165965028Y-60644826D01*
G37*
%TD.AperFunction*%
%TA.AperFunction,Conductor*%
G36*
X170065028Y-60644826D02*
G01*
X170110830Y-60685395D01*
X170124500Y-60735593D01*
X170124500Y-61433625D01*
X170124312Y-61437927D01*
X170120736Y-61478807D01*
X170124203Y-61491747D01*
X170131354Y-61518436D01*
X170132289Y-61522652D01*
X170139411Y-61563045D01*
X170140164Y-61564348D01*
X170150054Y-61588224D01*
X170150443Y-61589679D01*
X170150446Y-61589684D01*
X170171894Y-61620316D01*
X170173971Y-61623281D01*
X170176288Y-61626918D01*
X170179839Y-61633068D01*
X170196806Y-61662455D01*
X170228224Y-61688818D01*
X170231410Y-61691737D01*
X170455503Y-61915829D01*
X170483281Y-61970346D01*
X170484500Y-61985833D01*
X170484500Y-62932886D01*
X170473709Y-62977832D01*
X170424355Y-63074692D01*
X170424354Y-63074696D01*
X170404508Y-63199999D01*
X170404508Y-63200001D01*
X170413281Y-63255390D01*
X170414500Y-63270877D01*
X170414500Y-63400500D01*
X170395593Y-63458691D01*
X170346093Y-63494655D01*
X170315500Y-63499500D01*
X170014500Y-63499500D01*
X169956309Y-63480593D01*
X169920345Y-63431093D01*
X169915500Y-63400500D01*
X169915500Y-63168478D01*
X169910139Y-63134636D01*
X169900646Y-63074696D01*
X169843050Y-62961658D01*
X169753342Y-62871950D01*
X169719340Y-62854625D01*
X169640307Y-62814355D01*
X169640304Y-62814354D01*
X169515000Y-62794508D01*
X169514999Y-62794508D01*
X169514993Y-62794507D01*
X169513334Y-62794507D01*
X169510529Y-62794506D01*
X169510523Y-62794507D01*
X169510003Y-62794507D01*
X169384696Y-62814354D01*
X169384694Y-62814354D01*
X169329445Y-62842506D01*
X169269013Y-62852077D01*
X169214497Y-62824300D01*
X169186719Y-62769783D01*
X169185500Y-62754296D01*
X169185500Y-61915832D01*
X169204407Y-61857641D01*
X169214490Y-61845835D01*
X169643588Y-61416736D01*
X169646764Y-61413827D01*
X169655862Y-61406193D01*
X169678194Y-61387455D01*
X169698714Y-61351911D01*
X169701012Y-61348303D01*
X169724554Y-61314684D01*
X169724944Y-61313229D01*
X169734839Y-61289342D01*
X169735588Y-61288045D01*
X169742710Y-61247650D01*
X169743640Y-61243452D01*
X169754264Y-61203807D01*
X169750687Y-61162922D01*
X169750500Y-61158623D01*
X169750500Y-60880129D01*
X169769407Y-60821938D01*
X169803493Y-60792469D01*
X169825852Y-60780734D01*
X169957665Y-60663958D01*
X169959006Y-60665472D01*
X170004127Y-60638928D01*
X170065028Y-60644826D01*
G37*
%TD.AperFunction*%
%TD*%
M02*
