M48
; DRILL file {KiCad 7.0.7} date Sun Mar 24 16:36:30 2024
; FORMAT={-:-/ absolute / inch / decimal}
; #@! TF.CreationDate,2024-03-24T16:36:30-04:00
; #@! TF.GenerationSoftware,Kicad,Pcbnew,7.0.7
; #@! TF.FileFunction,Plated,1,2,PTH
FMAT,2
INCH
; #@! TA.AperFunction,Plated,PTH,ViaDrill
T1C0.0079
; #@! TA.AperFunction,Plated,PTH,ComponentDrill
T2C0.0079
; #@! TA.AperFunction,Plated,PTH,ViaDrill
T3C0.0157
%
G90
G05
T1
X6.2898Y-2.4882
X6.3154Y-2.4882
X6.3413Y-2.4882
X6.3669Y-2.4882
X6.3921Y-2.4882
X6.4177Y-2.4882
X6.4433Y-2.4882
X6.4689Y-2.4882
X6.4945Y-2.4882
X6.5205Y-2.4882
X6.5457Y-2.4882
X6.5713Y-2.4882
X6.5969Y-2.4882
X6.6224Y-2.4882
X6.648Y-2.4882
X6.6736Y-2.4882
X6.6992Y-2.4882
X6.7248Y-2.4882
X6.8776Y-2.6421
X6.8776Y-2.6677
X6.8776Y-2.6933
X6.8776Y-2.7189
X6.8776Y-2.7445
X6.8776Y-2.7701
X6.8776Y-2.7957
X6.8776Y-2.8213
X6.8776Y-2.8469
X6.8776Y-2.8724
X6.8776Y-2.898
X6.8776Y-2.9236
X6.8776Y-2.9492
X6.8776Y-2.9748
X6.8776Y-3.0004
T2
X6.29Y-2.5
X6.3156Y-2.5
X6.3411Y-2.5
X6.3667Y-2.5
X6.3923Y-2.5
X6.4179Y-2.5
X6.4435Y-2.5
X6.4691Y-2.5
X6.4947Y-2.5
X6.5203Y-2.5
X6.5459Y-2.5
X6.5715Y-2.5
X6.597Y-2.5
X6.6226Y-2.5
X6.6482Y-2.5
X6.6738Y-2.5
X6.6994Y-2.5
X6.725Y-2.5
X6.8657Y-2.6421
X6.8657Y-2.6677
X6.8657Y-2.6933
X6.8657Y-2.7189
X6.8657Y-2.7445
X6.8657Y-2.7701
X6.8657Y-2.7957
X6.8657Y-2.8213
X6.8657Y-2.8469
X6.8657Y-2.8724
X6.8657Y-2.898
X6.8657Y-2.9236
X6.8657Y-2.9492
X6.8657Y-2.9748
X6.8657Y-3.0004
T3
X6.7667Y-2.4203
X6.8238Y-2.3671
X6.8258Y-2.4793
X6.8789Y-2.4222
X6.8809Y-2.5344
X6.938Y-2.4813
X6.94Y-2.5935
X6.9931Y-2.5364
T0
M30
