%TF.GenerationSoftware,KiCad,Pcbnew,7.0.7*%
%TF.CreationDate,2024-03-24T16:36:28-04:00*%
%TF.ProjectId,RCP-FLEX,5243502d-464c-4455-982e-6b696361645f,rev?*%
%TF.SameCoordinates,Original*%
%TF.FileFunction,Copper,L2,Bot*%
%TF.FilePolarity,Positive*%
%FSLAX46Y46*%
G04 Gerber Fmt 4.6, Leading zero omitted, Abs format (unit mm)*
G04 Created by KiCad (PCBNEW 7.0.7) date 2024-03-24 16:36:28*
%MOMM*%
%LPD*%
G01*
G04 APERTURE LIST*
%TA.AperFunction,ComponentPad*%
%ADD10O,0.400000X1.000000*%
%TD*%
%TA.AperFunction,ComponentPad*%
%ADD11O,1.000000X0.400000*%
%TD*%
%TA.AperFunction,ViaPad*%
%ADD12C,0.800000*%
%TD*%
%TA.AperFunction,ViaPad*%
%ADD13C,0.400000*%
%TD*%
%TA.AperFunction,Conductor*%
%ADD14C,0.250000*%
%TD*%
G04 APERTURE END LIST*
D10*
%TO.P,TP2,1,1*%
%TO.N,Net-(TP2-Pad1)*%
X160415000Y-63500000D03*
%TD*%
%TO.P,TP9,1,1*%
%TO.N,Net-(TP42-Pad1)*%
X164965000Y-63500000D03*
%TD*%
D11*
%TO.P,TP31,1,1*%
%TO.N,GND*%
X174390000Y-74910000D03*
%TD*%
D10*
%TO.P,TP5,1,1*%
%TO.N,Net-(TP38-Pad1)*%
X162365000Y-63500000D03*
%TD*%
D11*
%TO.P,TP24,1,1*%
%TO.N,Net-(TP24-Pad1)*%
X174390000Y-70360000D03*
%TD*%
D10*
%TO.P,TP1,1,1*%
%TO.N,Net-(TP1-Pad1)*%
X159765000Y-63500000D03*
%TD*%
%TO.P,TP6,1,1*%
%TO.N,Net-(TP39-Pad1)*%
X163015000Y-63500000D03*
%TD*%
D11*
%TO.P,TP23,1,1*%
%TO.N,GND*%
X174390000Y-69710000D03*
%TD*%
D10*
%TO.P,TP14,1,1*%
%TO.N,Net-(TP14-Pad1)*%
X168215000Y-63500000D03*
%TD*%
%TO.P,TP11,1,1*%
%TO.N,GND*%
X166265000Y-63500000D03*
%TD*%
%TO.P,TP18,1,1*%
%TO.N,Net-(TP18-Pad1)*%
X170815000Y-63500000D03*
%TD*%
%TO.P,TP17,1,1*%
%TO.N,GND*%
X170165000Y-63500000D03*
%TD*%
%TO.P,TP4,1,1*%
%TO.N,GND*%
X161715000Y-63500000D03*
%TD*%
%TO.P,TP10,1,1*%
%TO.N,unconnected-(TP10-Pad1)*%
X165615000Y-63500000D03*
%TD*%
D11*
%TO.P,TP29,1,1*%
%TO.N,GND*%
X174390000Y-73610000D03*
%TD*%
%TO.P,TP27,1,1*%
%TO.N,Net-(TP27-Pad1)*%
X174390000Y-72310000D03*
%TD*%
D10*
%TO.P,TP15,1,1*%
%TO.N,Net-(TP15-Pad1)*%
X168865000Y-63500000D03*
%TD*%
%TO.P,TP12,1,1*%
%TO.N,Net-(TP12-Pad1)*%
X166915000Y-63500000D03*
%TD*%
%TO.P,TP7,1,1*%
%TO.N,Net-(TP40-Pad1)*%
X163665000Y-63500000D03*
%TD*%
%TO.P,TP8,1,1*%
%TO.N,Net-(TP41-Pad1)*%
X164315000Y-63500000D03*
%TD*%
%TO.P,TP16,1,1*%
%TO.N,unconnected-(TP16-Pad1)*%
X169515000Y-63500000D03*
%TD*%
D11*
%TO.P,TP20,1,1*%
%TO.N,Net-(TP20-Pad1)*%
X174390000Y-67760000D03*
%TD*%
%TO.P,TP25,1,1*%
%TO.N,Net-(TP25-Pad1)*%
X174390000Y-71010000D03*
%TD*%
%TO.P,TP21,1,1*%
%TO.N,Net-(TP21-Pad1)*%
X174390000Y-68410000D03*
%TD*%
%TO.P,TP22,1,1*%
%TO.N,unconnected-(TP22-Pad1)*%
X174390000Y-69060000D03*
%TD*%
D10*
%TO.P,TP3,1,1*%
%TO.N,unconnected-(TP3-Pad1)*%
X161065000Y-63500000D03*
%TD*%
D11*
%TO.P,TP30,1,1*%
%TO.N,unconnected-(TP30-Pad1)*%
X174390000Y-74260000D03*
%TD*%
%TO.P,TP19,1,1*%
%TO.N,Net-(TP19-Pad1)*%
X174390000Y-67110000D03*
%TD*%
%TO.P,TP33,1,1*%
%TO.N,Net-(TP33-Pad1)*%
X174390000Y-76210000D03*
%TD*%
%TO.P,TP28,1,1*%
%TO.N,Net-(TP28-Pad1)*%
X174390000Y-72960000D03*
%TD*%
%TO.P,TP26,1,1*%
%TO.N,Net-(TP26-Pad1)*%
X174390000Y-71660000D03*
%TD*%
%TO.P,TP32,1,1*%
%TO.N,unconnected-(TP32-Pad1)*%
X174390000Y-75560000D03*
%TD*%
D10*
%TO.P,TP13,1,1*%
%TO.N,Net-(TP13-Pad1)*%
X167565000Y-63500000D03*
%TD*%
D12*
%TO.N,GND*%
X173325000Y-60125000D03*
X174725000Y-61525000D03*
X176225000Y-63025000D03*
X177625000Y-64425000D03*
X176275000Y-65875000D03*
X174775000Y-64375000D03*
X173375000Y-62975000D03*
X171875000Y-61475000D03*
D13*
%TO.N,Net-(TP1-Pad1)*%
X159760000Y-63200000D03*
%TO.N,Net-(TP2-Pad1)*%
X160410000Y-63200000D03*
%TO.N,Net-(TP38-Pad1)*%
X162360000Y-63200000D03*
%TO.N,Net-(TP39-Pad1)*%
X163010000Y-63200000D03*
%TO.N,Net-(TP40-Pad1)*%
X163660000Y-63200000D03*
%TO.N,Net-(TP41-Pad1)*%
X164310000Y-63200000D03*
%TO.N,Net-(TP42-Pad1)*%
X164960000Y-63200000D03*
%TO.N,Net-(TP12-Pad1)*%
X166910000Y-63200000D03*
%TO.N,Net-(TP13-Pad1)*%
X167560000Y-63200000D03*
%TO.N,Net-(TP14-Pad1)*%
X168210000Y-63200000D03*
%TO.N,Net-(TP15-Pad1)*%
X168860000Y-63200000D03*
%TO.N,Net-(TP18-Pad1)*%
X170810000Y-63200000D03*
%TO.N,Net-(TP19-Pad1)*%
X174690000Y-67110000D03*
%TO.N,Net-(TP20-Pad1)*%
X174690000Y-67760000D03*
%TO.N,Net-(TP21-Pad1)*%
X174690000Y-68410000D03*
%TO.N,Net-(TP24-Pad1)*%
X174690000Y-70360000D03*
%TO.N,Net-(TP25-Pad1)*%
X174690000Y-71010000D03*
%TO.N,Net-(TP26-Pad1)*%
X174690000Y-71660000D03*
%TO.N,Net-(TP27-Pad1)*%
X174690000Y-72310000D03*
%TO.N,Net-(TP28-Pad1)*%
X174690000Y-72960000D03*
%TO.N,Net-(TP33-Pad1)*%
X174690000Y-76210000D03*
%TO.N,unconnected-(TP3-Pad1)*%
X161070000Y-63200000D03*
%TO.N,unconnected-(TP10-Pad1)*%
X165620000Y-63200000D03*
%TO.N,unconnected-(TP16-Pad1)*%
X169510000Y-63200000D03*
%TO.N,unconnected-(TP22-Pad1)*%
X174690000Y-69060000D03*
%TO.N,unconnected-(TP30-Pad1)*%
X174690000Y-74260000D03*
%TO.N,unconnected-(TP32-Pad1)*%
X174690000Y-75560000D03*
%TO.N,GND*%
X174690000Y-73610000D03*
X170160000Y-63200000D03*
X174690000Y-69710000D03*
X174690000Y-74910000D03*
X166260000Y-63200000D03*
X161720000Y-63200000D03*
%TD*%
D14*
%TO.N,unconnected-(TP3-Pad1)*%
X161065000Y-63500000D02*
X161065000Y-63107538D01*
%TD*%
%TA.AperFunction,Conductor*%
%TO.N,GND*%
G36*
X171416819Y-57369407D02*
G01*
X171428820Y-57379685D01*
X177474877Y-63458691D01*
X180545694Y-66546243D01*
X180573323Y-66600835D01*
X180574500Y-66616056D01*
X180574500Y-75583783D01*
X180555593Y-75641974D01*
X180545504Y-75653787D01*
X179603827Y-76595463D01*
X179549310Y-76623240D01*
X179533728Y-76624459D01*
X175085134Y-76620169D01*
X175026961Y-76601206D01*
X174991045Y-76551671D01*
X174991104Y-76490486D01*
X175015228Y-76451163D01*
X175018050Y-76448342D01*
X175075646Y-76335304D01*
X175095492Y-76210000D01*
X175075646Y-76084696D01*
X175018050Y-75971658D01*
X175001393Y-75955001D01*
X174973618Y-75900487D01*
X174983189Y-75840055D01*
X175001397Y-75814995D01*
X175018048Y-75798344D01*
X175018048Y-75798343D01*
X175018050Y-75798342D01*
X175075646Y-75685304D01*
X175095492Y-75560000D01*
X175075646Y-75434696D01*
X175018050Y-75321658D01*
X174928342Y-75231950D01*
X174924406Y-75229944D01*
X174815307Y-75174355D01*
X174815304Y-75174354D01*
X174690000Y-75154508D01*
X174666178Y-75158281D01*
X174650691Y-75159500D01*
X174490814Y-75159500D01*
X174432623Y-75140593D01*
X174396659Y-75091093D01*
X174391814Y-75060416D01*
X174392068Y-74759416D01*
X174411024Y-74701242D01*
X174460555Y-74665320D01*
X174491068Y-74660500D01*
X174650691Y-74660500D01*
X174666177Y-74661718D01*
X174690000Y-74665492D01*
X174815304Y-74645646D01*
X174928342Y-74588050D01*
X175018050Y-74498342D01*
X175075646Y-74385304D01*
X175095492Y-74260000D01*
X175075646Y-74134696D01*
X175018050Y-74021658D01*
X174928342Y-73931950D01*
X174924406Y-73929944D01*
X174815307Y-73874355D01*
X174815304Y-73874354D01*
X174690000Y-73854508D01*
X174666178Y-73858281D01*
X174650691Y-73859500D01*
X174491909Y-73859500D01*
X174433718Y-73840593D01*
X174397754Y-73791093D01*
X174392909Y-73760416D01*
X174393163Y-73459416D01*
X174412119Y-73401242D01*
X174461650Y-73365320D01*
X174492163Y-73360500D01*
X174650691Y-73360500D01*
X174666177Y-73361718D01*
X174690000Y-73365492D01*
X174815304Y-73345646D01*
X174928342Y-73288050D01*
X175018050Y-73198342D01*
X175075646Y-73085304D01*
X175095492Y-72960000D01*
X175075646Y-72834696D01*
X175018050Y-72721658D01*
X175001393Y-72705001D01*
X174973618Y-72650487D01*
X174983189Y-72590055D01*
X175001392Y-72564999D01*
X175018050Y-72548342D01*
X175075646Y-72435304D01*
X175095492Y-72310000D01*
X175075646Y-72184696D01*
X175018050Y-72071658D01*
X175001393Y-72055001D01*
X174973618Y-72000487D01*
X174983189Y-71940055D01*
X175001397Y-71914995D01*
X175018048Y-71898344D01*
X175018048Y-71898343D01*
X175018050Y-71898342D01*
X175075646Y-71785304D01*
X175095492Y-71660000D01*
X175075646Y-71534696D01*
X175018050Y-71421658D01*
X175001393Y-71405001D01*
X174973618Y-71350487D01*
X174983189Y-71290055D01*
X175001392Y-71264999D01*
X175018050Y-71248342D01*
X175075646Y-71135304D01*
X175095492Y-71010000D01*
X175075646Y-70884696D01*
X175018050Y-70771658D01*
X175001393Y-70755001D01*
X174973618Y-70700487D01*
X174983189Y-70640055D01*
X175001397Y-70614995D01*
X175018048Y-70598344D01*
X175018048Y-70598343D01*
X175018050Y-70598342D01*
X175075646Y-70485304D01*
X175095492Y-70360000D01*
X175075646Y-70234696D01*
X175018050Y-70121658D01*
X174928342Y-70031950D01*
X174924406Y-70029944D01*
X174815307Y-69974355D01*
X174815304Y-69974354D01*
X174690000Y-69954508D01*
X174666178Y-69958281D01*
X174650691Y-69959500D01*
X174495195Y-69959500D01*
X174437004Y-69940593D01*
X174401040Y-69891093D01*
X174396195Y-69860416D01*
X174396449Y-69559416D01*
X174415405Y-69501242D01*
X174464936Y-69465320D01*
X174495449Y-69460500D01*
X174650691Y-69460500D01*
X174666177Y-69461718D01*
X174690000Y-69465492D01*
X174815304Y-69445646D01*
X174928342Y-69388050D01*
X175018050Y-69298342D01*
X175075646Y-69185304D01*
X175095492Y-69060000D01*
X175075646Y-68934696D01*
X175018050Y-68821658D01*
X175001393Y-68805001D01*
X174973618Y-68750487D01*
X174983189Y-68690055D01*
X175001392Y-68664999D01*
X175018050Y-68648342D01*
X175075646Y-68535304D01*
X175095492Y-68410000D01*
X175075646Y-68284696D01*
X175018050Y-68171658D01*
X175001393Y-68155001D01*
X174973618Y-68100487D01*
X174983189Y-68040055D01*
X175001397Y-68014995D01*
X175018048Y-67998344D01*
X175018048Y-67998343D01*
X175018050Y-67998342D01*
X175075646Y-67885304D01*
X175095492Y-67760000D01*
X175075646Y-67634696D01*
X175018050Y-67521658D01*
X175001393Y-67505001D01*
X174973618Y-67450487D01*
X174983189Y-67390055D01*
X175001392Y-67364999D01*
X175018050Y-67348342D01*
X175075646Y-67235304D01*
X175095492Y-67110000D01*
X175075646Y-66984696D01*
X175018050Y-66871658D01*
X174928342Y-66781950D01*
X174924406Y-66779944D01*
X174815307Y-66724355D01*
X174815304Y-66724354D01*
X174690000Y-66704508D01*
X174666178Y-66708281D01*
X174650691Y-66709500D01*
X174497932Y-66709500D01*
X174439741Y-66690593D01*
X174403777Y-66641093D01*
X174398932Y-66610417D01*
X174400489Y-64761950D01*
X174400540Y-64750002D01*
X174400542Y-64750000D01*
X174400424Y-64749716D01*
X174400423Y-64749715D01*
X174400382Y-64749616D01*
X174387086Y-64736181D01*
X174386489Y-64735781D01*
X173161522Y-63510813D01*
X173150382Y-63499616D01*
X173150284Y-63499576D01*
X173150000Y-63499458D01*
X173149999Y-63499458D01*
X173130330Y-63499460D01*
X173130135Y-63499500D01*
X171314500Y-63499500D01*
X171256309Y-63480593D01*
X171220345Y-63431093D01*
X171215500Y-63400500D01*
X171215500Y-63168478D01*
X171210139Y-63134636D01*
X171200646Y-63074696D01*
X171143050Y-62961658D01*
X171053342Y-62871950D01*
X171008234Y-62848966D01*
X170940307Y-62814355D01*
X170940304Y-62814354D01*
X170815000Y-62794508D01*
X170814999Y-62794508D01*
X170814993Y-62794507D01*
X170813334Y-62794507D01*
X170810529Y-62794506D01*
X170810523Y-62794507D01*
X170810003Y-62794507D01*
X170684696Y-62814354D01*
X170684692Y-62814355D01*
X170571659Y-62871949D01*
X170481949Y-62961659D01*
X170424355Y-63074692D01*
X170424354Y-63074696D01*
X170404508Y-63199999D01*
X170404508Y-63200001D01*
X170413281Y-63255390D01*
X170414500Y-63270877D01*
X170414500Y-63400500D01*
X170395593Y-63458691D01*
X170346093Y-63494655D01*
X170315500Y-63499500D01*
X170014500Y-63499500D01*
X169956309Y-63480593D01*
X169920345Y-63431093D01*
X169915500Y-63400500D01*
X169915500Y-63168478D01*
X169910139Y-63134636D01*
X169900646Y-63074696D01*
X169843050Y-62961658D01*
X169753342Y-62871950D01*
X169708234Y-62848966D01*
X169640307Y-62814355D01*
X169640304Y-62814354D01*
X169515000Y-62794508D01*
X169514999Y-62794508D01*
X169514993Y-62794507D01*
X169513334Y-62794507D01*
X169510529Y-62794506D01*
X169510523Y-62794507D01*
X169510003Y-62794507D01*
X169384696Y-62814354D01*
X169384692Y-62814355D01*
X169271658Y-62871950D01*
X169271655Y-62871952D01*
X169257502Y-62886105D01*
X169202985Y-62913882D01*
X169142553Y-62904309D01*
X169117498Y-62886105D01*
X169103344Y-62871952D01*
X169103342Y-62871950D01*
X169044005Y-62841716D01*
X168990307Y-62814355D01*
X168990305Y-62814354D01*
X168990304Y-62814354D01*
X168950610Y-62808067D01*
X168864998Y-62794507D01*
X168860002Y-62794507D01*
X168758277Y-62810619D01*
X168734696Y-62814354D01*
X168734695Y-62814354D01*
X168734692Y-62814355D01*
X168621658Y-62871950D01*
X168621654Y-62871952D01*
X168607499Y-62886107D01*
X168552981Y-62913882D01*
X168492549Y-62904307D01*
X168467499Y-62886107D01*
X168453342Y-62871950D01*
X168408234Y-62848966D01*
X168340307Y-62814355D01*
X168340304Y-62814354D01*
X168215000Y-62794508D01*
X168214999Y-62794508D01*
X168214993Y-62794507D01*
X168213334Y-62794507D01*
X168210529Y-62794506D01*
X168210523Y-62794507D01*
X168210003Y-62794507D01*
X168084696Y-62814354D01*
X168084692Y-62814355D01*
X167971658Y-62871950D01*
X167971655Y-62871952D01*
X167957502Y-62886105D01*
X167902985Y-62913882D01*
X167842553Y-62904309D01*
X167817498Y-62886105D01*
X167803344Y-62871952D01*
X167803342Y-62871950D01*
X167744005Y-62841716D01*
X167690307Y-62814355D01*
X167690305Y-62814354D01*
X167690304Y-62814354D01*
X167650610Y-62808067D01*
X167564998Y-62794507D01*
X167560002Y-62794507D01*
X167458277Y-62810619D01*
X167434696Y-62814354D01*
X167434695Y-62814354D01*
X167434692Y-62814355D01*
X167321658Y-62871950D01*
X167321655Y-62871952D01*
X167307502Y-62886105D01*
X167252985Y-62913882D01*
X167192553Y-62904309D01*
X167167498Y-62886105D01*
X167153344Y-62871952D01*
X167153342Y-62871950D01*
X167094005Y-62841716D01*
X167040307Y-62814355D01*
X167040304Y-62814354D01*
X166915000Y-62794508D01*
X166914999Y-62794508D01*
X166914993Y-62794507D01*
X166913334Y-62794507D01*
X166910529Y-62794506D01*
X166910523Y-62794507D01*
X166910003Y-62794507D01*
X166784696Y-62814354D01*
X166784692Y-62814355D01*
X166671659Y-62871949D01*
X166581949Y-62961659D01*
X166524355Y-63074692D01*
X166524354Y-63074696D01*
X166504508Y-63199999D01*
X166504508Y-63200001D01*
X166513281Y-63255390D01*
X166514500Y-63270877D01*
X166514500Y-63400500D01*
X166495593Y-63458691D01*
X166446093Y-63494655D01*
X166415500Y-63499500D01*
X166114500Y-63499500D01*
X166056309Y-63480593D01*
X166020345Y-63431093D01*
X166015500Y-63400500D01*
X166015500Y-63270877D01*
X166016719Y-63255390D01*
X166025492Y-63200001D01*
X166025492Y-63199999D01*
X166020499Y-63168478D01*
X166005646Y-63074696D01*
X165948050Y-62961658D01*
X165858342Y-62871950D01*
X165813234Y-62848966D01*
X165745307Y-62814355D01*
X165745305Y-62814354D01*
X165745304Y-62814354D01*
X165705610Y-62808067D01*
X165619998Y-62794507D01*
X165615002Y-62794507D01*
X165513277Y-62810619D01*
X165489696Y-62814354D01*
X165489695Y-62814354D01*
X165489692Y-62814355D01*
X165376658Y-62871950D01*
X165376655Y-62871952D01*
X165360002Y-62888605D01*
X165305485Y-62916381D01*
X165245053Y-62906809D01*
X165219998Y-62888605D01*
X165203344Y-62871952D01*
X165203342Y-62871950D01*
X165144005Y-62841716D01*
X165090307Y-62814355D01*
X165090305Y-62814354D01*
X165090304Y-62814354D01*
X165050610Y-62808067D01*
X164964998Y-62794507D01*
X164960002Y-62794507D01*
X164858277Y-62810619D01*
X164834696Y-62814354D01*
X164834695Y-62814354D01*
X164834692Y-62814355D01*
X164721658Y-62871950D01*
X164721655Y-62871952D01*
X164707502Y-62886105D01*
X164652985Y-62913882D01*
X164592553Y-62904309D01*
X164567498Y-62886105D01*
X164553344Y-62871952D01*
X164553342Y-62871950D01*
X164494005Y-62841716D01*
X164440307Y-62814355D01*
X164440304Y-62814354D01*
X164315000Y-62794508D01*
X164314999Y-62794508D01*
X164314993Y-62794507D01*
X164313334Y-62794507D01*
X164310529Y-62794506D01*
X164310523Y-62794507D01*
X164310003Y-62794507D01*
X164184696Y-62814354D01*
X164184692Y-62814355D01*
X164071658Y-62871950D01*
X164071655Y-62871952D01*
X164057502Y-62886105D01*
X164002985Y-62913882D01*
X163942553Y-62904309D01*
X163917498Y-62886105D01*
X163903344Y-62871952D01*
X163903342Y-62871950D01*
X163844005Y-62841716D01*
X163790307Y-62814355D01*
X163790305Y-62814354D01*
X163790304Y-62814354D01*
X163750610Y-62808067D01*
X163664998Y-62794507D01*
X163660002Y-62794507D01*
X163558277Y-62810619D01*
X163534696Y-62814354D01*
X163534695Y-62814354D01*
X163534692Y-62814355D01*
X163421658Y-62871950D01*
X163421655Y-62871952D01*
X163407502Y-62886105D01*
X163352985Y-62913882D01*
X163292553Y-62904309D01*
X163267498Y-62886105D01*
X163253344Y-62871952D01*
X163253342Y-62871950D01*
X163194005Y-62841716D01*
X163140307Y-62814355D01*
X163140304Y-62814354D01*
X163015000Y-62794508D01*
X163014999Y-62794508D01*
X163014993Y-62794507D01*
X163013334Y-62794507D01*
X163010529Y-62794506D01*
X163010523Y-62794507D01*
X163010003Y-62794507D01*
X162884696Y-62814354D01*
X162884692Y-62814355D01*
X162771658Y-62871950D01*
X162771655Y-62871952D01*
X162757502Y-62886105D01*
X162702985Y-62913882D01*
X162642553Y-62904309D01*
X162617498Y-62886105D01*
X162603344Y-62871952D01*
X162603342Y-62871950D01*
X162544005Y-62841716D01*
X162490307Y-62814355D01*
X162490305Y-62814354D01*
X162490304Y-62814354D01*
X162450610Y-62808067D01*
X162364998Y-62794507D01*
X162360002Y-62794507D01*
X162258277Y-62810619D01*
X162234696Y-62814354D01*
X162234695Y-62814354D01*
X162234692Y-62814355D01*
X162121659Y-62871949D01*
X162031949Y-62961659D01*
X161974355Y-63074692D01*
X161974354Y-63074696D01*
X161954508Y-63199999D01*
X161954508Y-63200001D01*
X161963281Y-63255390D01*
X161964500Y-63270877D01*
X161964500Y-63400500D01*
X161945593Y-63458691D01*
X161896093Y-63494655D01*
X161865500Y-63499500D01*
X161564500Y-63499500D01*
X161506309Y-63480593D01*
X161470345Y-63431093D01*
X161465500Y-63400500D01*
X161465500Y-63270877D01*
X161466719Y-63255390D01*
X161475492Y-63200001D01*
X161475492Y-63199999D01*
X161470499Y-63168478D01*
X161455646Y-63074696D01*
X161398050Y-62961658D01*
X161308342Y-62871950D01*
X161308339Y-62871948D01*
X161308340Y-62871948D01*
X161273283Y-62854086D01*
X161254600Y-62841721D01*
X161230261Y-62821298D01*
X161122394Y-62782038D01*
X161007606Y-62782038D01*
X160973348Y-62794507D01*
X160899739Y-62821298D01*
X160867675Y-62848203D01*
X160848988Y-62860572D01*
X160826658Y-62871950D01*
X160826656Y-62871951D01*
X160810002Y-62888605D01*
X160755485Y-62916381D01*
X160695053Y-62906809D01*
X160669998Y-62888605D01*
X160653344Y-62871952D01*
X160653342Y-62871950D01*
X160594005Y-62841716D01*
X160540307Y-62814355D01*
X160540304Y-62814354D01*
X160415000Y-62794508D01*
X160414999Y-62794508D01*
X160414993Y-62794507D01*
X160413334Y-62794507D01*
X160410529Y-62794506D01*
X160410523Y-62794507D01*
X160410003Y-62794507D01*
X160284696Y-62814354D01*
X160284692Y-62814355D01*
X160171658Y-62871950D01*
X160171655Y-62871952D01*
X160157502Y-62886105D01*
X160102985Y-62913882D01*
X160042553Y-62904309D01*
X160017498Y-62886105D01*
X160003344Y-62871952D01*
X160003342Y-62871950D01*
X159944005Y-62841716D01*
X159890307Y-62814355D01*
X159890305Y-62814354D01*
X159890304Y-62814354D01*
X159850610Y-62808067D01*
X159764998Y-62794507D01*
X159760002Y-62794507D01*
X159658277Y-62810619D01*
X159634696Y-62814354D01*
X159634695Y-62814354D01*
X159634692Y-62814355D01*
X159521659Y-62871949D01*
X159431949Y-62961659D01*
X159374355Y-63074692D01*
X159374354Y-63074696D01*
X159354508Y-63199999D01*
X159354508Y-63200001D01*
X159362868Y-63252785D01*
X159353297Y-63313217D01*
X159310032Y-63356482D01*
X159249600Y-63366053D01*
X159195085Y-63338277D01*
X158129493Y-62272685D01*
X158101718Y-62218171D01*
X158100500Y-62202696D01*
X158100500Y-59041213D01*
X158119407Y-58983023D01*
X158129490Y-58971216D01*
X159721210Y-57379495D01*
X159775728Y-57351719D01*
X159791215Y-57350500D01*
X171358628Y-57350500D01*
X171416819Y-57369407D01*
G37*
%TD.AperFunction*%
%TD*%
M02*
