%TF.GenerationSoftware,KiCad,Pcbnew,7.0.7*%
%TF.CreationDate,2024-03-24T16:36:28-04:00*%
%TF.ProjectId,RCP-FLEX,5243502d-464c-4455-982e-6b696361645f,rev?*%
%TF.SameCoordinates,Original*%
%TF.FileFunction,Legend,Top*%
%TF.FilePolarity,Positive*%
%FSLAX46Y46*%
G04 Gerber Fmt 4.6, Leading zero omitted, Abs format (unit mm)*
G04 Created by KiCad (PCBNEW 7.0.7) date 2024-03-24 16:36:28*
%MOMM*%
%LPD*%
G01*
G04 APERTURE LIST*
%ADD10C,0.120000*%
G04 APERTURE END LIST*
D10*
%TO.C,TP51*%
X172600000Y-60050000D02*
G75*
G03*
X172600000Y-60050000I-700000J0D01*
G01*
X174000000Y-61550000D02*
G75*
G03*
X174000000Y-61550000I-700000J0D01*
G01*
X178400000Y-65850000D02*
G75*
G03*
X178400000Y-65850000I-700000J0D01*
G01*
X176900000Y-64450000D02*
G75*
G03*
X176900000Y-64450000I-700000J0D01*
G01*
X175500000Y-62950000D02*
G75*
G03*
X175500000Y-62950000I-700000J0D01*
G01*
%TO.C,TP59*%
X178400000Y-72125000D02*
G75*
G03*
X178400000Y-72125000I-700000J0D01*
G01*
%TO.C,TP42*%
X166025000Y-60200000D02*
G75*
G03*
X166025000Y-60200000I-700000J0D01*
G01*
%TO.C,TP38*%
X161925000Y-60200000D02*
G75*
G03*
X161925000Y-60200000I-700000J0D01*
G01*
%TO.C,TP57*%
X178400000Y-70075000D02*
G75*
G03*
X178400000Y-70075000I-700000J0D01*
G01*
%TO.C,TP58*%
X180175000Y-71100000D02*
G75*
G03*
X180175000Y-71100000I-700000J0D01*
G01*
%TO.C,TP54*%
X180175000Y-69050000D02*
G75*
G03*
X180175000Y-69050000I-700000J0D01*
G01*
%TO.C,TP66*%
X180175000Y-75200000D02*
G75*
G03*
X180175000Y-75200000I-700000J0D01*
G01*
%TO.C,TP35*%
X160900000Y-58425000D02*
G75*
G03*
X160900000Y-58425000I-700000J0D01*
G01*
%TO.C,TP45*%
X167050000Y-58425000D02*
G75*
G03*
X167050000Y-58425000I-700000J0D01*
G01*
%TO.C,TP40*%
X163975000Y-60200000D02*
G75*
G03*
X163975000Y-60200000I-700000J0D01*
G01*
%TO.C,TP34*%
X159875000Y-60200000D02*
G75*
G03*
X159875000Y-60200000I-700000J0D01*
G01*
%TO.C,TP52*%
X180175000Y-67000000D02*
G75*
G03*
X180175000Y-67000000I-700000J0D01*
G01*
%TO.C,TP39*%
X162950000Y-58425000D02*
G75*
G03*
X162950000Y-58425000I-700000J0D01*
G01*
%TO.C,TP51*%
X171150000Y-58425000D02*
G75*
G03*
X171150000Y-58425000I-700000J0D01*
G01*
%TO.C,TP48*%
X170125000Y-60200000D02*
G75*
G03*
X170125000Y-60200000I-700000J0D01*
G01*
%TO.C,TP61*%
X178400000Y-74175000D02*
G75*
G03*
X178400000Y-74175000I-700000J0D01*
G01*
%TO.C,TP60*%
X180175000Y-73150000D02*
G75*
G03*
X180175000Y-73150000I-700000J0D01*
G01*
%TO.C,TP53*%
X178400000Y-68025000D02*
G75*
G03*
X178400000Y-68025000I-700000J0D01*
G01*
%TO.C,TP41*%
X165000000Y-58425000D02*
G75*
G03*
X165000000Y-58425000I-700000J0D01*
G01*
%TO.C,TP47*%
X169100000Y-58425000D02*
G75*
G03*
X169100000Y-58425000I-700000J0D01*
G01*
%TO.C,TP46*%
X168075000Y-60200000D02*
G75*
G03*
X168075000Y-60200000I-700000J0D01*
G01*
%TD*%
M02*
