M48
; DRILL file {KiCad 7.0.7} date Mon Sep 18 17:27:48 2023
; FORMAT={-:-/ absolute / inch / decimal}
; #@! TF.CreationDate,2023-09-18T17:27:48-04:00
; #@! TF.GenerationSoftware,Kicad,Pcbnew,7.0.7
; #@! TF.FileFunction,Plated,1,2,PTH
FMAT,2
INCH
; #@! TA.AperFunction,Plated,PTH,ViaDrill
T1C0.0157
; #@! TA.AperFunction,Plated,PTH,ComponentDrill
T2C0.0394
%
G90
G05
T1
X5.6358Y-3.7343
X5.7146Y-3.7343
X5.935Y-3.9252
X5.9941Y-3.9685
X6.0728Y-3.9252
X6.0771Y-3.9685
X6.1024Y-3.8248
X6.1601Y-3.9685
X6.1909Y-3.9252
X6.2431Y-3.9685
X6.25Y-3.7382
X6.3091Y-3.9252
X6.3261Y-3.9685
X6.3386Y-3.8189
X6.376Y-3.7165
X6.4091Y-3.9685
X6.4665Y-3.9252
X6.4823Y-3.8287
X6.4921Y-3.9685
X6.5276Y-3.9311
X6.5394Y-3.8287
X6.5846Y-3.9311
X6.624Y-3.9311
X6.6634Y-3.9311
X6.7362Y-3.8287
T2
X5.0992Y-3.5517
X5.0992Y-3.6517
X5.1992Y-3.5517
X5.1992Y-3.6517
X5.2992Y-3.5517
X5.2992Y-3.6517
X5.3992Y-3.5517
X5.3992Y-3.6517
X5.4992Y-3.5517
X5.4992Y-3.6517
X5.5992Y-3.5517
X5.5992Y-3.6517
X5.6992Y-3.5517
X5.6992Y-3.6517
X5.7992Y-3.5517
X5.7992Y-3.6517
X5.8992Y-3.5517
X5.8992Y-3.6517
X5.9992Y-3.5517
X5.9992Y-3.6517
X6.0992Y-3.5517
X6.0992Y-3.6517
X6.1992Y-3.5517
X6.1992Y-3.6517
X6.2992Y-3.5517
X6.2992Y-3.6517
X6.3992Y-3.5517
X6.3992Y-3.6517
X6.4992Y-3.5517
X6.4992Y-3.6517
X6.5992Y-3.5517
X6.5992Y-3.6517
X6.6992Y-3.5517
X6.6992Y-3.6517
X6.7992Y-3.5517
X6.7992Y-3.6517
X6.8992Y-3.5517
X6.8992Y-3.6517
X6.9992Y-3.5517
X6.9992Y-3.6517
X7.0992Y-3.5517
X7.0992Y-3.6517
X7.1992Y-3.5517
X7.1992Y-3.6517
X7.2992Y-3.5517
X7.2992Y-3.6517
X7.3992Y-3.5517
X7.3992Y-3.6517
X7.4992Y-3.5517
X7.4992Y-3.6517
T0
M30
