%TF.GenerationSoftware,KiCad,Pcbnew,7.0.7*%
%TF.CreationDate,2023-09-18T17:27:43-04:00*%
%TF.ProjectId,N64 Cart FFC WRONG WAY,4e363420-4361-4727-9420-464643205752,rev?*%
%TF.SameCoordinates,Original*%
%TF.FileFunction,Legend,Top*%
%TF.FilePolarity,Positive*%
%FSLAX46Y46*%
G04 Gerber Fmt 4.6, Leading zero omitted, Abs format (unit mm)*
G04 Created by KiCad (PCBNEW 7.0.7) date 2023-09-18 17:27:43*
%MOMM*%
%LPD*%
G01*
G04 APERTURE LIST*
%ADD10C,0.127000*%
%ADD11C,0.200000*%
%ADD12C,0.120000*%
G04 APERTURE END LIST*
D10*
%TO.C,J2*%
X147650000Y-98375000D02*
X147650000Y-100305000D01*
X147650000Y-102325000D02*
X148450000Y-102325000D01*
X148300000Y-98375000D02*
X147650000Y-98375000D01*
X148300000Y-98775000D02*
X148300000Y-98375000D01*
X148300000Y-98775000D02*
X149780000Y-98775000D01*
X148450000Y-102325000D02*
X148450000Y-103625000D01*
X148450000Y-103625000D02*
X171550000Y-103625000D01*
X170220000Y-98775000D02*
X171700000Y-98775000D01*
X171550000Y-102325000D02*
X172350000Y-102325000D01*
X171550000Y-103625000D02*
X171550000Y-102325000D01*
X171700000Y-98375000D02*
X171700000Y-98775000D01*
X172350000Y-98375000D02*
X171700000Y-98375000D01*
X172350000Y-100305000D02*
X172350000Y-98375000D01*
D11*
X150350000Y-97500000D02*
G75*
G03*
X150350000Y-97500000I-100000J0D01*
G01*
D12*
%TO.C,J1*%
X129020000Y-97432500D02*
X130020000Y-97432500D01*
X130020000Y-97432500D02*
X129520000Y-96432500D01*
X129520000Y-96432500D02*
X129020000Y-97432500D01*
X124310000Y-96042500D02*
X124310000Y-86922500D01*
X157950000Y-96042500D02*
X157950000Y-94732500D01*
X195690000Y-96042500D02*
X124310000Y-96042500D01*
X125610000Y-94732500D02*
X125610000Y-88232500D01*
X157950000Y-94732500D02*
X125610000Y-94732500D01*
X162050000Y-94732500D02*
X162050000Y-96042500D01*
X162050000Y-94732500D02*
X162050000Y-94732500D01*
X194390000Y-94732500D02*
X162050000Y-94732500D01*
X125610000Y-88232500D02*
X194390000Y-88232500D01*
X194390000Y-88232500D02*
X194390000Y-94732500D01*
X124310000Y-86922500D02*
X195690000Y-86922500D01*
X195690000Y-86922500D02*
X195690000Y-96042500D01*
%TD*%
M02*
