%TF.GenerationSoftware,KiCad,Pcbnew,7.0.7*%
%TF.CreationDate,2023-09-18T17:27:43-04:00*%
%TF.ProjectId,N64 Cart FFC WRONG WAY,4e363420-4361-4727-9420-464643205752,rev?*%
%TF.SameCoordinates,Original*%
%TF.FileFunction,Copper,L1,Top*%
%TF.FilePolarity,Positive*%
%FSLAX46Y46*%
G04 Gerber Fmt 4.6, Leading zero omitted, Abs format (unit mm)*
G04 Created by KiCad (PCBNEW 7.0.7) date 2023-09-18 17:27:43*
%MOMM*%
%LPD*%
G01*
G04 APERTURE LIST*
G04 Aperture macros list*
%AMRoundRect*
0 Rectangle with rounded corners*
0 $1 Rounding radius*
0 $2 $3 $4 $5 $6 $7 $8 $9 X,Y pos of 4 corners*
0 Add a 4 corners polygon primitive as box body*
4,1,4,$2,$3,$4,$5,$6,$7,$8,$9,$2,$3,0*
0 Add four circle primitives for the rounded corners*
1,1,$1+$1,$2,$3*
1,1,$1+$1,$4,$5*
1,1,$1+$1,$6,$7*
1,1,$1+$1,$8,$9*
0 Add four rect primitives between the rounded corners*
20,1,$1+$1,$2,$3,$4,$5,0*
20,1,$1+$1,$4,$5,$6,$7,0*
20,1,$1+$1,$6,$7,$8,$9,0*
20,1,$1+$1,$8,$9,$2,$3,0*%
G04 Aperture macros list end*
%TA.AperFunction,SMDPad,CuDef*%
%ADD10R,0.300000X1.000000*%
%TD*%
%TA.AperFunction,SMDPad,CuDef*%
%ADD11R,2.000000X1.300000*%
%TD*%
%TA.AperFunction,ComponentPad*%
%ADD12RoundRect,0.250000X0.600000X-0.600000X0.600000X0.600000X-0.600000X0.600000X-0.600000X-0.600000X0*%
%TD*%
%TA.AperFunction,ComponentPad*%
%ADD13C,1.700000*%
%TD*%
%TA.AperFunction,ViaPad*%
%ADD14C,0.800000*%
%TD*%
%TA.AperFunction,Conductor*%
%ADD15C,0.250000*%
%TD*%
G04 APERTURE END LIST*
D10*
%TO.P,J2,1,Pin_1*%
%TO.N,RCP-58*%
X150250000Y-98575000D03*
%TO.P,J2,2,Pin_2*%
%TO.N,RCP-57*%
X150750000Y-98575000D03*
%TO.P,J2,3,Pin_3*%
%TO.N,3v3*%
X151250000Y-98575000D03*
%TO.P,J2,4,Pin_4*%
%TO.N,GND*%
X151750000Y-98575000D03*
%TO.P,J2,5,Pin_5*%
%TO.N,RCP-54*%
X152250000Y-98575000D03*
%TO.P,J2,6,Pin_6*%
%TO.N,RCP-53*%
X152750000Y-98575000D03*
%TO.P,J2,7,Pin_7*%
%TO.N,RCP-52*%
X153250000Y-98575000D03*
%TO.P,J2,8,Pin_8*%
%TO.N,RCP-51*%
X153750000Y-98575000D03*
%TO.P,J2,9,Pin_9*%
%TO.N,RCP-50*%
X154250000Y-98575000D03*
%TO.P,J2,10,Pin_10*%
%TO.N,3v3*%
X154750000Y-98575000D03*
%TO.P,J2,11,Pin_11*%
%TO.N,GND*%
X155250000Y-98575000D03*
%TO.P,J2,12,Pin_12*%
%TO.N,RCP-47*%
X155750000Y-98575000D03*
%TO.P,J2,13,Pin_13*%
%TO.N,RCP-46*%
X156250000Y-98575000D03*
%TO.P,J2,14,Pin_14*%
%TO.N,RCP-45*%
X156750000Y-98575000D03*
%TO.P,J2,15,Pin_15*%
%TO.N,RCP-44*%
X157250000Y-98575000D03*
%TO.P,J2,16,Pin_16*%
%TO.N,3v3*%
X157750000Y-98575000D03*
%TO.P,J2,17,Pin_17*%
%TO.N,GND*%
X158250000Y-98575000D03*
%TO.P,J2,18,Pin_18*%
%TO.N,RCP-41*%
X158750000Y-98575000D03*
%TO.P,J2,19,Pin_19*%
%TO.N,RCP-40*%
X159250000Y-98575000D03*
%TO.P,J2,20,Pin_20*%
%TO.N,RCP-39*%
X159750000Y-98575000D03*
%TO.P,J2,21,Pin_21*%
%TO.N,RCP-38*%
X160250000Y-98575000D03*
%TO.P,J2,22,Pin_22*%
%TO.N,3v3*%
X160750000Y-98575000D03*
%TO.P,J2,23,Pin_23*%
%TO.N,GND*%
X161250000Y-98575000D03*
%TO.P,J2,24,Pin_24*%
%TO.N,RCP-35*%
X161750000Y-98575000D03*
%TO.P,J2,25,Pin_25*%
%TO.N,RCP-34*%
X162250000Y-98575000D03*
%TO.P,J2,26,Pin_26*%
%TO.N,RCP-33*%
X162750000Y-98575000D03*
%TO.P,J2,27,Pin_27*%
%TO.N,RCP-32*%
X163250000Y-98575000D03*
%TO.P,J2,28,Pin_28*%
%TO.N,RCP-31*%
X163750000Y-98575000D03*
%TO.P,J2,29,Pin_29*%
%TO.N,GND*%
X164250000Y-98575000D03*
%TO.P,J2,30,Pin_30*%
%TO.N,3v3*%
X164750000Y-98575000D03*
%TO.P,J2,31,Pin_31*%
%TO.N,GND*%
X165250000Y-98575000D03*
%TO.P,J2,32,Pin_32*%
%TO.N,3v3*%
X165750000Y-98575000D03*
%TO.P,J2,33,Pin_33*%
%TO.N,RCP-26*%
X166250000Y-98575000D03*
%TO.P,J2,34,Pin_34*%
%TO.N,PIF-1*%
X166750000Y-98575000D03*
%TO.P,J2,35,Pin_35*%
%TO.N,PIF-3*%
X167250000Y-98575000D03*
%TO.P,J2,36,Pin_36*%
%TO.N,PIF-5*%
X167750000Y-98575000D03*
%TO.P,J2,37,Pin_37*%
%TO.N,PIF-7*%
X168250000Y-98575000D03*
%TO.P,J2,38,Pin_38*%
%TO.N,PIF-23*%
X168750000Y-98575000D03*
%TO.P,J2,39,Pin_39*%
%TO.N,CPU-57*%
X169250000Y-98575000D03*
%TO.P,J2,40,Pin_40*%
%TO.N,SYNC*%
X169750000Y-98575000D03*
D11*
%TO.P,J2,MP*%
%TO.N,GND*%
X147950000Y-101275000D03*
X172050000Y-101275000D03*
%TD*%
D12*
%TO.P,J1,1,Pin_1*%
%TO.N,GND*%
X129520000Y-92752500D03*
D13*
%TO.P,J1,2,Pin_2*%
X129520000Y-90212500D03*
%TO.P,J1,3,Pin_3*%
X132060000Y-92752500D03*
%TO.P,J1,4,Pin_4*%
X132060000Y-90212500D03*
%TO.P,J1,5,Pin_5*%
%TO.N,RCP-58*%
X134600000Y-92752500D03*
%TO.P,J1,6,Pin_6*%
%TO.N,RCP-57*%
X134600000Y-90212500D03*
%TO.P,J1,7,Pin_7*%
%TO.N,RCP-54*%
X137140000Y-92752500D03*
%TO.P,J1,8,Pin_8*%
%TO.N,RCP-53*%
X137140000Y-90212500D03*
%TO.P,J1,9,Pin_9*%
%TO.N,RCP-52*%
X139680000Y-92752500D03*
%TO.P,J1,10,Pin_10*%
%TO.N,RCP-51*%
X139680000Y-90212500D03*
%TO.P,J1,11,Pin_11*%
%TO.N,GND*%
X142220000Y-92752500D03*
%TO.P,J1,12,Pin_12*%
X142220000Y-90212500D03*
%TO.P,J1,13,Pin_13*%
%TO.N,RCP-50*%
X144760000Y-92752500D03*
%TO.P,J1,14,Pin_14*%
%TO.N,RCP-47*%
X144760000Y-90212500D03*
%TO.P,J1,15,Pin_15*%
%TO.N,RCP-46*%
X147300000Y-92752500D03*
%TO.P,J1,16,Pin_16*%
%TO.N,RCP-45*%
X147300000Y-90212500D03*
%TO.P,J1,17,Pin_17*%
%TO.N,3v3*%
X149840000Y-92752500D03*
%TO.P,J1,18,Pin_18*%
X149840000Y-90212500D03*
%TO.P,J1,19,Pin_19*%
%TO.N,RCP-44*%
X152380000Y-92752500D03*
%TO.P,J1,20,Pin_20*%
%TO.N,RCP-41*%
X152380000Y-90212500D03*
%TO.P,J1,21,Pin_21*%
%TO.N,RCP-40*%
X154920000Y-92752500D03*
%TO.P,J1,22,Pin_22*%
%TO.N,RCP-39*%
X154920000Y-90212500D03*
%TO.P,J1,23,Pin_23*%
%TO.N,RCP-38*%
X157460000Y-92752500D03*
%TO.P,J1,24,Pin_24*%
%TO.N,RCP-35*%
X157460000Y-90212500D03*
%TO.P,J1,25,Pin_25*%
%TO.N,unconnected-(J1-Pin_25-Pad25)*%
X160000000Y-92752500D03*
%TO.P,J1,26,Pin_26*%
%TO.N,unconnected-(J1-Pin_26-Pad26)*%
X160000000Y-90212500D03*
%TO.P,J1,27,Pin_27*%
%TO.N,unconnected-(J1-Pin_27-Pad27)*%
X162540000Y-92752500D03*
%TO.P,J1,28,Pin_28*%
%TO.N,unconnected-(J1-Pin_28-Pad28)*%
X162540000Y-90212500D03*
%TO.P,J1,29,Pin_29*%
%TO.N,RCP-34*%
X165080000Y-92752500D03*
%TO.P,J1,30,Pin_30*%
%TO.N,RCP-33*%
X165080000Y-90212500D03*
%TO.P,J1,31,Pin_31*%
%TO.N,RCP-32*%
X167620000Y-92752500D03*
%TO.P,J1,32,Pin_32*%
%TO.N,RCP-31*%
X167620000Y-90212500D03*
%TO.P,J1,33,Pin_33*%
%TO.N,3v3*%
X170160000Y-92752500D03*
%TO.P,J1,34,Pin_34*%
X170160000Y-90212500D03*
%TO.P,J1,35,Pin_35*%
%TO.N,PIF-5*%
X172700000Y-92752500D03*
%TO.P,J1,36,Pin_36*%
%TO.N,PIF-3*%
X172700000Y-90212500D03*
%TO.P,J1,37,Pin_37*%
%TO.N,PIF-1*%
X175240000Y-92752500D03*
%TO.P,J1,38,Pin_38*%
%TO.N,CPU-57*%
X175240000Y-90212500D03*
%TO.P,J1,39,Pin_39*%
%TO.N,RCP-26*%
X177780000Y-92752500D03*
%TO.P,J1,40,Pin_40*%
%TO.N,PIF-7*%
X177780000Y-90212500D03*
%TO.P,J1,41,Pin_41*%
%TO.N,PIF-23*%
X180320000Y-92752500D03*
%TO.P,J1,42,Pin_42*%
%TO.N,SYNC*%
X180320000Y-90212500D03*
%TO.P,J1,43,Pin_43*%
%TO.N,GND*%
X182860000Y-92752500D03*
%TO.P,J1,44,Pin_44*%
X182860000Y-90212500D03*
%TO.P,J1,45,Pin_45*%
X185400000Y-92752500D03*
%TO.P,J1,46,Pin_46*%
X185400000Y-90212500D03*
%TO.P,J1,47,Pin_47*%
%TO.N,unconnected-(J1-Pin_47-Pad47)*%
X187940000Y-92752500D03*
%TO.P,J1,48,Pin_48*%
%TO.N,unconnected-(J1-Pin_48-Pad48)*%
X187940000Y-90212500D03*
%TO.P,J1,49,Pin_49*%
%TO.N,GND*%
X190480000Y-92752500D03*
%TO.P,J1,50,Pin_50*%
X190480000Y-90212500D03*
%TD*%
D14*
%TO.N,GND*%
X164650000Y-97250000D03*
X171100000Y-97250000D03*
X156466666Y-100800000D03*
X154358333Y-100800000D03*
X158750000Y-94950000D03*
X161000000Y-97000000D03*
X160683332Y-100800000D03*
X158574999Y-100800000D03*
X164900000Y-100800000D03*
X155000000Y-97150000D03*
X145150000Y-94850000D03*
X161950000Y-94400000D03*
X162791665Y-100800000D03*
X143150000Y-94850000D03*
X152250000Y-100800000D03*
%TO.N,3v3*%
X166100000Y-97250000D03*
X160250000Y-99700000D03*
X157250000Y-99700000D03*
X150750000Y-99700000D03*
X164250000Y-99700000D03*
X154250000Y-99700000D03*
%TO.N,PIF-1*%
X167250000Y-99850000D03*
%TO.N,CPU-57*%
X169250000Y-99850000D03*
%TO.N,RCP-26*%
X165800000Y-99850000D03*
%TO.N,PIF-7*%
X168250000Y-99850000D03*
%TD*%
D15*
%TO.N,RCP-58*%
X139997500Y-98150000D02*
X150250000Y-98150000D01*
X150250000Y-98150000D02*
X150250000Y-98575000D01*
X134600000Y-92752500D02*
X139997500Y-98150000D01*
%TO.N,RCP-57*%
X134600000Y-90212500D02*
X135965000Y-91577500D01*
X140400000Y-97700000D02*
X150500000Y-97700000D01*
X135965000Y-93265000D02*
X140400000Y-97700000D01*
X150750000Y-97950000D02*
X150750000Y-98575000D01*
X150500000Y-97700000D02*
X150750000Y-97950000D01*
X135965000Y-91577500D02*
X135965000Y-93265000D01*
%TO.N,RCP-54*%
X137140000Y-92752500D02*
X141637500Y-97250000D01*
X152028235Y-97250000D02*
X152250000Y-97471765D01*
X141637500Y-97250000D02*
X152028235Y-97250000D01*
X152250000Y-97471765D02*
X152250000Y-98575000D01*
%TO.N,RCP-53*%
X152750000Y-97335369D02*
X152750000Y-98575000D01*
X138315000Y-91387500D02*
X138315000Y-93291104D01*
X137140000Y-90212500D02*
X138315000Y-91387500D01*
X141823896Y-96800000D02*
X152214631Y-96800000D01*
X138315000Y-93291104D02*
X141823896Y-96800000D01*
X152214631Y-96800000D02*
X152750000Y-97335369D01*
%TO.N,RCP-52*%
X152401027Y-96350000D02*
X153250000Y-97198973D01*
X139680000Y-92752500D02*
X139680000Y-94019708D01*
X153250000Y-97198973D02*
X153250000Y-98575000D01*
X139680000Y-94019708D02*
X142010292Y-96350000D01*
X142010292Y-96350000D02*
X152401027Y-96350000D01*
%TO.N,RCP-51*%
X139680000Y-90212500D02*
X140855000Y-91387500D01*
X140855000Y-94558312D02*
X142196688Y-95900000D01*
X153750000Y-97062577D02*
X153750000Y-98575000D01*
X142196688Y-95900000D02*
X152587423Y-95900000D01*
X140855000Y-91387500D02*
X140855000Y-94558312D01*
X152587423Y-95900000D02*
X153750000Y-97062577D01*
%TO.N,RCP-50*%
X152773819Y-95450000D02*
X154250000Y-96926181D01*
X147457500Y-95450000D02*
X152773819Y-95450000D01*
X154250000Y-96926181D02*
X154250000Y-98575000D01*
X144760000Y-92752500D02*
X147457500Y-95450000D01*
%TO.N,RCP-47*%
X152960215Y-95000000D02*
X153687715Y-95727500D01*
X145935000Y-91387500D02*
X145935000Y-93291104D01*
X153687715Y-95727500D02*
X154659124Y-95727500D01*
X147643896Y-95000000D02*
X152960215Y-95000000D01*
X145935000Y-93291104D02*
X147643896Y-95000000D01*
X144760000Y-90212500D02*
X145935000Y-91387500D01*
X155750000Y-96818376D02*
X155750000Y-98575000D01*
X154659124Y-95727500D02*
X155750000Y-96818376D01*
%TO.N,RCP-46*%
X147300000Y-92752500D02*
X149097500Y-94550000D01*
X153874111Y-95277500D02*
X154845520Y-95277500D01*
X153146611Y-94550000D02*
X153874111Y-95277500D01*
X156250000Y-96681980D02*
X156250000Y-98575000D01*
X154845520Y-95277500D02*
X156250000Y-96681980D01*
X149097500Y-94550000D02*
X153146611Y-94550000D01*
%TO.N,RCP-45*%
X148475000Y-93291104D02*
X149283896Y-94100000D01*
X147300000Y-90212500D02*
X148475000Y-91387500D01*
X153333007Y-94100000D02*
X154060507Y-94827500D01*
X155031916Y-94827500D02*
X156750000Y-96545584D01*
X148475000Y-91387500D02*
X148475000Y-93291104D01*
X149283896Y-94100000D02*
X153333007Y-94100000D01*
X156750000Y-96545584D02*
X156750000Y-98575000D01*
X154060507Y-94827500D02*
X155031916Y-94827500D01*
%TO.N,3v3*%
X165750000Y-98575000D02*
X165750000Y-97600000D01*
X157750000Y-99200000D02*
X157750000Y-98575000D01*
X160250000Y-99700000D02*
X160750000Y-99200000D01*
X151250000Y-99200000D02*
X151250000Y-98575000D01*
X165750000Y-97600000D02*
X166100000Y-97250000D01*
X154750000Y-99200000D02*
X154750000Y-98575000D01*
X164750000Y-99200000D02*
X164750000Y-98575000D01*
X157250000Y-99700000D02*
X157750000Y-99200000D01*
X150750000Y-99700000D02*
X151250000Y-99200000D01*
X160750000Y-99200000D02*
X160750000Y-98575000D01*
X154250000Y-99700000D02*
X154750000Y-99200000D01*
X164250000Y-99700000D02*
X164750000Y-99200000D01*
%TO.N,RCP-44*%
X152380000Y-92752500D02*
X152621903Y-92752500D01*
X157250000Y-96409188D02*
X157250000Y-98575000D01*
X155218312Y-94377500D02*
X157250000Y-96409188D01*
X152621903Y-92752500D02*
X154246903Y-94377500D01*
X154246903Y-94377500D02*
X155218312Y-94377500D01*
%TO.N,RCP-41*%
X153555000Y-93049201D02*
X154433299Y-93927500D01*
X152380000Y-90212500D02*
X153555000Y-91387500D01*
X153555000Y-91387500D02*
X153555000Y-93049201D01*
X158750000Y-97272792D02*
X158750000Y-98575000D01*
X155404708Y-93927500D02*
X158750000Y-97272792D01*
X154433299Y-93927500D02*
X155404708Y-93927500D01*
%TO.N,RCP-40*%
X154920000Y-92752500D02*
X154920000Y-92806396D01*
X159250000Y-97136396D02*
X159250000Y-98575000D01*
X154920000Y-92806396D02*
X159250000Y-97136396D01*
%TO.N,RCP-39*%
X156095000Y-93345000D02*
X159750000Y-97000000D01*
X159750000Y-97000000D02*
X159750000Y-98575000D01*
X154920000Y-90212500D02*
X156095000Y-91387500D01*
X156095000Y-91387500D02*
X156095000Y-93345000D01*
%TO.N,RCP-38*%
X157460000Y-92752500D02*
X157666104Y-92752500D01*
X157666104Y-92752500D02*
X160250000Y-95336396D01*
X160250000Y-95336396D02*
X160250000Y-98575000D01*
%TO.N,RCP-35*%
X161750000Y-96200000D02*
X161750000Y-98575000D01*
X157460000Y-90212500D02*
X158750000Y-91502500D01*
X158750000Y-93200000D02*
X161750000Y-96200000D01*
X158750000Y-91502500D02*
X158750000Y-93200000D01*
%TO.N,RCP-34*%
X165080000Y-93370000D02*
X162250000Y-96200000D01*
X165080000Y-92752500D02*
X165080000Y-93370000D01*
X162250000Y-96200000D02*
X162250000Y-98575000D01*
%TO.N,RCP-33*%
X162750000Y-96336396D02*
X162750000Y-98575000D01*
X166255000Y-93239201D02*
X165566701Y-93927500D01*
X165158896Y-93927500D02*
X162750000Y-96336396D01*
X165080000Y-90212500D02*
X166255000Y-91387500D01*
X166255000Y-91387500D02*
X166255000Y-93239201D01*
X165566701Y-93927500D02*
X165158896Y-93927500D01*
%TO.N,RCP-32*%
X165995000Y-94377500D02*
X165345292Y-94377500D01*
X167620000Y-92752500D02*
X165995000Y-94377500D01*
X165345292Y-94377500D02*
X163250000Y-96472792D01*
X163250000Y-96472792D02*
X163250000Y-98575000D01*
%TO.N,RCP-31*%
X163750000Y-96609188D02*
X163750000Y-98575000D01*
X168795000Y-93239201D02*
X167206701Y-94827500D01*
X167206701Y-94827500D02*
X165531688Y-94827500D01*
X167620000Y-90212500D02*
X168795000Y-91387500D01*
X165531688Y-94827500D02*
X163750000Y-96609188D01*
X168795000Y-91387500D02*
X168795000Y-93239201D01*
%TO.N,PIF-5*%
X172700000Y-92752500D02*
X172700000Y-92825000D01*
X167750000Y-97775000D02*
X167750000Y-98575000D01*
X172700000Y-92825000D02*
X167750000Y-97775000D01*
%TO.N,PIF-3*%
X167250000Y-97638604D02*
X167250000Y-98575000D01*
X171525000Y-93363604D02*
X167250000Y-97638604D01*
X171525000Y-91387500D02*
X171525000Y-93363604D01*
X172700000Y-90212500D02*
X171525000Y-91387500D01*
%TO.N,PIF-1*%
X167250000Y-99825000D02*
X167250000Y-99850000D01*
X166750000Y-98575000D02*
X166750000Y-99325000D01*
X166750000Y-99325000D02*
X167250000Y-99825000D01*
%TO.N,CPU-57*%
X169250000Y-98575000D02*
X169250000Y-99850000D01*
%TO.N,RCP-26*%
X166250000Y-98575000D02*
X166250000Y-99400000D01*
X165775000Y-99850000D02*
X165550000Y-99850000D01*
X166250000Y-99400000D02*
X165800000Y-99850000D01*
%TO.N,PIF-7*%
X168250000Y-98575000D02*
X168250000Y-99850000D01*
%TO.N,PIF-23*%
X168750000Y-97411396D02*
X168750000Y-98575000D01*
X178072500Y-95000000D02*
X171161396Y-95000000D01*
X180320000Y-92752500D02*
X178072500Y-95000000D01*
X171161396Y-95000000D02*
X168750000Y-97411396D01*
%TO.N,SYNC*%
X169750000Y-97047792D02*
X169750000Y-98575000D01*
X179300000Y-95500000D02*
X171297792Y-95500000D01*
X171297792Y-95500000D02*
X169750000Y-97047792D01*
X181495000Y-93305000D02*
X179300000Y-95500000D01*
X180320000Y-90212500D02*
X181495000Y-91387500D01*
X181495000Y-91387500D02*
X181495000Y-93305000D01*
%TD*%
%TA.AperFunction,Conductor*%
%TO.N,GND*%
G36*
X205002752Y-84500810D02*
G01*
X205100073Y-84511775D01*
X205121669Y-84516705D01*
X205206202Y-84546283D01*
X205226168Y-84555899D01*
X205264078Y-84579720D01*
X205301987Y-84603540D01*
X205319319Y-84617361D01*
X205382638Y-84680680D01*
X205396459Y-84698012D01*
X205444098Y-84773828D01*
X205453718Y-84793803D01*
X205483293Y-84878326D01*
X205488225Y-84899938D01*
X205499188Y-84997230D01*
X205499500Y-85002777D01*
X205499500Y-97997222D01*
X205499188Y-98002769D01*
X205488225Y-98100061D01*
X205483293Y-98121673D01*
X205453718Y-98206196D01*
X205444098Y-98226171D01*
X205396459Y-98301987D01*
X205382638Y-98319319D01*
X205319319Y-98382638D01*
X205301987Y-98396459D01*
X205226171Y-98444098D01*
X205206196Y-98453718D01*
X205121673Y-98483293D01*
X205100061Y-98488225D01*
X205002769Y-98499188D01*
X204997222Y-98499500D01*
X174892677Y-98499500D01*
X174680235Y-98530045D01*
X174680233Y-98530045D01*
X174474294Y-98590514D01*
X174279048Y-98679680D01*
X174279040Y-98679684D01*
X174098494Y-98795713D01*
X174098482Y-98795722D01*
X173936285Y-98936267D01*
X173936267Y-98936285D01*
X173795722Y-99098482D01*
X173795713Y-99098494D01*
X173679684Y-99279040D01*
X173679680Y-99279048D01*
X173590514Y-99474294D01*
X173530045Y-99680233D01*
X173530045Y-99680235D01*
X173499500Y-99892676D01*
X173499500Y-102997222D01*
X173499188Y-103002769D01*
X173488225Y-103100061D01*
X173483293Y-103121673D01*
X173453718Y-103206196D01*
X173444098Y-103226171D01*
X173396459Y-103301987D01*
X173382638Y-103319319D01*
X173319319Y-103382638D01*
X173301987Y-103396459D01*
X173226171Y-103444098D01*
X173206196Y-103453718D01*
X173121673Y-103483293D01*
X173100061Y-103488225D01*
X173002769Y-103499188D01*
X172997222Y-103499500D01*
X147002778Y-103499500D01*
X146997231Y-103499188D01*
X146899938Y-103488225D01*
X146878326Y-103483293D01*
X146793803Y-103453718D01*
X146773828Y-103444098D01*
X146698012Y-103396459D01*
X146680680Y-103382638D01*
X146617361Y-103319319D01*
X146603540Y-103301987D01*
X146555901Y-103226171D01*
X146546283Y-103206202D01*
X146516705Y-103121669D01*
X146511775Y-103100073D01*
X146500810Y-103002752D01*
X146500500Y-102997222D01*
X146500500Y-99892676D01*
X146474205Y-99709799D01*
X146469954Y-99680231D01*
X146409484Y-99474290D01*
X146320321Y-99279050D01*
X146318039Y-99275499D01*
X146204286Y-99098494D01*
X146204277Y-99098482D01*
X146063732Y-98936285D01*
X146063730Y-98936283D01*
X146063724Y-98936276D01*
X146063714Y-98936267D01*
X145901517Y-98795722D01*
X145901505Y-98795713D01*
X145720959Y-98679684D01*
X145720953Y-98679681D01*
X145720950Y-98679679D01*
X145687829Y-98664553D01*
X145642752Y-98623182D01*
X145630601Y-98563215D01*
X145656018Y-98507559D01*
X145709295Y-98477472D01*
X145728956Y-98475500D01*
X149800500Y-98475500D01*
X149858691Y-98494407D01*
X149894655Y-98543907D01*
X149899500Y-98574500D01*
X149899500Y-99094746D01*
X149899501Y-99094758D01*
X149911132Y-99153227D01*
X149911134Y-99153233D01*
X149917990Y-99163493D01*
X149955448Y-99219552D01*
X150021769Y-99263867D01*
X150064074Y-99272282D01*
X150080241Y-99275498D01*
X150080246Y-99275498D01*
X150080252Y-99275500D01*
X150127693Y-99275500D01*
X150185884Y-99294407D01*
X150221848Y-99343907D01*
X150221848Y-99405093D01*
X150219158Y-99412380D01*
X150206997Y-99441742D01*
X150164957Y-99543236D01*
X150164955Y-99543241D01*
X150144318Y-99699999D01*
X150144318Y-99700000D01*
X150164955Y-99856758D01*
X150164957Y-99856766D01*
X150225462Y-100002838D01*
X150225462Y-100002839D01*
X150321713Y-100128276D01*
X150321718Y-100128282D01*
X150447159Y-100224536D01*
X150447160Y-100224536D01*
X150447161Y-100224537D01*
X150576913Y-100278282D01*
X150593238Y-100285044D01*
X150710809Y-100300522D01*
X150749999Y-100305682D01*
X150750000Y-100305682D01*
X150750001Y-100305682D01*
X150781352Y-100301554D01*
X150906762Y-100285044D01*
X151052841Y-100224536D01*
X151178282Y-100128282D01*
X151274536Y-100002841D01*
X151335044Y-99856762D01*
X151355682Y-99700000D01*
X151345143Y-99619956D01*
X151356292Y-99559799D01*
X151373289Y-99537035D01*
X151468583Y-99441742D01*
X151471760Y-99438829D01*
X151503194Y-99412455D01*
X151523714Y-99376911D01*
X151526012Y-99373303D01*
X151549554Y-99339684D01*
X151549941Y-99338236D01*
X151559838Y-99314345D01*
X151560588Y-99313045D01*
X151563874Y-99294407D01*
X151567710Y-99272650D01*
X151568640Y-99268452D01*
X151579264Y-99228807D01*
X151577563Y-99209371D01*
X151588153Y-99163493D01*
X151585134Y-99162243D01*
X151588863Y-99153235D01*
X151588867Y-99153231D01*
X151600500Y-99094748D01*
X151600500Y-98055252D01*
X151588867Y-97996769D01*
X151544552Y-97930448D01*
X151544548Y-97930445D01*
X151478233Y-97886134D01*
X151478231Y-97886133D01*
X151478228Y-97886132D01*
X151478227Y-97886132D01*
X151419758Y-97874501D01*
X151419748Y-97874500D01*
X151142553Y-97874500D01*
X151084362Y-97855593D01*
X151052830Y-97817342D01*
X151049554Y-97810317D01*
X151026027Y-97776717D01*
X151023705Y-97773072D01*
X150998862Y-97730042D01*
X151000125Y-97729312D01*
X150980769Y-97681411D01*
X150995569Y-97622042D01*
X151042438Y-97582711D01*
X151079528Y-97575500D01*
X151825500Y-97575500D01*
X151883691Y-97594407D01*
X151919655Y-97643907D01*
X151924500Y-97674500D01*
X151924500Y-97946732D01*
X151912369Y-97986723D01*
X151914866Y-97987757D01*
X151911132Y-97996772D01*
X151899501Y-98055241D01*
X151899500Y-98055253D01*
X151899500Y-99094746D01*
X151899501Y-99094758D01*
X151911132Y-99153227D01*
X151911134Y-99153233D01*
X151917990Y-99163493D01*
X151955448Y-99219552D01*
X152021769Y-99263867D01*
X152064074Y-99272282D01*
X152080241Y-99275498D01*
X152080246Y-99275498D01*
X152080252Y-99275500D01*
X152080253Y-99275500D01*
X152419747Y-99275500D01*
X152419748Y-99275500D01*
X152455261Y-99268436D01*
X152480685Y-99263379D01*
X152519315Y-99263379D01*
X152580241Y-99275498D01*
X152580246Y-99275498D01*
X152580252Y-99275500D01*
X152580253Y-99275500D01*
X152919747Y-99275500D01*
X152919748Y-99275500D01*
X152955261Y-99268436D01*
X152980685Y-99263379D01*
X153019315Y-99263379D01*
X153080241Y-99275498D01*
X153080246Y-99275498D01*
X153080252Y-99275500D01*
X153080253Y-99275500D01*
X153419747Y-99275500D01*
X153419748Y-99275500D01*
X153455261Y-99268436D01*
X153480685Y-99263379D01*
X153519315Y-99263379D01*
X153580241Y-99275498D01*
X153580246Y-99275498D01*
X153580252Y-99275500D01*
X153627693Y-99275500D01*
X153685884Y-99294407D01*
X153721848Y-99343907D01*
X153721848Y-99405093D01*
X153719158Y-99412380D01*
X153706997Y-99441742D01*
X153664957Y-99543236D01*
X153664955Y-99543241D01*
X153644318Y-99699999D01*
X153644318Y-99700000D01*
X153664955Y-99856758D01*
X153664957Y-99856766D01*
X153725462Y-100002838D01*
X153725462Y-100002839D01*
X153821713Y-100128276D01*
X153821718Y-100128282D01*
X153947159Y-100224536D01*
X153947160Y-100224536D01*
X153947161Y-100224537D01*
X154076913Y-100278282D01*
X154093238Y-100285044D01*
X154210809Y-100300522D01*
X154249999Y-100305682D01*
X154250000Y-100305682D01*
X154250001Y-100305682D01*
X154281352Y-100301554D01*
X154406762Y-100285044D01*
X154552841Y-100224536D01*
X154678282Y-100128282D01*
X154774536Y-100002841D01*
X154835044Y-99856762D01*
X154855682Y-99700000D01*
X154845143Y-99619956D01*
X154856292Y-99559799D01*
X154873289Y-99537035D01*
X154968583Y-99441742D01*
X154971760Y-99438829D01*
X155003194Y-99412455D01*
X155023714Y-99376911D01*
X155026012Y-99373303D01*
X155049554Y-99339684D01*
X155049941Y-99338236D01*
X155059838Y-99314345D01*
X155060588Y-99313045D01*
X155063874Y-99294407D01*
X155067710Y-99272650D01*
X155068640Y-99268452D01*
X155079264Y-99228807D01*
X155077563Y-99209371D01*
X155088153Y-99163493D01*
X155085134Y-99162243D01*
X155088863Y-99153235D01*
X155088867Y-99153231D01*
X155100500Y-99094748D01*
X155100500Y-98055252D01*
X155088867Y-97996769D01*
X155044552Y-97930448D01*
X155044548Y-97930445D01*
X154978233Y-97886134D01*
X154978231Y-97886133D01*
X154978228Y-97886132D01*
X154978227Y-97886132D01*
X154919758Y-97874501D01*
X154919748Y-97874500D01*
X154674500Y-97874500D01*
X154616309Y-97855593D01*
X154580345Y-97806093D01*
X154575500Y-97775500D01*
X154575500Y-96942545D01*
X154575687Y-96938248D01*
X154579263Y-96897374D01*
X154568638Y-96857725D01*
X154567713Y-96853546D01*
X154560588Y-96813136D01*
X154560588Y-96813135D01*
X154559840Y-96811840D01*
X154549942Y-96787948D01*
X154549554Y-96786497D01*
X154526022Y-96752890D01*
X154523707Y-96749255D01*
X154503940Y-96715018D01*
X154503194Y-96713726D01*
X154471771Y-96687359D01*
X154468594Y-96684447D01*
X154006150Y-96222004D01*
X153978373Y-96167487D01*
X153987944Y-96107055D01*
X154031209Y-96063790D01*
X154076154Y-96053000D01*
X154483290Y-96053000D01*
X154541481Y-96071907D01*
X154553294Y-96081996D01*
X155395504Y-96924206D01*
X155423281Y-96978723D01*
X155424500Y-96994210D01*
X155424500Y-97946732D01*
X155412369Y-97986723D01*
X155414866Y-97987757D01*
X155411132Y-97996772D01*
X155399501Y-98055241D01*
X155399500Y-98055253D01*
X155399500Y-99094746D01*
X155399501Y-99094758D01*
X155411132Y-99153227D01*
X155411134Y-99153233D01*
X155417990Y-99163493D01*
X155455448Y-99219552D01*
X155521769Y-99263867D01*
X155564074Y-99272282D01*
X155580241Y-99275498D01*
X155580246Y-99275498D01*
X155580252Y-99275500D01*
X155580253Y-99275500D01*
X155919747Y-99275500D01*
X155919748Y-99275500D01*
X155978231Y-99263867D01*
X155978231Y-99263866D01*
X155980684Y-99263379D01*
X156019314Y-99263378D01*
X156021767Y-99263866D01*
X156021769Y-99263867D01*
X156080252Y-99275500D01*
X156080253Y-99275500D01*
X156419747Y-99275500D01*
X156419748Y-99275500D01*
X156455261Y-99268436D01*
X156480685Y-99263379D01*
X156519315Y-99263379D01*
X156580241Y-99275498D01*
X156580246Y-99275498D01*
X156580252Y-99275500D01*
X156627693Y-99275500D01*
X156685884Y-99294407D01*
X156721848Y-99343907D01*
X156721848Y-99405093D01*
X156719158Y-99412380D01*
X156706997Y-99441742D01*
X156664957Y-99543236D01*
X156664955Y-99543241D01*
X156644318Y-99699999D01*
X156644318Y-99700000D01*
X156664955Y-99856758D01*
X156664957Y-99856766D01*
X156725462Y-100002838D01*
X156725462Y-100002839D01*
X156821713Y-100128276D01*
X156821718Y-100128282D01*
X156947159Y-100224536D01*
X156947160Y-100224536D01*
X156947161Y-100224537D01*
X157076913Y-100278282D01*
X157093238Y-100285044D01*
X157210809Y-100300522D01*
X157249999Y-100305682D01*
X157250000Y-100305682D01*
X157250001Y-100305682D01*
X157281352Y-100301554D01*
X157406762Y-100285044D01*
X157552841Y-100224536D01*
X157678282Y-100128282D01*
X157774536Y-100002841D01*
X157835044Y-99856762D01*
X157855682Y-99700000D01*
X157845143Y-99619956D01*
X157856292Y-99559799D01*
X157873289Y-99537035D01*
X157968583Y-99441742D01*
X157971760Y-99438829D01*
X158003194Y-99412455D01*
X158023714Y-99376911D01*
X158026012Y-99373303D01*
X158049554Y-99339684D01*
X158049941Y-99338236D01*
X158059838Y-99314345D01*
X158060588Y-99313045D01*
X158063874Y-99294407D01*
X158067710Y-99272650D01*
X158068640Y-99268452D01*
X158079264Y-99228807D01*
X158077563Y-99209371D01*
X158088153Y-99163493D01*
X158085134Y-99162243D01*
X158088863Y-99153235D01*
X158088867Y-99153231D01*
X158100500Y-99094748D01*
X158100500Y-98055252D01*
X158088867Y-97996769D01*
X158044552Y-97930448D01*
X158044548Y-97930445D01*
X157978233Y-97886134D01*
X157978231Y-97886133D01*
X157978228Y-97886132D01*
X157978227Y-97886132D01*
X157919758Y-97874501D01*
X157919748Y-97874500D01*
X157674500Y-97874500D01*
X157616309Y-97855593D01*
X157580345Y-97806093D01*
X157575500Y-97775500D01*
X157575500Y-96797626D01*
X157594407Y-96739435D01*
X157643907Y-96703471D01*
X157705093Y-96703471D01*
X157744504Y-96727622D01*
X158395504Y-97378622D01*
X158423281Y-97433139D01*
X158424500Y-97448626D01*
X158424500Y-97946732D01*
X158412369Y-97986723D01*
X158414866Y-97987757D01*
X158411132Y-97996772D01*
X158399501Y-98055241D01*
X158399500Y-98055253D01*
X158399500Y-99094746D01*
X158399501Y-99094758D01*
X158411132Y-99153227D01*
X158411134Y-99153233D01*
X158417990Y-99163493D01*
X158455448Y-99219552D01*
X158521769Y-99263867D01*
X158564074Y-99272282D01*
X158580241Y-99275498D01*
X158580246Y-99275498D01*
X158580252Y-99275500D01*
X158580253Y-99275500D01*
X158919747Y-99275500D01*
X158919748Y-99275500D01*
X158955261Y-99268436D01*
X158980685Y-99263379D01*
X159019315Y-99263379D01*
X159080241Y-99275498D01*
X159080246Y-99275498D01*
X159080252Y-99275500D01*
X159080253Y-99275500D01*
X159419747Y-99275500D01*
X159419748Y-99275500D01*
X159455261Y-99268436D01*
X159480685Y-99263379D01*
X159519315Y-99263379D01*
X159580241Y-99275498D01*
X159580246Y-99275498D01*
X159580252Y-99275500D01*
X159627693Y-99275500D01*
X159685884Y-99294407D01*
X159721848Y-99343907D01*
X159721848Y-99405093D01*
X159719158Y-99412380D01*
X159706997Y-99441742D01*
X159664957Y-99543236D01*
X159664955Y-99543241D01*
X159644318Y-99699999D01*
X159644318Y-99700000D01*
X159664955Y-99856758D01*
X159664957Y-99856766D01*
X159725462Y-100002838D01*
X159725462Y-100002839D01*
X159821713Y-100128276D01*
X159821718Y-100128282D01*
X159947159Y-100224536D01*
X159947160Y-100224536D01*
X159947161Y-100224537D01*
X160076913Y-100278282D01*
X160093238Y-100285044D01*
X160210809Y-100300522D01*
X160249999Y-100305682D01*
X160250000Y-100305682D01*
X160250001Y-100305682D01*
X160281352Y-100301554D01*
X160406762Y-100285044D01*
X160552841Y-100224536D01*
X160678282Y-100128282D01*
X160774536Y-100002841D01*
X160835044Y-99856762D01*
X160855682Y-99700000D01*
X160845143Y-99619956D01*
X160856292Y-99559799D01*
X160873289Y-99537035D01*
X160968583Y-99441742D01*
X160971760Y-99438829D01*
X161003194Y-99412455D01*
X161023714Y-99376911D01*
X161026012Y-99373303D01*
X161049554Y-99339684D01*
X161049941Y-99338236D01*
X161059838Y-99314345D01*
X161060588Y-99313045D01*
X161063874Y-99294407D01*
X161067710Y-99272650D01*
X161068640Y-99268452D01*
X161079264Y-99228807D01*
X161077563Y-99209371D01*
X161088153Y-99163493D01*
X161085134Y-99162243D01*
X161088863Y-99153235D01*
X161088867Y-99153231D01*
X161100500Y-99094748D01*
X161100500Y-98055252D01*
X161088867Y-97996769D01*
X161044552Y-97930448D01*
X161044548Y-97930445D01*
X160978233Y-97886134D01*
X160978231Y-97886133D01*
X160978228Y-97886132D01*
X160978227Y-97886132D01*
X160919758Y-97874501D01*
X160919748Y-97874500D01*
X160674500Y-97874500D01*
X160616309Y-97855593D01*
X160580345Y-97806093D01*
X160575500Y-97775500D01*
X160575500Y-95724833D01*
X160594407Y-95666642D01*
X160643907Y-95630678D01*
X160705093Y-95630678D01*
X160744501Y-95654827D01*
X161009344Y-95919669D01*
X161395504Y-96305829D01*
X161423281Y-96360346D01*
X161424500Y-96375833D01*
X161424500Y-97946732D01*
X161412369Y-97986723D01*
X161414866Y-97987757D01*
X161411132Y-97996772D01*
X161399501Y-98055241D01*
X161399500Y-98055253D01*
X161399500Y-99094746D01*
X161399501Y-99094758D01*
X161411132Y-99153227D01*
X161411134Y-99153233D01*
X161417990Y-99163493D01*
X161455448Y-99219552D01*
X161521769Y-99263867D01*
X161564074Y-99272282D01*
X161580241Y-99275498D01*
X161580246Y-99275498D01*
X161580252Y-99275500D01*
X161580253Y-99275500D01*
X161919747Y-99275500D01*
X161919748Y-99275500D01*
X161978231Y-99263867D01*
X161978231Y-99263866D01*
X161980684Y-99263379D01*
X162019314Y-99263378D01*
X162021767Y-99263866D01*
X162021769Y-99263867D01*
X162080252Y-99275500D01*
X162080253Y-99275500D01*
X162419747Y-99275500D01*
X162419748Y-99275500D01*
X162455261Y-99268436D01*
X162480685Y-99263379D01*
X162519315Y-99263379D01*
X162580241Y-99275498D01*
X162580246Y-99275498D01*
X162580252Y-99275500D01*
X162580253Y-99275500D01*
X162919747Y-99275500D01*
X162919748Y-99275500D01*
X162955261Y-99268436D01*
X162980685Y-99263379D01*
X163019315Y-99263379D01*
X163080241Y-99275498D01*
X163080246Y-99275498D01*
X163080252Y-99275500D01*
X163080253Y-99275500D01*
X163419747Y-99275500D01*
X163419748Y-99275500D01*
X163455261Y-99268436D01*
X163480685Y-99263379D01*
X163519315Y-99263379D01*
X163580241Y-99275498D01*
X163580246Y-99275498D01*
X163580252Y-99275500D01*
X163627693Y-99275500D01*
X163685884Y-99294407D01*
X163721848Y-99343907D01*
X163721848Y-99405093D01*
X163719158Y-99412380D01*
X163706997Y-99441742D01*
X163664957Y-99543236D01*
X163664955Y-99543241D01*
X163644318Y-99699999D01*
X163644318Y-99700000D01*
X163664955Y-99856758D01*
X163664957Y-99856766D01*
X163725462Y-100002838D01*
X163725462Y-100002839D01*
X163821713Y-100128276D01*
X163821718Y-100128282D01*
X163947159Y-100224536D01*
X163947160Y-100224536D01*
X163947161Y-100224537D01*
X164076913Y-100278282D01*
X164093238Y-100285044D01*
X164210809Y-100300522D01*
X164249999Y-100305682D01*
X164250000Y-100305682D01*
X164250001Y-100305682D01*
X164281352Y-100301554D01*
X164406762Y-100285044D01*
X164552841Y-100224536D01*
X164678282Y-100128282D01*
X164774536Y-100002841D01*
X164835044Y-99856762D01*
X164855682Y-99700000D01*
X164845143Y-99619956D01*
X164856292Y-99559799D01*
X164873289Y-99537035D01*
X164968583Y-99441742D01*
X164971760Y-99438829D01*
X165003194Y-99412455D01*
X165023714Y-99376911D01*
X165026012Y-99373303D01*
X165049554Y-99339684D01*
X165049941Y-99338236D01*
X165059838Y-99314345D01*
X165060588Y-99313045D01*
X165063874Y-99294407D01*
X165067710Y-99272650D01*
X165068640Y-99268452D01*
X165079264Y-99228807D01*
X165077563Y-99209371D01*
X165088153Y-99163493D01*
X165085134Y-99162243D01*
X165088863Y-99153235D01*
X165088867Y-99153231D01*
X165100500Y-99094748D01*
X165100500Y-98055252D01*
X165088867Y-97996769D01*
X165044552Y-97930448D01*
X165044548Y-97930445D01*
X164978233Y-97886134D01*
X164978231Y-97886133D01*
X164978228Y-97886132D01*
X164978227Y-97886132D01*
X164919758Y-97874501D01*
X164919748Y-97874500D01*
X164580252Y-97874500D01*
X164580251Y-97874500D01*
X164580241Y-97874501D01*
X164521772Y-97886132D01*
X164521766Y-97886134D01*
X164455451Y-97930445D01*
X164455445Y-97930451D01*
X164411134Y-97996766D01*
X164411132Y-97996772D01*
X164399501Y-98055241D01*
X164399500Y-98055253D01*
X164399500Y-99001112D01*
X164380593Y-99059303D01*
X164331093Y-99095267D01*
X164287578Y-99099265D01*
X164250001Y-99094318D01*
X164249999Y-99094318D01*
X164212421Y-99099265D01*
X164152261Y-99088115D01*
X164110144Y-99043732D01*
X164100500Y-99001112D01*
X164100500Y-98530045D01*
X164100500Y-98055252D01*
X164088867Y-97996769D01*
X164088863Y-97996764D01*
X164085134Y-97987757D01*
X164087630Y-97986723D01*
X164075500Y-97946732D01*
X164075500Y-96785022D01*
X164094407Y-96726831D01*
X164104496Y-96715018D01*
X165637519Y-95181996D01*
X165692036Y-95154219D01*
X165707523Y-95153000D01*
X167190327Y-95153000D01*
X167194627Y-95153187D01*
X167235508Y-95156764D01*
X167275153Y-95146140D01*
X167279351Y-95145210D01*
X167319746Y-95138088D01*
X167321046Y-95137338D01*
X167344937Y-95127442D01*
X167345165Y-95127380D01*
X167346385Y-95127054D01*
X167380004Y-95103512D01*
X167383612Y-95101214D01*
X167419156Y-95080694D01*
X167445539Y-95049250D01*
X167448427Y-95046098D01*
X169013582Y-93480943D01*
X169016760Y-93478030D01*
X169048194Y-93451656D01*
X169068714Y-93416112D01*
X169071012Y-93412504D01*
X169094554Y-93378885D01*
X169094941Y-93377437D01*
X169104838Y-93353546D01*
X169109922Y-93344742D01*
X169112050Y-93345971D01*
X169141879Y-93307775D01*
X169200690Y-93290895D01*
X169258191Y-93311808D01*
X169278412Y-93335713D01*
X169279616Y-93334910D01*
X169282316Y-93338952D01*
X169397590Y-93479414D01*
X169413590Y-93498910D01*
X169413595Y-93498914D01*
X169573547Y-93630183D01*
X169573548Y-93630183D01*
X169573550Y-93630185D01*
X169756046Y-93727732D01*
X169884712Y-93766762D01*
X169954065Y-93787800D01*
X169954070Y-93787801D01*
X170159997Y-93808083D01*
X170160000Y-93808083D01*
X170160003Y-93808083D01*
X170365929Y-93787801D01*
X170365929Y-93787800D01*
X170365934Y-93787800D01*
X170381810Y-93782984D01*
X170442982Y-93784185D01*
X170491767Y-93821113D01*
X170509529Y-93879663D01*
X170489484Y-93937472D01*
X170480552Y-93947725D01*
X167031413Y-97396863D01*
X167028229Y-97399780D01*
X166996807Y-97426146D01*
X166996806Y-97426148D01*
X166976292Y-97461679D01*
X166973972Y-97465320D01*
X166950446Y-97498920D01*
X166950442Y-97498928D01*
X166950051Y-97500390D01*
X166940170Y-97524244D01*
X166939414Y-97525552D01*
X166939410Y-97525564D01*
X166932287Y-97565953D01*
X166931353Y-97570168D01*
X166920736Y-97609791D01*
X166920736Y-97609798D01*
X166924311Y-97650661D01*
X166924499Y-97654977D01*
X166924500Y-97775499D01*
X166905593Y-97833690D01*
X166856093Y-97869654D01*
X166825500Y-97874500D01*
X166580252Y-97874500D01*
X166580251Y-97874500D01*
X166575408Y-97874977D01*
X166575269Y-97873574D01*
X166520544Y-97867086D01*
X166475622Y-97825544D01*
X166463698Y-97765532D01*
X166489325Y-97709972D01*
X166501735Y-97698651D01*
X166528282Y-97678282D01*
X166624536Y-97552841D01*
X166685044Y-97406762D01*
X166705682Y-97250000D01*
X166685044Y-97093238D01*
X166624537Y-96947161D01*
X166624537Y-96947160D01*
X166528286Y-96821723D01*
X166528285Y-96821722D01*
X166528282Y-96821718D01*
X166528277Y-96821714D01*
X166528276Y-96821713D01*
X166438595Y-96752899D01*
X166402841Y-96725464D01*
X166402840Y-96725463D01*
X166402838Y-96725462D01*
X166256766Y-96664957D01*
X166256758Y-96664955D01*
X166100001Y-96644318D01*
X166099999Y-96644318D01*
X165943241Y-96664955D01*
X165943233Y-96664957D01*
X165797161Y-96725462D01*
X165797160Y-96725462D01*
X165671723Y-96821713D01*
X165671713Y-96821723D01*
X165575462Y-96947160D01*
X165575462Y-96947161D01*
X165514957Y-97093233D01*
X165514955Y-97093241D01*
X165494318Y-97249999D01*
X165494318Y-97250000D01*
X165505139Y-97332195D01*
X165493989Y-97392356D01*
X165492722Y-97394618D01*
X165476292Y-97423074D01*
X165473972Y-97426716D01*
X165450446Y-97460316D01*
X165450442Y-97460324D01*
X165450051Y-97461786D01*
X165440170Y-97485640D01*
X165439414Y-97486948D01*
X165439410Y-97486960D01*
X165432287Y-97527349D01*
X165431353Y-97531564D01*
X165420736Y-97571187D01*
X165420736Y-97571193D01*
X165424312Y-97612072D01*
X165424500Y-97616373D01*
X165424500Y-97946732D01*
X165412369Y-97986723D01*
X165414866Y-97987757D01*
X165411132Y-97996772D01*
X165399501Y-98055241D01*
X165399500Y-98055253D01*
X165399500Y-99094746D01*
X165399501Y-99094758D01*
X165411132Y-99153227D01*
X165411134Y-99153233D01*
X165460865Y-99227659D01*
X165459252Y-99228736D01*
X165481439Y-99272282D01*
X165471868Y-99332714D01*
X165443926Y-99366311D01*
X165371719Y-99421717D01*
X165371713Y-99421723D01*
X165275462Y-99547160D01*
X165275462Y-99547161D01*
X165214957Y-99693233D01*
X165214955Y-99693241D01*
X165194318Y-99849999D01*
X165194318Y-99850000D01*
X165214955Y-100006758D01*
X165214957Y-100006766D01*
X165275462Y-100152838D01*
X165275462Y-100152839D01*
X165275464Y-100152841D01*
X165371718Y-100278282D01*
X165497159Y-100374536D01*
X165643238Y-100435044D01*
X165760809Y-100450522D01*
X165799999Y-100455682D01*
X165800000Y-100455682D01*
X165800001Y-100455682D01*
X165831352Y-100451554D01*
X165956762Y-100435044D01*
X166102841Y-100374536D01*
X166228282Y-100278282D01*
X166324536Y-100152841D01*
X166385044Y-100006762D01*
X166405682Y-99850000D01*
X166395143Y-99769956D01*
X166406292Y-99709799D01*
X166423289Y-99687035D01*
X166468603Y-99641722D01*
X166471783Y-99638810D01*
X166473987Y-99636961D01*
X166530745Y-99614105D01*
X166590096Y-99628975D01*
X166607542Y-99642868D01*
X166629614Y-99664940D01*
X166657391Y-99719457D01*
X166657763Y-99747865D01*
X166644318Y-99849998D01*
X166644318Y-99850000D01*
X166664955Y-100006758D01*
X166664957Y-100006766D01*
X166725462Y-100152838D01*
X166725462Y-100152839D01*
X166725464Y-100152841D01*
X166821718Y-100278282D01*
X166947159Y-100374536D01*
X167093238Y-100435044D01*
X167210809Y-100450522D01*
X167249999Y-100455682D01*
X167250000Y-100455682D01*
X167250001Y-100455682D01*
X167281352Y-100451554D01*
X167406762Y-100435044D01*
X167552841Y-100374536D01*
X167678282Y-100278282D01*
X167678288Y-100278273D01*
X167679996Y-100276567D01*
X167681547Y-100275776D01*
X167683430Y-100274332D01*
X167683697Y-100274680D01*
X167734513Y-100248790D01*
X167794945Y-100258361D01*
X167820004Y-100276567D01*
X167821713Y-100278276D01*
X167821718Y-100278282D01*
X167947159Y-100374536D01*
X168093238Y-100435044D01*
X168210809Y-100450522D01*
X168249999Y-100455682D01*
X168250000Y-100455682D01*
X168250001Y-100455682D01*
X168281352Y-100451554D01*
X168406762Y-100435044D01*
X168552841Y-100374536D01*
X168678282Y-100278282D01*
X168678288Y-100278273D01*
X168679996Y-100276567D01*
X168681547Y-100275776D01*
X168683430Y-100274332D01*
X168683697Y-100274680D01*
X168734513Y-100248790D01*
X168794945Y-100258361D01*
X168820004Y-100276567D01*
X168821713Y-100278276D01*
X168821718Y-100278282D01*
X168947159Y-100374536D01*
X169093238Y-100435044D01*
X169210809Y-100450522D01*
X169249999Y-100455682D01*
X169250000Y-100455682D01*
X169250001Y-100455682D01*
X169281352Y-100451554D01*
X169406762Y-100435044D01*
X169552841Y-100374536D01*
X169678282Y-100278282D01*
X169774536Y-100152841D01*
X169835044Y-100006762D01*
X169855682Y-99850000D01*
X169835044Y-99693238D01*
X169784641Y-99571554D01*
X169774537Y-99547161D01*
X169774537Y-99547160D01*
X169688295Y-99434767D01*
X169667871Y-99377091D01*
X169685249Y-99318426D01*
X169733790Y-99281178D01*
X169766837Y-99275500D01*
X169919747Y-99275500D01*
X169919748Y-99275500D01*
X169978231Y-99263867D01*
X170044552Y-99219552D01*
X170088867Y-99153231D01*
X170100500Y-99094748D01*
X170100500Y-98055252D01*
X170088867Y-97996769D01*
X170088863Y-97996764D01*
X170085134Y-97987757D01*
X170087630Y-97986723D01*
X170075500Y-97946732D01*
X170075500Y-97223626D01*
X170094407Y-97165435D01*
X170104496Y-97153622D01*
X171403623Y-95854496D01*
X171458140Y-95826719D01*
X171473627Y-95825500D01*
X179283626Y-95825500D01*
X179287926Y-95825687D01*
X179328807Y-95829264D01*
X179368452Y-95818640D01*
X179372650Y-95817710D01*
X179413045Y-95810588D01*
X179414345Y-95809838D01*
X179438236Y-95799942D01*
X179438464Y-95799880D01*
X179439684Y-95799554D01*
X179473303Y-95776012D01*
X179476911Y-95773714D01*
X179512455Y-95753194D01*
X179538838Y-95721750D01*
X179541726Y-95718598D01*
X181713583Y-93546741D01*
X181716760Y-93543829D01*
X181748194Y-93517455D01*
X181750830Y-93512888D01*
X181766564Y-93492381D01*
X182272986Y-92985959D01*
X182327503Y-92958182D01*
X182387935Y-92967753D01*
X182426274Y-93002439D01*
X182444732Y-93031160D01*
X182478239Y-93083298D01*
X182586900Y-93177452D01*
X182595663Y-93181454D01*
X182640740Y-93222826D01*
X182652891Y-93282792D01*
X182627473Y-93338448D01*
X182624540Y-93341510D01*
X182098625Y-93867425D01*
X182182422Y-93926100D01*
X182396510Y-94025930D01*
X182624686Y-94087070D01*
X182859997Y-94107657D01*
X182860003Y-94107657D01*
X183095313Y-94087070D01*
X183323489Y-94025930D01*
X183537577Y-93926100D01*
X183621372Y-93867425D01*
X183095458Y-93341511D01*
X183067681Y-93286994D01*
X183077252Y-93226562D01*
X183120517Y-93183297D01*
X183124279Y-93181480D01*
X183133100Y-93177452D01*
X183241761Y-93083298D01*
X183293725Y-93002438D01*
X183341089Y-92963709D01*
X183402174Y-92960215D01*
X183447012Y-92985959D01*
X183974925Y-93513872D01*
X184033602Y-93430075D01*
X184040275Y-93415765D01*
X184082003Y-93371016D01*
X184142064Y-93359341D01*
X184197517Y-93385198D01*
X184219725Y-93415765D01*
X184226397Y-93430074D01*
X184226398Y-93430076D01*
X184285072Y-93513872D01*
X184812986Y-92985959D01*
X184867503Y-92958182D01*
X184927935Y-92967753D01*
X184966274Y-93002439D01*
X184984732Y-93031160D01*
X185018239Y-93083298D01*
X185126900Y-93177452D01*
X185135663Y-93181454D01*
X185180740Y-93222826D01*
X185192891Y-93282792D01*
X185167473Y-93338448D01*
X185164540Y-93341510D01*
X184638625Y-93867425D01*
X184722422Y-93926100D01*
X184936510Y-94025930D01*
X185164686Y-94087070D01*
X185399997Y-94107657D01*
X185400003Y-94107657D01*
X185635313Y-94087070D01*
X185863489Y-94025930D01*
X186077577Y-93926100D01*
X186161372Y-93867425D01*
X185635458Y-93341511D01*
X185607681Y-93286994D01*
X185617252Y-93226562D01*
X185660517Y-93183297D01*
X185664279Y-93181480D01*
X185673100Y-93177452D01*
X185781761Y-93083298D01*
X185833725Y-93002438D01*
X185881089Y-92963709D01*
X185942174Y-92960215D01*
X185987012Y-92985959D01*
X186514925Y-93513872D01*
X186573600Y-93430077D01*
X186673430Y-93215990D01*
X186728816Y-93009286D01*
X186762140Y-92957972D01*
X186819261Y-92936045D01*
X186878362Y-92951880D01*
X186916867Y-92999430D01*
X186919180Y-93006171D01*
X186964768Y-93156454D01*
X187062316Y-93338952D01*
X187177590Y-93479414D01*
X187193590Y-93498910D01*
X187193595Y-93498914D01*
X187353547Y-93630183D01*
X187353548Y-93630183D01*
X187353550Y-93630185D01*
X187536046Y-93727732D01*
X187664712Y-93766762D01*
X187734065Y-93787800D01*
X187734070Y-93787801D01*
X187939997Y-93808083D01*
X187940000Y-93808083D01*
X187940003Y-93808083D01*
X188145929Y-93787801D01*
X188145934Y-93787800D01*
X188161810Y-93782984D01*
X188343954Y-93727732D01*
X188526450Y-93630185D01*
X188686410Y-93498910D01*
X188817685Y-93338950D01*
X188915232Y-93156454D01*
X188960819Y-93006170D01*
X188995804Y-92955974D01*
X189053612Y-92935928D01*
X189112163Y-92953689D01*
X189149092Y-93002473D01*
X189151183Y-93009286D01*
X189206569Y-93215989D01*
X189306399Y-93430077D01*
X189365072Y-93513872D01*
X189892986Y-92985959D01*
X189947503Y-92958182D01*
X190007935Y-92967753D01*
X190046274Y-93002439D01*
X190064732Y-93031160D01*
X190098239Y-93083298D01*
X190206900Y-93177452D01*
X190215663Y-93181454D01*
X190260740Y-93222826D01*
X190272891Y-93282792D01*
X190247473Y-93338448D01*
X190244540Y-93341510D01*
X189718625Y-93867425D01*
X189802422Y-93926100D01*
X190016510Y-94025930D01*
X190244686Y-94087070D01*
X190479997Y-94107657D01*
X190480003Y-94107657D01*
X190715313Y-94087070D01*
X190943489Y-94025930D01*
X191157577Y-93926100D01*
X191241372Y-93867425D01*
X190715458Y-93341511D01*
X190687681Y-93286994D01*
X190697252Y-93226562D01*
X190740517Y-93183297D01*
X190744279Y-93181480D01*
X190753100Y-93177452D01*
X190861761Y-93083298D01*
X190913725Y-93002438D01*
X190961089Y-92963709D01*
X191022174Y-92960215D01*
X191067012Y-92985959D01*
X191594925Y-93513872D01*
X191653600Y-93430077D01*
X191753430Y-93215989D01*
X191814570Y-92987813D01*
X191835157Y-92752503D01*
X191835157Y-92752496D01*
X191814570Y-92517186D01*
X191753429Y-92289005D01*
X191653605Y-92074932D01*
X191653602Y-92074926D01*
X191594925Y-91991125D01*
X191067011Y-92519039D01*
X191012495Y-92546816D01*
X190952063Y-92537245D01*
X190913724Y-92502558D01*
X190861762Y-92421703D01*
X190777332Y-92348545D01*
X190753100Y-92327548D01*
X190753098Y-92327547D01*
X190753097Y-92327546D01*
X190744332Y-92323543D01*
X190699255Y-92282169D01*
X190687107Y-92222202D01*
X190712526Y-92166547D01*
X190715457Y-92163487D01*
X191241372Y-91637572D01*
X191157576Y-91578898D01*
X191157574Y-91578897D01*
X191143265Y-91572225D01*
X191098516Y-91530497D01*
X191086841Y-91470436D01*
X191112698Y-91414983D01*
X191143265Y-91392775D01*
X191157575Y-91386102D01*
X191241372Y-91327425D01*
X190715458Y-90801511D01*
X190687681Y-90746994D01*
X190697252Y-90686562D01*
X190740517Y-90643297D01*
X190744279Y-90641480D01*
X190753100Y-90637452D01*
X190861761Y-90543298D01*
X190913725Y-90462438D01*
X190961089Y-90423709D01*
X191022174Y-90420215D01*
X191067012Y-90445959D01*
X191594925Y-90973872D01*
X191653600Y-90890077D01*
X191753430Y-90675989D01*
X191814570Y-90447813D01*
X191835157Y-90212503D01*
X191835157Y-90212496D01*
X191814570Y-89977186D01*
X191753429Y-89749005D01*
X191653605Y-89534932D01*
X191653602Y-89534926D01*
X191594925Y-89451125D01*
X191067011Y-89979039D01*
X191012495Y-90006816D01*
X190952063Y-89997245D01*
X190913724Y-89962558D01*
X190861762Y-89881703D01*
X190777332Y-89808545D01*
X190753100Y-89787548D01*
X190753098Y-89787547D01*
X190753097Y-89787546D01*
X190744332Y-89783543D01*
X190699255Y-89742169D01*
X190687107Y-89682202D01*
X190712526Y-89626547D01*
X190715457Y-89623487D01*
X191241372Y-89097572D01*
X191157577Y-89038899D01*
X190943489Y-88939069D01*
X190715313Y-88877929D01*
X190480003Y-88857343D01*
X190479997Y-88857343D01*
X190244686Y-88877929D01*
X190016505Y-88939070D01*
X189802430Y-89038894D01*
X189802411Y-89038906D01*
X189718626Y-89097572D01*
X190244541Y-89623488D01*
X190272318Y-89678005D01*
X190262747Y-89738437D01*
X190219482Y-89781702D01*
X190215666Y-89783544D01*
X190206902Y-89787546D01*
X190098237Y-89881703D01*
X190046275Y-89962559D01*
X189998909Y-90001291D01*
X189937823Y-90004784D01*
X189892987Y-89979040D01*
X189365072Y-89451126D01*
X189306406Y-89534911D01*
X189306394Y-89534930D01*
X189206570Y-89749005D01*
X189151183Y-89955713D01*
X189117859Y-90007027D01*
X189060737Y-90028954D01*
X189001637Y-90013118D01*
X188963132Y-89965568D01*
X188960819Y-89958828D01*
X188959874Y-89955713D01*
X188915232Y-89808546D01*
X188817685Y-89626050D01*
X188815582Y-89623488D01*
X188686414Y-89466095D01*
X188686410Y-89466090D01*
X188668175Y-89451125D01*
X188526452Y-89334816D01*
X188343954Y-89237268D01*
X188145934Y-89177199D01*
X188145929Y-89177198D01*
X187940003Y-89156917D01*
X187939997Y-89156917D01*
X187734070Y-89177198D01*
X187734065Y-89177199D01*
X187536045Y-89237268D01*
X187353547Y-89334816D01*
X187193595Y-89466085D01*
X187193585Y-89466095D01*
X187062316Y-89626047D01*
X186964769Y-89808544D01*
X186919180Y-89958829D01*
X186884195Y-90009025D01*
X186826386Y-90029071D01*
X186767836Y-90011310D01*
X186730907Y-89962525D01*
X186728816Y-89955713D01*
X186673429Y-89749004D01*
X186573605Y-89534932D01*
X186573602Y-89534926D01*
X186514925Y-89451125D01*
X185987011Y-89979039D01*
X185932495Y-90006816D01*
X185872063Y-89997245D01*
X185833724Y-89962558D01*
X185781762Y-89881703D01*
X185697332Y-89808545D01*
X185673100Y-89787548D01*
X185673098Y-89787547D01*
X185673097Y-89787546D01*
X185664332Y-89783543D01*
X185619255Y-89742169D01*
X185607107Y-89682202D01*
X185632526Y-89626547D01*
X185635457Y-89623487D01*
X186161372Y-89097572D01*
X186077577Y-89038899D01*
X185863489Y-88939069D01*
X185635313Y-88877929D01*
X185400003Y-88857343D01*
X185399997Y-88857343D01*
X185164686Y-88877929D01*
X184936505Y-88939070D01*
X184722430Y-89038894D01*
X184722411Y-89038906D01*
X184638626Y-89097572D01*
X185164541Y-89623488D01*
X185192318Y-89678005D01*
X185182747Y-89738437D01*
X185139482Y-89781702D01*
X185135666Y-89783544D01*
X185126902Y-89787546D01*
X185018237Y-89881703D01*
X184966275Y-89962559D01*
X184918909Y-90001291D01*
X184857823Y-90004784D01*
X184812987Y-89979040D01*
X184285072Y-89451126D01*
X184226406Y-89534911D01*
X184226396Y-89534927D01*
X184219724Y-89549237D01*
X184177995Y-89593985D01*
X184117934Y-89605659D01*
X184062481Y-89579800D01*
X184040276Y-89549237D01*
X184033603Y-89534928D01*
X184033602Y-89534926D01*
X183974925Y-89451125D01*
X183447011Y-89979039D01*
X183392495Y-90006816D01*
X183332063Y-89997245D01*
X183293724Y-89962558D01*
X183241762Y-89881703D01*
X183157332Y-89808545D01*
X183133100Y-89787548D01*
X183133098Y-89787547D01*
X183133097Y-89787546D01*
X183124332Y-89783543D01*
X183079255Y-89742169D01*
X183067107Y-89682202D01*
X183092526Y-89626547D01*
X183095457Y-89623487D01*
X183621372Y-89097572D01*
X183537577Y-89038899D01*
X183323489Y-88939069D01*
X183095313Y-88877929D01*
X182860003Y-88857343D01*
X182859997Y-88857343D01*
X182624686Y-88877929D01*
X182396505Y-88939070D01*
X182182430Y-89038894D01*
X182182411Y-89038906D01*
X182098626Y-89097572D01*
X182624541Y-89623488D01*
X182652318Y-89678005D01*
X182642747Y-89738437D01*
X182599482Y-89781702D01*
X182595666Y-89783544D01*
X182586902Y-89787546D01*
X182478237Y-89881703D01*
X182426275Y-89962559D01*
X182378909Y-90001291D01*
X182317823Y-90004784D01*
X182272987Y-89979040D01*
X181745072Y-89451126D01*
X181686406Y-89534911D01*
X181686394Y-89534930D01*
X181586570Y-89749005D01*
X181531183Y-89955713D01*
X181497859Y-90007027D01*
X181440737Y-90028954D01*
X181381637Y-90013118D01*
X181343132Y-89965568D01*
X181340819Y-89958828D01*
X181339874Y-89955713D01*
X181295232Y-89808546D01*
X181197685Y-89626050D01*
X181195582Y-89623488D01*
X181066414Y-89466095D01*
X181066410Y-89466090D01*
X181048175Y-89451125D01*
X180906452Y-89334816D01*
X180723954Y-89237268D01*
X180525934Y-89177199D01*
X180525929Y-89177198D01*
X180320003Y-89156917D01*
X180319997Y-89156917D01*
X180114070Y-89177198D01*
X180114065Y-89177199D01*
X179916045Y-89237268D01*
X179733547Y-89334816D01*
X179573595Y-89466085D01*
X179573585Y-89466095D01*
X179442316Y-89626047D01*
X179344768Y-89808545D01*
X179284699Y-90006565D01*
X179284698Y-90006570D01*
X179264417Y-90212496D01*
X179264417Y-90212503D01*
X179284698Y-90418429D01*
X179284699Y-90418434D01*
X179344768Y-90616454D01*
X179442316Y-90798952D01*
X179542648Y-90921207D01*
X179573590Y-90958910D01*
X179573595Y-90958914D01*
X179733547Y-91090183D01*
X179733548Y-91090183D01*
X179733550Y-91090185D01*
X179916046Y-91187732D01*
X180017532Y-91218517D01*
X180114065Y-91247800D01*
X180114070Y-91247801D01*
X180319997Y-91268083D01*
X180320000Y-91268083D01*
X180320003Y-91268083D01*
X180525929Y-91247801D01*
X180525934Y-91247800D01*
X180550190Y-91240442D01*
X180723954Y-91187732D01*
X180731499Y-91183698D01*
X180791730Y-91172939D01*
X180846783Y-91199637D01*
X180848176Y-91201002D01*
X181140503Y-91493329D01*
X181168280Y-91547846D01*
X181169499Y-91563333D01*
X181169500Y-91881376D01*
X181150593Y-91939566D01*
X181101093Y-91975530D01*
X181039908Y-91975531D01*
X181007695Y-91957904D01*
X180958411Y-91917458D01*
X180906452Y-91874816D01*
X180723954Y-91777268D01*
X180525934Y-91717199D01*
X180525929Y-91717198D01*
X180320003Y-91696917D01*
X180319997Y-91696917D01*
X180114070Y-91717198D01*
X180114065Y-91717199D01*
X179916045Y-91777268D01*
X179733547Y-91874816D01*
X179573595Y-92006085D01*
X179573585Y-92006095D01*
X179442316Y-92166047D01*
X179344768Y-92348545D01*
X179284699Y-92546565D01*
X179284698Y-92546570D01*
X179264417Y-92752496D01*
X179264417Y-92752503D01*
X179284698Y-92958429D01*
X179284699Y-92958434D01*
X179330787Y-93110365D01*
X179344768Y-93156454D01*
X179348802Y-93164001D01*
X179359560Y-93224232D01*
X179332860Y-93279285D01*
X179331497Y-93280675D01*
X177966670Y-94645504D01*
X177912153Y-94673281D01*
X177896666Y-94674500D01*
X171549834Y-94674500D01*
X171491643Y-94655593D01*
X171455679Y-94606093D01*
X171455679Y-94544907D01*
X171479830Y-94505497D01*
X172224584Y-93760741D01*
X172279101Y-93732963D01*
X172323325Y-93736006D01*
X172391101Y-93756566D01*
X172494065Y-93787800D01*
X172494070Y-93787801D01*
X172699997Y-93808083D01*
X172700000Y-93808083D01*
X172700003Y-93808083D01*
X172905929Y-93787801D01*
X172905934Y-93787800D01*
X172921810Y-93782984D01*
X173103954Y-93727732D01*
X173286450Y-93630185D01*
X173446410Y-93498910D01*
X173577685Y-93338950D01*
X173675232Y-93156454D01*
X173735300Y-92958434D01*
X173735301Y-92958429D01*
X173755583Y-92752503D01*
X174184417Y-92752503D01*
X174204698Y-92958429D01*
X174204699Y-92958434D01*
X174264768Y-93156454D01*
X174362316Y-93338952D01*
X174477590Y-93479414D01*
X174493590Y-93498910D01*
X174493595Y-93498914D01*
X174653547Y-93630183D01*
X174653548Y-93630183D01*
X174653550Y-93630185D01*
X174836046Y-93727732D01*
X174964712Y-93766762D01*
X175034065Y-93787800D01*
X175034070Y-93787801D01*
X175239997Y-93808083D01*
X175240000Y-93808083D01*
X175240003Y-93808083D01*
X175445929Y-93787801D01*
X175445934Y-93787800D01*
X175461810Y-93782984D01*
X175643954Y-93727732D01*
X175826450Y-93630185D01*
X175986410Y-93498910D01*
X176117685Y-93338950D01*
X176215232Y-93156454D01*
X176275300Y-92958434D01*
X176275301Y-92958429D01*
X176295583Y-92752503D01*
X176724417Y-92752503D01*
X176744698Y-92958429D01*
X176744699Y-92958434D01*
X176804768Y-93156454D01*
X176902316Y-93338952D01*
X177017590Y-93479414D01*
X177033590Y-93498910D01*
X177033595Y-93498914D01*
X177193547Y-93630183D01*
X177193548Y-93630183D01*
X177193550Y-93630185D01*
X177376046Y-93727732D01*
X177504712Y-93766762D01*
X177574065Y-93787800D01*
X177574070Y-93787801D01*
X177779997Y-93808083D01*
X177780000Y-93808083D01*
X177780003Y-93808083D01*
X177985929Y-93787801D01*
X177985934Y-93787800D01*
X178001810Y-93782984D01*
X178183954Y-93727732D01*
X178366450Y-93630185D01*
X178526410Y-93498910D01*
X178657685Y-93338950D01*
X178755232Y-93156454D01*
X178815300Y-92958434D01*
X178815301Y-92958429D01*
X178835583Y-92752503D01*
X178835583Y-92752496D01*
X178815301Y-92546570D01*
X178815300Y-92546565D01*
X178797078Y-92486497D01*
X178755232Y-92348546D01*
X178657685Y-92166050D01*
X178655582Y-92163488D01*
X178526414Y-92006095D01*
X178526410Y-92006090D01*
X178489174Y-91975531D01*
X178366452Y-91874816D01*
X178183954Y-91777268D01*
X177985934Y-91717199D01*
X177985929Y-91717198D01*
X177780003Y-91696917D01*
X177779997Y-91696917D01*
X177574070Y-91717198D01*
X177574065Y-91717199D01*
X177376045Y-91777268D01*
X177193547Y-91874816D01*
X177033595Y-92006085D01*
X177033585Y-92006095D01*
X176902316Y-92166047D01*
X176804768Y-92348545D01*
X176744699Y-92546565D01*
X176744698Y-92546570D01*
X176724417Y-92752496D01*
X176724417Y-92752503D01*
X176295583Y-92752503D01*
X176295583Y-92752496D01*
X176275301Y-92546570D01*
X176275300Y-92546565D01*
X176257078Y-92486497D01*
X176215232Y-92348546D01*
X176117685Y-92166050D01*
X176115582Y-92163488D01*
X175986414Y-92006095D01*
X175986410Y-92006090D01*
X175949174Y-91975531D01*
X175826452Y-91874816D01*
X175643954Y-91777268D01*
X175445934Y-91717199D01*
X175445929Y-91717198D01*
X175240003Y-91696917D01*
X175239997Y-91696917D01*
X175034070Y-91717198D01*
X175034065Y-91717199D01*
X174836045Y-91777268D01*
X174653547Y-91874816D01*
X174493595Y-92006085D01*
X174493585Y-92006095D01*
X174362316Y-92166047D01*
X174264768Y-92348545D01*
X174204699Y-92546565D01*
X174204698Y-92546570D01*
X174184417Y-92752496D01*
X174184417Y-92752503D01*
X173755583Y-92752503D01*
X173755583Y-92752496D01*
X173735301Y-92546570D01*
X173735300Y-92546565D01*
X173717078Y-92486497D01*
X173675232Y-92348546D01*
X173577685Y-92166050D01*
X173575582Y-92163488D01*
X173446414Y-92006095D01*
X173446410Y-92006090D01*
X173409174Y-91975531D01*
X173286452Y-91874816D01*
X173103954Y-91777268D01*
X172905934Y-91717199D01*
X172905929Y-91717198D01*
X172700003Y-91696917D01*
X172699997Y-91696917D01*
X172494070Y-91717198D01*
X172494065Y-91717199D01*
X172296045Y-91777268D01*
X172113547Y-91874816D01*
X172113547Y-91874817D01*
X172012305Y-91957904D01*
X171955328Y-91980204D01*
X171896125Y-91964755D01*
X171857310Y-91917458D01*
X171850500Y-91881376D01*
X171850500Y-91563332D01*
X171869407Y-91505141D01*
X171879490Y-91493335D01*
X172171824Y-91201000D01*
X172226339Y-91173224D01*
X172286771Y-91182795D01*
X172288417Y-91183654D01*
X172296046Y-91187732D01*
X172371327Y-91210568D01*
X172494065Y-91247800D01*
X172494070Y-91247801D01*
X172699997Y-91268083D01*
X172700000Y-91268083D01*
X172700003Y-91268083D01*
X172905929Y-91247801D01*
X172905934Y-91247800D01*
X172930190Y-91240442D01*
X173103954Y-91187732D01*
X173286450Y-91090185D01*
X173446410Y-90958910D01*
X173577685Y-90798950D01*
X173675232Y-90616454D01*
X173735300Y-90418434D01*
X173735301Y-90418429D01*
X173755583Y-90212503D01*
X174184417Y-90212503D01*
X174204698Y-90418429D01*
X174204699Y-90418434D01*
X174264768Y-90616454D01*
X174362316Y-90798952D01*
X174462648Y-90921207D01*
X174493590Y-90958910D01*
X174493595Y-90958914D01*
X174653547Y-91090183D01*
X174653548Y-91090183D01*
X174653550Y-91090185D01*
X174836046Y-91187732D01*
X174937532Y-91218517D01*
X175034065Y-91247800D01*
X175034070Y-91247801D01*
X175239997Y-91268083D01*
X175240000Y-91268083D01*
X175240003Y-91268083D01*
X175445929Y-91247801D01*
X175445934Y-91247800D01*
X175470190Y-91240442D01*
X175643954Y-91187732D01*
X175826450Y-91090185D01*
X175986410Y-90958910D01*
X176117685Y-90798950D01*
X176215232Y-90616454D01*
X176275300Y-90418434D01*
X176275301Y-90418429D01*
X176295583Y-90212503D01*
X176724417Y-90212503D01*
X176744698Y-90418429D01*
X176744699Y-90418434D01*
X176804768Y-90616454D01*
X176902316Y-90798952D01*
X177002648Y-90921207D01*
X177033590Y-90958910D01*
X177033595Y-90958914D01*
X177193547Y-91090183D01*
X177193548Y-91090183D01*
X177193550Y-91090185D01*
X177376046Y-91187732D01*
X177477532Y-91218517D01*
X177574065Y-91247800D01*
X177574070Y-91247801D01*
X177779997Y-91268083D01*
X177780000Y-91268083D01*
X177780003Y-91268083D01*
X177985929Y-91247801D01*
X177985934Y-91247800D01*
X178010190Y-91240442D01*
X178183954Y-91187732D01*
X178366450Y-91090185D01*
X178526410Y-90958910D01*
X178657685Y-90798950D01*
X178755232Y-90616454D01*
X178815300Y-90418434D01*
X178815301Y-90418429D01*
X178835583Y-90212503D01*
X178835583Y-90212496D01*
X178815301Y-90006570D01*
X178815300Y-90006565D01*
X178797078Y-89946497D01*
X178755232Y-89808546D01*
X178657685Y-89626050D01*
X178655582Y-89623488D01*
X178526414Y-89466095D01*
X178526410Y-89466090D01*
X178508175Y-89451125D01*
X178366452Y-89334816D01*
X178183954Y-89237268D01*
X177985934Y-89177199D01*
X177985929Y-89177198D01*
X177780003Y-89156917D01*
X177779997Y-89156917D01*
X177574070Y-89177198D01*
X177574065Y-89177199D01*
X177376045Y-89237268D01*
X177193547Y-89334816D01*
X177033595Y-89466085D01*
X177033585Y-89466095D01*
X176902316Y-89626047D01*
X176804768Y-89808545D01*
X176744699Y-90006565D01*
X176744698Y-90006570D01*
X176724417Y-90212496D01*
X176724417Y-90212503D01*
X176295583Y-90212503D01*
X176295583Y-90212496D01*
X176275301Y-90006570D01*
X176275300Y-90006565D01*
X176257078Y-89946497D01*
X176215232Y-89808546D01*
X176117685Y-89626050D01*
X176115582Y-89623488D01*
X175986414Y-89466095D01*
X175986410Y-89466090D01*
X175968175Y-89451125D01*
X175826452Y-89334816D01*
X175643954Y-89237268D01*
X175445934Y-89177199D01*
X175445929Y-89177198D01*
X175240003Y-89156917D01*
X175239997Y-89156917D01*
X175034070Y-89177198D01*
X175034065Y-89177199D01*
X174836045Y-89237268D01*
X174653547Y-89334816D01*
X174493595Y-89466085D01*
X174493585Y-89466095D01*
X174362316Y-89626047D01*
X174264768Y-89808545D01*
X174204699Y-90006565D01*
X174204698Y-90006570D01*
X174184417Y-90212496D01*
X174184417Y-90212503D01*
X173755583Y-90212503D01*
X173755583Y-90212496D01*
X173735301Y-90006570D01*
X173735300Y-90006565D01*
X173717078Y-89946497D01*
X173675232Y-89808546D01*
X173577685Y-89626050D01*
X173575582Y-89623488D01*
X173446414Y-89466095D01*
X173446410Y-89466090D01*
X173428175Y-89451125D01*
X173286452Y-89334816D01*
X173103954Y-89237268D01*
X172905934Y-89177199D01*
X172905929Y-89177198D01*
X172700003Y-89156917D01*
X172699997Y-89156917D01*
X172494070Y-89177198D01*
X172494065Y-89177199D01*
X172296045Y-89237268D01*
X172113547Y-89334816D01*
X171953595Y-89466085D01*
X171953585Y-89466095D01*
X171822316Y-89626047D01*
X171724768Y-89808545D01*
X171664699Y-90006565D01*
X171664698Y-90006570D01*
X171644417Y-90212496D01*
X171644417Y-90212503D01*
X171664698Y-90418429D01*
X171664699Y-90418434D01*
X171710787Y-90570365D01*
X171724768Y-90616454D01*
X171728802Y-90624001D01*
X171739560Y-90684232D01*
X171712860Y-90739285D01*
X171711497Y-90740675D01*
X171306413Y-91145759D01*
X171303229Y-91148676D01*
X171271807Y-91175042D01*
X171271806Y-91175044D01*
X171251292Y-91210575D01*
X171248972Y-91214216D01*
X171225446Y-91247816D01*
X171225442Y-91247824D01*
X171225051Y-91249286D01*
X171215170Y-91273140D01*
X171214414Y-91274448D01*
X171214410Y-91274460D01*
X171207287Y-91314849D01*
X171206353Y-91319064D01*
X171195736Y-91358687D01*
X171195736Y-91358693D01*
X171199312Y-91399572D01*
X171199500Y-91403873D01*
X171199500Y-92086535D01*
X171180593Y-92144726D01*
X171131093Y-92180690D01*
X171069907Y-92180690D01*
X171023972Y-92149340D01*
X170906414Y-92006095D01*
X170906410Y-92006090D01*
X170869174Y-91975531D01*
X170746452Y-91874816D01*
X170563954Y-91777268D01*
X170365934Y-91717199D01*
X170365929Y-91717198D01*
X170160003Y-91696917D01*
X170159997Y-91696917D01*
X169954070Y-91717198D01*
X169954065Y-91717199D01*
X169756045Y-91777268D01*
X169573547Y-91874816D01*
X169413595Y-92006085D01*
X169413585Y-92006095D01*
X169296028Y-92149340D01*
X169244497Y-92182327D01*
X169183417Y-92178725D01*
X169136121Y-92139910D01*
X169120500Y-92086535D01*
X169120500Y-91403873D01*
X169120687Y-91399572D01*
X169124264Y-91358693D01*
X169113640Y-91319048D01*
X169112710Y-91314848D01*
X169105588Y-91274455D01*
X169104840Y-91273159D01*
X169094942Y-91249267D01*
X169094554Y-91247816D01*
X169094552Y-91247813D01*
X169094551Y-91247811D01*
X169071025Y-91214212D01*
X169068703Y-91210568D01*
X169048193Y-91175043D01*
X169027069Y-91157319D01*
X169016765Y-91148673D01*
X169013588Y-91145761D01*
X168608502Y-90740676D01*
X168580725Y-90686159D01*
X168590296Y-90625727D01*
X168591174Y-90624044D01*
X168595232Y-90616454D01*
X168655300Y-90418434D01*
X168655301Y-90418429D01*
X168675583Y-90212503D01*
X169104417Y-90212503D01*
X169124698Y-90418429D01*
X169124699Y-90418434D01*
X169184768Y-90616454D01*
X169282316Y-90798952D01*
X169382648Y-90921207D01*
X169413590Y-90958910D01*
X169413595Y-90958914D01*
X169573547Y-91090183D01*
X169573548Y-91090183D01*
X169573550Y-91090185D01*
X169756046Y-91187732D01*
X169857532Y-91218517D01*
X169954065Y-91247800D01*
X169954070Y-91247801D01*
X170159997Y-91268083D01*
X170160000Y-91268083D01*
X170160003Y-91268083D01*
X170365929Y-91247801D01*
X170365934Y-91247800D01*
X170390190Y-91240442D01*
X170563954Y-91187732D01*
X170746450Y-91090185D01*
X170906410Y-90958910D01*
X171037685Y-90798950D01*
X171135232Y-90616454D01*
X171195300Y-90418434D01*
X171195301Y-90418429D01*
X171215583Y-90212503D01*
X171215583Y-90212496D01*
X171195301Y-90006570D01*
X171195300Y-90006565D01*
X171177078Y-89946497D01*
X171135232Y-89808546D01*
X171037685Y-89626050D01*
X171035582Y-89623488D01*
X170906414Y-89466095D01*
X170906410Y-89466090D01*
X170888175Y-89451125D01*
X170746452Y-89334816D01*
X170563954Y-89237268D01*
X170365934Y-89177199D01*
X170365929Y-89177198D01*
X170160003Y-89156917D01*
X170159997Y-89156917D01*
X169954070Y-89177198D01*
X169954065Y-89177199D01*
X169756045Y-89237268D01*
X169573547Y-89334816D01*
X169413595Y-89466085D01*
X169413585Y-89466095D01*
X169282316Y-89626047D01*
X169184768Y-89808545D01*
X169124699Y-90006565D01*
X169124698Y-90006570D01*
X169104417Y-90212496D01*
X169104417Y-90212503D01*
X168675583Y-90212503D01*
X168675583Y-90212496D01*
X168655301Y-90006570D01*
X168655300Y-90006565D01*
X168637078Y-89946497D01*
X168595232Y-89808546D01*
X168497685Y-89626050D01*
X168495582Y-89623488D01*
X168366414Y-89466095D01*
X168366410Y-89466090D01*
X168348175Y-89451125D01*
X168206452Y-89334816D01*
X168023954Y-89237268D01*
X167825934Y-89177199D01*
X167825929Y-89177198D01*
X167620003Y-89156917D01*
X167619997Y-89156917D01*
X167414070Y-89177198D01*
X167414065Y-89177199D01*
X167216045Y-89237268D01*
X167033547Y-89334816D01*
X166873595Y-89466085D01*
X166873585Y-89466095D01*
X166742316Y-89626047D01*
X166644768Y-89808545D01*
X166584699Y-90006565D01*
X166584698Y-90006570D01*
X166564417Y-90212496D01*
X166564417Y-90212503D01*
X166584698Y-90418429D01*
X166584699Y-90418434D01*
X166644768Y-90616454D01*
X166742316Y-90798952D01*
X166842648Y-90921207D01*
X166873590Y-90958910D01*
X166873595Y-90958914D01*
X167033547Y-91090183D01*
X167033548Y-91090183D01*
X167033550Y-91090185D01*
X167216046Y-91187732D01*
X167317532Y-91218517D01*
X167414065Y-91247800D01*
X167414070Y-91247801D01*
X167619997Y-91268083D01*
X167620000Y-91268083D01*
X167620003Y-91268083D01*
X167825929Y-91247801D01*
X167825934Y-91247800D01*
X167850190Y-91240442D01*
X168023954Y-91187732D01*
X168031499Y-91183698D01*
X168091730Y-91172939D01*
X168146783Y-91199637D01*
X168148176Y-91201002D01*
X168440504Y-91493330D01*
X168468281Y-91547847D01*
X168469500Y-91563334D01*
X168469500Y-91881376D01*
X168450593Y-91939567D01*
X168401093Y-91975531D01*
X168339907Y-91975531D01*
X168307695Y-91957904D01*
X168258411Y-91917458D01*
X168206452Y-91874816D01*
X168023954Y-91777268D01*
X167825934Y-91717199D01*
X167825929Y-91717198D01*
X167620003Y-91696917D01*
X167619997Y-91696917D01*
X167414070Y-91717198D01*
X167414065Y-91717199D01*
X167216045Y-91777268D01*
X167033547Y-91874816D01*
X166873595Y-92006085D01*
X166873585Y-92006095D01*
X166756028Y-92149340D01*
X166704497Y-92182327D01*
X166643417Y-92178725D01*
X166596121Y-92139910D01*
X166580500Y-92086535D01*
X166580500Y-91403873D01*
X166580687Y-91399572D01*
X166584264Y-91358693D01*
X166573640Y-91319048D01*
X166572710Y-91314848D01*
X166565588Y-91274455D01*
X166564840Y-91273159D01*
X166554942Y-91249267D01*
X166554554Y-91247816D01*
X166554552Y-91247813D01*
X166554551Y-91247811D01*
X166531025Y-91214212D01*
X166528703Y-91210568D01*
X166508193Y-91175043D01*
X166487069Y-91157319D01*
X166476765Y-91148673D01*
X166473588Y-91145761D01*
X166068502Y-90740676D01*
X166040725Y-90686159D01*
X166050296Y-90625727D01*
X166051174Y-90624044D01*
X166055232Y-90616454D01*
X166115300Y-90418434D01*
X166115301Y-90418429D01*
X166135583Y-90212503D01*
X166135583Y-90212496D01*
X166115301Y-90006570D01*
X166115300Y-90006565D01*
X166097078Y-89946497D01*
X166055232Y-89808546D01*
X165957685Y-89626050D01*
X165955582Y-89623488D01*
X165826414Y-89466095D01*
X165826410Y-89466090D01*
X165808175Y-89451125D01*
X165666452Y-89334816D01*
X165483954Y-89237268D01*
X165285934Y-89177199D01*
X165285929Y-89177198D01*
X165080003Y-89156917D01*
X165079997Y-89156917D01*
X164874070Y-89177198D01*
X164874065Y-89177199D01*
X164676045Y-89237268D01*
X164493547Y-89334816D01*
X164333595Y-89466085D01*
X164333585Y-89466095D01*
X164202316Y-89626047D01*
X164104768Y-89808545D01*
X164044699Y-90006565D01*
X164044698Y-90006570D01*
X164024417Y-90212496D01*
X164024417Y-90212503D01*
X164044698Y-90418429D01*
X164044699Y-90418434D01*
X164104768Y-90616454D01*
X164202316Y-90798952D01*
X164302648Y-90921207D01*
X164333590Y-90958910D01*
X164333595Y-90958914D01*
X164493547Y-91090183D01*
X164493548Y-91090183D01*
X164493550Y-91090185D01*
X164676046Y-91187732D01*
X164777532Y-91218517D01*
X164874065Y-91247800D01*
X164874070Y-91247801D01*
X165079997Y-91268083D01*
X165080000Y-91268083D01*
X165080003Y-91268083D01*
X165285929Y-91247801D01*
X165285934Y-91247800D01*
X165310190Y-91240442D01*
X165483954Y-91187732D01*
X165491499Y-91183698D01*
X165551730Y-91172939D01*
X165606783Y-91199637D01*
X165608176Y-91201003D01*
X165900503Y-91493331D01*
X165928280Y-91547847D01*
X165929499Y-91563334D01*
X165929500Y-91881376D01*
X165910593Y-91939566D01*
X165861093Y-91975530D01*
X165799908Y-91975531D01*
X165767695Y-91957904D01*
X165718411Y-91917458D01*
X165666452Y-91874816D01*
X165483954Y-91777268D01*
X165285934Y-91717199D01*
X165285929Y-91717198D01*
X165080003Y-91696917D01*
X165079997Y-91696917D01*
X164874070Y-91717198D01*
X164874065Y-91717199D01*
X164676045Y-91777268D01*
X164493547Y-91874816D01*
X164333595Y-92006085D01*
X164333585Y-92006095D01*
X164202316Y-92166047D01*
X164104768Y-92348545D01*
X164044699Y-92546565D01*
X164044698Y-92546570D01*
X164024417Y-92752496D01*
X164024417Y-92752503D01*
X164044698Y-92958429D01*
X164044699Y-92958434D01*
X164104768Y-93156454D01*
X164202316Y-93338952D01*
X164277560Y-93430637D01*
X164318115Y-93480054D01*
X164333592Y-93498912D01*
X164335479Y-93500461D01*
X164336081Y-93501402D01*
X164337034Y-93502355D01*
X164336825Y-93502563D01*
X164368466Y-93551992D01*
X164364864Y-93613071D01*
X164342678Y-93646993D01*
X162070003Y-95919669D01*
X162015486Y-95947446D01*
X161955054Y-95937875D01*
X161929995Y-95919669D01*
X159982701Y-93972375D01*
X159954924Y-93917858D01*
X159964495Y-93857426D01*
X160007760Y-93814161D01*
X160043001Y-93803848D01*
X160205929Y-93787801D01*
X160205934Y-93787800D01*
X160221810Y-93782984D01*
X160403954Y-93727732D01*
X160586450Y-93630185D01*
X160746410Y-93498910D01*
X160877685Y-93338950D01*
X160975232Y-93156454D01*
X161035300Y-92958434D01*
X161035301Y-92958429D01*
X161055583Y-92752503D01*
X161484417Y-92752503D01*
X161504698Y-92958429D01*
X161504699Y-92958434D01*
X161564768Y-93156454D01*
X161662316Y-93338952D01*
X161777590Y-93479414D01*
X161793590Y-93498910D01*
X161793595Y-93498914D01*
X161953547Y-93630183D01*
X161953548Y-93630183D01*
X161953550Y-93630185D01*
X162136046Y-93727732D01*
X162264712Y-93766762D01*
X162334065Y-93787800D01*
X162334070Y-93787801D01*
X162539997Y-93808083D01*
X162540000Y-93808083D01*
X162540003Y-93808083D01*
X162745929Y-93787801D01*
X162745934Y-93787800D01*
X162761810Y-93782984D01*
X162943954Y-93727732D01*
X163126450Y-93630185D01*
X163286410Y-93498910D01*
X163417685Y-93338950D01*
X163515232Y-93156454D01*
X163575300Y-92958434D01*
X163575301Y-92958429D01*
X163595583Y-92752503D01*
X163595583Y-92752496D01*
X163575301Y-92546570D01*
X163575300Y-92546565D01*
X163557078Y-92486497D01*
X163515232Y-92348546D01*
X163417685Y-92166050D01*
X163415582Y-92163488D01*
X163286414Y-92006095D01*
X163286410Y-92006090D01*
X163249174Y-91975531D01*
X163126452Y-91874816D01*
X162943954Y-91777268D01*
X162745934Y-91717199D01*
X162745929Y-91717198D01*
X162540003Y-91696917D01*
X162539997Y-91696917D01*
X162334070Y-91717198D01*
X162334065Y-91717199D01*
X162136045Y-91777268D01*
X161953547Y-91874816D01*
X161793595Y-92006085D01*
X161793585Y-92006095D01*
X161662316Y-92166047D01*
X161564768Y-92348545D01*
X161504699Y-92546565D01*
X161504698Y-92546570D01*
X161484417Y-92752496D01*
X161484417Y-92752503D01*
X161055583Y-92752503D01*
X161055583Y-92752496D01*
X161035301Y-92546570D01*
X161035300Y-92546565D01*
X161017078Y-92486497D01*
X160975232Y-92348546D01*
X160877685Y-92166050D01*
X160875582Y-92163488D01*
X160746414Y-92006095D01*
X160746410Y-92006090D01*
X160709174Y-91975531D01*
X160586452Y-91874816D01*
X160403954Y-91777268D01*
X160205934Y-91717199D01*
X160205929Y-91717198D01*
X160000003Y-91696917D01*
X159999997Y-91696917D01*
X159794070Y-91717198D01*
X159794065Y-91717199D01*
X159596045Y-91777268D01*
X159413547Y-91874816D01*
X159253595Y-92006085D01*
X159253584Y-92006096D01*
X159251024Y-92009216D01*
X159199491Y-92042200D01*
X159138412Y-92038594D01*
X159091117Y-91999775D01*
X159075500Y-91946406D01*
X159075500Y-91518862D01*
X159075687Y-91514561D01*
X159079263Y-91473693D01*
X159068642Y-91434059D01*
X159067712Y-91429860D01*
X159065089Y-91414983D01*
X159060588Y-91389455D01*
X159059834Y-91388149D01*
X159049941Y-91364265D01*
X159049553Y-91362816D01*
X159026026Y-91329216D01*
X159023711Y-91325583D01*
X159003194Y-91290045D01*
X158971771Y-91263678D01*
X158968594Y-91260766D01*
X158448502Y-90740675D01*
X158420725Y-90686158D01*
X158430296Y-90625726D01*
X158431154Y-90624082D01*
X158435232Y-90616454D01*
X158495300Y-90418434D01*
X158495301Y-90418429D01*
X158515583Y-90212503D01*
X158944417Y-90212503D01*
X158964698Y-90418429D01*
X158964699Y-90418434D01*
X159024768Y-90616454D01*
X159122316Y-90798952D01*
X159222648Y-90921207D01*
X159253590Y-90958910D01*
X159253595Y-90958914D01*
X159413547Y-91090183D01*
X159413548Y-91090183D01*
X159413550Y-91090185D01*
X159596046Y-91187732D01*
X159697532Y-91218517D01*
X159794065Y-91247800D01*
X159794070Y-91247801D01*
X159999997Y-91268083D01*
X160000000Y-91268083D01*
X160000003Y-91268083D01*
X160205929Y-91247801D01*
X160205934Y-91247800D01*
X160230190Y-91240442D01*
X160403954Y-91187732D01*
X160586450Y-91090185D01*
X160746410Y-90958910D01*
X160877685Y-90798950D01*
X160975232Y-90616454D01*
X161035300Y-90418434D01*
X161035301Y-90418429D01*
X161055583Y-90212503D01*
X161484417Y-90212503D01*
X161504698Y-90418429D01*
X161504699Y-90418434D01*
X161564768Y-90616454D01*
X161662316Y-90798952D01*
X161762648Y-90921207D01*
X161793590Y-90958910D01*
X161793595Y-90958914D01*
X161953547Y-91090183D01*
X161953548Y-91090183D01*
X161953550Y-91090185D01*
X162136046Y-91187732D01*
X162237532Y-91218517D01*
X162334065Y-91247800D01*
X162334070Y-91247801D01*
X162539997Y-91268083D01*
X162540000Y-91268083D01*
X162540003Y-91268083D01*
X162745929Y-91247801D01*
X162745934Y-91247800D01*
X162770190Y-91240442D01*
X162943954Y-91187732D01*
X163126450Y-91090185D01*
X163286410Y-90958910D01*
X163417685Y-90798950D01*
X163515232Y-90616454D01*
X163575300Y-90418434D01*
X163575301Y-90418429D01*
X163595583Y-90212503D01*
X163595583Y-90212496D01*
X163575301Y-90006570D01*
X163575300Y-90006565D01*
X163557078Y-89946497D01*
X163515232Y-89808546D01*
X163417685Y-89626050D01*
X163415582Y-89623488D01*
X163286414Y-89466095D01*
X163286410Y-89466090D01*
X163268175Y-89451125D01*
X163126452Y-89334816D01*
X162943954Y-89237268D01*
X162745934Y-89177199D01*
X162745929Y-89177198D01*
X162540003Y-89156917D01*
X162539997Y-89156917D01*
X162334070Y-89177198D01*
X162334065Y-89177199D01*
X162136045Y-89237268D01*
X161953547Y-89334816D01*
X161793595Y-89466085D01*
X161793585Y-89466095D01*
X161662316Y-89626047D01*
X161564768Y-89808545D01*
X161504699Y-90006565D01*
X161504698Y-90006570D01*
X161484417Y-90212496D01*
X161484417Y-90212503D01*
X161055583Y-90212503D01*
X161055583Y-90212496D01*
X161035301Y-90006570D01*
X161035300Y-90006565D01*
X161017078Y-89946497D01*
X160975232Y-89808546D01*
X160877685Y-89626050D01*
X160875582Y-89623488D01*
X160746414Y-89466095D01*
X160746410Y-89466090D01*
X160728175Y-89451125D01*
X160586452Y-89334816D01*
X160403954Y-89237268D01*
X160205934Y-89177199D01*
X160205929Y-89177198D01*
X160000003Y-89156917D01*
X159999997Y-89156917D01*
X159794070Y-89177198D01*
X159794065Y-89177199D01*
X159596045Y-89237268D01*
X159413547Y-89334816D01*
X159253595Y-89466085D01*
X159253585Y-89466095D01*
X159122316Y-89626047D01*
X159024768Y-89808545D01*
X158964699Y-90006565D01*
X158964698Y-90006570D01*
X158944417Y-90212496D01*
X158944417Y-90212503D01*
X158515583Y-90212503D01*
X158515583Y-90212496D01*
X158495301Y-90006570D01*
X158495300Y-90006565D01*
X158477078Y-89946497D01*
X158435232Y-89808546D01*
X158337685Y-89626050D01*
X158335582Y-89623488D01*
X158206414Y-89466095D01*
X158206410Y-89466090D01*
X158188175Y-89451125D01*
X158046452Y-89334816D01*
X157863954Y-89237268D01*
X157665934Y-89177199D01*
X157665929Y-89177198D01*
X157460003Y-89156917D01*
X157459997Y-89156917D01*
X157254070Y-89177198D01*
X157254065Y-89177199D01*
X157056045Y-89237268D01*
X156873547Y-89334816D01*
X156713595Y-89466085D01*
X156713585Y-89466095D01*
X156582316Y-89626047D01*
X156484768Y-89808545D01*
X156424699Y-90006565D01*
X156424698Y-90006570D01*
X156404417Y-90212496D01*
X156404417Y-90212503D01*
X156424698Y-90418429D01*
X156424699Y-90418434D01*
X156484768Y-90616454D01*
X156582316Y-90798952D01*
X156682648Y-90921207D01*
X156713590Y-90958910D01*
X156713595Y-90958914D01*
X156873547Y-91090183D01*
X156873548Y-91090183D01*
X156873550Y-91090185D01*
X157056046Y-91187732D01*
X157157532Y-91218517D01*
X157254065Y-91247800D01*
X157254070Y-91247801D01*
X157459997Y-91268083D01*
X157460000Y-91268083D01*
X157460003Y-91268083D01*
X157665929Y-91247801D01*
X157665934Y-91247800D01*
X157690190Y-91240442D01*
X157863954Y-91187732D01*
X157871503Y-91183696D01*
X157931733Y-91172939D01*
X157986786Y-91199639D01*
X157988175Y-91201002D01*
X158395503Y-91608329D01*
X158423281Y-91662846D01*
X158424500Y-91678333D01*
X158424500Y-91995147D01*
X158405593Y-92053338D01*
X158356093Y-92089302D01*
X158294907Y-92089302D01*
X158248972Y-92057952D01*
X158206414Y-92006095D01*
X158206410Y-92006090D01*
X158169174Y-91975531D01*
X158046452Y-91874816D01*
X157863954Y-91777268D01*
X157665934Y-91717199D01*
X157665929Y-91717198D01*
X157460003Y-91696917D01*
X157459997Y-91696917D01*
X157254070Y-91717198D01*
X157254065Y-91717199D01*
X157056045Y-91777268D01*
X156873547Y-91874816D01*
X156713595Y-92006085D01*
X156713585Y-92006095D01*
X156596028Y-92149340D01*
X156544497Y-92182327D01*
X156483417Y-92178725D01*
X156436121Y-92139910D01*
X156420500Y-92086535D01*
X156420500Y-91403873D01*
X156420687Y-91399572D01*
X156424264Y-91358693D01*
X156413640Y-91319048D01*
X156412710Y-91314848D01*
X156405588Y-91274455D01*
X156404840Y-91273159D01*
X156394942Y-91249267D01*
X156394554Y-91247816D01*
X156394552Y-91247813D01*
X156394551Y-91247811D01*
X156371025Y-91214212D01*
X156368703Y-91210568D01*
X156348193Y-91175043D01*
X156327069Y-91157319D01*
X156316765Y-91148673D01*
X156313588Y-91145761D01*
X155908502Y-90740676D01*
X155880725Y-90686159D01*
X155890296Y-90625727D01*
X155891174Y-90624044D01*
X155895232Y-90616454D01*
X155955300Y-90418434D01*
X155955301Y-90418429D01*
X155975583Y-90212503D01*
X155975583Y-90212496D01*
X155955301Y-90006570D01*
X155955300Y-90006565D01*
X155937078Y-89946497D01*
X155895232Y-89808546D01*
X155797685Y-89626050D01*
X155795582Y-89623488D01*
X155666414Y-89466095D01*
X155666410Y-89466090D01*
X155648175Y-89451125D01*
X155506452Y-89334816D01*
X155323954Y-89237268D01*
X155125934Y-89177199D01*
X155125929Y-89177198D01*
X154920003Y-89156917D01*
X154919997Y-89156917D01*
X154714070Y-89177198D01*
X154714065Y-89177199D01*
X154516045Y-89237268D01*
X154333547Y-89334816D01*
X154173595Y-89466085D01*
X154173585Y-89466095D01*
X154042316Y-89626047D01*
X153944768Y-89808545D01*
X153884699Y-90006565D01*
X153884698Y-90006570D01*
X153864417Y-90212496D01*
X153864417Y-90212503D01*
X153884698Y-90418429D01*
X153884699Y-90418434D01*
X153944768Y-90616454D01*
X154042316Y-90798952D01*
X154142648Y-90921207D01*
X154173590Y-90958910D01*
X154173595Y-90958914D01*
X154333547Y-91090183D01*
X154333548Y-91090183D01*
X154333550Y-91090185D01*
X154516046Y-91187732D01*
X154617532Y-91218517D01*
X154714065Y-91247800D01*
X154714070Y-91247801D01*
X154919997Y-91268083D01*
X154920000Y-91268083D01*
X154920003Y-91268083D01*
X155125929Y-91247801D01*
X155125934Y-91247800D01*
X155150190Y-91240442D01*
X155323954Y-91187732D01*
X155331503Y-91183696D01*
X155391735Y-91172939D01*
X155446787Y-91199640D01*
X155448176Y-91201002D01*
X155740503Y-91493328D01*
X155768281Y-91547845D01*
X155769500Y-91563332D01*
X155769500Y-91881376D01*
X155750593Y-91939567D01*
X155701093Y-91975531D01*
X155639907Y-91975531D01*
X155607695Y-91957904D01*
X155558411Y-91917458D01*
X155506452Y-91874816D01*
X155323954Y-91777268D01*
X155125934Y-91717199D01*
X155125929Y-91717198D01*
X154920003Y-91696917D01*
X154919997Y-91696917D01*
X154714070Y-91717198D01*
X154714065Y-91717199D01*
X154516045Y-91777268D01*
X154333547Y-91874816D01*
X154173595Y-92006085D01*
X154173585Y-92006095D01*
X154056028Y-92149340D01*
X154004497Y-92182327D01*
X153943417Y-92178725D01*
X153896121Y-92139910D01*
X153880500Y-92086535D01*
X153880500Y-91403873D01*
X153880687Y-91399572D01*
X153884264Y-91358693D01*
X153873640Y-91319048D01*
X153872710Y-91314848D01*
X153865588Y-91274455D01*
X153864840Y-91273159D01*
X153854942Y-91249267D01*
X153854554Y-91247816D01*
X153854552Y-91247813D01*
X153854551Y-91247811D01*
X153831025Y-91214212D01*
X153828703Y-91210568D01*
X153808193Y-91175043D01*
X153787069Y-91157319D01*
X153776765Y-91148673D01*
X153773588Y-91145761D01*
X153368502Y-90740676D01*
X153340725Y-90686159D01*
X153350296Y-90625727D01*
X153351174Y-90624044D01*
X153355232Y-90616454D01*
X153415300Y-90418434D01*
X153415301Y-90418429D01*
X153435583Y-90212503D01*
X153435583Y-90212496D01*
X153415301Y-90006570D01*
X153415300Y-90006565D01*
X153397078Y-89946497D01*
X153355232Y-89808546D01*
X153257685Y-89626050D01*
X153255582Y-89623488D01*
X153126414Y-89466095D01*
X153126410Y-89466090D01*
X153108175Y-89451125D01*
X152966452Y-89334816D01*
X152783954Y-89237268D01*
X152585934Y-89177199D01*
X152585929Y-89177198D01*
X152380003Y-89156917D01*
X152379997Y-89156917D01*
X152174070Y-89177198D01*
X152174065Y-89177199D01*
X151976045Y-89237268D01*
X151793547Y-89334816D01*
X151633595Y-89466085D01*
X151633585Y-89466095D01*
X151502316Y-89626047D01*
X151404768Y-89808545D01*
X151344699Y-90006565D01*
X151344698Y-90006570D01*
X151324417Y-90212496D01*
X151324417Y-90212503D01*
X151344698Y-90418429D01*
X151344699Y-90418434D01*
X151404768Y-90616454D01*
X151502316Y-90798952D01*
X151602648Y-90921207D01*
X151633590Y-90958910D01*
X151633595Y-90958914D01*
X151793547Y-91090183D01*
X151793548Y-91090183D01*
X151793550Y-91090185D01*
X151976046Y-91187732D01*
X152077532Y-91218517D01*
X152174065Y-91247800D01*
X152174070Y-91247801D01*
X152379997Y-91268083D01*
X152380000Y-91268083D01*
X152380003Y-91268083D01*
X152585929Y-91247801D01*
X152585934Y-91247800D01*
X152610190Y-91240442D01*
X152783954Y-91187732D01*
X152791499Y-91183698D01*
X152851730Y-91172939D01*
X152906783Y-91199637D01*
X152908176Y-91201002D01*
X153200504Y-91493330D01*
X153228281Y-91547847D01*
X153229500Y-91563334D01*
X153229500Y-91881376D01*
X153210593Y-91939567D01*
X153161093Y-91975531D01*
X153099907Y-91975531D01*
X153067695Y-91957904D01*
X153018411Y-91917458D01*
X152966452Y-91874816D01*
X152783954Y-91777268D01*
X152585934Y-91717199D01*
X152585929Y-91717198D01*
X152380003Y-91696917D01*
X152379997Y-91696917D01*
X152174070Y-91717198D01*
X152174065Y-91717199D01*
X151976045Y-91777268D01*
X151793547Y-91874816D01*
X151633595Y-92006085D01*
X151633585Y-92006095D01*
X151502316Y-92166047D01*
X151404768Y-92348545D01*
X151344699Y-92546565D01*
X151344698Y-92546570D01*
X151324417Y-92752496D01*
X151324417Y-92752503D01*
X151344698Y-92958429D01*
X151344699Y-92958434D01*
X151404768Y-93156454D01*
X151502316Y-93338952D01*
X151617590Y-93479414D01*
X151633590Y-93498910D01*
X151633595Y-93498914D01*
X151755516Y-93598972D01*
X151788503Y-93650503D01*
X151784901Y-93711583D01*
X151746086Y-93758880D01*
X151692711Y-93774500D01*
X150527289Y-93774500D01*
X150469098Y-93755593D01*
X150433134Y-93706093D01*
X150433134Y-93644907D01*
X150464484Y-93598972D01*
X150546858Y-93531369D01*
X150586410Y-93498910D01*
X150717685Y-93338950D01*
X150815232Y-93156454D01*
X150875300Y-92958434D01*
X150875301Y-92958429D01*
X150895583Y-92752503D01*
X150895583Y-92752496D01*
X150875301Y-92546570D01*
X150875300Y-92546565D01*
X150857078Y-92486497D01*
X150815232Y-92348546D01*
X150717685Y-92166050D01*
X150715582Y-92163488D01*
X150586414Y-92006095D01*
X150586410Y-92006090D01*
X150549174Y-91975531D01*
X150426452Y-91874816D01*
X150243954Y-91777268D01*
X150045934Y-91717199D01*
X150045929Y-91717198D01*
X149840003Y-91696917D01*
X149839997Y-91696917D01*
X149634070Y-91717198D01*
X149634065Y-91717199D01*
X149436045Y-91777268D01*
X149253547Y-91874816D01*
X149093595Y-92006085D01*
X149093585Y-92006095D01*
X148976028Y-92149340D01*
X148924497Y-92182327D01*
X148863417Y-92178725D01*
X148816121Y-92139910D01*
X148800500Y-92086535D01*
X148800500Y-91403873D01*
X148800687Y-91399572D01*
X148804264Y-91358693D01*
X148793640Y-91319048D01*
X148792710Y-91314848D01*
X148785588Y-91274455D01*
X148784840Y-91273159D01*
X148774942Y-91249267D01*
X148774554Y-91247816D01*
X148774552Y-91247813D01*
X148774551Y-91247811D01*
X148751025Y-91214212D01*
X148748703Y-91210568D01*
X148728193Y-91175043D01*
X148707069Y-91157319D01*
X148696765Y-91148673D01*
X148693588Y-91145761D01*
X148288502Y-90740676D01*
X148260725Y-90686159D01*
X148270296Y-90625727D01*
X148271174Y-90624044D01*
X148275232Y-90616454D01*
X148335300Y-90418434D01*
X148335301Y-90418429D01*
X148355583Y-90212503D01*
X148784417Y-90212503D01*
X148804698Y-90418429D01*
X148804699Y-90418434D01*
X148864768Y-90616454D01*
X148962316Y-90798952D01*
X149062648Y-90921207D01*
X149093590Y-90958910D01*
X149093595Y-90958914D01*
X149253547Y-91090183D01*
X149253548Y-91090183D01*
X149253550Y-91090185D01*
X149436046Y-91187732D01*
X149537532Y-91218517D01*
X149634065Y-91247800D01*
X149634070Y-91247801D01*
X149839997Y-91268083D01*
X149840000Y-91268083D01*
X149840003Y-91268083D01*
X150045929Y-91247801D01*
X150045934Y-91247800D01*
X150070190Y-91240442D01*
X150243954Y-91187732D01*
X150426450Y-91090185D01*
X150586410Y-90958910D01*
X150717685Y-90798950D01*
X150815232Y-90616454D01*
X150875300Y-90418434D01*
X150875301Y-90418429D01*
X150895583Y-90212503D01*
X150895583Y-90212496D01*
X150875301Y-90006570D01*
X150875300Y-90006565D01*
X150857078Y-89946497D01*
X150815232Y-89808546D01*
X150717685Y-89626050D01*
X150715582Y-89623488D01*
X150586414Y-89466095D01*
X150586410Y-89466090D01*
X150568175Y-89451125D01*
X150426452Y-89334816D01*
X150243954Y-89237268D01*
X150045934Y-89177199D01*
X150045929Y-89177198D01*
X149840003Y-89156917D01*
X149839997Y-89156917D01*
X149634070Y-89177198D01*
X149634065Y-89177199D01*
X149436045Y-89237268D01*
X149253547Y-89334816D01*
X149093595Y-89466085D01*
X149093585Y-89466095D01*
X148962316Y-89626047D01*
X148864768Y-89808545D01*
X148804699Y-90006565D01*
X148804698Y-90006570D01*
X148784417Y-90212496D01*
X148784417Y-90212503D01*
X148355583Y-90212503D01*
X148355583Y-90212496D01*
X148335301Y-90006570D01*
X148335300Y-90006565D01*
X148317078Y-89946497D01*
X148275232Y-89808546D01*
X148177685Y-89626050D01*
X148175582Y-89623488D01*
X148046414Y-89466095D01*
X148046410Y-89466090D01*
X148028175Y-89451125D01*
X147886452Y-89334816D01*
X147703954Y-89237268D01*
X147505934Y-89177199D01*
X147505929Y-89177198D01*
X147300003Y-89156917D01*
X147299997Y-89156917D01*
X147094070Y-89177198D01*
X147094065Y-89177199D01*
X146896045Y-89237268D01*
X146713547Y-89334816D01*
X146553595Y-89466085D01*
X146553585Y-89466095D01*
X146422316Y-89626047D01*
X146324768Y-89808545D01*
X146264699Y-90006565D01*
X146264698Y-90006570D01*
X146244417Y-90212496D01*
X146244417Y-90212503D01*
X146264698Y-90418429D01*
X146264699Y-90418434D01*
X146324768Y-90616454D01*
X146422316Y-90798952D01*
X146522648Y-90921207D01*
X146553590Y-90958910D01*
X146553595Y-90958914D01*
X146713547Y-91090183D01*
X146713548Y-91090183D01*
X146713550Y-91090185D01*
X146896046Y-91187732D01*
X146997532Y-91218517D01*
X147094065Y-91247800D01*
X147094070Y-91247801D01*
X147299997Y-91268083D01*
X147300000Y-91268083D01*
X147300003Y-91268083D01*
X147505929Y-91247801D01*
X147505934Y-91247800D01*
X147530190Y-91240442D01*
X147703954Y-91187732D01*
X147711503Y-91183696D01*
X147771735Y-91172939D01*
X147826787Y-91199640D01*
X147828176Y-91201002D01*
X148120503Y-91493328D01*
X148148281Y-91547845D01*
X148149500Y-91563332D01*
X148149500Y-91881376D01*
X148130593Y-91939567D01*
X148081093Y-91975531D01*
X148019907Y-91975531D01*
X147987695Y-91957904D01*
X147938411Y-91917458D01*
X147886452Y-91874816D01*
X147703954Y-91777268D01*
X147505934Y-91717199D01*
X147505929Y-91717198D01*
X147300003Y-91696917D01*
X147299997Y-91696917D01*
X147094070Y-91717198D01*
X147094065Y-91717199D01*
X146896045Y-91777268D01*
X146713547Y-91874816D01*
X146553595Y-92006085D01*
X146553585Y-92006095D01*
X146436028Y-92149340D01*
X146384497Y-92182327D01*
X146323417Y-92178725D01*
X146276121Y-92139910D01*
X146260500Y-92086535D01*
X146260500Y-91403873D01*
X146260687Y-91399572D01*
X146264264Y-91358693D01*
X146253640Y-91319048D01*
X146252710Y-91314848D01*
X146245588Y-91274455D01*
X146244840Y-91273159D01*
X146234942Y-91249267D01*
X146234554Y-91247816D01*
X146234552Y-91247813D01*
X146234551Y-91247811D01*
X146211025Y-91214212D01*
X146208703Y-91210568D01*
X146188193Y-91175043D01*
X146167069Y-91157319D01*
X146156765Y-91148673D01*
X146153588Y-91145761D01*
X145748502Y-90740676D01*
X145720725Y-90686159D01*
X145730296Y-90625727D01*
X145731174Y-90624044D01*
X145735232Y-90616454D01*
X145795300Y-90418434D01*
X145795301Y-90418429D01*
X145815583Y-90212503D01*
X145815583Y-90212496D01*
X145795301Y-90006570D01*
X145795300Y-90006565D01*
X145777078Y-89946497D01*
X145735232Y-89808546D01*
X145637685Y-89626050D01*
X145635582Y-89623488D01*
X145506414Y-89466095D01*
X145506410Y-89466090D01*
X145488175Y-89451125D01*
X145346452Y-89334816D01*
X145163954Y-89237268D01*
X144965934Y-89177199D01*
X144965929Y-89177198D01*
X144760003Y-89156917D01*
X144759997Y-89156917D01*
X144554070Y-89177198D01*
X144554065Y-89177199D01*
X144356045Y-89237268D01*
X144173547Y-89334816D01*
X144013595Y-89466085D01*
X144013585Y-89466095D01*
X143882316Y-89626047D01*
X143784769Y-89808544D01*
X143739180Y-89958829D01*
X143704195Y-90009025D01*
X143646386Y-90029071D01*
X143587836Y-90011310D01*
X143550907Y-89962525D01*
X143548816Y-89955713D01*
X143493429Y-89749004D01*
X143393605Y-89534932D01*
X143393602Y-89534926D01*
X143334925Y-89451125D01*
X142807011Y-89979039D01*
X142752495Y-90006816D01*
X142692063Y-89997245D01*
X142653724Y-89962558D01*
X142601762Y-89881703D01*
X142517332Y-89808545D01*
X142493100Y-89787548D01*
X142493098Y-89787547D01*
X142493097Y-89787546D01*
X142484332Y-89783543D01*
X142439255Y-89742169D01*
X142427107Y-89682202D01*
X142452526Y-89626547D01*
X142455457Y-89623487D01*
X142981372Y-89097572D01*
X142897577Y-89038899D01*
X142683489Y-88939069D01*
X142455313Y-88877929D01*
X142220003Y-88857343D01*
X142219997Y-88857343D01*
X141984686Y-88877929D01*
X141756505Y-88939070D01*
X141542430Y-89038894D01*
X141542411Y-89038906D01*
X141458626Y-89097572D01*
X141984541Y-89623488D01*
X142012318Y-89678005D01*
X142002747Y-89738437D01*
X141959482Y-89781702D01*
X141955666Y-89783544D01*
X141946902Y-89787546D01*
X141838237Y-89881703D01*
X141786275Y-89962559D01*
X141738909Y-90001291D01*
X141677823Y-90004784D01*
X141632987Y-89979040D01*
X141105072Y-89451126D01*
X141046406Y-89534911D01*
X141046394Y-89534930D01*
X140946570Y-89749005D01*
X140891183Y-89955713D01*
X140857859Y-90007027D01*
X140800737Y-90028954D01*
X140741637Y-90013118D01*
X140703132Y-89965568D01*
X140700819Y-89958828D01*
X140699874Y-89955713D01*
X140655232Y-89808546D01*
X140557685Y-89626050D01*
X140555582Y-89623488D01*
X140426414Y-89466095D01*
X140426410Y-89466090D01*
X140408175Y-89451125D01*
X140266452Y-89334816D01*
X140083954Y-89237268D01*
X139885934Y-89177199D01*
X139885929Y-89177198D01*
X139680003Y-89156917D01*
X139679997Y-89156917D01*
X139474070Y-89177198D01*
X139474065Y-89177199D01*
X139276045Y-89237268D01*
X139093547Y-89334816D01*
X138933595Y-89466085D01*
X138933585Y-89466095D01*
X138802316Y-89626047D01*
X138704768Y-89808545D01*
X138644699Y-90006565D01*
X138644698Y-90006570D01*
X138624417Y-90212496D01*
X138624417Y-90212503D01*
X138644698Y-90418429D01*
X138644699Y-90418434D01*
X138704768Y-90616454D01*
X138802316Y-90798952D01*
X138902648Y-90921207D01*
X138933590Y-90958910D01*
X138933595Y-90958914D01*
X139093547Y-91090183D01*
X139093548Y-91090183D01*
X139093550Y-91090185D01*
X139276046Y-91187732D01*
X139377532Y-91218517D01*
X139474065Y-91247800D01*
X139474070Y-91247801D01*
X139679997Y-91268083D01*
X139680000Y-91268083D01*
X139680003Y-91268083D01*
X139885929Y-91247801D01*
X139885934Y-91247800D01*
X139910190Y-91240442D01*
X140083954Y-91187732D01*
X140091499Y-91183698D01*
X140151730Y-91172939D01*
X140206783Y-91199637D01*
X140208176Y-91201002D01*
X140500504Y-91493330D01*
X140528281Y-91547847D01*
X140529500Y-91563334D01*
X140529500Y-91881376D01*
X140510593Y-91939567D01*
X140461093Y-91975531D01*
X140399907Y-91975531D01*
X140367695Y-91957904D01*
X140318411Y-91917458D01*
X140266452Y-91874816D01*
X140083954Y-91777268D01*
X139885934Y-91717199D01*
X139885929Y-91717198D01*
X139680003Y-91696917D01*
X139679997Y-91696917D01*
X139474070Y-91717198D01*
X139474065Y-91717199D01*
X139276045Y-91777268D01*
X139093547Y-91874816D01*
X138933595Y-92006085D01*
X138933585Y-92006095D01*
X138816028Y-92149340D01*
X138764497Y-92182327D01*
X138703417Y-92178725D01*
X138656121Y-92139910D01*
X138640500Y-92086535D01*
X138640500Y-91403873D01*
X138640687Y-91399572D01*
X138644264Y-91358693D01*
X138633640Y-91319048D01*
X138632710Y-91314848D01*
X138625588Y-91274455D01*
X138624840Y-91273159D01*
X138614942Y-91249267D01*
X138614554Y-91247816D01*
X138614552Y-91247813D01*
X138614551Y-91247811D01*
X138591025Y-91214212D01*
X138588703Y-91210568D01*
X138568193Y-91175043D01*
X138547069Y-91157319D01*
X138536765Y-91148673D01*
X138533588Y-91145761D01*
X138128502Y-90740676D01*
X138100725Y-90686159D01*
X138110296Y-90625727D01*
X138111174Y-90624044D01*
X138115232Y-90616454D01*
X138175300Y-90418434D01*
X138175301Y-90418429D01*
X138195583Y-90212503D01*
X138195583Y-90212496D01*
X138175301Y-90006570D01*
X138175300Y-90006565D01*
X138157078Y-89946496D01*
X138115232Y-89808546D01*
X138017685Y-89626050D01*
X138015582Y-89623488D01*
X137886414Y-89466095D01*
X137886410Y-89466090D01*
X137868175Y-89451125D01*
X137726452Y-89334816D01*
X137543954Y-89237268D01*
X137345934Y-89177199D01*
X137345929Y-89177198D01*
X137140003Y-89156917D01*
X137139997Y-89156917D01*
X136934070Y-89177198D01*
X136934065Y-89177199D01*
X136736045Y-89237268D01*
X136553547Y-89334816D01*
X136393595Y-89466085D01*
X136393585Y-89466095D01*
X136262316Y-89626047D01*
X136164768Y-89808545D01*
X136104699Y-90006565D01*
X136104698Y-90006570D01*
X136084417Y-90212496D01*
X136084417Y-90212503D01*
X136104698Y-90418429D01*
X136104699Y-90418434D01*
X136164768Y-90616454D01*
X136262316Y-90798952D01*
X136362648Y-90921207D01*
X136393590Y-90958910D01*
X136393595Y-90958914D01*
X136553547Y-91090183D01*
X136553548Y-91090183D01*
X136553550Y-91090185D01*
X136736046Y-91187732D01*
X136837532Y-91218517D01*
X136934065Y-91247800D01*
X136934070Y-91247801D01*
X137139997Y-91268083D01*
X137140000Y-91268083D01*
X137140003Y-91268083D01*
X137345929Y-91247801D01*
X137345934Y-91247800D01*
X137370190Y-91240442D01*
X137543954Y-91187732D01*
X137551503Y-91183696D01*
X137611735Y-91172939D01*
X137666787Y-91199640D01*
X137668176Y-91201002D01*
X137960503Y-91493328D01*
X137988281Y-91547845D01*
X137989500Y-91563332D01*
X137989500Y-91881376D01*
X137970593Y-91939567D01*
X137921093Y-91975531D01*
X137859907Y-91975531D01*
X137827695Y-91957904D01*
X137778411Y-91917458D01*
X137726452Y-91874816D01*
X137543954Y-91777268D01*
X137345934Y-91717199D01*
X137345929Y-91717198D01*
X137140003Y-91696917D01*
X137139997Y-91696917D01*
X136934070Y-91717198D01*
X136934065Y-91717199D01*
X136736045Y-91777268D01*
X136553547Y-91874816D01*
X136553547Y-91874817D01*
X136452305Y-91957904D01*
X136395328Y-91980204D01*
X136336125Y-91964755D01*
X136297310Y-91917458D01*
X136290500Y-91881376D01*
X136290500Y-91593874D01*
X136290687Y-91589573D01*
X136294264Y-91548694D01*
X136283641Y-91509052D01*
X136282709Y-91504845D01*
X136275588Y-91464455D01*
X136274835Y-91463151D01*
X136264944Y-91439271D01*
X136264555Y-91437819D01*
X136264554Y-91437818D01*
X136264554Y-91437816D01*
X136264552Y-91437813D01*
X136264551Y-91437811D01*
X136241025Y-91404212D01*
X136238703Y-91400568D01*
X136232286Y-91389454D01*
X136218194Y-91365045D01*
X136218193Y-91365043D01*
X136191929Y-91343006D01*
X136186765Y-91338673D01*
X136183588Y-91335761D01*
X135588502Y-90740676D01*
X135560725Y-90686159D01*
X135570296Y-90625727D01*
X135571174Y-90624044D01*
X135575232Y-90616454D01*
X135635300Y-90418434D01*
X135635301Y-90418429D01*
X135655583Y-90212503D01*
X135655583Y-90212496D01*
X135635301Y-90006570D01*
X135635300Y-90006565D01*
X135617078Y-89946496D01*
X135575232Y-89808546D01*
X135477685Y-89626050D01*
X135475582Y-89623488D01*
X135346414Y-89466095D01*
X135346410Y-89466090D01*
X135328175Y-89451125D01*
X135186452Y-89334816D01*
X135003954Y-89237268D01*
X134805934Y-89177199D01*
X134805929Y-89177198D01*
X134600003Y-89156917D01*
X134599997Y-89156917D01*
X134394070Y-89177198D01*
X134394065Y-89177199D01*
X134196045Y-89237268D01*
X134013547Y-89334816D01*
X133853595Y-89466085D01*
X133853585Y-89466095D01*
X133722316Y-89626047D01*
X133624769Y-89808544D01*
X133579180Y-89958829D01*
X133544195Y-90009025D01*
X133486386Y-90029071D01*
X133427836Y-90011310D01*
X133390907Y-89962525D01*
X133388816Y-89955713D01*
X133333429Y-89749004D01*
X133233605Y-89534932D01*
X133233602Y-89534926D01*
X133174925Y-89451125D01*
X132647011Y-89979039D01*
X132592495Y-90006816D01*
X132532063Y-89997245D01*
X132493724Y-89962558D01*
X132441762Y-89881703D01*
X132357332Y-89808545D01*
X132333100Y-89787548D01*
X132333098Y-89787547D01*
X132333097Y-89787546D01*
X132324332Y-89783543D01*
X132279255Y-89742169D01*
X132267107Y-89682202D01*
X132292526Y-89626547D01*
X132295457Y-89623487D01*
X132821372Y-89097572D01*
X132737577Y-89038899D01*
X132523489Y-88939069D01*
X132295313Y-88877929D01*
X132060003Y-88857343D01*
X132059997Y-88857343D01*
X131824686Y-88877929D01*
X131596505Y-88939070D01*
X131382430Y-89038894D01*
X131382411Y-89038906D01*
X131298626Y-89097572D01*
X131824541Y-89623488D01*
X131852318Y-89678005D01*
X131842747Y-89738437D01*
X131799482Y-89781702D01*
X131795666Y-89783544D01*
X131786902Y-89787546D01*
X131678237Y-89881703D01*
X131626275Y-89962559D01*
X131578909Y-90001291D01*
X131517823Y-90004784D01*
X131472987Y-89979040D01*
X130945072Y-89451126D01*
X130886406Y-89534911D01*
X130886396Y-89534927D01*
X130879724Y-89549237D01*
X130837995Y-89593985D01*
X130777934Y-89605659D01*
X130722481Y-89579800D01*
X130700276Y-89549237D01*
X130693603Y-89534928D01*
X130693602Y-89534926D01*
X130634925Y-89451125D01*
X130107011Y-89979039D01*
X130052495Y-90006816D01*
X129992063Y-89997245D01*
X129953724Y-89962558D01*
X129901762Y-89881703D01*
X129817332Y-89808545D01*
X129793100Y-89787548D01*
X129793098Y-89787547D01*
X129793097Y-89787546D01*
X129784332Y-89783543D01*
X129739255Y-89742169D01*
X129727107Y-89682202D01*
X129752526Y-89626547D01*
X129755457Y-89623487D01*
X130281372Y-89097572D01*
X130197577Y-89038899D01*
X129983489Y-88939069D01*
X129755313Y-88877929D01*
X129520003Y-88857343D01*
X129519997Y-88857343D01*
X129284686Y-88877929D01*
X129056505Y-88939070D01*
X128842430Y-89038894D01*
X128842411Y-89038906D01*
X128758626Y-89097572D01*
X129284541Y-89623488D01*
X129312318Y-89678005D01*
X129302747Y-89738437D01*
X129259482Y-89781702D01*
X129255666Y-89783544D01*
X129246902Y-89787546D01*
X129138237Y-89881703D01*
X129086275Y-89962559D01*
X129038909Y-90001291D01*
X128977823Y-90004784D01*
X128932987Y-89979040D01*
X128405072Y-89451126D01*
X128346406Y-89534911D01*
X128346394Y-89534930D01*
X128246570Y-89749005D01*
X128185429Y-89977186D01*
X128164843Y-90212496D01*
X128164843Y-90212503D01*
X128185429Y-90447813D01*
X128246569Y-90675989D01*
X128346399Y-90890077D01*
X128405072Y-90973872D01*
X128932986Y-90445959D01*
X128987503Y-90418182D01*
X129047935Y-90427753D01*
X129086274Y-90462439D01*
X129104732Y-90491160D01*
X129138239Y-90543298D01*
X129246900Y-90637452D01*
X129255663Y-90641454D01*
X129300740Y-90682826D01*
X129312891Y-90742792D01*
X129287473Y-90798448D01*
X129284540Y-90801510D01*
X128758624Y-91327427D01*
X128759322Y-91335398D01*
X128745558Y-91395015D01*
X128699380Y-91435156D01*
X128691840Y-91438000D01*
X128600874Y-91468143D01*
X128451659Y-91560180D01*
X128327680Y-91684159D01*
X128235643Y-91833375D01*
X128180493Y-91999806D01*
X128170000Y-92102512D01*
X128170000Y-92502498D01*
X128170001Y-92502500D01*
X128940049Y-92502500D01*
X128998240Y-92521407D01*
X129034204Y-92570907D01*
X129035039Y-92629391D01*
X129020000Y-92680607D01*
X129020000Y-92824392D01*
X129035039Y-92875609D01*
X129033292Y-92936769D01*
X128995929Y-92985222D01*
X128940049Y-93002500D01*
X128170001Y-93002500D01*
X128170001Y-93402486D01*
X128180492Y-93505187D01*
X128180495Y-93505199D01*
X128235643Y-93671624D01*
X128327680Y-93820840D01*
X128451659Y-93944819D01*
X128600875Y-94036856D01*
X128767306Y-94092006D01*
X128870012Y-94102499D01*
X129269998Y-94102499D01*
X129269999Y-94102498D01*
X129269999Y-93335949D01*
X129288906Y-93277758D01*
X129338406Y-93241794D01*
X129383089Y-93237957D01*
X129484233Y-93252500D01*
X129484237Y-93252500D01*
X129555767Y-93252500D01*
X129638434Y-93240613D01*
X129656910Y-93237957D01*
X129717199Y-93248390D01*
X129759842Y-93292267D01*
X129770000Y-93335949D01*
X129770000Y-94102498D01*
X129770001Y-94102499D01*
X130169986Y-94102499D01*
X130272687Y-94092007D01*
X130272699Y-94092004D01*
X130439124Y-94036856D01*
X130588340Y-93944819D01*
X130712319Y-93820840D01*
X130804356Y-93671624D01*
X130834499Y-93580659D01*
X130870750Y-93531369D01*
X130929050Y-93512801D01*
X130937103Y-93513176D01*
X130945071Y-93513873D01*
X131472986Y-92985959D01*
X131527503Y-92958182D01*
X131587935Y-92967753D01*
X131626274Y-93002439D01*
X131644732Y-93031160D01*
X131678239Y-93083298D01*
X131786900Y-93177452D01*
X131795663Y-93181454D01*
X131840740Y-93222826D01*
X131852891Y-93282792D01*
X131827473Y-93338448D01*
X131824540Y-93341510D01*
X131298625Y-93867425D01*
X131382422Y-93926100D01*
X131596510Y-94025930D01*
X131824686Y-94087070D01*
X132059997Y-94107657D01*
X132060003Y-94107657D01*
X132295313Y-94087070D01*
X132523489Y-94025930D01*
X132737577Y-93926100D01*
X132821372Y-93867425D01*
X132295458Y-93341511D01*
X132267681Y-93286994D01*
X132277252Y-93226562D01*
X132320517Y-93183297D01*
X132324279Y-93181480D01*
X132333100Y-93177452D01*
X132441761Y-93083298D01*
X132493725Y-93002438D01*
X132541089Y-92963709D01*
X132602174Y-92960215D01*
X132647012Y-92985959D01*
X133174925Y-93513872D01*
X133233600Y-93430077D01*
X133333430Y-93215990D01*
X133388816Y-93009286D01*
X133422140Y-92957972D01*
X133479261Y-92936045D01*
X133538362Y-92951880D01*
X133576867Y-92999430D01*
X133579180Y-93006171D01*
X133624768Y-93156454D01*
X133722316Y-93338952D01*
X133837590Y-93479414D01*
X133853590Y-93498910D01*
X133853595Y-93498914D01*
X134013547Y-93630183D01*
X134013548Y-93630183D01*
X134013550Y-93630185D01*
X134196046Y-93727732D01*
X134324712Y-93766762D01*
X134394065Y-93787800D01*
X134394070Y-93787801D01*
X134599997Y-93808083D01*
X134600000Y-93808083D01*
X134600003Y-93808083D01*
X134805929Y-93787801D01*
X134805934Y-93787800D01*
X134821810Y-93782984D01*
X135003954Y-93727732D01*
X135011499Y-93723698D01*
X135071730Y-93712939D01*
X135126783Y-93739637D01*
X135128176Y-93741002D01*
X139717670Y-98330496D01*
X139745447Y-98385013D01*
X139735876Y-98445445D01*
X139692611Y-98488710D01*
X139647666Y-98499500D01*
X115002778Y-98499500D01*
X114997231Y-98499188D01*
X114899938Y-98488225D01*
X114878326Y-98483293D01*
X114793803Y-98453718D01*
X114773828Y-98444098D01*
X114698012Y-98396459D01*
X114680680Y-98382638D01*
X114617361Y-98319319D01*
X114603540Y-98301987D01*
X114555901Y-98226171D01*
X114546283Y-98206202D01*
X114516705Y-98121669D01*
X114511775Y-98100073D01*
X114500810Y-98002752D01*
X114500500Y-97997222D01*
X114500500Y-97914419D01*
X114500499Y-97914413D01*
X114500499Y-91468143D01*
X114500499Y-85002759D01*
X114500809Y-84997249D01*
X114511775Y-84899931D01*
X114516704Y-84878332D01*
X114546285Y-84793794D01*
X114555897Y-84773834D01*
X114603541Y-84698010D01*
X114617357Y-84680684D01*
X114680684Y-84617357D01*
X114698012Y-84603540D01*
X114773834Y-84555897D01*
X114793794Y-84546285D01*
X114878332Y-84516704D01*
X114899924Y-84511776D01*
X114997247Y-84500810D01*
X115002778Y-84500500D01*
X115065892Y-84500500D01*
X204934108Y-84500500D01*
X204997222Y-84500500D01*
X205002752Y-84500810D01*
G37*
%TD.AperFunction*%
%TA.AperFunction,Conductor*%
G36*
X158121099Y-93667849D02*
G01*
X158122488Y-93669210D01*
X159895504Y-95442225D01*
X159923281Y-95496742D01*
X159924500Y-95512229D01*
X159924500Y-96475166D01*
X159905593Y-96533357D01*
X159856093Y-96569321D01*
X159794907Y-96569321D01*
X159755496Y-96545170D01*
X157165347Y-93955021D01*
X157137570Y-93900504D01*
X157147141Y-93840072D01*
X157190406Y-93796807D01*
X157249209Y-93787493D01*
X157249226Y-93787324D01*
X157249877Y-93787388D01*
X157250838Y-93787236D01*
X157253915Y-93787785D01*
X157254065Y-93787799D01*
X157254066Y-93787800D01*
X157316068Y-93793906D01*
X157459997Y-93808083D01*
X157460000Y-93808083D01*
X157460003Y-93808083D01*
X157665929Y-93787801D01*
X157665934Y-93787800D01*
X157681810Y-93782984D01*
X157863954Y-93727732D01*
X158005817Y-93651903D01*
X158066047Y-93641148D01*
X158121099Y-93667849D01*
G37*
%TD.AperFunction*%
%TA.AperFunction,Conductor*%
G36*
X143698362Y-92951880D02*
G01*
X143736867Y-92999430D01*
X143739180Y-93006171D01*
X143784768Y-93156454D01*
X143882316Y-93338952D01*
X143997590Y-93479414D01*
X144013590Y-93498910D01*
X144013595Y-93498914D01*
X144173547Y-93630183D01*
X144173548Y-93630183D01*
X144173550Y-93630185D01*
X144356046Y-93727732D01*
X144484712Y-93766762D01*
X144554065Y-93787800D01*
X144554070Y-93787801D01*
X144759997Y-93808083D01*
X144760000Y-93808083D01*
X144760003Y-93808083D01*
X144965929Y-93787801D01*
X144965934Y-93787800D01*
X144981810Y-93782984D01*
X145163954Y-93727732D01*
X145171499Y-93723698D01*
X145231730Y-93712939D01*
X145286783Y-93739637D01*
X145288176Y-93741002D01*
X146952670Y-95405496D01*
X146980447Y-95460013D01*
X146970876Y-95520445D01*
X146927611Y-95563710D01*
X146882666Y-95574500D01*
X142372523Y-95574500D01*
X142314332Y-95555593D01*
X142302519Y-95545504D01*
X141209496Y-94452480D01*
X141181719Y-94397963D01*
X141180500Y-94382476D01*
X141180500Y-93861195D01*
X141199407Y-93803004D01*
X141248907Y-93767040D01*
X141310093Y-93767040D01*
X141345074Y-93788476D01*
X141345614Y-93787834D01*
X141348925Y-93790612D01*
X141542422Y-93926100D01*
X141756510Y-94025930D01*
X141984686Y-94087070D01*
X142219997Y-94107657D01*
X142220003Y-94107657D01*
X142455313Y-94087070D01*
X142683489Y-94025930D01*
X142897577Y-93926100D01*
X142981372Y-93867425D01*
X142455458Y-93341511D01*
X142427681Y-93286994D01*
X142437252Y-93226562D01*
X142480517Y-93183297D01*
X142484279Y-93181480D01*
X142493100Y-93177452D01*
X142601761Y-93083298D01*
X142653725Y-93002438D01*
X142701089Y-92963709D01*
X142762174Y-92960215D01*
X142807012Y-92985959D01*
X143334925Y-93513872D01*
X143393600Y-93430077D01*
X143493430Y-93215990D01*
X143548816Y-93009286D01*
X143582140Y-92957972D01*
X143639261Y-92936045D01*
X143698362Y-92951880D01*
G37*
%TD.AperFunction*%
%TA.AperFunction,Conductor*%
G36*
X133538362Y-90411880D02*
G01*
X133576867Y-90459430D01*
X133579180Y-90466171D01*
X133624768Y-90616454D01*
X133722316Y-90798952D01*
X133822648Y-90921207D01*
X133853590Y-90958910D01*
X133853595Y-90958914D01*
X134013547Y-91090183D01*
X134013548Y-91090183D01*
X134013550Y-91090185D01*
X134196046Y-91187732D01*
X134297532Y-91218517D01*
X134394065Y-91247800D01*
X134394070Y-91247801D01*
X134599997Y-91268083D01*
X134600000Y-91268083D01*
X134600003Y-91268083D01*
X134805929Y-91247801D01*
X134805934Y-91247800D01*
X134830190Y-91240442D01*
X135003954Y-91187732D01*
X135011499Y-91183698D01*
X135071730Y-91172939D01*
X135126783Y-91199637D01*
X135128176Y-91201002D01*
X135610504Y-91683330D01*
X135638281Y-91737847D01*
X135639500Y-91753334D01*
X135639500Y-92086535D01*
X135620593Y-92144726D01*
X135571093Y-92180690D01*
X135509907Y-92180690D01*
X135463972Y-92149340D01*
X135346414Y-92006095D01*
X135346410Y-92006090D01*
X135309174Y-91975531D01*
X135186452Y-91874816D01*
X135003954Y-91777268D01*
X134805934Y-91717199D01*
X134805929Y-91717198D01*
X134600003Y-91696917D01*
X134599997Y-91696917D01*
X134394070Y-91717198D01*
X134394065Y-91717199D01*
X134196045Y-91777268D01*
X134013547Y-91874816D01*
X133853595Y-92006085D01*
X133853585Y-92006095D01*
X133722316Y-92166047D01*
X133624769Y-92348544D01*
X133579180Y-92498829D01*
X133544195Y-92549025D01*
X133486386Y-92569071D01*
X133427836Y-92551310D01*
X133390907Y-92502525D01*
X133388816Y-92495713D01*
X133333429Y-92289004D01*
X133233605Y-92074932D01*
X133233602Y-92074926D01*
X133174925Y-91991125D01*
X132647011Y-92519039D01*
X132592495Y-92546816D01*
X132532063Y-92537245D01*
X132493724Y-92502558D01*
X132441762Y-92421703D01*
X132357332Y-92348545D01*
X132333100Y-92327548D01*
X132333098Y-92327547D01*
X132333097Y-92327546D01*
X132324332Y-92323543D01*
X132279255Y-92282169D01*
X132267107Y-92222202D01*
X132292526Y-92166547D01*
X132295457Y-92163487D01*
X132821372Y-91637572D01*
X132737576Y-91578898D01*
X132737574Y-91578897D01*
X132723265Y-91572225D01*
X132678516Y-91530497D01*
X132666841Y-91470436D01*
X132692698Y-91414983D01*
X132723265Y-91392775D01*
X132737575Y-91386102D01*
X132821372Y-91327425D01*
X132295458Y-90801511D01*
X132267681Y-90746994D01*
X132277252Y-90686562D01*
X132320517Y-90643297D01*
X132324279Y-90641480D01*
X132333100Y-90637452D01*
X132441761Y-90543298D01*
X132493725Y-90462438D01*
X132541089Y-90423709D01*
X132602174Y-90420215D01*
X132647012Y-90445959D01*
X133174925Y-90973872D01*
X133233600Y-90890077D01*
X133333430Y-90675990D01*
X133388816Y-90469286D01*
X133422140Y-90417972D01*
X133479261Y-90396045D01*
X133538362Y-90411880D01*
G37*
%TD.AperFunction*%
%TA.AperFunction,Conductor*%
G36*
X143698362Y-90411880D02*
G01*
X143736867Y-90459430D01*
X143739180Y-90466171D01*
X143784768Y-90616454D01*
X143882316Y-90798952D01*
X143982648Y-90921207D01*
X144013590Y-90958910D01*
X144013595Y-90958914D01*
X144173547Y-91090183D01*
X144173548Y-91090183D01*
X144173550Y-91090185D01*
X144356046Y-91187732D01*
X144457532Y-91218517D01*
X144554065Y-91247800D01*
X144554070Y-91247801D01*
X144759997Y-91268083D01*
X144760000Y-91268083D01*
X144760003Y-91268083D01*
X144965929Y-91247801D01*
X144965934Y-91247800D01*
X144990190Y-91240442D01*
X145163954Y-91187732D01*
X145171499Y-91183698D01*
X145231730Y-91172939D01*
X145286783Y-91199637D01*
X145288176Y-91201002D01*
X145580504Y-91493330D01*
X145608281Y-91547847D01*
X145609500Y-91563334D01*
X145609500Y-91881376D01*
X145590593Y-91939567D01*
X145541093Y-91975531D01*
X145479907Y-91975531D01*
X145447695Y-91957904D01*
X145398411Y-91917458D01*
X145346452Y-91874816D01*
X145163954Y-91777268D01*
X144965934Y-91717199D01*
X144965929Y-91717198D01*
X144760003Y-91696917D01*
X144759997Y-91696917D01*
X144554070Y-91717198D01*
X144554065Y-91717199D01*
X144356045Y-91777268D01*
X144173547Y-91874816D01*
X144013595Y-92006085D01*
X144013585Y-92006095D01*
X143882316Y-92166047D01*
X143784769Y-92348544D01*
X143739180Y-92498829D01*
X143704195Y-92549025D01*
X143646386Y-92569071D01*
X143587836Y-92551310D01*
X143550907Y-92502525D01*
X143548816Y-92495713D01*
X143493429Y-92289004D01*
X143393605Y-92074932D01*
X143393602Y-92074926D01*
X143334925Y-91991125D01*
X142807011Y-92519039D01*
X142752495Y-92546816D01*
X142692063Y-92537245D01*
X142653724Y-92502558D01*
X142601762Y-92421703D01*
X142517332Y-92348545D01*
X142493100Y-92327548D01*
X142493098Y-92327547D01*
X142493097Y-92327546D01*
X142484332Y-92323543D01*
X142439255Y-92282169D01*
X142427107Y-92222202D01*
X142452526Y-92166547D01*
X142455457Y-92163487D01*
X142981372Y-91637572D01*
X142897576Y-91578898D01*
X142897574Y-91578897D01*
X142883265Y-91572225D01*
X142838516Y-91530497D01*
X142826841Y-91470436D01*
X142852698Y-91414983D01*
X142883265Y-91392775D01*
X142897575Y-91386102D01*
X142981372Y-91327425D01*
X142455458Y-90801511D01*
X142427681Y-90746994D01*
X142437252Y-90686562D01*
X142480517Y-90643297D01*
X142484279Y-90641480D01*
X142493100Y-90637452D01*
X142601761Y-90543298D01*
X142653725Y-90462438D01*
X142701089Y-90423709D01*
X142762174Y-90420215D01*
X142807012Y-90445959D01*
X143334925Y-90973872D01*
X143393600Y-90890077D01*
X143493430Y-90675990D01*
X143548816Y-90469286D01*
X143582140Y-90417972D01*
X143639261Y-90396045D01*
X143698362Y-90411880D01*
G37*
%TD.AperFunction*%
%TA.AperFunction,Conductor*%
G36*
X189112163Y-90413689D02*
G01*
X189149092Y-90462473D01*
X189151183Y-90469286D01*
X189206569Y-90675989D01*
X189306399Y-90890077D01*
X189365072Y-90973872D01*
X189892986Y-90445959D01*
X189947503Y-90418182D01*
X190007935Y-90427753D01*
X190046274Y-90462439D01*
X190064732Y-90491160D01*
X190098239Y-90543298D01*
X190206900Y-90637452D01*
X190215663Y-90641454D01*
X190260740Y-90682826D01*
X190272891Y-90742792D01*
X190247473Y-90798448D01*
X190244540Y-90801510D01*
X189718625Y-91327425D01*
X189802423Y-91386101D01*
X189802425Y-91386102D01*
X189816735Y-91392775D01*
X189861484Y-91434503D01*
X189873159Y-91494564D01*
X189847302Y-91550017D01*
X189816737Y-91572224D01*
X189802427Y-91578896D01*
X189802411Y-91578906D01*
X189718626Y-91637572D01*
X190244541Y-92163488D01*
X190272318Y-92218005D01*
X190262747Y-92278437D01*
X190219482Y-92321702D01*
X190215666Y-92323544D01*
X190206902Y-92327546D01*
X190098237Y-92421703D01*
X190046275Y-92502559D01*
X189998909Y-92541291D01*
X189937823Y-92544784D01*
X189892987Y-92519040D01*
X189365072Y-91991126D01*
X189306406Y-92074911D01*
X189306394Y-92074930D01*
X189206570Y-92289005D01*
X189151183Y-92495713D01*
X189117859Y-92547027D01*
X189060737Y-92568954D01*
X189001637Y-92553118D01*
X188963132Y-92505568D01*
X188960819Y-92498828D01*
X188959874Y-92495713D01*
X188915232Y-92348546D01*
X188817685Y-92166050D01*
X188815582Y-92163488D01*
X188686414Y-92006095D01*
X188686410Y-92006090D01*
X188649174Y-91975531D01*
X188526452Y-91874816D01*
X188343954Y-91777268D01*
X188145934Y-91717199D01*
X188145929Y-91717198D01*
X187940003Y-91696917D01*
X187939997Y-91696917D01*
X187734070Y-91717198D01*
X187734065Y-91717199D01*
X187536045Y-91777268D01*
X187353547Y-91874816D01*
X187193595Y-92006085D01*
X187193585Y-92006095D01*
X187062316Y-92166047D01*
X186964769Y-92348544D01*
X186919180Y-92498829D01*
X186884195Y-92549025D01*
X186826386Y-92569071D01*
X186767836Y-92551310D01*
X186730907Y-92502525D01*
X186728816Y-92495713D01*
X186673429Y-92289004D01*
X186573605Y-92074932D01*
X186573602Y-92074926D01*
X186514925Y-91991125D01*
X185987011Y-92519039D01*
X185932495Y-92546816D01*
X185872063Y-92537245D01*
X185833724Y-92502558D01*
X185781762Y-92421703D01*
X185697332Y-92348545D01*
X185673100Y-92327548D01*
X185673098Y-92327547D01*
X185673097Y-92327546D01*
X185664332Y-92323543D01*
X185619255Y-92282169D01*
X185607107Y-92222202D01*
X185632526Y-92166547D01*
X185635457Y-92163487D01*
X186161372Y-91637572D01*
X186077576Y-91578898D01*
X186077574Y-91578897D01*
X186063265Y-91572225D01*
X186018516Y-91530497D01*
X186006841Y-91470436D01*
X186032698Y-91414983D01*
X186063265Y-91392775D01*
X186077575Y-91386102D01*
X186161372Y-91327425D01*
X185635458Y-90801511D01*
X185607681Y-90746994D01*
X185617252Y-90686562D01*
X185660517Y-90643297D01*
X185664279Y-90641480D01*
X185673100Y-90637452D01*
X185781761Y-90543298D01*
X185833725Y-90462438D01*
X185881089Y-90423709D01*
X185942174Y-90420215D01*
X185987012Y-90445959D01*
X186514925Y-90973872D01*
X186573600Y-90890077D01*
X186673430Y-90675990D01*
X186728816Y-90469286D01*
X186762140Y-90417972D01*
X186819261Y-90396045D01*
X186878362Y-90411880D01*
X186916867Y-90459430D01*
X186919180Y-90466171D01*
X186964768Y-90616454D01*
X187062316Y-90798952D01*
X187162648Y-90921207D01*
X187193590Y-90958910D01*
X187193595Y-90958914D01*
X187353547Y-91090183D01*
X187353548Y-91090183D01*
X187353550Y-91090185D01*
X187536046Y-91187732D01*
X187637532Y-91218517D01*
X187734065Y-91247800D01*
X187734070Y-91247801D01*
X187939997Y-91268083D01*
X187940000Y-91268083D01*
X187940003Y-91268083D01*
X188145929Y-91247801D01*
X188145934Y-91247800D01*
X188170190Y-91240442D01*
X188343954Y-91187732D01*
X188526450Y-91090185D01*
X188686410Y-90958910D01*
X188817685Y-90798950D01*
X188915232Y-90616454D01*
X188960819Y-90466170D01*
X188995804Y-90415974D01*
X189053612Y-90395928D01*
X189112163Y-90413689D01*
G37*
%TD.AperFunction*%
%TA.AperFunction,Conductor*%
G36*
X184927935Y-90427753D02*
G01*
X184966274Y-90462439D01*
X184984732Y-90491160D01*
X185018239Y-90543298D01*
X185126900Y-90637452D01*
X185135663Y-90641454D01*
X185180740Y-90682826D01*
X185192891Y-90742792D01*
X185167473Y-90798448D01*
X185164540Y-90801510D01*
X184638625Y-91327425D01*
X184722423Y-91386101D01*
X184722425Y-91386102D01*
X184736735Y-91392775D01*
X184781484Y-91434503D01*
X184793159Y-91494564D01*
X184767302Y-91550017D01*
X184736737Y-91572224D01*
X184722427Y-91578896D01*
X184722411Y-91578906D01*
X184638626Y-91637572D01*
X185164541Y-92163488D01*
X185192318Y-92218005D01*
X185182747Y-92278437D01*
X185139482Y-92321702D01*
X185135666Y-92323544D01*
X185126902Y-92327546D01*
X185018237Y-92421703D01*
X184966275Y-92502559D01*
X184918909Y-92541291D01*
X184857823Y-92544784D01*
X184812987Y-92519040D01*
X184285072Y-91991126D01*
X184226406Y-92074911D01*
X184226396Y-92074927D01*
X184219724Y-92089237D01*
X184177995Y-92133985D01*
X184117934Y-92145659D01*
X184062481Y-92119800D01*
X184040276Y-92089237D01*
X184033603Y-92074928D01*
X184033602Y-92074926D01*
X183974925Y-91991125D01*
X183447011Y-92519039D01*
X183392495Y-92546816D01*
X183332063Y-92537245D01*
X183293724Y-92502558D01*
X183241762Y-92421703D01*
X183157332Y-92348545D01*
X183133100Y-92327548D01*
X183133098Y-92327547D01*
X183133097Y-92327546D01*
X183124332Y-92323543D01*
X183079255Y-92282169D01*
X183067107Y-92222202D01*
X183092526Y-92166547D01*
X183095457Y-92163487D01*
X183621372Y-91637572D01*
X183537576Y-91578898D01*
X183537574Y-91578897D01*
X183523265Y-91572225D01*
X183478516Y-91530497D01*
X183466841Y-91470436D01*
X183492698Y-91414983D01*
X183523265Y-91392775D01*
X183537575Y-91386102D01*
X183621372Y-91327425D01*
X183095458Y-90801511D01*
X183067681Y-90746994D01*
X183077252Y-90686562D01*
X183120517Y-90643297D01*
X183124279Y-90641480D01*
X183133100Y-90637452D01*
X183241761Y-90543298D01*
X183293725Y-90462438D01*
X183341089Y-90423709D01*
X183402174Y-90420215D01*
X183447012Y-90445959D01*
X183974925Y-90973872D01*
X184033602Y-90890075D01*
X184040275Y-90875765D01*
X184082003Y-90831016D01*
X184142064Y-90819341D01*
X184197517Y-90845198D01*
X184219725Y-90875765D01*
X184226397Y-90890074D01*
X184226398Y-90890076D01*
X184285072Y-90973872D01*
X184812986Y-90445959D01*
X184867503Y-90418182D01*
X184927935Y-90427753D01*
G37*
%TD.AperFunction*%
%TA.AperFunction,Conductor*%
G36*
X131587935Y-90427753D02*
G01*
X131626274Y-90462439D01*
X131644732Y-90491160D01*
X131678239Y-90543298D01*
X131786900Y-90637452D01*
X131795663Y-90641454D01*
X131840740Y-90682826D01*
X131852891Y-90742792D01*
X131827473Y-90798448D01*
X131824540Y-90801510D01*
X131298625Y-91327425D01*
X131382423Y-91386101D01*
X131382425Y-91386102D01*
X131396735Y-91392775D01*
X131441484Y-91434503D01*
X131453159Y-91494564D01*
X131427302Y-91550017D01*
X131396737Y-91572224D01*
X131382427Y-91578896D01*
X131382411Y-91578906D01*
X131298626Y-91637572D01*
X131824541Y-92163488D01*
X131852318Y-92218005D01*
X131842747Y-92278437D01*
X131799482Y-92321702D01*
X131795666Y-92323544D01*
X131786902Y-92327546D01*
X131678237Y-92421703D01*
X131626275Y-92502559D01*
X131578909Y-92541291D01*
X131517823Y-92544784D01*
X131472987Y-92519040D01*
X130945071Y-91991125D01*
X130937103Y-91991823D01*
X130877486Y-91978060D01*
X130837344Y-91931883D01*
X130834499Y-91924340D01*
X130804356Y-91833375D01*
X130712319Y-91684159D01*
X130588340Y-91560180D01*
X130439124Y-91468143D01*
X130348159Y-91438000D01*
X130298869Y-91401748D01*
X130280301Y-91343448D01*
X130280676Y-91335396D01*
X130281373Y-91327426D01*
X129755458Y-90801511D01*
X129727681Y-90746994D01*
X129737252Y-90686562D01*
X129780517Y-90643297D01*
X129784279Y-90641480D01*
X129793100Y-90637452D01*
X129901761Y-90543298D01*
X129953725Y-90462438D01*
X130001089Y-90423709D01*
X130062174Y-90420215D01*
X130107012Y-90445959D01*
X130634925Y-90973872D01*
X130693602Y-90890075D01*
X130700275Y-90875765D01*
X130742003Y-90831016D01*
X130802064Y-90819341D01*
X130857517Y-90845198D01*
X130879725Y-90875765D01*
X130886397Y-90890074D01*
X130886398Y-90890076D01*
X130945072Y-90973872D01*
X131472986Y-90445959D01*
X131527503Y-90418182D01*
X131587935Y-90427753D01*
G37*
%TD.AperFunction*%
%TD*%
M02*
