%TF.GenerationSoftware,KiCad,Pcbnew,7.0.7*%
%TF.CreationDate,2023-09-18T17:27:43-04:00*%
%TF.ProjectId,N64 Cart FFC WRONG WAY,4e363420-4361-4727-9420-464643205752,rev?*%
%TF.SameCoordinates,Original*%
%TF.FileFunction,Copper,L2,Bot*%
%TF.FilePolarity,Positive*%
%FSLAX46Y46*%
G04 Gerber Fmt 4.6, Leading zero omitted, Abs format (unit mm)*
G04 Created by KiCad (PCBNEW 7.0.7) date 2023-09-18 17:27:43*
%MOMM*%
%LPD*%
G01*
G04 APERTURE LIST*
G04 Aperture macros list*
%AMRoundRect*
0 Rectangle with rounded corners*
0 $1 Rounding radius*
0 $2 $3 $4 $5 $6 $7 $8 $9 X,Y pos of 4 corners*
0 Add a 4 corners polygon primitive as box body*
4,1,4,$2,$3,$4,$5,$6,$7,$8,$9,$2,$3,0*
0 Add four circle primitives for the rounded corners*
1,1,$1+$1,$2,$3*
1,1,$1+$1,$4,$5*
1,1,$1+$1,$6,$7*
1,1,$1+$1,$8,$9*
0 Add four rect primitives between the rounded corners*
20,1,$1+$1,$2,$3,$4,$5,0*
20,1,$1+$1,$4,$5,$6,$7,0*
20,1,$1+$1,$6,$7,$8,$9,0*
20,1,$1+$1,$8,$9,$2,$3,0*%
G04 Aperture macros list end*
%TA.AperFunction,ComponentPad*%
%ADD10RoundRect,0.250000X0.600000X-0.600000X0.600000X0.600000X-0.600000X0.600000X-0.600000X-0.600000X0*%
%TD*%
%TA.AperFunction,ComponentPad*%
%ADD11C,1.700000*%
%TD*%
%TA.AperFunction,ViaPad*%
%ADD12C,0.800000*%
%TD*%
%TA.AperFunction,Conductor*%
%ADD13C,0.250000*%
%TD*%
%TA.AperFunction,Conductor*%
%ADD14C,1.000000*%
%TD*%
G04 APERTURE END LIST*
D10*
%TO.P,J1,1,Pin_1*%
%TO.N,GND*%
X129520000Y-92752500D03*
D11*
%TO.P,J1,2,Pin_2*%
X129520000Y-90212500D03*
%TO.P,J1,3,Pin_3*%
X132060000Y-92752500D03*
%TO.P,J1,4,Pin_4*%
X132060000Y-90212500D03*
%TO.P,J1,5,Pin_5*%
%TO.N,RCP-58*%
X134600000Y-92752500D03*
%TO.P,J1,6,Pin_6*%
%TO.N,RCP-57*%
X134600000Y-90212500D03*
%TO.P,J1,7,Pin_7*%
%TO.N,RCP-54*%
X137140000Y-92752500D03*
%TO.P,J1,8,Pin_8*%
%TO.N,RCP-53*%
X137140000Y-90212500D03*
%TO.P,J1,9,Pin_9*%
%TO.N,RCP-52*%
X139680000Y-92752500D03*
%TO.P,J1,10,Pin_10*%
%TO.N,RCP-51*%
X139680000Y-90212500D03*
%TO.P,J1,11,Pin_11*%
%TO.N,GND*%
X142220000Y-92752500D03*
%TO.P,J1,12,Pin_12*%
X142220000Y-90212500D03*
%TO.P,J1,13,Pin_13*%
%TO.N,RCP-50*%
X144760000Y-92752500D03*
%TO.P,J1,14,Pin_14*%
%TO.N,RCP-47*%
X144760000Y-90212500D03*
%TO.P,J1,15,Pin_15*%
%TO.N,RCP-46*%
X147300000Y-92752500D03*
%TO.P,J1,16,Pin_16*%
%TO.N,RCP-45*%
X147300000Y-90212500D03*
%TO.P,J1,17,Pin_17*%
%TO.N,3v3*%
X149840000Y-92752500D03*
%TO.P,J1,18,Pin_18*%
X149840000Y-90212500D03*
%TO.P,J1,19,Pin_19*%
%TO.N,RCP-44*%
X152380000Y-92752500D03*
%TO.P,J1,20,Pin_20*%
%TO.N,RCP-41*%
X152380000Y-90212500D03*
%TO.P,J1,21,Pin_21*%
%TO.N,RCP-40*%
X154920000Y-92752500D03*
%TO.P,J1,22,Pin_22*%
%TO.N,RCP-39*%
X154920000Y-90212500D03*
%TO.P,J1,23,Pin_23*%
%TO.N,RCP-38*%
X157460000Y-92752500D03*
%TO.P,J1,24,Pin_24*%
%TO.N,RCP-35*%
X157460000Y-90212500D03*
%TO.P,J1,25,Pin_25*%
%TO.N,unconnected-(J1-Pin_25-Pad25)*%
X160000000Y-92752500D03*
%TO.P,J1,26,Pin_26*%
%TO.N,unconnected-(J1-Pin_26-Pad26)*%
X160000000Y-90212500D03*
%TO.P,J1,27,Pin_27*%
%TO.N,unconnected-(J1-Pin_27-Pad27)*%
X162540000Y-92752500D03*
%TO.P,J1,28,Pin_28*%
%TO.N,unconnected-(J1-Pin_28-Pad28)*%
X162540000Y-90212500D03*
%TO.P,J1,29,Pin_29*%
%TO.N,RCP-34*%
X165080000Y-92752500D03*
%TO.P,J1,30,Pin_30*%
%TO.N,RCP-33*%
X165080000Y-90212500D03*
%TO.P,J1,31,Pin_31*%
%TO.N,RCP-32*%
X167620000Y-92752500D03*
%TO.P,J1,32,Pin_32*%
%TO.N,RCP-31*%
X167620000Y-90212500D03*
%TO.P,J1,33,Pin_33*%
%TO.N,3v3*%
X170160000Y-92752500D03*
%TO.P,J1,34,Pin_34*%
X170160000Y-90212500D03*
%TO.P,J1,35,Pin_35*%
%TO.N,PIF-5*%
X172700000Y-92752500D03*
%TO.P,J1,36,Pin_36*%
%TO.N,PIF-3*%
X172700000Y-90212500D03*
%TO.P,J1,37,Pin_37*%
%TO.N,PIF-1*%
X175240000Y-92752500D03*
%TO.P,J1,38,Pin_38*%
%TO.N,CPU-57*%
X175240000Y-90212500D03*
%TO.P,J1,39,Pin_39*%
%TO.N,RCP-26*%
X177780000Y-92752500D03*
%TO.P,J1,40,Pin_40*%
%TO.N,PIF-7*%
X177780000Y-90212500D03*
%TO.P,J1,41,Pin_41*%
%TO.N,PIF-23*%
X180320000Y-92752500D03*
%TO.P,J1,42,Pin_42*%
%TO.N,SYNC*%
X180320000Y-90212500D03*
%TO.P,J1,43,Pin_43*%
%TO.N,GND*%
X182860000Y-92752500D03*
%TO.P,J1,44,Pin_44*%
X182860000Y-90212500D03*
%TO.P,J1,45,Pin_45*%
X185400000Y-92752500D03*
%TO.P,J1,46,Pin_46*%
X185400000Y-90212500D03*
%TO.P,J1,47,Pin_47*%
%TO.N,unconnected-(J1-Pin_47-Pad47)*%
X187940000Y-92752500D03*
%TO.P,J1,48,Pin_48*%
%TO.N,unconnected-(J1-Pin_48-Pad48)*%
X187940000Y-90212500D03*
%TO.P,J1,49,Pin_49*%
%TO.N,GND*%
X190480000Y-92752500D03*
%TO.P,J1,50,Pin_50*%
X190480000Y-90212500D03*
%TD*%
D12*
%TO.N,GND*%
X164650000Y-97250000D03*
X171100000Y-97250000D03*
X156466666Y-100800000D03*
X154358333Y-100800000D03*
X158750000Y-94950000D03*
X161000000Y-97000000D03*
X160683332Y-100800000D03*
X158574999Y-100800000D03*
X164900000Y-100800000D03*
X155000000Y-97150000D03*
X145150000Y-94850000D03*
X161950000Y-94400000D03*
X162791665Y-100800000D03*
X143150000Y-94850000D03*
X152250000Y-100800000D03*
%TO.N,3v3*%
X166100000Y-97250000D03*
X160250000Y-99700000D03*
X157250000Y-99700000D03*
X150750000Y-99700000D03*
X164250000Y-99700000D03*
X154250000Y-99700000D03*
%TO.N,PIF-1*%
X167250000Y-99850000D03*
%TO.N,CPU-57*%
X169250000Y-99850000D03*
%TO.N,RCP-26*%
X165800000Y-99850000D03*
%TO.N,PIF-7*%
X168250000Y-99850000D03*
%TD*%
D13*
%TO.N,3v3*%
X160700000Y-99750000D02*
X160750000Y-99700000D01*
D14*
X170160000Y-93190000D02*
X166100000Y-97250000D01*
X166100000Y-97950000D02*
X166100000Y-97250000D01*
X154750000Y-99700000D02*
X157700000Y-99700000D01*
X149840000Y-95390000D02*
X150850000Y-96400000D01*
X170160000Y-90212500D02*
X170160000Y-92752500D01*
X170160000Y-92752500D02*
X170160000Y-93190000D01*
X149840000Y-90212500D02*
X149840000Y-92752500D01*
X149840000Y-92752500D02*
X149840000Y-95390000D01*
X160750000Y-99700000D02*
X164350000Y-99700000D01*
X150850000Y-99700000D02*
X154750000Y-99700000D01*
D13*
X157700000Y-99700000D02*
X157750000Y-99750000D01*
D14*
X150850000Y-96400000D02*
X150850000Y-99700000D01*
D13*
X164350000Y-99700000D02*
X164500000Y-99850000D01*
D14*
X164350000Y-99700000D02*
X166100000Y-97950000D01*
X157750000Y-99700000D02*
X160700000Y-99700000D01*
D13*
%TO.N,PIF-1*%
X169886789Y-100575000D02*
X175240000Y-95221789D01*
X167250000Y-99850000D02*
X167250000Y-99875305D01*
X167949695Y-100575000D02*
X169886789Y-100575000D01*
X167250000Y-99875305D02*
X167949695Y-100575000D01*
X175240000Y-95221789D02*
X175240000Y-92752500D01*
%TO.N,CPU-57*%
X169250000Y-99850000D02*
X169975393Y-99850000D01*
X169975393Y-99850000D02*
X174065000Y-95760393D01*
X174065000Y-91387500D02*
X175240000Y-90212500D01*
X174065000Y-95760393D02*
X174065000Y-91387500D01*
%TO.N,RCP-26*%
X167175000Y-101475000D02*
X170259581Y-101475000D01*
X177780000Y-93954581D02*
X177780000Y-92752500D01*
X165800000Y-100100000D02*
X165800000Y-99850000D01*
X167175000Y-101475000D02*
X165800000Y-100100000D01*
X170259581Y-101475000D02*
X177780000Y-93954581D01*
%TO.N,PIF-7*%
X168250000Y-99824695D02*
X167550305Y-99125000D01*
X166925000Y-99125000D02*
X166500000Y-99550000D01*
X176600000Y-91392500D02*
X177780000Y-90212500D01*
X167399695Y-101025000D02*
X170073185Y-101025000D01*
X167550305Y-99125000D02*
X166925000Y-99125000D01*
X170073185Y-101025000D02*
X176600000Y-94498185D01*
X166500000Y-100125305D02*
X167399695Y-101025000D01*
X168250000Y-99850000D02*
X168250000Y-99824695D01*
X166500000Y-99550000D02*
X166500000Y-100125305D01*
X176600000Y-94498185D02*
X176600000Y-91392500D01*
%TD*%
%TA.AperFunction,Conductor*%
%TO.N,GND*%
G36*
X131587935Y-90427753D02*
G01*
X131626274Y-90462439D01*
X131644732Y-90491160D01*
X131678239Y-90543298D01*
X131786900Y-90637452D01*
X131795663Y-90641454D01*
X131840740Y-90682826D01*
X131852891Y-90742792D01*
X131827473Y-90798448D01*
X131824540Y-90801510D01*
X131298625Y-91327425D01*
X131382423Y-91386101D01*
X131382425Y-91386102D01*
X131396735Y-91392775D01*
X131441484Y-91434503D01*
X131453159Y-91494564D01*
X131427302Y-91550017D01*
X131396737Y-91572224D01*
X131382427Y-91578896D01*
X131382411Y-91578906D01*
X131298626Y-91637572D01*
X131824541Y-92163488D01*
X131852318Y-92218005D01*
X131842747Y-92278437D01*
X131799482Y-92321702D01*
X131795666Y-92323544D01*
X131786902Y-92327546D01*
X131678237Y-92421703D01*
X131626275Y-92502559D01*
X131578909Y-92541291D01*
X131517823Y-92544784D01*
X131472987Y-92519040D01*
X130945071Y-91991125D01*
X130937103Y-91991823D01*
X130877486Y-91978060D01*
X130837344Y-91931883D01*
X130834499Y-91924340D01*
X130804356Y-91833375D01*
X130712319Y-91684159D01*
X130588340Y-91560180D01*
X130439124Y-91468143D01*
X130348159Y-91438000D01*
X130298869Y-91401748D01*
X130280301Y-91343448D01*
X130280676Y-91335396D01*
X130281373Y-91327426D01*
X129755458Y-90801511D01*
X129727681Y-90746994D01*
X129737252Y-90686562D01*
X129780517Y-90643297D01*
X129784279Y-90641480D01*
X129793100Y-90637452D01*
X129901761Y-90543298D01*
X129953725Y-90462438D01*
X130001089Y-90423709D01*
X130062174Y-90420215D01*
X130107012Y-90445959D01*
X130634925Y-90973872D01*
X130693602Y-90890075D01*
X130700275Y-90875765D01*
X130742003Y-90831016D01*
X130802064Y-90819341D01*
X130857517Y-90845198D01*
X130879725Y-90875765D01*
X130886397Y-90890074D01*
X130886398Y-90890076D01*
X130945072Y-90973872D01*
X131472986Y-90445959D01*
X131527503Y-90418182D01*
X131587935Y-90427753D01*
G37*
%TD.AperFunction*%
%TA.AperFunction,Conductor*%
G36*
X189112163Y-90413689D02*
G01*
X189149092Y-90462473D01*
X189151183Y-90469286D01*
X189206569Y-90675989D01*
X189306399Y-90890077D01*
X189365072Y-90973872D01*
X189892986Y-90445959D01*
X189947503Y-90418182D01*
X190007935Y-90427753D01*
X190046274Y-90462439D01*
X190064732Y-90491160D01*
X190098239Y-90543298D01*
X190206900Y-90637452D01*
X190215663Y-90641454D01*
X190260740Y-90682826D01*
X190272891Y-90742792D01*
X190247473Y-90798448D01*
X190244540Y-90801510D01*
X189718625Y-91327425D01*
X189802423Y-91386101D01*
X189802425Y-91386102D01*
X189816735Y-91392775D01*
X189861484Y-91434503D01*
X189873159Y-91494564D01*
X189847302Y-91550017D01*
X189816737Y-91572224D01*
X189802427Y-91578896D01*
X189802411Y-91578906D01*
X189718626Y-91637572D01*
X190244541Y-92163488D01*
X190272318Y-92218005D01*
X190262747Y-92278437D01*
X190219482Y-92321702D01*
X190215666Y-92323544D01*
X190206902Y-92327546D01*
X190098237Y-92421703D01*
X190046275Y-92502559D01*
X189998909Y-92541291D01*
X189937823Y-92544784D01*
X189892987Y-92519040D01*
X189365072Y-91991126D01*
X189306406Y-92074911D01*
X189306394Y-92074930D01*
X189206570Y-92289005D01*
X189151183Y-92495713D01*
X189117859Y-92547027D01*
X189060737Y-92568954D01*
X189001637Y-92553118D01*
X188963132Y-92505568D01*
X188960819Y-92498828D01*
X188959874Y-92495713D01*
X188915232Y-92348546D01*
X188817685Y-92166050D01*
X188815582Y-92163488D01*
X188686414Y-92006095D01*
X188686410Y-92006090D01*
X188652255Y-91978060D01*
X188526452Y-91874816D01*
X188343954Y-91777268D01*
X188145934Y-91717199D01*
X188145929Y-91717198D01*
X187940003Y-91696917D01*
X187939997Y-91696917D01*
X187734070Y-91717198D01*
X187734065Y-91717199D01*
X187536045Y-91777268D01*
X187353547Y-91874816D01*
X187193595Y-92006085D01*
X187193585Y-92006095D01*
X187062316Y-92166047D01*
X186964769Y-92348544D01*
X186919180Y-92498829D01*
X186884195Y-92549025D01*
X186826386Y-92569071D01*
X186767836Y-92551310D01*
X186730907Y-92502525D01*
X186728816Y-92495713D01*
X186673429Y-92289004D01*
X186573605Y-92074932D01*
X186573602Y-92074926D01*
X186514925Y-91991125D01*
X185987011Y-92519039D01*
X185932495Y-92546816D01*
X185872063Y-92537245D01*
X185833724Y-92502558D01*
X185781762Y-92421703D01*
X185697332Y-92348545D01*
X185673100Y-92327548D01*
X185673098Y-92327547D01*
X185673097Y-92327546D01*
X185664332Y-92323543D01*
X185619255Y-92282169D01*
X185607107Y-92222202D01*
X185632526Y-92166547D01*
X185635457Y-92163487D01*
X186161372Y-91637572D01*
X186077576Y-91578898D01*
X186077574Y-91578897D01*
X186063265Y-91572225D01*
X186018516Y-91530497D01*
X186006841Y-91470436D01*
X186032698Y-91414983D01*
X186063265Y-91392775D01*
X186077575Y-91386102D01*
X186161372Y-91327425D01*
X185635458Y-90801511D01*
X185607681Y-90746994D01*
X185617252Y-90686562D01*
X185660517Y-90643297D01*
X185664279Y-90641480D01*
X185673100Y-90637452D01*
X185781761Y-90543298D01*
X185833725Y-90462438D01*
X185881089Y-90423709D01*
X185942174Y-90420215D01*
X185987012Y-90445959D01*
X186514925Y-90973872D01*
X186573600Y-90890077D01*
X186673430Y-90675990D01*
X186728816Y-90469286D01*
X186762140Y-90417972D01*
X186819261Y-90396045D01*
X186878362Y-90411880D01*
X186916867Y-90459430D01*
X186919180Y-90466171D01*
X186964768Y-90616454D01*
X187062316Y-90798952D01*
X187193585Y-90958904D01*
X187193590Y-90958910D01*
X187193595Y-90958914D01*
X187353547Y-91090183D01*
X187353548Y-91090183D01*
X187353550Y-91090185D01*
X187536046Y-91187732D01*
X187673996Y-91229578D01*
X187734065Y-91247800D01*
X187734070Y-91247801D01*
X187939997Y-91268083D01*
X187940000Y-91268083D01*
X187940003Y-91268083D01*
X188145929Y-91247801D01*
X188145934Y-91247800D01*
X188145933Y-91247800D01*
X188343954Y-91187732D01*
X188526450Y-91090185D01*
X188686410Y-90958910D01*
X188817685Y-90798950D01*
X188915232Y-90616454D01*
X188960819Y-90466170D01*
X188995804Y-90415974D01*
X189053612Y-90395928D01*
X189112163Y-90413689D01*
G37*
%TD.AperFunction*%
%TA.AperFunction,Conductor*%
G36*
X184927935Y-90427753D02*
G01*
X184966274Y-90462439D01*
X184984732Y-90491160D01*
X185018239Y-90543298D01*
X185126900Y-90637452D01*
X185135663Y-90641454D01*
X185180740Y-90682826D01*
X185192891Y-90742792D01*
X185167473Y-90798448D01*
X185164540Y-90801510D01*
X184638625Y-91327425D01*
X184722423Y-91386101D01*
X184722425Y-91386102D01*
X184736735Y-91392775D01*
X184781484Y-91434503D01*
X184793159Y-91494564D01*
X184767302Y-91550017D01*
X184736737Y-91572224D01*
X184722427Y-91578896D01*
X184722411Y-91578906D01*
X184638626Y-91637572D01*
X185164541Y-92163488D01*
X185192318Y-92218005D01*
X185182747Y-92278437D01*
X185139482Y-92321702D01*
X185135666Y-92323544D01*
X185126902Y-92327546D01*
X185018237Y-92421703D01*
X184966275Y-92502559D01*
X184918909Y-92541291D01*
X184857823Y-92544784D01*
X184812987Y-92519040D01*
X184285072Y-91991126D01*
X184226406Y-92074911D01*
X184226396Y-92074927D01*
X184219724Y-92089237D01*
X184177995Y-92133985D01*
X184117934Y-92145659D01*
X184062481Y-92119800D01*
X184040276Y-92089237D01*
X184033603Y-92074928D01*
X184033602Y-92074926D01*
X183974925Y-91991125D01*
X183447011Y-92519039D01*
X183392495Y-92546816D01*
X183332063Y-92537245D01*
X183293724Y-92502558D01*
X183241762Y-92421703D01*
X183157332Y-92348545D01*
X183133100Y-92327548D01*
X183133098Y-92327547D01*
X183133097Y-92327546D01*
X183124332Y-92323543D01*
X183079255Y-92282169D01*
X183067107Y-92222202D01*
X183092526Y-92166547D01*
X183095457Y-92163487D01*
X183621372Y-91637572D01*
X183537576Y-91578898D01*
X183537574Y-91578897D01*
X183523265Y-91572225D01*
X183478516Y-91530497D01*
X183466841Y-91470436D01*
X183492698Y-91414983D01*
X183523265Y-91392775D01*
X183537575Y-91386102D01*
X183621372Y-91327425D01*
X183095458Y-90801511D01*
X183067681Y-90746994D01*
X183077252Y-90686562D01*
X183120517Y-90643297D01*
X183124279Y-90641480D01*
X183133100Y-90637452D01*
X183241761Y-90543298D01*
X183293725Y-90462438D01*
X183341089Y-90423709D01*
X183402174Y-90420215D01*
X183447012Y-90445959D01*
X183974925Y-90973872D01*
X184033602Y-90890075D01*
X184040275Y-90875765D01*
X184082003Y-90831016D01*
X184142064Y-90819341D01*
X184197517Y-90845198D01*
X184219725Y-90875765D01*
X184226397Y-90890074D01*
X184226398Y-90890076D01*
X184285072Y-90973872D01*
X184812986Y-90445959D01*
X184867503Y-90418182D01*
X184927935Y-90427753D01*
G37*
%TD.AperFunction*%
%TA.AperFunction,Conductor*%
G36*
X205002752Y-84500810D02*
G01*
X205100073Y-84511775D01*
X205121669Y-84516705D01*
X205206202Y-84546283D01*
X205226168Y-84555899D01*
X205264078Y-84579720D01*
X205301987Y-84603540D01*
X205319319Y-84617361D01*
X205382638Y-84680680D01*
X205396459Y-84698012D01*
X205444098Y-84773828D01*
X205453718Y-84793803D01*
X205483293Y-84878326D01*
X205488225Y-84899938D01*
X205499188Y-84997230D01*
X205499500Y-85002777D01*
X205499500Y-97997222D01*
X205499188Y-98002769D01*
X205488225Y-98100061D01*
X205483293Y-98121673D01*
X205453718Y-98206196D01*
X205444098Y-98226171D01*
X205396459Y-98301987D01*
X205382638Y-98319319D01*
X205319319Y-98382638D01*
X205301987Y-98396459D01*
X205226171Y-98444098D01*
X205206196Y-98453718D01*
X205121673Y-98483293D01*
X205100061Y-98488225D01*
X205002769Y-98499188D01*
X204997222Y-98499500D01*
X174892677Y-98499500D01*
X174680235Y-98530045D01*
X174680233Y-98530045D01*
X174474294Y-98590514D01*
X174279048Y-98679680D01*
X174279040Y-98679684D01*
X174098494Y-98795713D01*
X174098482Y-98795722D01*
X173936285Y-98936267D01*
X173936267Y-98936285D01*
X173795722Y-99098482D01*
X173795713Y-99098494D01*
X173679684Y-99279040D01*
X173679680Y-99279048D01*
X173679679Y-99279050D01*
X173651585Y-99340567D01*
X173590514Y-99474294D01*
X173530045Y-99680233D01*
X173530045Y-99680235D01*
X173499500Y-99892676D01*
X173499500Y-102997222D01*
X173499188Y-103002769D01*
X173488225Y-103100061D01*
X173483293Y-103121673D01*
X173453718Y-103206196D01*
X173444098Y-103226171D01*
X173396459Y-103301987D01*
X173382638Y-103319319D01*
X173319319Y-103382638D01*
X173301987Y-103396459D01*
X173226171Y-103444098D01*
X173206196Y-103453718D01*
X173121673Y-103483293D01*
X173100061Y-103488225D01*
X173002769Y-103499188D01*
X172997222Y-103499500D01*
X147002778Y-103499500D01*
X146997231Y-103499188D01*
X146899938Y-103488225D01*
X146878326Y-103483293D01*
X146793803Y-103453718D01*
X146773828Y-103444098D01*
X146698012Y-103396459D01*
X146680680Y-103382638D01*
X146617361Y-103319319D01*
X146603540Y-103301987D01*
X146555901Y-103226171D01*
X146546283Y-103206202D01*
X146516705Y-103121669D01*
X146511775Y-103100073D01*
X146500810Y-103002752D01*
X146500500Y-102997222D01*
X146500500Y-99892676D01*
X146482172Y-99765211D01*
X146469954Y-99680231D01*
X146409484Y-99474290D01*
X146320321Y-99279050D01*
X146311264Y-99264957D01*
X146204286Y-99098494D01*
X146204277Y-99098482D01*
X146063732Y-98936285D01*
X146063730Y-98936283D01*
X146063724Y-98936276D01*
X146027502Y-98904889D01*
X145901517Y-98795722D01*
X145901505Y-98795713D01*
X145720959Y-98679684D01*
X145720953Y-98679681D01*
X145720950Y-98679679D01*
X145525710Y-98590516D01*
X145525708Y-98590515D01*
X145525705Y-98590514D01*
X145370643Y-98544984D01*
X145319769Y-98530046D01*
X145319767Y-98530045D01*
X145319765Y-98530045D01*
X145107323Y-98499500D01*
X145107318Y-98499500D01*
X145035799Y-98499500D01*
X115002778Y-98499500D01*
X114997231Y-98499188D01*
X114899938Y-98488225D01*
X114878326Y-98483293D01*
X114830296Y-98466487D01*
X114793801Y-98453717D01*
X114773828Y-98444098D01*
X114698012Y-98396459D01*
X114680680Y-98382638D01*
X114617361Y-98319319D01*
X114603540Y-98301987D01*
X114555901Y-98226171D01*
X114546283Y-98206202D01*
X114516705Y-98121669D01*
X114511775Y-98100073D01*
X114500810Y-98002752D01*
X114500500Y-97997222D01*
X114500500Y-97914419D01*
X114500499Y-97914413D01*
X114500499Y-91468143D01*
X114500499Y-90212503D01*
X128164843Y-90212503D01*
X128185429Y-90447813D01*
X128246569Y-90675989D01*
X128346399Y-90890077D01*
X128405072Y-90973872D01*
X128932986Y-90445959D01*
X128987503Y-90418182D01*
X129047935Y-90427753D01*
X129086274Y-90462439D01*
X129104732Y-90491160D01*
X129138239Y-90543298D01*
X129246900Y-90637452D01*
X129255663Y-90641454D01*
X129300740Y-90682826D01*
X129312891Y-90742792D01*
X129287473Y-90798448D01*
X129284540Y-90801510D01*
X128758624Y-91327427D01*
X128759322Y-91335398D01*
X128745558Y-91395015D01*
X128699380Y-91435156D01*
X128691840Y-91438000D01*
X128600874Y-91468143D01*
X128451659Y-91560180D01*
X128327680Y-91684159D01*
X128235643Y-91833375D01*
X128180493Y-91999806D01*
X128170000Y-92102512D01*
X128170000Y-92502498D01*
X128170001Y-92502500D01*
X128940049Y-92502500D01*
X128998240Y-92521407D01*
X129034204Y-92570907D01*
X129035039Y-92629391D01*
X129020000Y-92680607D01*
X129020000Y-92824392D01*
X129035039Y-92875609D01*
X129033292Y-92936769D01*
X128995929Y-92985222D01*
X128940049Y-93002500D01*
X128170001Y-93002500D01*
X128170001Y-93402486D01*
X128180492Y-93505187D01*
X128180495Y-93505199D01*
X128235643Y-93671624D01*
X128327680Y-93820840D01*
X128451659Y-93944819D01*
X128600875Y-94036856D01*
X128767306Y-94092006D01*
X128870012Y-94102499D01*
X129269998Y-94102499D01*
X129269999Y-94102498D01*
X129269999Y-93335949D01*
X129288906Y-93277758D01*
X129338406Y-93241794D01*
X129383089Y-93237957D01*
X129484233Y-93252500D01*
X129484237Y-93252500D01*
X129555767Y-93252500D01*
X129638434Y-93240613D01*
X129656910Y-93237957D01*
X129717199Y-93248390D01*
X129759842Y-93292267D01*
X129770000Y-93335949D01*
X129770000Y-94102498D01*
X129770001Y-94102499D01*
X130169986Y-94102499D01*
X130272687Y-94092007D01*
X130272699Y-94092004D01*
X130439124Y-94036856D01*
X130588340Y-93944819D01*
X130712319Y-93820840D01*
X130804356Y-93671624D01*
X130834499Y-93580659D01*
X130870750Y-93531369D01*
X130929050Y-93512801D01*
X130937103Y-93513176D01*
X130945071Y-93513873D01*
X131472986Y-92985959D01*
X131527503Y-92958182D01*
X131587935Y-92967753D01*
X131626274Y-93002439D01*
X131644732Y-93031160D01*
X131678239Y-93083298D01*
X131786900Y-93177452D01*
X131795663Y-93181454D01*
X131840740Y-93222826D01*
X131852891Y-93282792D01*
X131827473Y-93338448D01*
X131824540Y-93341510D01*
X131298625Y-93867425D01*
X131382422Y-93926100D01*
X131596510Y-94025930D01*
X131824686Y-94087070D01*
X132059997Y-94107657D01*
X132060003Y-94107657D01*
X132295313Y-94087070D01*
X132523489Y-94025930D01*
X132737577Y-93926100D01*
X132821372Y-93867425D01*
X132295458Y-93341511D01*
X132267681Y-93286994D01*
X132277252Y-93226562D01*
X132320517Y-93183297D01*
X132324279Y-93181480D01*
X132333100Y-93177452D01*
X132441761Y-93083298D01*
X132493725Y-93002438D01*
X132541089Y-92963709D01*
X132602174Y-92960215D01*
X132647012Y-92985959D01*
X133174925Y-93513872D01*
X133233600Y-93430077D01*
X133333430Y-93215990D01*
X133388816Y-93009286D01*
X133422140Y-92957972D01*
X133479261Y-92936045D01*
X133538362Y-92951880D01*
X133576867Y-92999430D01*
X133579180Y-93006171D01*
X133624768Y-93156454D01*
X133722316Y-93338952D01*
X133853585Y-93498904D01*
X133853590Y-93498910D01*
X133853595Y-93498914D01*
X134013547Y-93630183D01*
X134013548Y-93630183D01*
X134013550Y-93630185D01*
X134196046Y-93727732D01*
X134319553Y-93765197D01*
X134394065Y-93787800D01*
X134394070Y-93787801D01*
X134599997Y-93808083D01*
X134600000Y-93808083D01*
X134600003Y-93808083D01*
X134805929Y-93787801D01*
X134805934Y-93787800D01*
X134805934Y-93787799D01*
X135003954Y-93727732D01*
X135186450Y-93630185D01*
X135346410Y-93498910D01*
X135477685Y-93338950D01*
X135575232Y-93156454D01*
X135635300Y-92958434D01*
X135635301Y-92958429D01*
X135655583Y-92752503D01*
X136084417Y-92752503D01*
X136104698Y-92958429D01*
X136104699Y-92958434D01*
X136164768Y-93156454D01*
X136262316Y-93338952D01*
X136393585Y-93498904D01*
X136393590Y-93498910D01*
X136393595Y-93498914D01*
X136553547Y-93630183D01*
X136553548Y-93630183D01*
X136553550Y-93630185D01*
X136736046Y-93727732D01*
X136859553Y-93765197D01*
X136934065Y-93787800D01*
X136934070Y-93787801D01*
X137139997Y-93808083D01*
X137140000Y-93808083D01*
X137140003Y-93808083D01*
X137345929Y-93787801D01*
X137345934Y-93787800D01*
X137543954Y-93727732D01*
X137726450Y-93630185D01*
X137886410Y-93498910D01*
X138017685Y-93338950D01*
X138115232Y-93156454D01*
X138175300Y-92958434D01*
X138175301Y-92958429D01*
X138195583Y-92752503D01*
X138624417Y-92752503D01*
X138644698Y-92958429D01*
X138644699Y-92958434D01*
X138704768Y-93156454D01*
X138802316Y-93338952D01*
X138933585Y-93498904D01*
X138933590Y-93498910D01*
X138933595Y-93498914D01*
X139093547Y-93630183D01*
X139093548Y-93630183D01*
X139093550Y-93630185D01*
X139276046Y-93727732D01*
X139399553Y-93765197D01*
X139474065Y-93787800D01*
X139474070Y-93787801D01*
X139679997Y-93808083D01*
X139680000Y-93808083D01*
X139680003Y-93808083D01*
X139885929Y-93787801D01*
X139885934Y-93787800D01*
X139885934Y-93787799D01*
X140083954Y-93727732D01*
X140266450Y-93630185D01*
X140426410Y-93498910D01*
X140557685Y-93338950D01*
X140655232Y-93156454D01*
X140700819Y-93006170D01*
X140735804Y-92955974D01*
X140793612Y-92935928D01*
X140852163Y-92953689D01*
X140889092Y-93002473D01*
X140891183Y-93009286D01*
X140946569Y-93215989D01*
X141046399Y-93430077D01*
X141105072Y-93513872D01*
X141632986Y-92985959D01*
X141687503Y-92958182D01*
X141747935Y-92967753D01*
X141786274Y-93002439D01*
X141804732Y-93031160D01*
X141838239Y-93083298D01*
X141946900Y-93177452D01*
X141955663Y-93181454D01*
X142000740Y-93222826D01*
X142012891Y-93282792D01*
X141987473Y-93338448D01*
X141984540Y-93341510D01*
X141458625Y-93867425D01*
X141542422Y-93926100D01*
X141756510Y-94025930D01*
X141984686Y-94087070D01*
X142219997Y-94107657D01*
X142220003Y-94107657D01*
X142455313Y-94087070D01*
X142683489Y-94025930D01*
X142897577Y-93926100D01*
X142981372Y-93867425D01*
X142455458Y-93341511D01*
X142427681Y-93286994D01*
X142437252Y-93226562D01*
X142480517Y-93183297D01*
X142484279Y-93181480D01*
X142493100Y-93177452D01*
X142601761Y-93083298D01*
X142653725Y-93002438D01*
X142701089Y-92963709D01*
X142762174Y-92960215D01*
X142807012Y-92985959D01*
X143334925Y-93513872D01*
X143393600Y-93430077D01*
X143493430Y-93215990D01*
X143548816Y-93009286D01*
X143582140Y-92957972D01*
X143639261Y-92936045D01*
X143698362Y-92951880D01*
X143736867Y-92999430D01*
X143739180Y-93006171D01*
X143784768Y-93156454D01*
X143882316Y-93338952D01*
X144013585Y-93498904D01*
X144013590Y-93498910D01*
X144013595Y-93498914D01*
X144173547Y-93630183D01*
X144173548Y-93630183D01*
X144173550Y-93630185D01*
X144356046Y-93727732D01*
X144479553Y-93765197D01*
X144554065Y-93787800D01*
X144554070Y-93787801D01*
X144759997Y-93808083D01*
X144760000Y-93808083D01*
X144760003Y-93808083D01*
X144965929Y-93787801D01*
X144965934Y-93787800D01*
X144965933Y-93787799D01*
X145163954Y-93727732D01*
X145346450Y-93630185D01*
X145506410Y-93498910D01*
X145637685Y-93338950D01*
X145735232Y-93156454D01*
X145795300Y-92958434D01*
X145795301Y-92958429D01*
X145815583Y-92752503D01*
X146244417Y-92752503D01*
X146264698Y-92958429D01*
X146264699Y-92958434D01*
X146324768Y-93156454D01*
X146422316Y-93338952D01*
X146553585Y-93498904D01*
X146553590Y-93498910D01*
X146553595Y-93498914D01*
X146713547Y-93630183D01*
X146713548Y-93630183D01*
X146713550Y-93630185D01*
X146896046Y-93727732D01*
X147019553Y-93765197D01*
X147094065Y-93787800D01*
X147094070Y-93787801D01*
X147299997Y-93808083D01*
X147300000Y-93808083D01*
X147300003Y-93808083D01*
X147505929Y-93787801D01*
X147505934Y-93787800D01*
X147703954Y-93727732D01*
X147886450Y-93630185D01*
X148046410Y-93498910D01*
X148177685Y-93338950D01*
X148275232Y-93156454D01*
X148335300Y-92958434D01*
X148335301Y-92958429D01*
X148355583Y-92752503D01*
X148784417Y-92752503D01*
X148804698Y-92958429D01*
X148804699Y-92958434D01*
X148864768Y-93156454D01*
X148962316Y-93338952D01*
X149093585Y-93498904D01*
X149093590Y-93498910D01*
X149101253Y-93505199D01*
X149103302Y-93506880D01*
X149136291Y-93558410D01*
X149139500Y-93583410D01*
X149139500Y-95367340D01*
X149139410Y-95370307D01*
X149137986Y-95393851D01*
X149135641Y-95432604D01*
X149146891Y-95493999D01*
X149147341Y-95496954D01*
X149154860Y-95558873D01*
X149154861Y-95558875D01*
X149159255Y-95570461D01*
X149164067Y-95587723D01*
X149166303Y-95599926D01*
X149166305Y-95599933D01*
X149177842Y-95625567D01*
X149190892Y-95654563D01*
X149191916Y-95656837D01*
X149193060Y-95659600D01*
X149215183Y-95717932D01*
X149215183Y-95717934D01*
X149222229Y-95728141D01*
X149231029Y-95743743D01*
X149236120Y-95755054D01*
X149274598Y-95804168D01*
X149276369Y-95806576D01*
X149311814Y-95857925D01*
X149311817Y-95857929D01*
X149339183Y-95882173D01*
X149358508Y-95899294D01*
X149360686Y-95901344D01*
X149589742Y-96130399D01*
X150120505Y-96661162D01*
X150148281Y-96715677D01*
X150149500Y-96731164D01*
X150149500Y-99657390D01*
X150149076Y-99663858D01*
X150144318Y-99699999D01*
X150144318Y-99700000D01*
X150149076Y-99736140D01*
X150149500Y-99742608D01*
X150149500Y-99785056D01*
X150156417Y-99813120D01*
X150158997Y-99823589D01*
X150160075Y-99829472D01*
X150164860Y-99868872D01*
X150178931Y-99905975D01*
X150180710Y-99911686D01*
X150190210Y-99950226D01*
X150208651Y-99985362D01*
X150211107Y-99990818D01*
X150225180Y-100027927D01*
X150225180Y-100027928D01*
X150247729Y-100060596D01*
X150250823Y-100065714D01*
X150262062Y-100087126D01*
X150269266Y-100100852D01*
X150295574Y-100130548D01*
X150299263Y-100135256D01*
X150321814Y-100167926D01*
X150321816Y-100167928D01*
X150321817Y-100167929D01*
X150340880Y-100184817D01*
X150351522Y-100194245D01*
X150355753Y-100198476D01*
X150382071Y-100228183D01*
X150382074Y-100228185D01*
X150414737Y-100250732D01*
X150419446Y-100254421D01*
X150446384Y-100278286D01*
X150449148Y-100280734D01*
X150484286Y-100299175D01*
X150489391Y-100302261D01*
X150522070Y-100324818D01*
X150557996Y-100338442D01*
X150559178Y-100338891D01*
X150564634Y-100341346D01*
X150599775Y-100359790D01*
X150638319Y-100369289D01*
X150644010Y-100371063D01*
X150681128Y-100385140D01*
X150720527Y-100389923D01*
X150726406Y-100391000D01*
X150764944Y-100400500D01*
X150807628Y-100400500D01*
X154707628Y-100400500D01*
X157707628Y-100400500D01*
X160707628Y-100400500D01*
X164327341Y-100400500D01*
X164330306Y-100400589D01*
X164387904Y-100404073D01*
X164392605Y-100404358D01*
X164392605Y-100404357D01*
X164392606Y-100404358D01*
X164454019Y-100393103D01*
X164456924Y-100392661D01*
X164518872Y-100385140D01*
X164530462Y-100380744D01*
X164547725Y-100375931D01*
X164559932Y-100373695D01*
X164616854Y-100348075D01*
X164619588Y-100346943D01*
X164677930Y-100324818D01*
X164688142Y-100317768D01*
X164703750Y-100308965D01*
X164715057Y-100303878D01*
X164764174Y-100265395D01*
X164766582Y-100263625D01*
X164817929Y-100228183D01*
X164844246Y-100198476D01*
X164859307Y-100181474D01*
X164861337Y-100179319D01*
X164939807Y-100100849D01*
X165057158Y-99983497D01*
X165111673Y-99955722D01*
X165172105Y-99965293D01*
X165215370Y-100008558D01*
X165218622Y-100015614D01*
X165275464Y-100152841D01*
X165308760Y-100196233D01*
X165361831Y-100265398D01*
X165371718Y-100278282D01*
X165371722Y-100278285D01*
X165371723Y-100278286D01*
X165398942Y-100299172D01*
X165497159Y-100374536D01*
X165497160Y-100374536D01*
X165497161Y-100374537D01*
X165643233Y-100435042D01*
X165643238Y-100435044D01*
X165646164Y-100435429D01*
X165648070Y-100436338D01*
X165649507Y-100436723D01*
X165649435Y-100436989D01*
X165701389Y-100461764D01*
X165703252Y-100463578D01*
X166933257Y-101693584D01*
X166936175Y-101696769D01*
X166962544Y-101728193D01*
X166962545Y-101728194D01*
X166998073Y-101748706D01*
X167001712Y-101751025D01*
X167035311Y-101774551D01*
X167035313Y-101774552D01*
X167035316Y-101774554D01*
X167036767Y-101774942D01*
X167060659Y-101784840D01*
X167061186Y-101785143D01*
X167061955Y-101785588D01*
X167102351Y-101792710D01*
X167106548Y-101793640D01*
X167146193Y-101804264D01*
X167187077Y-101800687D01*
X167191377Y-101800500D01*
X170243207Y-101800500D01*
X170247507Y-101800687D01*
X170288388Y-101804264D01*
X170328033Y-101793640D01*
X170332231Y-101792710D01*
X170372626Y-101785588D01*
X170372628Y-101785587D01*
X170373926Y-101784838D01*
X170397817Y-101774942D01*
X170398045Y-101774880D01*
X170399265Y-101774554D01*
X170432884Y-101751012D01*
X170436492Y-101748714D01*
X170472036Y-101728194D01*
X170498419Y-101696750D01*
X170501307Y-101693598D01*
X177998583Y-94196322D01*
X178001760Y-94193410D01*
X178033194Y-94167036D01*
X178053714Y-94131492D01*
X178056012Y-94127884D01*
X178079554Y-94094265D01*
X178079941Y-94092817D01*
X178089838Y-94068926D01*
X178090588Y-94067626D01*
X178097709Y-94027237D01*
X178098640Y-94023033D01*
X178109264Y-93983388D01*
X178105687Y-93942503D01*
X178105500Y-93938204D01*
X178105500Y-93824953D01*
X178124407Y-93766762D01*
X178173907Y-93730798D01*
X178175633Y-93730255D01*
X178183954Y-93727732D01*
X178366450Y-93630185D01*
X178526410Y-93498910D01*
X178657685Y-93338950D01*
X178755232Y-93156454D01*
X178815300Y-92958434D01*
X178815301Y-92958429D01*
X178835583Y-92752503D01*
X179264417Y-92752503D01*
X179284698Y-92958429D01*
X179284699Y-92958434D01*
X179344768Y-93156454D01*
X179442316Y-93338952D01*
X179573585Y-93498904D01*
X179573590Y-93498910D01*
X179573595Y-93498914D01*
X179733547Y-93630183D01*
X179733548Y-93630183D01*
X179733550Y-93630185D01*
X179916046Y-93727732D01*
X180039553Y-93765197D01*
X180114065Y-93787800D01*
X180114070Y-93787801D01*
X180319997Y-93808083D01*
X180320000Y-93808083D01*
X180320003Y-93808083D01*
X180525929Y-93787801D01*
X180525934Y-93787800D01*
X180525934Y-93787799D01*
X180723954Y-93727732D01*
X180906450Y-93630185D01*
X181066410Y-93498910D01*
X181197685Y-93338950D01*
X181295232Y-93156454D01*
X181340819Y-93006170D01*
X181375804Y-92955974D01*
X181433612Y-92935928D01*
X181492163Y-92953689D01*
X181529092Y-93002473D01*
X181531183Y-93009286D01*
X181586569Y-93215989D01*
X181686399Y-93430077D01*
X181745072Y-93513872D01*
X182272986Y-92985959D01*
X182327503Y-92958182D01*
X182387935Y-92967753D01*
X182426274Y-93002439D01*
X182444732Y-93031160D01*
X182478239Y-93083298D01*
X182586900Y-93177452D01*
X182595663Y-93181454D01*
X182640740Y-93222826D01*
X182652891Y-93282792D01*
X182627473Y-93338448D01*
X182624540Y-93341510D01*
X182098625Y-93867425D01*
X182182422Y-93926100D01*
X182396510Y-94025930D01*
X182624686Y-94087070D01*
X182859997Y-94107657D01*
X182860003Y-94107657D01*
X183095313Y-94087070D01*
X183323489Y-94025930D01*
X183537577Y-93926100D01*
X183621372Y-93867425D01*
X183095458Y-93341511D01*
X183067681Y-93286994D01*
X183077252Y-93226562D01*
X183120517Y-93183297D01*
X183124279Y-93181480D01*
X183133100Y-93177452D01*
X183241761Y-93083298D01*
X183293725Y-93002438D01*
X183341089Y-92963709D01*
X183402174Y-92960215D01*
X183447012Y-92985959D01*
X183974925Y-93513872D01*
X184033602Y-93430075D01*
X184040275Y-93415765D01*
X184082003Y-93371016D01*
X184142064Y-93359341D01*
X184197517Y-93385198D01*
X184219725Y-93415765D01*
X184226397Y-93430074D01*
X184226398Y-93430076D01*
X184285072Y-93513872D01*
X184812986Y-92985959D01*
X184867503Y-92958182D01*
X184927935Y-92967753D01*
X184966274Y-93002439D01*
X184984732Y-93031160D01*
X185018239Y-93083298D01*
X185126900Y-93177452D01*
X185135663Y-93181454D01*
X185180740Y-93222826D01*
X185192891Y-93282792D01*
X185167473Y-93338448D01*
X185164540Y-93341510D01*
X184638625Y-93867425D01*
X184722422Y-93926100D01*
X184936510Y-94025930D01*
X185164686Y-94087070D01*
X185399997Y-94107657D01*
X185400003Y-94107657D01*
X185635313Y-94087070D01*
X185863489Y-94025930D01*
X186077577Y-93926100D01*
X186161372Y-93867425D01*
X185635458Y-93341511D01*
X185607681Y-93286994D01*
X185617252Y-93226562D01*
X185660517Y-93183297D01*
X185664279Y-93181480D01*
X185673100Y-93177452D01*
X185781761Y-93083298D01*
X185833725Y-93002438D01*
X185881089Y-92963709D01*
X185942174Y-92960215D01*
X185987012Y-92985959D01*
X186514925Y-93513872D01*
X186573600Y-93430077D01*
X186673430Y-93215990D01*
X186728816Y-93009286D01*
X186762140Y-92957972D01*
X186819261Y-92936045D01*
X186878362Y-92951880D01*
X186916867Y-92999430D01*
X186919180Y-93006171D01*
X186964768Y-93156454D01*
X187062316Y-93338952D01*
X187193585Y-93498904D01*
X187193590Y-93498910D01*
X187193595Y-93498914D01*
X187353547Y-93630183D01*
X187353548Y-93630183D01*
X187353550Y-93630185D01*
X187536046Y-93727732D01*
X187659553Y-93765197D01*
X187734065Y-93787800D01*
X187734070Y-93787801D01*
X187939997Y-93808083D01*
X187940000Y-93808083D01*
X187940003Y-93808083D01*
X188145929Y-93787801D01*
X188145934Y-93787800D01*
X188343954Y-93727732D01*
X188526450Y-93630185D01*
X188686410Y-93498910D01*
X188817685Y-93338950D01*
X188915232Y-93156454D01*
X188960819Y-93006170D01*
X188995804Y-92955974D01*
X189053612Y-92935928D01*
X189112163Y-92953689D01*
X189149092Y-93002473D01*
X189151183Y-93009286D01*
X189206569Y-93215989D01*
X189306399Y-93430077D01*
X189365072Y-93513872D01*
X189892986Y-92985959D01*
X189947503Y-92958182D01*
X190007935Y-92967753D01*
X190046274Y-93002439D01*
X190064732Y-93031160D01*
X190098239Y-93083298D01*
X190206900Y-93177452D01*
X190215663Y-93181454D01*
X190260740Y-93222826D01*
X190272891Y-93282792D01*
X190247473Y-93338448D01*
X190244540Y-93341510D01*
X189718625Y-93867425D01*
X189802422Y-93926100D01*
X190016510Y-94025930D01*
X190244686Y-94087070D01*
X190479997Y-94107657D01*
X190480003Y-94107657D01*
X190715313Y-94087070D01*
X190943489Y-94025930D01*
X191157577Y-93926100D01*
X191241372Y-93867425D01*
X190715458Y-93341511D01*
X190687681Y-93286994D01*
X190697252Y-93226562D01*
X190740517Y-93183297D01*
X190744279Y-93181480D01*
X190753100Y-93177452D01*
X190861761Y-93083298D01*
X190913725Y-93002438D01*
X190961089Y-92963709D01*
X191022174Y-92960215D01*
X191067012Y-92985959D01*
X191594925Y-93513872D01*
X191653600Y-93430077D01*
X191753430Y-93215989D01*
X191814570Y-92987813D01*
X191835157Y-92752503D01*
X191835157Y-92752496D01*
X191814570Y-92517186D01*
X191753429Y-92289005D01*
X191653605Y-92074932D01*
X191653602Y-92074926D01*
X191594925Y-91991125D01*
X191067011Y-92519039D01*
X191012495Y-92546816D01*
X190952063Y-92537245D01*
X190913724Y-92502558D01*
X190861762Y-92421703D01*
X190777332Y-92348545D01*
X190753100Y-92327548D01*
X190753098Y-92327547D01*
X190753097Y-92327546D01*
X190744332Y-92323543D01*
X190699255Y-92282169D01*
X190687107Y-92222202D01*
X190712526Y-92166547D01*
X190715457Y-92163487D01*
X191241372Y-91637572D01*
X191157576Y-91578898D01*
X191157574Y-91578897D01*
X191143265Y-91572225D01*
X191098516Y-91530497D01*
X191086841Y-91470436D01*
X191112698Y-91414983D01*
X191143265Y-91392775D01*
X191157575Y-91386102D01*
X191241372Y-91327425D01*
X190715458Y-90801511D01*
X190687681Y-90746994D01*
X190697252Y-90686562D01*
X190740517Y-90643297D01*
X190744279Y-90641480D01*
X190753100Y-90637452D01*
X190861761Y-90543298D01*
X190913725Y-90462438D01*
X190961089Y-90423709D01*
X191022174Y-90420215D01*
X191067012Y-90445959D01*
X191594925Y-90973872D01*
X191653600Y-90890077D01*
X191753430Y-90675989D01*
X191814570Y-90447813D01*
X191835157Y-90212503D01*
X191835157Y-90212496D01*
X191814570Y-89977186D01*
X191753429Y-89749005D01*
X191653605Y-89534932D01*
X191653602Y-89534926D01*
X191594925Y-89451125D01*
X191067011Y-89979039D01*
X191012495Y-90006816D01*
X190952063Y-89997245D01*
X190913724Y-89962558D01*
X190861762Y-89881703D01*
X190777332Y-89808545D01*
X190753100Y-89787548D01*
X190753098Y-89787547D01*
X190753097Y-89787546D01*
X190744332Y-89783543D01*
X190699255Y-89742169D01*
X190687107Y-89682202D01*
X190712526Y-89626547D01*
X190715457Y-89623487D01*
X191241372Y-89097572D01*
X191157577Y-89038899D01*
X190943489Y-88939069D01*
X190715313Y-88877929D01*
X190480003Y-88857343D01*
X190479997Y-88857343D01*
X190244686Y-88877929D01*
X190016505Y-88939070D01*
X189802430Y-89038894D01*
X189802411Y-89038906D01*
X189718626Y-89097572D01*
X190244541Y-89623488D01*
X190272318Y-89678005D01*
X190262747Y-89738437D01*
X190219482Y-89781702D01*
X190215666Y-89783544D01*
X190206902Y-89787546D01*
X190098237Y-89881703D01*
X190046275Y-89962559D01*
X189998909Y-90001291D01*
X189937823Y-90004784D01*
X189892987Y-89979040D01*
X189365072Y-89451126D01*
X189306406Y-89534911D01*
X189306394Y-89534930D01*
X189206570Y-89749005D01*
X189151183Y-89955713D01*
X189117859Y-90007027D01*
X189060737Y-90028954D01*
X189001637Y-90013118D01*
X188963132Y-89965568D01*
X188960819Y-89958828D01*
X188959874Y-89955713D01*
X188915232Y-89808546D01*
X188817685Y-89626050D01*
X188815582Y-89623488D01*
X188686414Y-89466095D01*
X188686410Y-89466090D01*
X188668175Y-89451125D01*
X188526452Y-89334816D01*
X188343954Y-89237268D01*
X188145934Y-89177199D01*
X188145929Y-89177198D01*
X187940003Y-89156917D01*
X187939997Y-89156917D01*
X187734070Y-89177198D01*
X187734065Y-89177199D01*
X187536045Y-89237268D01*
X187353547Y-89334816D01*
X187193595Y-89466085D01*
X187193585Y-89466095D01*
X187062316Y-89626047D01*
X186964769Y-89808544D01*
X186919180Y-89958829D01*
X186884195Y-90009025D01*
X186826386Y-90029071D01*
X186767836Y-90011310D01*
X186730907Y-89962525D01*
X186728816Y-89955713D01*
X186673429Y-89749004D01*
X186573605Y-89534932D01*
X186573602Y-89534926D01*
X186514925Y-89451125D01*
X185987011Y-89979039D01*
X185932495Y-90006816D01*
X185872063Y-89997245D01*
X185833724Y-89962558D01*
X185781762Y-89881703D01*
X185697332Y-89808545D01*
X185673100Y-89787548D01*
X185673098Y-89787547D01*
X185673097Y-89787546D01*
X185664332Y-89783543D01*
X185619255Y-89742169D01*
X185607107Y-89682202D01*
X185632526Y-89626547D01*
X185635457Y-89623487D01*
X186161372Y-89097572D01*
X186077577Y-89038899D01*
X185863489Y-88939069D01*
X185635313Y-88877929D01*
X185400003Y-88857343D01*
X185399997Y-88857343D01*
X185164686Y-88877929D01*
X184936505Y-88939070D01*
X184722430Y-89038894D01*
X184722411Y-89038906D01*
X184638626Y-89097572D01*
X185164541Y-89623488D01*
X185192318Y-89678005D01*
X185182747Y-89738437D01*
X185139482Y-89781702D01*
X185135666Y-89783544D01*
X185126902Y-89787546D01*
X185018237Y-89881703D01*
X184966275Y-89962559D01*
X184918909Y-90001291D01*
X184857823Y-90004784D01*
X184812987Y-89979040D01*
X184285072Y-89451126D01*
X184226406Y-89534911D01*
X184226396Y-89534927D01*
X184219724Y-89549237D01*
X184177995Y-89593985D01*
X184117934Y-89605659D01*
X184062481Y-89579800D01*
X184040276Y-89549237D01*
X184033603Y-89534928D01*
X184033602Y-89534926D01*
X183974925Y-89451125D01*
X183447011Y-89979039D01*
X183392495Y-90006816D01*
X183332063Y-89997245D01*
X183293724Y-89962558D01*
X183241762Y-89881703D01*
X183157332Y-89808545D01*
X183133100Y-89787548D01*
X183133098Y-89787547D01*
X183133097Y-89787546D01*
X183124332Y-89783543D01*
X183079255Y-89742169D01*
X183067107Y-89682202D01*
X183092526Y-89626547D01*
X183095457Y-89623487D01*
X183621372Y-89097572D01*
X183537577Y-89038899D01*
X183323489Y-88939069D01*
X183095313Y-88877929D01*
X182860003Y-88857343D01*
X182859997Y-88857343D01*
X182624686Y-88877929D01*
X182396505Y-88939070D01*
X182182430Y-89038894D01*
X182182411Y-89038906D01*
X182098626Y-89097572D01*
X182624541Y-89623488D01*
X182652318Y-89678005D01*
X182642747Y-89738437D01*
X182599482Y-89781702D01*
X182595666Y-89783544D01*
X182586902Y-89787546D01*
X182478237Y-89881703D01*
X182426275Y-89962559D01*
X182378909Y-90001291D01*
X182317823Y-90004784D01*
X182272987Y-89979040D01*
X181745072Y-89451126D01*
X181686406Y-89534911D01*
X181686394Y-89534930D01*
X181586570Y-89749005D01*
X181531183Y-89955713D01*
X181497859Y-90007027D01*
X181440737Y-90028954D01*
X181381637Y-90013118D01*
X181343132Y-89965568D01*
X181340819Y-89958828D01*
X181339874Y-89955713D01*
X181295232Y-89808546D01*
X181197685Y-89626050D01*
X181195582Y-89623488D01*
X181066414Y-89466095D01*
X181066410Y-89466090D01*
X181048175Y-89451125D01*
X180906452Y-89334816D01*
X180723954Y-89237268D01*
X180525934Y-89177199D01*
X180525929Y-89177198D01*
X180320003Y-89156917D01*
X180319997Y-89156917D01*
X180114070Y-89177198D01*
X180114065Y-89177199D01*
X179916045Y-89237268D01*
X179733547Y-89334816D01*
X179573595Y-89466085D01*
X179573585Y-89466095D01*
X179442316Y-89626047D01*
X179344768Y-89808545D01*
X179284699Y-90006565D01*
X179284698Y-90006570D01*
X179264417Y-90212496D01*
X179264417Y-90212503D01*
X179284698Y-90418429D01*
X179284699Y-90418434D01*
X179344768Y-90616454D01*
X179442316Y-90798952D01*
X179573585Y-90958904D01*
X179573590Y-90958910D01*
X179573595Y-90958914D01*
X179733547Y-91090183D01*
X179733548Y-91090183D01*
X179733550Y-91090185D01*
X179916046Y-91187732D01*
X180053996Y-91229578D01*
X180114065Y-91247800D01*
X180114070Y-91247801D01*
X180319997Y-91268083D01*
X180320000Y-91268083D01*
X180320003Y-91268083D01*
X180525929Y-91247801D01*
X180525934Y-91247800D01*
X180723954Y-91187732D01*
X180906450Y-91090185D01*
X181066410Y-90958910D01*
X181197685Y-90798950D01*
X181295232Y-90616454D01*
X181340819Y-90466170D01*
X181375804Y-90415974D01*
X181433612Y-90395928D01*
X181492163Y-90413689D01*
X181529092Y-90462473D01*
X181531183Y-90469286D01*
X181586569Y-90675989D01*
X181686399Y-90890077D01*
X181745072Y-90973872D01*
X182272986Y-90445959D01*
X182327503Y-90418182D01*
X182387935Y-90427753D01*
X182426274Y-90462439D01*
X182444732Y-90491160D01*
X182478239Y-90543298D01*
X182586900Y-90637452D01*
X182595663Y-90641454D01*
X182640740Y-90682826D01*
X182652891Y-90742792D01*
X182627473Y-90798448D01*
X182624540Y-90801510D01*
X182098625Y-91327425D01*
X182182423Y-91386101D01*
X182182425Y-91386102D01*
X182196735Y-91392775D01*
X182241484Y-91434503D01*
X182253159Y-91494564D01*
X182227302Y-91550017D01*
X182196737Y-91572224D01*
X182182427Y-91578896D01*
X182182411Y-91578906D01*
X182098626Y-91637572D01*
X182624541Y-92163488D01*
X182652318Y-92218005D01*
X182642747Y-92278437D01*
X182599482Y-92321702D01*
X182595666Y-92323544D01*
X182586902Y-92327546D01*
X182478237Y-92421703D01*
X182426275Y-92502559D01*
X182378909Y-92541291D01*
X182317823Y-92544784D01*
X182272987Y-92519040D01*
X181745072Y-91991126D01*
X181686406Y-92074911D01*
X181686394Y-92074930D01*
X181586570Y-92289005D01*
X181531183Y-92495713D01*
X181497859Y-92547027D01*
X181440737Y-92568954D01*
X181381637Y-92553118D01*
X181343132Y-92505568D01*
X181340819Y-92498828D01*
X181339874Y-92495713D01*
X181295232Y-92348546D01*
X181197685Y-92166050D01*
X181195582Y-92163488D01*
X181066414Y-92006095D01*
X181066410Y-92006090D01*
X181032255Y-91978060D01*
X180906452Y-91874816D01*
X180723954Y-91777268D01*
X180525934Y-91717199D01*
X180525929Y-91717198D01*
X180320003Y-91696917D01*
X180319997Y-91696917D01*
X180114070Y-91717198D01*
X180114065Y-91717199D01*
X179916045Y-91777268D01*
X179733547Y-91874816D01*
X179573595Y-92006085D01*
X179573585Y-92006095D01*
X179442316Y-92166047D01*
X179344768Y-92348545D01*
X179284699Y-92546565D01*
X179284698Y-92546570D01*
X179264417Y-92752496D01*
X179264417Y-92752503D01*
X178835583Y-92752503D01*
X178835583Y-92752496D01*
X178815301Y-92546570D01*
X178815300Y-92546565D01*
X178797078Y-92486497D01*
X178755232Y-92348546D01*
X178657685Y-92166050D01*
X178655582Y-92163488D01*
X178526414Y-92006095D01*
X178526410Y-92006090D01*
X178492255Y-91978060D01*
X178366452Y-91874816D01*
X178183954Y-91777268D01*
X177985934Y-91717199D01*
X177985929Y-91717198D01*
X177780003Y-91696917D01*
X177779997Y-91696917D01*
X177574070Y-91717198D01*
X177574065Y-91717199D01*
X177376045Y-91777268D01*
X177193547Y-91874816D01*
X177193547Y-91874817D01*
X177087305Y-91962007D01*
X177030328Y-91984307D01*
X176971125Y-91968858D01*
X176932310Y-91921561D01*
X176925500Y-91885479D01*
X176925500Y-91568333D01*
X176944407Y-91510142D01*
X176954496Y-91498330D01*
X177251822Y-91201003D01*
X177306339Y-91173225D01*
X177366771Y-91182796D01*
X177368493Y-91183695D01*
X177376046Y-91187732D01*
X177457515Y-91212445D01*
X177574065Y-91247800D01*
X177574070Y-91247801D01*
X177779997Y-91268083D01*
X177780000Y-91268083D01*
X177780003Y-91268083D01*
X177985929Y-91247801D01*
X177985934Y-91247800D01*
X178183954Y-91187732D01*
X178366450Y-91090185D01*
X178526410Y-90958910D01*
X178657685Y-90798950D01*
X178755232Y-90616454D01*
X178815300Y-90418434D01*
X178815301Y-90418429D01*
X178835583Y-90212503D01*
X178835583Y-90212496D01*
X178815301Y-90006570D01*
X178815300Y-90006565D01*
X178797078Y-89946497D01*
X178755232Y-89808546D01*
X178657685Y-89626050D01*
X178655582Y-89623488D01*
X178526414Y-89466095D01*
X178526410Y-89466090D01*
X178508175Y-89451125D01*
X178366452Y-89334816D01*
X178183954Y-89237268D01*
X177985934Y-89177199D01*
X177985929Y-89177198D01*
X177780003Y-89156917D01*
X177779997Y-89156917D01*
X177574070Y-89177198D01*
X177574065Y-89177199D01*
X177376045Y-89237268D01*
X177193547Y-89334816D01*
X177033595Y-89466085D01*
X177033585Y-89466095D01*
X176902316Y-89626047D01*
X176804768Y-89808545D01*
X176744699Y-90006565D01*
X176744698Y-90006570D01*
X176724417Y-90212496D01*
X176724417Y-90212503D01*
X176744698Y-90418429D01*
X176744699Y-90418434D01*
X176790787Y-90570365D01*
X176804768Y-90616454D01*
X176808802Y-90624001D01*
X176819560Y-90684232D01*
X176792860Y-90739285D01*
X176791497Y-90740675D01*
X176381413Y-91150759D01*
X176378229Y-91153676D01*
X176346807Y-91180042D01*
X176346806Y-91180044D01*
X176334706Y-91201002D01*
X176327077Y-91214216D01*
X176326292Y-91215575D01*
X176323972Y-91219216D01*
X176300446Y-91252816D01*
X176300442Y-91252824D01*
X176300051Y-91254286D01*
X176290170Y-91278140D01*
X176289414Y-91279448D01*
X176289410Y-91279460D01*
X176282287Y-91319849D01*
X176281353Y-91324064D01*
X176270736Y-91363687D01*
X176270736Y-91363693D01*
X176274312Y-91404572D01*
X176274500Y-91408873D01*
X176274500Y-92080442D01*
X176255593Y-92138633D01*
X176206093Y-92174597D01*
X176144907Y-92174597D01*
X176098972Y-92143247D01*
X175986414Y-92006095D01*
X175986410Y-92006090D01*
X175952255Y-91978060D01*
X175826452Y-91874816D01*
X175643954Y-91777268D01*
X175445934Y-91717199D01*
X175445929Y-91717198D01*
X175240003Y-91696917D01*
X175239997Y-91696917D01*
X175034070Y-91717198D01*
X175034065Y-91717199D01*
X174836045Y-91777268D01*
X174653547Y-91874816D01*
X174653547Y-91874817D01*
X174552305Y-91957904D01*
X174495328Y-91980204D01*
X174436125Y-91964755D01*
X174397310Y-91917458D01*
X174390500Y-91881376D01*
X174390500Y-91563332D01*
X174409407Y-91505141D01*
X174419490Y-91493334D01*
X174711824Y-91201000D01*
X174766339Y-91173225D01*
X174826771Y-91182796D01*
X174828493Y-91183695D01*
X174836046Y-91187732D01*
X174917515Y-91212445D01*
X175034065Y-91247800D01*
X175034070Y-91247801D01*
X175239997Y-91268083D01*
X175240000Y-91268083D01*
X175240003Y-91268083D01*
X175445929Y-91247801D01*
X175445934Y-91247800D01*
X175643954Y-91187732D01*
X175826450Y-91090185D01*
X175986410Y-90958910D01*
X176117685Y-90798950D01*
X176215232Y-90616454D01*
X176275300Y-90418434D01*
X176275301Y-90418429D01*
X176295583Y-90212503D01*
X176295583Y-90212496D01*
X176275301Y-90006570D01*
X176275300Y-90006565D01*
X176257078Y-89946497D01*
X176215232Y-89808546D01*
X176117685Y-89626050D01*
X176115582Y-89623488D01*
X175986414Y-89466095D01*
X175986410Y-89466090D01*
X175968175Y-89451125D01*
X175826452Y-89334816D01*
X175643954Y-89237268D01*
X175445934Y-89177199D01*
X175445929Y-89177198D01*
X175240003Y-89156917D01*
X175239997Y-89156917D01*
X175034070Y-89177198D01*
X175034065Y-89177199D01*
X174836045Y-89237268D01*
X174653547Y-89334816D01*
X174493595Y-89466085D01*
X174493585Y-89466095D01*
X174362316Y-89626047D01*
X174264768Y-89808545D01*
X174204699Y-90006565D01*
X174204698Y-90006570D01*
X174184417Y-90212496D01*
X174184417Y-90212503D01*
X174204698Y-90418429D01*
X174204699Y-90418434D01*
X174250787Y-90570365D01*
X174264768Y-90616454D01*
X174268802Y-90624001D01*
X174279560Y-90684232D01*
X174252860Y-90739285D01*
X174251497Y-90740675D01*
X173846413Y-91145759D01*
X173843229Y-91148676D01*
X173811807Y-91175042D01*
X173811806Y-91175044D01*
X173791292Y-91210575D01*
X173788972Y-91214216D01*
X173765446Y-91247816D01*
X173765442Y-91247824D01*
X173765051Y-91249286D01*
X173755170Y-91273140D01*
X173754414Y-91274448D01*
X173754410Y-91274460D01*
X173747287Y-91314849D01*
X173746353Y-91319064D01*
X173735736Y-91358687D01*
X173735736Y-91358693D01*
X173739312Y-91399572D01*
X173739500Y-91403873D01*
X173739500Y-92086535D01*
X173720593Y-92144726D01*
X173671093Y-92180690D01*
X173609907Y-92180690D01*
X173563972Y-92149340D01*
X173446414Y-92006095D01*
X173446410Y-92006090D01*
X173412255Y-91978060D01*
X173286452Y-91874816D01*
X173103954Y-91777268D01*
X172905934Y-91717199D01*
X172905929Y-91717198D01*
X172700003Y-91696917D01*
X172699997Y-91696917D01*
X172494070Y-91717198D01*
X172494065Y-91717199D01*
X172296045Y-91777268D01*
X172113547Y-91874816D01*
X171953595Y-92006085D01*
X171953585Y-92006095D01*
X171822316Y-92166047D01*
X171724768Y-92348545D01*
X171664699Y-92546565D01*
X171664698Y-92546570D01*
X171644417Y-92752496D01*
X171644417Y-92752503D01*
X171664698Y-92958429D01*
X171664699Y-92958434D01*
X171724768Y-93156454D01*
X171822316Y-93338952D01*
X171953585Y-93498904D01*
X171953590Y-93498910D01*
X171953595Y-93498914D01*
X172113547Y-93630183D01*
X172113548Y-93630183D01*
X172113550Y-93630185D01*
X172296046Y-93727732D01*
X172419553Y-93765197D01*
X172494065Y-93787800D01*
X172494070Y-93787801D01*
X172699997Y-93808083D01*
X172700000Y-93808083D01*
X172700003Y-93808083D01*
X172905929Y-93787801D01*
X172905934Y-93787800D01*
X172905933Y-93787800D01*
X173103954Y-93727732D01*
X173286450Y-93630185D01*
X173446410Y-93498910D01*
X173563972Y-93355658D01*
X173615503Y-93322672D01*
X173676582Y-93326274D01*
X173723879Y-93365089D01*
X173739500Y-93418464D01*
X173739500Y-95584559D01*
X173720593Y-95642750D01*
X173710504Y-95654563D01*
X169873190Y-99491876D01*
X169818673Y-99519653D01*
X169758241Y-99510082D01*
X169724644Y-99482139D01*
X169718624Y-99474294D01*
X169678282Y-99421718D01*
X169678277Y-99421714D01*
X169678276Y-99421713D01*
X169579579Y-99345981D01*
X169552841Y-99325464D01*
X169552840Y-99325463D01*
X169552838Y-99325462D01*
X169406766Y-99264957D01*
X169406758Y-99264955D01*
X169250001Y-99244318D01*
X169249999Y-99244318D01*
X169093241Y-99264955D01*
X169093233Y-99264957D01*
X168947161Y-99325462D01*
X168947160Y-99325462D01*
X168821715Y-99421719D01*
X168819998Y-99423437D01*
X168818449Y-99424225D01*
X168816570Y-99425668D01*
X168816302Y-99425319D01*
X168765479Y-99451210D01*
X168705048Y-99441634D01*
X168680002Y-99423437D01*
X168678284Y-99421719D01*
X168579579Y-99345981D01*
X168552841Y-99325464D01*
X168552840Y-99325463D01*
X168552838Y-99325462D01*
X168406766Y-99264957D01*
X168406758Y-99264955D01*
X168250001Y-99244318D01*
X168249998Y-99244318D01*
X168192318Y-99251911D01*
X168132157Y-99240760D01*
X168109393Y-99223762D01*
X167792046Y-98906414D01*
X167789127Y-98903229D01*
X167762761Y-98871806D01*
X167740123Y-98858736D01*
X167727223Y-98851288D01*
X167723588Y-98848972D01*
X167689989Y-98825446D01*
X167689984Y-98825443D01*
X167688529Y-98825054D01*
X167664653Y-98815164D01*
X167663350Y-98814411D01*
X167622957Y-98807289D01*
X167618741Y-98806354D01*
X167592458Y-98799312D01*
X167579112Y-98795736D01*
X167579111Y-98795736D01*
X167574686Y-98796123D01*
X167538231Y-98799312D01*
X167533931Y-98799500D01*
X166941374Y-98799500D01*
X166937073Y-98799312D01*
X166896193Y-98795736D01*
X166896187Y-98795736D01*
X166856564Y-98806353D01*
X166852349Y-98807287D01*
X166811960Y-98814410D01*
X166811948Y-98814414D01*
X166810640Y-98815170D01*
X166786786Y-98825051D01*
X166785324Y-98825442D01*
X166785316Y-98825446D01*
X166751716Y-98848972D01*
X166748080Y-98851288D01*
X166739875Y-98856025D01*
X166712545Y-98871805D01*
X166686181Y-98903224D01*
X166683263Y-98906408D01*
X166281412Y-99308259D01*
X166278227Y-99311177D01*
X166246427Y-99337862D01*
X166189697Y-99360783D01*
X166130329Y-99345981D01*
X166122524Y-99340567D01*
X166102841Y-99325464D01*
X166102839Y-99325463D01*
X165965617Y-99268624D01*
X165919092Y-99228887D01*
X165904808Y-99169392D01*
X165928223Y-99112865D01*
X165933486Y-99107169D01*
X166579319Y-98461337D01*
X166581474Y-98459307D01*
X166628183Y-98417929D01*
X166663653Y-98366540D01*
X166665373Y-98364202D01*
X166703878Y-98315056D01*
X166708966Y-98303748D01*
X166717769Y-98288140D01*
X166724818Y-98277930D01*
X166746951Y-98219565D01*
X166748077Y-98216848D01*
X166773695Y-98159931D01*
X166775931Y-98147723D01*
X166780745Y-98130459D01*
X166785140Y-98118872D01*
X166792660Y-98056933D01*
X166793105Y-98054008D01*
X166804358Y-97992606D01*
X166800589Y-97930307D01*
X166800500Y-97927340D01*
X166800500Y-97581163D01*
X166819407Y-97522972D01*
X166829490Y-97511165D01*
X170639312Y-93701344D01*
X170641490Y-93699294D01*
X170669797Y-93674216D01*
X170688766Y-93661017D01*
X170746450Y-93630185D01*
X170906410Y-93498910D01*
X171037685Y-93338950D01*
X171135232Y-93156454D01*
X171195300Y-92958434D01*
X171195301Y-92958429D01*
X171215583Y-92752503D01*
X171215583Y-92752496D01*
X171195301Y-92546570D01*
X171195300Y-92546565D01*
X171177078Y-92486497D01*
X171135232Y-92348546D01*
X171037685Y-92166050D01*
X171035582Y-92163488D01*
X170906414Y-92006095D01*
X170906410Y-92006090D01*
X170906404Y-92006085D01*
X170896690Y-91998112D01*
X170863706Y-91946579D01*
X170860500Y-91921588D01*
X170860500Y-91043410D01*
X170879407Y-90985219D01*
X170896698Y-90966880D01*
X170906410Y-90958910D01*
X171037685Y-90798950D01*
X171135232Y-90616454D01*
X171195300Y-90418434D01*
X171195301Y-90418429D01*
X171215583Y-90212503D01*
X171644417Y-90212503D01*
X171664698Y-90418429D01*
X171664699Y-90418434D01*
X171724768Y-90616454D01*
X171822316Y-90798952D01*
X171953585Y-90958904D01*
X171953590Y-90958910D01*
X171953595Y-90958914D01*
X172113547Y-91090183D01*
X172113548Y-91090183D01*
X172113550Y-91090185D01*
X172296046Y-91187732D01*
X172433996Y-91229578D01*
X172494065Y-91247800D01*
X172494070Y-91247801D01*
X172699997Y-91268083D01*
X172700000Y-91268083D01*
X172700003Y-91268083D01*
X172905929Y-91247801D01*
X172905934Y-91247800D01*
X172905933Y-91247800D01*
X173103954Y-91187732D01*
X173286450Y-91090185D01*
X173446410Y-90958910D01*
X173577685Y-90798950D01*
X173675232Y-90616454D01*
X173735300Y-90418434D01*
X173735301Y-90418429D01*
X173755583Y-90212503D01*
X173755583Y-90212496D01*
X173735301Y-90006570D01*
X173735300Y-90006565D01*
X173717078Y-89946497D01*
X173675232Y-89808546D01*
X173577685Y-89626050D01*
X173575582Y-89623488D01*
X173446414Y-89466095D01*
X173446410Y-89466090D01*
X173428175Y-89451125D01*
X173286452Y-89334816D01*
X173103954Y-89237268D01*
X172905934Y-89177199D01*
X172905929Y-89177198D01*
X172700003Y-89156917D01*
X172699997Y-89156917D01*
X172494070Y-89177198D01*
X172494065Y-89177199D01*
X172296045Y-89237268D01*
X172113547Y-89334816D01*
X171953595Y-89466085D01*
X171953585Y-89466095D01*
X171822316Y-89626047D01*
X171724768Y-89808545D01*
X171664699Y-90006565D01*
X171664698Y-90006570D01*
X171644417Y-90212496D01*
X171644417Y-90212503D01*
X171215583Y-90212503D01*
X171215583Y-90212496D01*
X171195301Y-90006570D01*
X171195300Y-90006565D01*
X171177078Y-89946497D01*
X171135232Y-89808546D01*
X171037685Y-89626050D01*
X171035582Y-89623488D01*
X170906414Y-89466095D01*
X170906410Y-89466090D01*
X170888175Y-89451125D01*
X170746452Y-89334816D01*
X170563954Y-89237268D01*
X170365934Y-89177199D01*
X170365929Y-89177198D01*
X170160003Y-89156917D01*
X170159997Y-89156917D01*
X169954070Y-89177198D01*
X169954065Y-89177199D01*
X169756045Y-89237268D01*
X169573547Y-89334816D01*
X169413595Y-89466085D01*
X169413585Y-89466095D01*
X169282316Y-89626047D01*
X169184768Y-89808545D01*
X169124699Y-90006565D01*
X169124698Y-90006570D01*
X169104417Y-90212496D01*
X169104417Y-90212503D01*
X169124698Y-90418429D01*
X169124699Y-90418434D01*
X169184768Y-90616454D01*
X169282316Y-90798952D01*
X169413585Y-90958904D01*
X169413590Y-90958910D01*
X169413595Y-90958914D01*
X169413596Y-90958915D01*
X169423302Y-90966880D01*
X169456291Y-91018410D01*
X169459500Y-91043410D01*
X169459500Y-91921588D01*
X169440593Y-91979779D01*
X169423310Y-91998112D01*
X169413595Y-92006085D01*
X169413585Y-92006095D01*
X169282316Y-92166047D01*
X169184768Y-92348545D01*
X169124699Y-92546565D01*
X169124698Y-92546570D01*
X169104417Y-92752496D01*
X169104417Y-92752503D01*
X169124698Y-92958429D01*
X169124699Y-92958434D01*
X169171760Y-93113572D01*
X169170559Y-93174746D01*
X169147027Y-93212314D01*
X165620686Y-96738655D01*
X165618509Y-96740704D01*
X165571816Y-96782071D01*
X165553066Y-96809235D01*
X165536360Y-96833436D01*
X165534611Y-96835813D01*
X165507296Y-96870679D01*
X165496121Y-96884944D01*
X165496120Y-96884944D01*
X165491028Y-96896259D01*
X165482230Y-96911858D01*
X165475181Y-96922070D01*
X165475180Y-96922071D01*
X165453063Y-96980390D01*
X165451919Y-96983152D01*
X165426305Y-97040066D01*
X165426302Y-97040074D01*
X165424065Y-97052282D01*
X165419258Y-97069527D01*
X165414860Y-97081125D01*
X165407341Y-97143045D01*
X165406891Y-97145999D01*
X165395641Y-97207395D01*
X165397858Y-97244026D01*
X165399410Y-97269692D01*
X165399500Y-97272658D01*
X165399500Y-97618834D01*
X165380593Y-97677025D01*
X165370504Y-97688838D01*
X164088839Y-98970504D01*
X164034322Y-98998281D01*
X164018835Y-98999500D01*
X151649500Y-98999500D01*
X151591309Y-98980593D01*
X151555345Y-98931093D01*
X151550500Y-98900500D01*
X151550500Y-96422658D01*
X151550589Y-96419692D01*
X151554358Y-96357394D01*
X151543104Y-96295985D01*
X151542660Y-96293070D01*
X151535140Y-96231128D01*
X151530741Y-96219529D01*
X151525931Y-96202274D01*
X151523695Y-96190069D01*
X151498075Y-96133145D01*
X151496947Y-96130421D01*
X151474818Y-96072070D01*
X151467768Y-96061856D01*
X151458965Y-96046247D01*
X151458606Y-96045449D01*
X151453878Y-96034944D01*
X151453876Y-96034942D01*
X151453876Y-96034940D01*
X151415402Y-95985832D01*
X151413644Y-95983445D01*
X151378183Y-95932071D01*
X151378179Y-95932067D01*
X151378177Y-95932065D01*
X151331489Y-95890704D01*
X151329312Y-95888654D01*
X150569496Y-95128838D01*
X150541719Y-95074321D01*
X150540500Y-95058834D01*
X150540500Y-93583410D01*
X150559407Y-93525219D01*
X150576698Y-93506880D01*
X150586410Y-93498910D01*
X150717685Y-93338950D01*
X150815232Y-93156454D01*
X150875300Y-92958434D01*
X150875301Y-92958429D01*
X150895583Y-92752503D01*
X151324417Y-92752503D01*
X151344698Y-92958429D01*
X151344699Y-92958434D01*
X151404768Y-93156454D01*
X151502316Y-93338952D01*
X151633585Y-93498904D01*
X151633590Y-93498910D01*
X151633595Y-93498914D01*
X151793547Y-93630183D01*
X151793548Y-93630183D01*
X151793550Y-93630185D01*
X151976046Y-93727732D01*
X152099553Y-93765197D01*
X152174065Y-93787800D01*
X152174070Y-93787801D01*
X152379997Y-93808083D01*
X152380000Y-93808083D01*
X152380003Y-93808083D01*
X152585929Y-93787801D01*
X152585934Y-93787800D01*
X152585933Y-93787800D01*
X152783954Y-93727732D01*
X152966450Y-93630185D01*
X153126410Y-93498910D01*
X153257685Y-93338950D01*
X153355232Y-93156454D01*
X153415300Y-92958434D01*
X153415301Y-92958429D01*
X153435583Y-92752503D01*
X153864417Y-92752503D01*
X153884698Y-92958429D01*
X153884699Y-92958434D01*
X153944768Y-93156454D01*
X154042316Y-93338952D01*
X154173585Y-93498904D01*
X154173590Y-93498910D01*
X154173595Y-93498914D01*
X154333547Y-93630183D01*
X154333548Y-93630183D01*
X154333550Y-93630185D01*
X154516046Y-93727732D01*
X154639553Y-93765197D01*
X154714065Y-93787800D01*
X154714070Y-93787801D01*
X154919997Y-93808083D01*
X154920000Y-93808083D01*
X154920003Y-93808083D01*
X155125929Y-93787801D01*
X155125934Y-93787800D01*
X155125934Y-93787799D01*
X155323954Y-93727732D01*
X155506450Y-93630185D01*
X155666410Y-93498910D01*
X155797685Y-93338950D01*
X155895232Y-93156454D01*
X155955300Y-92958434D01*
X155955301Y-92958429D01*
X155975583Y-92752503D01*
X156404417Y-92752503D01*
X156424698Y-92958429D01*
X156424699Y-92958434D01*
X156484768Y-93156454D01*
X156582316Y-93338952D01*
X156713585Y-93498904D01*
X156713590Y-93498910D01*
X156713595Y-93498914D01*
X156873547Y-93630183D01*
X156873548Y-93630183D01*
X156873550Y-93630185D01*
X157056046Y-93727732D01*
X157179553Y-93765197D01*
X157254065Y-93787800D01*
X157254070Y-93787801D01*
X157459997Y-93808083D01*
X157460000Y-93808083D01*
X157460003Y-93808083D01*
X157665929Y-93787801D01*
X157665934Y-93787800D01*
X157863954Y-93727732D01*
X158046450Y-93630185D01*
X158206410Y-93498910D01*
X158337685Y-93338950D01*
X158435232Y-93156454D01*
X158495300Y-92958434D01*
X158495301Y-92958429D01*
X158515583Y-92752503D01*
X158944417Y-92752503D01*
X158964698Y-92958429D01*
X158964699Y-92958434D01*
X159024768Y-93156454D01*
X159122316Y-93338952D01*
X159253585Y-93498904D01*
X159253590Y-93498910D01*
X159253595Y-93498914D01*
X159413547Y-93630183D01*
X159413548Y-93630183D01*
X159413550Y-93630185D01*
X159596046Y-93727732D01*
X159719553Y-93765197D01*
X159794065Y-93787800D01*
X159794070Y-93787801D01*
X159999997Y-93808083D01*
X160000000Y-93808083D01*
X160000003Y-93808083D01*
X160205929Y-93787801D01*
X160205934Y-93787800D01*
X160205934Y-93787799D01*
X160403954Y-93727732D01*
X160586450Y-93630185D01*
X160746410Y-93498910D01*
X160877685Y-93338950D01*
X160975232Y-93156454D01*
X161035300Y-92958434D01*
X161035301Y-92958429D01*
X161055583Y-92752503D01*
X161484417Y-92752503D01*
X161504698Y-92958429D01*
X161504699Y-92958434D01*
X161564768Y-93156454D01*
X161662316Y-93338952D01*
X161793585Y-93498904D01*
X161793590Y-93498910D01*
X161793595Y-93498914D01*
X161953547Y-93630183D01*
X161953548Y-93630183D01*
X161953550Y-93630185D01*
X162136046Y-93727732D01*
X162259553Y-93765197D01*
X162334065Y-93787800D01*
X162334070Y-93787801D01*
X162539997Y-93808083D01*
X162540000Y-93808083D01*
X162540003Y-93808083D01*
X162745929Y-93787801D01*
X162745934Y-93787800D01*
X162943954Y-93727732D01*
X163126450Y-93630185D01*
X163286410Y-93498910D01*
X163417685Y-93338950D01*
X163515232Y-93156454D01*
X163575300Y-92958434D01*
X163575301Y-92958429D01*
X163595583Y-92752503D01*
X164024417Y-92752503D01*
X164044698Y-92958429D01*
X164044699Y-92958434D01*
X164104768Y-93156454D01*
X164202316Y-93338952D01*
X164333585Y-93498904D01*
X164333590Y-93498910D01*
X164333595Y-93498914D01*
X164493547Y-93630183D01*
X164493548Y-93630183D01*
X164493550Y-93630185D01*
X164676046Y-93727732D01*
X164799553Y-93765197D01*
X164874065Y-93787800D01*
X164874070Y-93787801D01*
X165079997Y-93808083D01*
X165080000Y-93808083D01*
X165080003Y-93808083D01*
X165285929Y-93787801D01*
X165285934Y-93787800D01*
X165285933Y-93787799D01*
X165483954Y-93727732D01*
X165666450Y-93630185D01*
X165826410Y-93498910D01*
X165957685Y-93338950D01*
X166055232Y-93156454D01*
X166115300Y-92958434D01*
X166115301Y-92958429D01*
X166135583Y-92752503D01*
X166564417Y-92752503D01*
X166584698Y-92958429D01*
X166584699Y-92958434D01*
X166644768Y-93156454D01*
X166742316Y-93338952D01*
X166873585Y-93498904D01*
X166873590Y-93498910D01*
X166873595Y-93498914D01*
X167033547Y-93630183D01*
X167033548Y-93630183D01*
X167033550Y-93630185D01*
X167216046Y-93727732D01*
X167339553Y-93765197D01*
X167414065Y-93787800D01*
X167414070Y-93787801D01*
X167619997Y-93808083D01*
X167620000Y-93808083D01*
X167620003Y-93808083D01*
X167825929Y-93787801D01*
X167825934Y-93787800D01*
X168023954Y-93727732D01*
X168206450Y-93630185D01*
X168366410Y-93498910D01*
X168497685Y-93338950D01*
X168595232Y-93156454D01*
X168655300Y-92958434D01*
X168655301Y-92958429D01*
X168675583Y-92752503D01*
X168675583Y-92752496D01*
X168655301Y-92546570D01*
X168655300Y-92546565D01*
X168637078Y-92486497D01*
X168595232Y-92348546D01*
X168497685Y-92166050D01*
X168495582Y-92163488D01*
X168366414Y-92006095D01*
X168366410Y-92006090D01*
X168332255Y-91978060D01*
X168206452Y-91874816D01*
X168023954Y-91777268D01*
X167825934Y-91717199D01*
X167825929Y-91717198D01*
X167620003Y-91696917D01*
X167619997Y-91696917D01*
X167414070Y-91717198D01*
X167414065Y-91717199D01*
X167216045Y-91777268D01*
X167033547Y-91874816D01*
X166873595Y-92006085D01*
X166873585Y-92006095D01*
X166742316Y-92166047D01*
X166644768Y-92348545D01*
X166584699Y-92546565D01*
X166584698Y-92546570D01*
X166564417Y-92752496D01*
X166564417Y-92752503D01*
X166135583Y-92752503D01*
X166135583Y-92752496D01*
X166115301Y-92546570D01*
X166115300Y-92546565D01*
X166097078Y-92486497D01*
X166055232Y-92348546D01*
X165957685Y-92166050D01*
X165955582Y-92163488D01*
X165826414Y-92006095D01*
X165826410Y-92006090D01*
X165792255Y-91978060D01*
X165666452Y-91874816D01*
X165483954Y-91777268D01*
X165285934Y-91717199D01*
X165285929Y-91717198D01*
X165080003Y-91696917D01*
X165079997Y-91696917D01*
X164874070Y-91717198D01*
X164874065Y-91717199D01*
X164676045Y-91777268D01*
X164493547Y-91874816D01*
X164333595Y-92006085D01*
X164333585Y-92006095D01*
X164202316Y-92166047D01*
X164104768Y-92348545D01*
X164044699Y-92546565D01*
X164044698Y-92546570D01*
X164024417Y-92752496D01*
X164024417Y-92752503D01*
X163595583Y-92752503D01*
X163595583Y-92752496D01*
X163575301Y-92546570D01*
X163575300Y-92546565D01*
X163557078Y-92486497D01*
X163515232Y-92348546D01*
X163417685Y-92166050D01*
X163415582Y-92163488D01*
X163286414Y-92006095D01*
X163286410Y-92006090D01*
X163252255Y-91978060D01*
X163126452Y-91874816D01*
X162943954Y-91777268D01*
X162745934Y-91717199D01*
X162745929Y-91717198D01*
X162540003Y-91696917D01*
X162539997Y-91696917D01*
X162334070Y-91717198D01*
X162334065Y-91717199D01*
X162136045Y-91777268D01*
X161953547Y-91874816D01*
X161793595Y-92006085D01*
X161793585Y-92006095D01*
X161662316Y-92166047D01*
X161564768Y-92348545D01*
X161504699Y-92546565D01*
X161504698Y-92546570D01*
X161484417Y-92752496D01*
X161484417Y-92752503D01*
X161055583Y-92752503D01*
X161055583Y-92752496D01*
X161035301Y-92546570D01*
X161035300Y-92546565D01*
X161017078Y-92486497D01*
X160975232Y-92348546D01*
X160877685Y-92166050D01*
X160875582Y-92163488D01*
X160746414Y-92006095D01*
X160746410Y-92006090D01*
X160712255Y-91978060D01*
X160586452Y-91874816D01*
X160403954Y-91777268D01*
X160205934Y-91717199D01*
X160205929Y-91717198D01*
X160000003Y-91696917D01*
X159999997Y-91696917D01*
X159794070Y-91717198D01*
X159794065Y-91717199D01*
X159596045Y-91777268D01*
X159413547Y-91874816D01*
X159253595Y-92006085D01*
X159253585Y-92006095D01*
X159122316Y-92166047D01*
X159024768Y-92348545D01*
X158964699Y-92546565D01*
X158964698Y-92546570D01*
X158944417Y-92752496D01*
X158944417Y-92752503D01*
X158515583Y-92752503D01*
X158515583Y-92752496D01*
X158495301Y-92546570D01*
X158495300Y-92546565D01*
X158477078Y-92486497D01*
X158435232Y-92348546D01*
X158337685Y-92166050D01*
X158335582Y-92163488D01*
X158206414Y-92006095D01*
X158206410Y-92006090D01*
X158172255Y-91978060D01*
X158046452Y-91874816D01*
X157863954Y-91777268D01*
X157665934Y-91717199D01*
X157665929Y-91717198D01*
X157460003Y-91696917D01*
X157459997Y-91696917D01*
X157254070Y-91717198D01*
X157254065Y-91717199D01*
X157056045Y-91777268D01*
X156873547Y-91874816D01*
X156713595Y-92006085D01*
X156713585Y-92006095D01*
X156582316Y-92166047D01*
X156484768Y-92348545D01*
X156424699Y-92546565D01*
X156424698Y-92546570D01*
X156404417Y-92752496D01*
X156404417Y-92752503D01*
X155975583Y-92752503D01*
X155975583Y-92752496D01*
X155955301Y-92546570D01*
X155955300Y-92546565D01*
X155937078Y-92486497D01*
X155895232Y-92348546D01*
X155797685Y-92166050D01*
X155795582Y-92163488D01*
X155666414Y-92006095D01*
X155666410Y-92006090D01*
X155632255Y-91978060D01*
X155506452Y-91874816D01*
X155323954Y-91777268D01*
X155125934Y-91717199D01*
X155125929Y-91717198D01*
X154920003Y-91696917D01*
X154919997Y-91696917D01*
X154714070Y-91717198D01*
X154714065Y-91717199D01*
X154516045Y-91777268D01*
X154333547Y-91874816D01*
X154173595Y-92006085D01*
X154173585Y-92006095D01*
X154042316Y-92166047D01*
X153944768Y-92348545D01*
X153884699Y-92546565D01*
X153884698Y-92546570D01*
X153864417Y-92752496D01*
X153864417Y-92752503D01*
X153435583Y-92752503D01*
X153435583Y-92752496D01*
X153415301Y-92546570D01*
X153415300Y-92546565D01*
X153397078Y-92486497D01*
X153355232Y-92348546D01*
X153257685Y-92166050D01*
X153255582Y-92163488D01*
X153126414Y-92006095D01*
X153126410Y-92006090D01*
X153092255Y-91978060D01*
X152966452Y-91874816D01*
X152783954Y-91777268D01*
X152585934Y-91717199D01*
X152585929Y-91717198D01*
X152380003Y-91696917D01*
X152379997Y-91696917D01*
X152174070Y-91717198D01*
X152174065Y-91717199D01*
X151976045Y-91777268D01*
X151793547Y-91874816D01*
X151633595Y-92006085D01*
X151633585Y-92006095D01*
X151502316Y-92166047D01*
X151404768Y-92348545D01*
X151344699Y-92546565D01*
X151344698Y-92546570D01*
X151324417Y-92752496D01*
X151324417Y-92752503D01*
X150895583Y-92752503D01*
X150895583Y-92752496D01*
X150875301Y-92546570D01*
X150875300Y-92546565D01*
X150857078Y-92486497D01*
X150815232Y-92348546D01*
X150717685Y-92166050D01*
X150715582Y-92163488D01*
X150586414Y-92006095D01*
X150586410Y-92006090D01*
X150586404Y-92006085D01*
X150576690Y-91998112D01*
X150543706Y-91946579D01*
X150540500Y-91921588D01*
X150540500Y-91043410D01*
X150559407Y-90985219D01*
X150576698Y-90966880D01*
X150586410Y-90958910D01*
X150717685Y-90798950D01*
X150815232Y-90616454D01*
X150875300Y-90418434D01*
X150875301Y-90418429D01*
X150895583Y-90212503D01*
X151324417Y-90212503D01*
X151344698Y-90418429D01*
X151344699Y-90418434D01*
X151404768Y-90616454D01*
X151502316Y-90798952D01*
X151633585Y-90958904D01*
X151633590Y-90958910D01*
X151633595Y-90958914D01*
X151793547Y-91090183D01*
X151793548Y-91090183D01*
X151793550Y-91090185D01*
X151976046Y-91187732D01*
X152113996Y-91229578D01*
X152174065Y-91247800D01*
X152174070Y-91247801D01*
X152379997Y-91268083D01*
X152380000Y-91268083D01*
X152380003Y-91268083D01*
X152585929Y-91247801D01*
X152585934Y-91247800D01*
X152585933Y-91247800D01*
X152783954Y-91187732D01*
X152966450Y-91090185D01*
X153126410Y-90958910D01*
X153257685Y-90798950D01*
X153355232Y-90616454D01*
X153415300Y-90418434D01*
X153415301Y-90418429D01*
X153435583Y-90212503D01*
X153864417Y-90212503D01*
X153884698Y-90418429D01*
X153884699Y-90418434D01*
X153944768Y-90616454D01*
X154042316Y-90798952D01*
X154173585Y-90958904D01*
X154173590Y-90958910D01*
X154173595Y-90958914D01*
X154333547Y-91090183D01*
X154333548Y-91090183D01*
X154333550Y-91090185D01*
X154516046Y-91187732D01*
X154653996Y-91229578D01*
X154714065Y-91247800D01*
X154714070Y-91247801D01*
X154919997Y-91268083D01*
X154920000Y-91268083D01*
X154920003Y-91268083D01*
X155125929Y-91247801D01*
X155125934Y-91247800D01*
X155323954Y-91187732D01*
X155506450Y-91090185D01*
X155666410Y-90958910D01*
X155797685Y-90798950D01*
X155895232Y-90616454D01*
X155955300Y-90418434D01*
X155955301Y-90418429D01*
X155975583Y-90212503D01*
X156404417Y-90212503D01*
X156424698Y-90418429D01*
X156424699Y-90418434D01*
X156484768Y-90616454D01*
X156582316Y-90798952D01*
X156713585Y-90958904D01*
X156713590Y-90958910D01*
X156713595Y-90958914D01*
X156873547Y-91090183D01*
X156873548Y-91090183D01*
X156873550Y-91090185D01*
X157056046Y-91187732D01*
X157193996Y-91229578D01*
X157254065Y-91247800D01*
X157254070Y-91247801D01*
X157459997Y-91268083D01*
X157460000Y-91268083D01*
X157460003Y-91268083D01*
X157665929Y-91247801D01*
X157665934Y-91247800D01*
X157863954Y-91187732D01*
X158046450Y-91090185D01*
X158206410Y-90958910D01*
X158337685Y-90798950D01*
X158435232Y-90616454D01*
X158495300Y-90418434D01*
X158495301Y-90418429D01*
X158515583Y-90212503D01*
X158944417Y-90212503D01*
X158964698Y-90418429D01*
X158964699Y-90418434D01*
X159024768Y-90616454D01*
X159122316Y-90798952D01*
X159253585Y-90958904D01*
X159253590Y-90958910D01*
X159253595Y-90958914D01*
X159413547Y-91090183D01*
X159413548Y-91090183D01*
X159413550Y-91090185D01*
X159596046Y-91187732D01*
X159733996Y-91229578D01*
X159794065Y-91247800D01*
X159794070Y-91247801D01*
X159999997Y-91268083D01*
X160000000Y-91268083D01*
X160000003Y-91268083D01*
X160205929Y-91247801D01*
X160205934Y-91247800D01*
X160403954Y-91187732D01*
X160586450Y-91090185D01*
X160746410Y-90958910D01*
X160877685Y-90798950D01*
X160975232Y-90616454D01*
X161035300Y-90418434D01*
X161035301Y-90418429D01*
X161055583Y-90212503D01*
X161484417Y-90212503D01*
X161504698Y-90418429D01*
X161504699Y-90418434D01*
X161564768Y-90616454D01*
X161662316Y-90798952D01*
X161793585Y-90958904D01*
X161793590Y-90958910D01*
X161793595Y-90958914D01*
X161953547Y-91090183D01*
X161953548Y-91090183D01*
X161953550Y-91090185D01*
X162136046Y-91187732D01*
X162273996Y-91229578D01*
X162334065Y-91247800D01*
X162334070Y-91247801D01*
X162539997Y-91268083D01*
X162540000Y-91268083D01*
X162540003Y-91268083D01*
X162745929Y-91247801D01*
X162745934Y-91247800D01*
X162745933Y-91247800D01*
X162943954Y-91187732D01*
X163126450Y-91090185D01*
X163286410Y-90958910D01*
X163417685Y-90798950D01*
X163515232Y-90616454D01*
X163575300Y-90418434D01*
X163575301Y-90418429D01*
X163595583Y-90212503D01*
X164024417Y-90212503D01*
X164044698Y-90418429D01*
X164044699Y-90418434D01*
X164104768Y-90616454D01*
X164202316Y-90798952D01*
X164333585Y-90958904D01*
X164333590Y-90958910D01*
X164333595Y-90958914D01*
X164493547Y-91090183D01*
X164493548Y-91090183D01*
X164493550Y-91090185D01*
X164676046Y-91187732D01*
X164813996Y-91229578D01*
X164874065Y-91247800D01*
X164874070Y-91247801D01*
X165079997Y-91268083D01*
X165080000Y-91268083D01*
X165080003Y-91268083D01*
X165285929Y-91247801D01*
X165285934Y-91247800D01*
X165483954Y-91187732D01*
X165666450Y-91090185D01*
X165826410Y-90958910D01*
X165957685Y-90798950D01*
X166055232Y-90616454D01*
X166115300Y-90418434D01*
X166115301Y-90418429D01*
X166135583Y-90212503D01*
X166564417Y-90212503D01*
X166584698Y-90418429D01*
X166584699Y-90418434D01*
X166644768Y-90616454D01*
X166742316Y-90798952D01*
X166873585Y-90958904D01*
X166873590Y-90958910D01*
X166873595Y-90958914D01*
X167033547Y-91090183D01*
X167033548Y-91090183D01*
X167033550Y-91090185D01*
X167216046Y-91187732D01*
X167353996Y-91229578D01*
X167414065Y-91247800D01*
X167414070Y-91247801D01*
X167619997Y-91268083D01*
X167620000Y-91268083D01*
X167620003Y-91268083D01*
X167825929Y-91247801D01*
X167825934Y-91247800D01*
X167825933Y-91247800D01*
X168023954Y-91187732D01*
X168206450Y-91090185D01*
X168366410Y-90958910D01*
X168497685Y-90798950D01*
X168595232Y-90616454D01*
X168655300Y-90418434D01*
X168655301Y-90418429D01*
X168675583Y-90212503D01*
X168675583Y-90212496D01*
X168655301Y-90006570D01*
X168655300Y-90006565D01*
X168637078Y-89946497D01*
X168595232Y-89808546D01*
X168497685Y-89626050D01*
X168495582Y-89623488D01*
X168366414Y-89466095D01*
X168366410Y-89466090D01*
X168348175Y-89451125D01*
X168206452Y-89334816D01*
X168023954Y-89237268D01*
X167825934Y-89177199D01*
X167825929Y-89177198D01*
X167620003Y-89156917D01*
X167619997Y-89156917D01*
X167414070Y-89177198D01*
X167414065Y-89177199D01*
X167216045Y-89237268D01*
X167033547Y-89334816D01*
X166873595Y-89466085D01*
X166873585Y-89466095D01*
X166742316Y-89626047D01*
X166644768Y-89808545D01*
X166584699Y-90006565D01*
X166584698Y-90006570D01*
X166564417Y-90212496D01*
X166564417Y-90212503D01*
X166135583Y-90212503D01*
X166135583Y-90212496D01*
X166115301Y-90006570D01*
X166115300Y-90006565D01*
X166097078Y-89946497D01*
X166055232Y-89808546D01*
X165957685Y-89626050D01*
X165955582Y-89623488D01*
X165826414Y-89466095D01*
X165826410Y-89466090D01*
X165808175Y-89451125D01*
X165666452Y-89334816D01*
X165483954Y-89237268D01*
X165285934Y-89177199D01*
X165285929Y-89177198D01*
X165080003Y-89156917D01*
X165079997Y-89156917D01*
X164874070Y-89177198D01*
X164874065Y-89177199D01*
X164676045Y-89237268D01*
X164493547Y-89334816D01*
X164333595Y-89466085D01*
X164333585Y-89466095D01*
X164202316Y-89626047D01*
X164104768Y-89808545D01*
X164044699Y-90006565D01*
X164044698Y-90006570D01*
X164024417Y-90212496D01*
X164024417Y-90212503D01*
X163595583Y-90212503D01*
X163595583Y-90212496D01*
X163575301Y-90006570D01*
X163575300Y-90006565D01*
X163557078Y-89946497D01*
X163515232Y-89808546D01*
X163417685Y-89626050D01*
X163415582Y-89623488D01*
X163286414Y-89466095D01*
X163286410Y-89466090D01*
X163268175Y-89451125D01*
X163126452Y-89334816D01*
X162943954Y-89237268D01*
X162745934Y-89177199D01*
X162745929Y-89177198D01*
X162540003Y-89156917D01*
X162539997Y-89156917D01*
X162334070Y-89177198D01*
X162334065Y-89177199D01*
X162136045Y-89237268D01*
X161953547Y-89334816D01*
X161793595Y-89466085D01*
X161793585Y-89466095D01*
X161662316Y-89626047D01*
X161564768Y-89808545D01*
X161504699Y-90006565D01*
X161504698Y-90006570D01*
X161484417Y-90212496D01*
X161484417Y-90212503D01*
X161055583Y-90212503D01*
X161055583Y-90212496D01*
X161035301Y-90006570D01*
X161035300Y-90006565D01*
X161017078Y-89946497D01*
X160975232Y-89808546D01*
X160877685Y-89626050D01*
X160875582Y-89623488D01*
X160746414Y-89466095D01*
X160746410Y-89466090D01*
X160728175Y-89451125D01*
X160586452Y-89334816D01*
X160403954Y-89237268D01*
X160205934Y-89177199D01*
X160205929Y-89177198D01*
X160000003Y-89156917D01*
X159999997Y-89156917D01*
X159794070Y-89177198D01*
X159794065Y-89177199D01*
X159596045Y-89237268D01*
X159413547Y-89334816D01*
X159253595Y-89466085D01*
X159253585Y-89466095D01*
X159122316Y-89626047D01*
X159024768Y-89808545D01*
X158964699Y-90006565D01*
X158964698Y-90006570D01*
X158944417Y-90212496D01*
X158944417Y-90212503D01*
X158515583Y-90212503D01*
X158515583Y-90212496D01*
X158495301Y-90006570D01*
X158495300Y-90006565D01*
X158477078Y-89946497D01*
X158435232Y-89808546D01*
X158337685Y-89626050D01*
X158335582Y-89623488D01*
X158206414Y-89466095D01*
X158206410Y-89466090D01*
X158188175Y-89451125D01*
X158046452Y-89334816D01*
X157863954Y-89237268D01*
X157665934Y-89177199D01*
X157665929Y-89177198D01*
X157460003Y-89156917D01*
X157459997Y-89156917D01*
X157254070Y-89177198D01*
X157254065Y-89177199D01*
X157056045Y-89237268D01*
X156873547Y-89334816D01*
X156713595Y-89466085D01*
X156713585Y-89466095D01*
X156582316Y-89626047D01*
X156484768Y-89808545D01*
X156424699Y-90006565D01*
X156424698Y-90006570D01*
X156404417Y-90212496D01*
X156404417Y-90212503D01*
X155975583Y-90212503D01*
X155975583Y-90212496D01*
X155955301Y-90006570D01*
X155955300Y-90006565D01*
X155937078Y-89946497D01*
X155895232Y-89808546D01*
X155797685Y-89626050D01*
X155795582Y-89623488D01*
X155666414Y-89466095D01*
X155666410Y-89466090D01*
X155648175Y-89451125D01*
X155506452Y-89334816D01*
X155323954Y-89237268D01*
X155125934Y-89177199D01*
X155125929Y-89177198D01*
X154920003Y-89156917D01*
X154919997Y-89156917D01*
X154714070Y-89177198D01*
X154714065Y-89177199D01*
X154516045Y-89237268D01*
X154333547Y-89334816D01*
X154173595Y-89466085D01*
X154173585Y-89466095D01*
X154042316Y-89626047D01*
X153944768Y-89808545D01*
X153884699Y-90006565D01*
X153884698Y-90006570D01*
X153864417Y-90212496D01*
X153864417Y-90212503D01*
X153435583Y-90212503D01*
X153435583Y-90212496D01*
X153415301Y-90006570D01*
X153415300Y-90006565D01*
X153397078Y-89946497D01*
X153355232Y-89808546D01*
X153257685Y-89626050D01*
X153255582Y-89623488D01*
X153126414Y-89466095D01*
X153126410Y-89466090D01*
X153108175Y-89451125D01*
X152966452Y-89334816D01*
X152783954Y-89237268D01*
X152585934Y-89177199D01*
X152585929Y-89177198D01*
X152380003Y-89156917D01*
X152379997Y-89156917D01*
X152174070Y-89177198D01*
X152174065Y-89177199D01*
X151976045Y-89237268D01*
X151793547Y-89334816D01*
X151633595Y-89466085D01*
X151633585Y-89466095D01*
X151502316Y-89626047D01*
X151404768Y-89808545D01*
X151344699Y-90006565D01*
X151344698Y-90006570D01*
X151324417Y-90212496D01*
X151324417Y-90212503D01*
X150895583Y-90212503D01*
X150895583Y-90212496D01*
X150875301Y-90006570D01*
X150875300Y-90006565D01*
X150857078Y-89946497D01*
X150815232Y-89808546D01*
X150717685Y-89626050D01*
X150715582Y-89623488D01*
X150586414Y-89466095D01*
X150586410Y-89466090D01*
X150568175Y-89451125D01*
X150426452Y-89334816D01*
X150243954Y-89237268D01*
X150045934Y-89177199D01*
X150045929Y-89177198D01*
X149840003Y-89156917D01*
X149839997Y-89156917D01*
X149634070Y-89177198D01*
X149634065Y-89177199D01*
X149436045Y-89237268D01*
X149253547Y-89334816D01*
X149093595Y-89466085D01*
X149093585Y-89466095D01*
X148962316Y-89626047D01*
X148864768Y-89808545D01*
X148804699Y-90006565D01*
X148804698Y-90006570D01*
X148784417Y-90212496D01*
X148784417Y-90212503D01*
X148804698Y-90418429D01*
X148804699Y-90418434D01*
X148864768Y-90616454D01*
X148962316Y-90798952D01*
X149093585Y-90958904D01*
X149093590Y-90958910D01*
X149093595Y-90958914D01*
X149093596Y-90958915D01*
X149103302Y-90966880D01*
X149136291Y-91018410D01*
X149139500Y-91043410D01*
X149139500Y-91921588D01*
X149120593Y-91979779D01*
X149103310Y-91998112D01*
X149093595Y-92006085D01*
X149093585Y-92006095D01*
X148962316Y-92166047D01*
X148864768Y-92348545D01*
X148804699Y-92546565D01*
X148804698Y-92546570D01*
X148784417Y-92752496D01*
X148784417Y-92752503D01*
X148355583Y-92752503D01*
X148355583Y-92752496D01*
X148335301Y-92546570D01*
X148335300Y-92546565D01*
X148317078Y-92486497D01*
X148275232Y-92348546D01*
X148177685Y-92166050D01*
X148175582Y-92163488D01*
X148046414Y-92006095D01*
X148046410Y-92006090D01*
X148012255Y-91978060D01*
X147886452Y-91874816D01*
X147703954Y-91777268D01*
X147505934Y-91717199D01*
X147505929Y-91717198D01*
X147300003Y-91696917D01*
X147299997Y-91696917D01*
X147094070Y-91717198D01*
X147094065Y-91717199D01*
X146896045Y-91777268D01*
X146713547Y-91874816D01*
X146553595Y-92006085D01*
X146553585Y-92006095D01*
X146422316Y-92166047D01*
X146324768Y-92348545D01*
X146264699Y-92546565D01*
X146264698Y-92546570D01*
X146244417Y-92752496D01*
X146244417Y-92752503D01*
X145815583Y-92752503D01*
X145815583Y-92752496D01*
X145795301Y-92546570D01*
X145795300Y-92546565D01*
X145777078Y-92486497D01*
X145735232Y-92348546D01*
X145637685Y-92166050D01*
X145635582Y-92163488D01*
X145506414Y-92006095D01*
X145506410Y-92006090D01*
X145472255Y-91978060D01*
X145346452Y-91874816D01*
X145163954Y-91777268D01*
X144965934Y-91717199D01*
X144965929Y-91717198D01*
X144760003Y-91696917D01*
X144759997Y-91696917D01*
X144554070Y-91717198D01*
X144554065Y-91717199D01*
X144356045Y-91777268D01*
X144173547Y-91874816D01*
X144013595Y-92006085D01*
X144013585Y-92006095D01*
X143882316Y-92166047D01*
X143784769Y-92348544D01*
X143739180Y-92498829D01*
X143704195Y-92549025D01*
X143646386Y-92569071D01*
X143587836Y-92551310D01*
X143550907Y-92502525D01*
X143548816Y-92495713D01*
X143493429Y-92289004D01*
X143393605Y-92074932D01*
X143393602Y-92074926D01*
X143334925Y-91991125D01*
X142807011Y-92519039D01*
X142752495Y-92546816D01*
X142692063Y-92537245D01*
X142653724Y-92502558D01*
X142601762Y-92421703D01*
X142517332Y-92348545D01*
X142493100Y-92327548D01*
X142493098Y-92327547D01*
X142493097Y-92327546D01*
X142484332Y-92323543D01*
X142439255Y-92282169D01*
X142427107Y-92222202D01*
X142452526Y-92166547D01*
X142455457Y-92163487D01*
X142981372Y-91637572D01*
X142897576Y-91578898D01*
X142897574Y-91578897D01*
X142883265Y-91572225D01*
X142838516Y-91530497D01*
X142826841Y-91470436D01*
X142852698Y-91414983D01*
X142883265Y-91392775D01*
X142897575Y-91386102D01*
X142981372Y-91327425D01*
X142455458Y-90801511D01*
X142427681Y-90746994D01*
X142437252Y-90686562D01*
X142480517Y-90643297D01*
X142484279Y-90641480D01*
X142493100Y-90637452D01*
X142601761Y-90543298D01*
X142653725Y-90462438D01*
X142701089Y-90423709D01*
X142762174Y-90420215D01*
X142807012Y-90445959D01*
X143334925Y-90973872D01*
X143393600Y-90890077D01*
X143493430Y-90675990D01*
X143548816Y-90469286D01*
X143582140Y-90417972D01*
X143639261Y-90396045D01*
X143698362Y-90411880D01*
X143736867Y-90459430D01*
X143739180Y-90466171D01*
X143784768Y-90616454D01*
X143882316Y-90798952D01*
X144013585Y-90958904D01*
X144013590Y-90958910D01*
X144013595Y-90958914D01*
X144173547Y-91090183D01*
X144173548Y-91090183D01*
X144173550Y-91090185D01*
X144356046Y-91187732D01*
X144493996Y-91229578D01*
X144554065Y-91247800D01*
X144554070Y-91247801D01*
X144759997Y-91268083D01*
X144760000Y-91268083D01*
X144760003Y-91268083D01*
X144965929Y-91247801D01*
X144965934Y-91247800D01*
X145163954Y-91187732D01*
X145346450Y-91090185D01*
X145506410Y-90958910D01*
X145637685Y-90798950D01*
X145735232Y-90616454D01*
X145795300Y-90418434D01*
X145795301Y-90418429D01*
X145815583Y-90212503D01*
X146244417Y-90212503D01*
X146264698Y-90418429D01*
X146264699Y-90418434D01*
X146324768Y-90616454D01*
X146422316Y-90798952D01*
X146553585Y-90958904D01*
X146553590Y-90958910D01*
X146553595Y-90958914D01*
X146713547Y-91090183D01*
X146713548Y-91090183D01*
X146713550Y-91090185D01*
X146896046Y-91187732D01*
X147033996Y-91229578D01*
X147094065Y-91247800D01*
X147094070Y-91247801D01*
X147299997Y-91268083D01*
X147300000Y-91268083D01*
X147300003Y-91268083D01*
X147505929Y-91247801D01*
X147505934Y-91247800D01*
X147505933Y-91247800D01*
X147703954Y-91187732D01*
X147886450Y-91090185D01*
X148046410Y-90958910D01*
X148177685Y-90798950D01*
X148275232Y-90616454D01*
X148335300Y-90418434D01*
X148335301Y-90418429D01*
X148355583Y-90212503D01*
X148355583Y-90212496D01*
X148335301Y-90006570D01*
X148335300Y-90006565D01*
X148317078Y-89946497D01*
X148275232Y-89808546D01*
X148177685Y-89626050D01*
X148175582Y-89623488D01*
X148046414Y-89466095D01*
X148046410Y-89466090D01*
X148028175Y-89451125D01*
X147886452Y-89334816D01*
X147703954Y-89237268D01*
X147505934Y-89177199D01*
X147505929Y-89177198D01*
X147300003Y-89156917D01*
X147299997Y-89156917D01*
X147094070Y-89177198D01*
X147094065Y-89177199D01*
X146896045Y-89237268D01*
X146713547Y-89334816D01*
X146553595Y-89466085D01*
X146553585Y-89466095D01*
X146422316Y-89626047D01*
X146324768Y-89808545D01*
X146264699Y-90006565D01*
X146264698Y-90006570D01*
X146244417Y-90212496D01*
X146244417Y-90212503D01*
X145815583Y-90212503D01*
X145815583Y-90212496D01*
X145795301Y-90006570D01*
X145795300Y-90006565D01*
X145777078Y-89946497D01*
X145735232Y-89808546D01*
X145637685Y-89626050D01*
X145635582Y-89623488D01*
X145506414Y-89466095D01*
X145506410Y-89466090D01*
X145488175Y-89451125D01*
X145346452Y-89334816D01*
X145163954Y-89237268D01*
X144965934Y-89177199D01*
X144965929Y-89177198D01*
X144760003Y-89156917D01*
X144759997Y-89156917D01*
X144554070Y-89177198D01*
X144554065Y-89177199D01*
X144356045Y-89237268D01*
X144173547Y-89334816D01*
X144013595Y-89466085D01*
X144013585Y-89466095D01*
X143882316Y-89626047D01*
X143784769Y-89808544D01*
X143739180Y-89958829D01*
X143704195Y-90009025D01*
X143646386Y-90029071D01*
X143587836Y-90011310D01*
X143550907Y-89962525D01*
X143548816Y-89955713D01*
X143493429Y-89749004D01*
X143393605Y-89534932D01*
X143393602Y-89534926D01*
X143334925Y-89451125D01*
X142807011Y-89979039D01*
X142752495Y-90006816D01*
X142692063Y-89997245D01*
X142653724Y-89962558D01*
X142601762Y-89881703D01*
X142517332Y-89808545D01*
X142493100Y-89787548D01*
X142493098Y-89787547D01*
X142493097Y-89787546D01*
X142484332Y-89783543D01*
X142439255Y-89742169D01*
X142427107Y-89682202D01*
X142452526Y-89626547D01*
X142455457Y-89623487D01*
X142981372Y-89097572D01*
X142897577Y-89038899D01*
X142683489Y-88939069D01*
X142455313Y-88877929D01*
X142220003Y-88857343D01*
X142219997Y-88857343D01*
X141984686Y-88877929D01*
X141756505Y-88939070D01*
X141542430Y-89038894D01*
X141542411Y-89038906D01*
X141458626Y-89097572D01*
X141984541Y-89623488D01*
X142012318Y-89678005D01*
X142002747Y-89738437D01*
X141959482Y-89781702D01*
X141955666Y-89783544D01*
X141946902Y-89787546D01*
X141838237Y-89881703D01*
X141786275Y-89962559D01*
X141738909Y-90001291D01*
X141677823Y-90004784D01*
X141632987Y-89979040D01*
X141105072Y-89451126D01*
X141046406Y-89534911D01*
X141046394Y-89534930D01*
X140946570Y-89749005D01*
X140891183Y-89955713D01*
X140857859Y-90007027D01*
X140800737Y-90028954D01*
X140741637Y-90013118D01*
X140703132Y-89965568D01*
X140700819Y-89958828D01*
X140699874Y-89955713D01*
X140655232Y-89808546D01*
X140557685Y-89626050D01*
X140555582Y-89623488D01*
X140426414Y-89466095D01*
X140426410Y-89466090D01*
X140408175Y-89451125D01*
X140266452Y-89334816D01*
X140083954Y-89237268D01*
X139885934Y-89177199D01*
X139885929Y-89177198D01*
X139680003Y-89156917D01*
X139679997Y-89156917D01*
X139474070Y-89177198D01*
X139474065Y-89177199D01*
X139276045Y-89237268D01*
X139093547Y-89334816D01*
X138933595Y-89466085D01*
X138933585Y-89466095D01*
X138802316Y-89626047D01*
X138704768Y-89808545D01*
X138644699Y-90006565D01*
X138644698Y-90006570D01*
X138624417Y-90212496D01*
X138624417Y-90212503D01*
X138644698Y-90418429D01*
X138644699Y-90418434D01*
X138704768Y-90616454D01*
X138802316Y-90798952D01*
X138933585Y-90958904D01*
X138933590Y-90958910D01*
X138933595Y-90958914D01*
X139093547Y-91090183D01*
X139093548Y-91090183D01*
X139093550Y-91090185D01*
X139276046Y-91187732D01*
X139413996Y-91229578D01*
X139474065Y-91247800D01*
X139474070Y-91247801D01*
X139679997Y-91268083D01*
X139680000Y-91268083D01*
X139680003Y-91268083D01*
X139885929Y-91247801D01*
X139885934Y-91247800D01*
X140083954Y-91187732D01*
X140266450Y-91090185D01*
X140426410Y-90958910D01*
X140557685Y-90798950D01*
X140655232Y-90616454D01*
X140700819Y-90466170D01*
X140735804Y-90415974D01*
X140793612Y-90395928D01*
X140852163Y-90413689D01*
X140889092Y-90462473D01*
X140891183Y-90469286D01*
X140946569Y-90675989D01*
X141046399Y-90890077D01*
X141105072Y-90973872D01*
X141632986Y-90445959D01*
X141687503Y-90418182D01*
X141747935Y-90427753D01*
X141786274Y-90462439D01*
X141804732Y-90491160D01*
X141838239Y-90543298D01*
X141946900Y-90637452D01*
X141955663Y-90641454D01*
X142000740Y-90682826D01*
X142012891Y-90742792D01*
X141987473Y-90798448D01*
X141984540Y-90801510D01*
X141458625Y-91327425D01*
X141542423Y-91386101D01*
X141542425Y-91386102D01*
X141556735Y-91392775D01*
X141601484Y-91434503D01*
X141613159Y-91494564D01*
X141587302Y-91550017D01*
X141556737Y-91572224D01*
X141542427Y-91578896D01*
X141542411Y-91578906D01*
X141458626Y-91637572D01*
X141984541Y-92163488D01*
X142012318Y-92218005D01*
X142002747Y-92278437D01*
X141959482Y-92321702D01*
X141955666Y-92323544D01*
X141946902Y-92327546D01*
X141838237Y-92421703D01*
X141786275Y-92502559D01*
X141738909Y-92541291D01*
X141677823Y-92544784D01*
X141632987Y-92519040D01*
X141105072Y-91991126D01*
X141046406Y-92074911D01*
X141046394Y-92074930D01*
X140946570Y-92289005D01*
X140891183Y-92495713D01*
X140857859Y-92547027D01*
X140800737Y-92568954D01*
X140741637Y-92553118D01*
X140703132Y-92505568D01*
X140700819Y-92498828D01*
X140699874Y-92495713D01*
X140655232Y-92348546D01*
X140557685Y-92166050D01*
X140555582Y-92163488D01*
X140426414Y-92006095D01*
X140426410Y-92006090D01*
X140392255Y-91978060D01*
X140266452Y-91874816D01*
X140083954Y-91777268D01*
X139885934Y-91717199D01*
X139885929Y-91717198D01*
X139680003Y-91696917D01*
X139679997Y-91696917D01*
X139474070Y-91717198D01*
X139474065Y-91717199D01*
X139276045Y-91777268D01*
X139093547Y-91874816D01*
X138933595Y-92006085D01*
X138933585Y-92006095D01*
X138802316Y-92166047D01*
X138704768Y-92348545D01*
X138644699Y-92546565D01*
X138644698Y-92546570D01*
X138624417Y-92752496D01*
X138624417Y-92752503D01*
X138195583Y-92752503D01*
X138195583Y-92752496D01*
X138175301Y-92546570D01*
X138175300Y-92546565D01*
X138157078Y-92486496D01*
X138115232Y-92348546D01*
X138017685Y-92166050D01*
X138015582Y-92163488D01*
X137886414Y-92006095D01*
X137886410Y-92006090D01*
X137852255Y-91978060D01*
X137726452Y-91874816D01*
X137543954Y-91777268D01*
X137345934Y-91717199D01*
X137345929Y-91717198D01*
X137140003Y-91696917D01*
X137139997Y-91696917D01*
X136934070Y-91717198D01*
X136934065Y-91717199D01*
X136736045Y-91777268D01*
X136553547Y-91874816D01*
X136393595Y-92006085D01*
X136393585Y-92006095D01*
X136262316Y-92166047D01*
X136164768Y-92348545D01*
X136104699Y-92546565D01*
X136104698Y-92546570D01*
X136084417Y-92752496D01*
X136084417Y-92752503D01*
X135655583Y-92752503D01*
X135655583Y-92752496D01*
X135635301Y-92546570D01*
X135635300Y-92546565D01*
X135617078Y-92486496D01*
X135575232Y-92348546D01*
X135477685Y-92166050D01*
X135475582Y-92163488D01*
X135346414Y-92006095D01*
X135346410Y-92006090D01*
X135312255Y-91978060D01*
X135186452Y-91874816D01*
X135003954Y-91777268D01*
X134805934Y-91717199D01*
X134805929Y-91717198D01*
X134600003Y-91696917D01*
X134599997Y-91696917D01*
X134394070Y-91717198D01*
X134394065Y-91717199D01*
X134196045Y-91777268D01*
X134013547Y-91874816D01*
X133853595Y-92006085D01*
X133853585Y-92006095D01*
X133722316Y-92166047D01*
X133624769Y-92348544D01*
X133579180Y-92498829D01*
X133544195Y-92549025D01*
X133486386Y-92569071D01*
X133427836Y-92551310D01*
X133390907Y-92502525D01*
X133388816Y-92495713D01*
X133333429Y-92289004D01*
X133233605Y-92074932D01*
X133233602Y-92074926D01*
X133174925Y-91991125D01*
X132647011Y-92519039D01*
X132592495Y-92546816D01*
X132532063Y-92537245D01*
X132493724Y-92502558D01*
X132441762Y-92421703D01*
X132357332Y-92348545D01*
X132333100Y-92327548D01*
X132333098Y-92327547D01*
X132333097Y-92327546D01*
X132324332Y-92323543D01*
X132279255Y-92282169D01*
X132267107Y-92222202D01*
X132292526Y-92166547D01*
X132295457Y-92163487D01*
X132821372Y-91637572D01*
X132737576Y-91578898D01*
X132737574Y-91578897D01*
X132723265Y-91572225D01*
X132678516Y-91530497D01*
X132666841Y-91470436D01*
X132692698Y-91414983D01*
X132723265Y-91392775D01*
X132737575Y-91386102D01*
X132821372Y-91327425D01*
X132295458Y-90801511D01*
X132267681Y-90746994D01*
X132277252Y-90686562D01*
X132320517Y-90643297D01*
X132324279Y-90641480D01*
X132333100Y-90637452D01*
X132441761Y-90543298D01*
X132493725Y-90462438D01*
X132541089Y-90423709D01*
X132602174Y-90420215D01*
X132647012Y-90445959D01*
X133174925Y-90973872D01*
X133233600Y-90890077D01*
X133333430Y-90675990D01*
X133388816Y-90469286D01*
X133422140Y-90417972D01*
X133479261Y-90396045D01*
X133538362Y-90411880D01*
X133576867Y-90459430D01*
X133579180Y-90466171D01*
X133624768Y-90616454D01*
X133722316Y-90798952D01*
X133853585Y-90958904D01*
X133853590Y-90958910D01*
X133853595Y-90958914D01*
X134013547Y-91090183D01*
X134013548Y-91090183D01*
X134013550Y-91090185D01*
X134196046Y-91187732D01*
X134333996Y-91229578D01*
X134394065Y-91247800D01*
X134394070Y-91247801D01*
X134599997Y-91268083D01*
X134600000Y-91268083D01*
X134600003Y-91268083D01*
X134805929Y-91247801D01*
X134805934Y-91247800D01*
X135003954Y-91187732D01*
X135186450Y-91090185D01*
X135346410Y-90958910D01*
X135477685Y-90798950D01*
X135575232Y-90616454D01*
X135635300Y-90418434D01*
X135635301Y-90418429D01*
X135655583Y-90212503D01*
X136084417Y-90212503D01*
X136104698Y-90418429D01*
X136104699Y-90418434D01*
X136164768Y-90616454D01*
X136262316Y-90798952D01*
X136393585Y-90958904D01*
X136393590Y-90958910D01*
X136393595Y-90958914D01*
X136553547Y-91090183D01*
X136553548Y-91090183D01*
X136553550Y-91090185D01*
X136736046Y-91187732D01*
X136873996Y-91229578D01*
X136934065Y-91247800D01*
X136934070Y-91247801D01*
X137139997Y-91268083D01*
X137140000Y-91268083D01*
X137140003Y-91268083D01*
X137345929Y-91247801D01*
X137345934Y-91247800D01*
X137543954Y-91187732D01*
X137726450Y-91090185D01*
X137886410Y-90958910D01*
X138017685Y-90798950D01*
X138115232Y-90616454D01*
X138175300Y-90418434D01*
X138175301Y-90418429D01*
X138195583Y-90212503D01*
X138195583Y-90212496D01*
X138175301Y-90006570D01*
X138175300Y-90006565D01*
X138157078Y-89946496D01*
X138115232Y-89808546D01*
X138017685Y-89626050D01*
X138015582Y-89623488D01*
X137886414Y-89466095D01*
X137886410Y-89466090D01*
X137868175Y-89451125D01*
X137726452Y-89334816D01*
X137543954Y-89237268D01*
X137345934Y-89177199D01*
X137345929Y-89177198D01*
X137140003Y-89156917D01*
X137139997Y-89156917D01*
X136934070Y-89177198D01*
X136934065Y-89177199D01*
X136736045Y-89237268D01*
X136553547Y-89334816D01*
X136393595Y-89466085D01*
X136393585Y-89466095D01*
X136262316Y-89626047D01*
X136164768Y-89808545D01*
X136104699Y-90006565D01*
X136104698Y-90006570D01*
X136084417Y-90212496D01*
X136084417Y-90212503D01*
X135655583Y-90212503D01*
X135655583Y-90212496D01*
X135635301Y-90006570D01*
X135635300Y-90006565D01*
X135617078Y-89946496D01*
X135575232Y-89808546D01*
X135477685Y-89626050D01*
X135475582Y-89623488D01*
X135346414Y-89466095D01*
X135346410Y-89466090D01*
X135328175Y-89451125D01*
X135186452Y-89334816D01*
X135003954Y-89237268D01*
X134805934Y-89177199D01*
X134805929Y-89177198D01*
X134600003Y-89156917D01*
X134599997Y-89156917D01*
X134394070Y-89177198D01*
X134394065Y-89177199D01*
X134196045Y-89237268D01*
X134013547Y-89334816D01*
X133853595Y-89466085D01*
X133853585Y-89466095D01*
X133722316Y-89626047D01*
X133624769Y-89808544D01*
X133579180Y-89958829D01*
X133544195Y-90009025D01*
X133486386Y-90029071D01*
X133427836Y-90011310D01*
X133390907Y-89962525D01*
X133388816Y-89955713D01*
X133333429Y-89749004D01*
X133233605Y-89534932D01*
X133233602Y-89534926D01*
X133174925Y-89451125D01*
X132647011Y-89979039D01*
X132592495Y-90006816D01*
X132532063Y-89997245D01*
X132493724Y-89962558D01*
X132441762Y-89881703D01*
X132357332Y-89808545D01*
X132333100Y-89787548D01*
X132333098Y-89787547D01*
X132333097Y-89787546D01*
X132324332Y-89783543D01*
X132279255Y-89742169D01*
X132267107Y-89682202D01*
X132292526Y-89626547D01*
X132295457Y-89623487D01*
X132821372Y-89097572D01*
X132737577Y-89038899D01*
X132523489Y-88939069D01*
X132295313Y-88877929D01*
X132060003Y-88857343D01*
X132059997Y-88857343D01*
X131824686Y-88877929D01*
X131596505Y-88939070D01*
X131382430Y-89038894D01*
X131382411Y-89038906D01*
X131298626Y-89097572D01*
X131824541Y-89623488D01*
X131852318Y-89678005D01*
X131842747Y-89738437D01*
X131799482Y-89781702D01*
X131795666Y-89783544D01*
X131786902Y-89787546D01*
X131678237Y-89881703D01*
X131626275Y-89962559D01*
X131578909Y-90001291D01*
X131517823Y-90004784D01*
X131472987Y-89979040D01*
X130945072Y-89451126D01*
X130886406Y-89534911D01*
X130886396Y-89534927D01*
X130879724Y-89549237D01*
X130837995Y-89593985D01*
X130777934Y-89605659D01*
X130722481Y-89579800D01*
X130700276Y-89549237D01*
X130693603Y-89534928D01*
X130693602Y-89534926D01*
X130634925Y-89451125D01*
X130107011Y-89979039D01*
X130052495Y-90006816D01*
X129992063Y-89997245D01*
X129953724Y-89962558D01*
X129901762Y-89881703D01*
X129817332Y-89808545D01*
X129793100Y-89787548D01*
X129793098Y-89787547D01*
X129793097Y-89787546D01*
X129784332Y-89783543D01*
X129739255Y-89742169D01*
X129727107Y-89682202D01*
X129752526Y-89626547D01*
X129755457Y-89623487D01*
X130281372Y-89097572D01*
X130197577Y-89038899D01*
X129983489Y-88939069D01*
X129755313Y-88877929D01*
X129520003Y-88857343D01*
X129519997Y-88857343D01*
X129284686Y-88877929D01*
X129056505Y-88939070D01*
X128842430Y-89038894D01*
X128842411Y-89038906D01*
X128758626Y-89097572D01*
X129284541Y-89623488D01*
X129312318Y-89678005D01*
X129302747Y-89738437D01*
X129259482Y-89781702D01*
X129255666Y-89783544D01*
X129246902Y-89787546D01*
X129138237Y-89881703D01*
X129086275Y-89962559D01*
X129038909Y-90001291D01*
X128977823Y-90004784D01*
X128932987Y-89979040D01*
X128405072Y-89451126D01*
X128346406Y-89534911D01*
X128346394Y-89534930D01*
X128246570Y-89749005D01*
X128185429Y-89977186D01*
X128164843Y-90212496D01*
X128164843Y-90212503D01*
X114500499Y-90212503D01*
X114500499Y-85002759D01*
X114500809Y-84997249D01*
X114511775Y-84899931D01*
X114516704Y-84878332D01*
X114546285Y-84793794D01*
X114555897Y-84773834D01*
X114603541Y-84698010D01*
X114617357Y-84680684D01*
X114680684Y-84617357D01*
X114698012Y-84603540D01*
X114773834Y-84555897D01*
X114793794Y-84546285D01*
X114878332Y-84516704D01*
X114899924Y-84511776D01*
X114997247Y-84500810D01*
X115002778Y-84500500D01*
X115065892Y-84500500D01*
X204934108Y-84500500D01*
X204997222Y-84500500D01*
X205002752Y-84500810D01*
G37*
%TD.AperFunction*%
%TD*%
M02*
