%TF.GenerationSoftware,KiCad,Pcbnew,7.0.7*%
%TF.CreationDate,2023-09-18T17:27:43-04:00*%
%TF.ProjectId,N64 Cart FFC WRONG WAY,4e363420-4361-4727-9420-464643205752,rev?*%
%TF.SameCoordinates,Original*%
%TF.FileFunction,Soldermask,Top*%
%TF.FilePolarity,Negative*%
%FSLAX46Y46*%
G04 Gerber Fmt 4.6, Leading zero omitted, Abs format (unit mm)*
G04 Created by KiCad (PCBNEW 7.0.7) date 2023-09-18 17:27:43*
%MOMM*%
%LPD*%
G01*
G04 APERTURE LIST*
G04 Aperture macros list*
%AMRoundRect*
0 Rectangle with rounded corners*
0 $1 Rounding radius*
0 $2 $3 $4 $5 $6 $7 $8 $9 X,Y pos of 4 corners*
0 Add a 4 corners polygon primitive as box body*
4,1,4,$2,$3,$4,$5,$6,$7,$8,$9,$2,$3,0*
0 Add four circle primitives for the rounded corners*
1,1,$1+$1,$2,$3*
1,1,$1+$1,$4,$5*
1,1,$1+$1,$6,$7*
1,1,$1+$1,$8,$9*
0 Add four rect primitives between the rounded corners*
20,1,$1+$1,$2,$3,$4,$5,0*
20,1,$1+$1,$4,$5,$6,$7,0*
20,1,$1+$1,$6,$7,$8,$9,0*
20,1,$1+$1,$8,$9,$2,$3,0*%
G04 Aperture macros list end*
%ADD10RoundRect,0.076200X-0.150000X-0.500000X0.150000X-0.500000X0.150000X0.500000X-0.150000X0.500000X0*%
%ADD11RoundRect,0.076200X-1.000000X-0.650000X1.000000X-0.650000X1.000000X0.650000X-1.000000X0.650000X0*%
%ADD12RoundRect,0.250000X0.600000X-0.600000X0.600000X0.600000X-0.600000X0.600000X-0.600000X-0.600000X0*%
%ADD13C,1.700000*%
G04 APERTURE END LIST*
D10*
%TO.C,J2*%
X150250000Y-98575000D03*
X150750000Y-98575000D03*
X151250000Y-98575000D03*
X151750000Y-98575000D03*
X152250000Y-98575000D03*
X152750000Y-98575000D03*
X153250000Y-98575000D03*
X153750000Y-98575000D03*
X154250000Y-98575000D03*
X154750000Y-98575000D03*
X155250000Y-98575000D03*
X155750000Y-98575000D03*
X156250000Y-98575000D03*
X156750000Y-98575000D03*
X157250000Y-98575000D03*
X157750000Y-98575000D03*
X158250000Y-98575000D03*
X158750000Y-98575000D03*
X159250000Y-98575000D03*
X159750000Y-98575000D03*
X160250000Y-98575000D03*
X160750000Y-98575000D03*
X161250000Y-98575000D03*
X161750000Y-98575000D03*
X162250000Y-98575000D03*
X162750000Y-98575000D03*
X163250000Y-98575000D03*
X163750000Y-98575000D03*
X164250000Y-98575000D03*
X164750000Y-98575000D03*
X165250000Y-98575000D03*
X165750000Y-98575000D03*
X166250000Y-98575000D03*
X166750000Y-98575000D03*
X167250000Y-98575000D03*
X167750000Y-98575000D03*
X168250000Y-98575000D03*
X168750000Y-98575000D03*
X169250000Y-98575000D03*
X169750000Y-98575000D03*
D11*
X147950000Y-101275000D03*
X172050000Y-101275000D03*
%TD*%
D12*
%TO.C,J1*%
X129520000Y-92752500D03*
D13*
X129520000Y-90212500D03*
X132060000Y-92752500D03*
X132060000Y-90212500D03*
X134600000Y-92752500D03*
X134600000Y-90212500D03*
X137140000Y-92752500D03*
X137140000Y-90212500D03*
X139680000Y-92752500D03*
X139680000Y-90212500D03*
X142220000Y-92752500D03*
X142220000Y-90212500D03*
X144760000Y-92752500D03*
X144760000Y-90212500D03*
X147300000Y-92752500D03*
X147300000Y-90212500D03*
X149840000Y-92752500D03*
X149840000Y-90212500D03*
X152380000Y-92752500D03*
X152380000Y-90212500D03*
X154920000Y-92752500D03*
X154920000Y-90212500D03*
X157460000Y-92752500D03*
X157460000Y-90212500D03*
X160000000Y-92752500D03*
X160000000Y-90212500D03*
X162540000Y-92752500D03*
X162540000Y-90212500D03*
X165080000Y-92752500D03*
X165080000Y-90212500D03*
X167620000Y-92752500D03*
X167620000Y-90212500D03*
X170160000Y-92752500D03*
X170160000Y-90212500D03*
X172700000Y-92752500D03*
X172700000Y-90212500D03*
X175240000Y-92752500D03*
X175240000Y-90212500D03*
X177780000Y-92752500D03*
X177780000Y-90212500D03*
X180320000Y-92752500D03*
X180320000Y-90212500D03*
X182860000Y-92752500D03*
X182860000Y-90212500D03*
X185400000Y-92752500D03*
X185400000Y-90212500D03*
X187940000Y-92752500D03*
X187940000Y-90212500D03*
X190480000Y-92752500D03*
X190480000Y-90212500D03*
%TD*%
M02*
