%TF.GenerationSoftware,KiCad,Pcbnew,7.0.7*%
%TF.CreationDate,2023-09-18T17:25:18-04:00*%
%TF.ProjectId,N64 Cart FFC,4e363420-4361-4727-9420-4646432e6b69,rev?*%
%TF.SameCoordinates,Original*%
%TF.FileFunction,Soldermask,Bot*%
%TF.FilePolarity,Negative*%
%FSLAX46Y46*%
G04 Gerber Fmt 4.6, Leading zero omitted, Abs format (unit mm)*
G04 Created by KiCad (PCBNEW 7.0.7) date 2023-09-18 17:25:18*
%MOMM*%
%LPD*%
G01*
G04 APERTURE LIST*
G04 Aperture macros list*
%AMRoundRect*
0 Rectangle with rounded corners*
0 $1 Rounding radius*
0 $2 $3 $4 $5 $6 $7 $8 $9 X,Y pos of 4 corners*
0 Add a 4 corners polygon primitive as box body*
4,1,4,$2,$3,$4,$5,$6,$7,$8,$9,$2,$3,0*
0 Add four circle primitives for the rounded corners*
1,1,$1+$1,$2,$3*
1,1,$1+$1,$4,$5*
1,1,$1+$1,$6,$7*
1,1,$1+$1,$8,$9*
0 Add four rect primitives between the rounded corners*
20,1,$1+$1,$2,$3,$4,$5,0*
20,1,$1+$1,$4,$5,$6,$7,0*
20,1,$1+$1,$6,$7,$8,$9,0*
20,1,$1+$1,$8,$9,$2,$3,0*%
G04 Aperture macros list end*
%ADD10RoundRect,0.076200X0.150000X0.500000X-0.150000X0.500000X-0.150000X-0.500000X0.150000X-0.500000X0*%
%ADD11RoundRect,0.076200X1.000000X0.650000X-1.000000X0.650000X-1.000000X-0.650000X1.000000X-0.650000X0*%
%ADD12RoundRect,0.250000X-0.600000X0.600000X-0.600000X-0.600000X0.600000X-0.600000X0.600000X0.600000X0*%
%ADD13C,1.700000*%
G04 APERTURE END LIST*
D10*
%TO.C,J2*%
X171750000Y-79575000D03*
X171250000Y-79575000D03*
X170750000Y-79575000D03*
X170250000Y-79575000D03*
X169750000Y-79575000D03*
X169250000Y-79575000D03*
X168750000Y-79575000D03*
X168250000Y-79575000D03*
X167750000Y-79575000D03*
X167250000Y-79575000D03*
X166750000Y-79575000D03*
X166250000Y-79575000D03*
X165750000Y-79575000D03*
X165250000Y-79575000D03*
X164750000Y-79575000D03*
X164250000Y-79575000D03*
X163750000Y-79575000D03*
X163250000Y-79575000D03*
X162750000Y-79575000D03*
X162250000Y-79575000D03*
X161750000Y-79575000D03*
X161250000Y-79575000D03*
X160750000Y-79575000D03*
X160250000Y-79575000D03*
X159750000Y-79575000D03*
X159250000Y-79575000D03*
X158750000Y-79575000D03*
X158250000Y-79575000D03*
X157750000Y-79575000D03*
X157250000Y-79575000D03*
X156750000Y-79575000D03*
X156250000Y-79575000D03*
X155750000Y-79575000D03*
X155250000Y-79575000D03*
X154750000Y-79575000D03*
X154250000Y-79575000D03*
X153750000Y-79575000D03*
X153250000Y-79575000D03*
X152750000Y-79575000D03*
X152250000Y-79575000D03*
D11*
X174050000Y-82275000D03*
X149950000Y-82275000D03*
%TD*%
D12*
%TO.C,J1*%
X192480000Y-72000000D03*
D13*
X192480000Y-74540000D03*
X189940000Y-72000000D03*
X189940000Y-74540000D03*
X187400000Y-72000000D03*
X187400000Y-74540000D03*
X184860000Y-72000000D03*
X184860000Y-74540000D03*
X182320000Y-72000000D03*
X182320000Y-74540000D03*
X179780000Y-72000000D03*
X179780000Y-74540000D03*
X177240000Y-72000000D03*
X177240000Y-74540000D03*
X174700000Y-72000000D03*
X174700000Y-74540000D03*
X172160000Y-72000000D03*
X172160000Y-74540000D03*
X169620000Y-72000000D03*
X169620000Y-74540000D03*
X167080000Y-72000000D03*
X167080000Y-74540000D03*
X164540000Y-72000000D03*
X164540000Y-74540000D03*
X162000000Y-72000000D03*
X162000000Y-74540000D03*
X159460000Y-72000000D03*
X159460000Y-74540000D03*
X156920000Y-72000000D03*
X156920000Y-74540000D03*
X154380000Y-72000000D03*
X154380000Y-74540000D03*
X151840000Y-72000000D03*
X151840000Y-74540000D03*
X149300000Y-72000000D03*
X149300000Y-74540000D03*
X146760000Y-72000000D03*
X146760000Y-74540000D03*
X144220000Y-72000000D03*
X144220000Y-74540000D03*
X141680000Y-72000000D03*
X141680000Y-74540000D03*
X139140000Y-72000000D03*
X139140000Y-74540000D03*
X136600000Y-72000000D03*
X136600000Y-74540000D03*
X134060000Y-72000000D03*
X134060000Y-74540000D03*
X131520000Y-72000000D03*
X131520000Y-74540000D03*
%TD*%
M02*
