M48
; DRILL file {KiCad 7.0.7} date Mon Sep 18 17:25:21 2023
; FORMAT={-:-/ absolute / inch / decimal}
; #@! TF.CreationDate,2023-09-18T17:25:21-04:00
; #@! TF.GenerationSoftware,Kicad,Pcbnew,7.0.7
; #@! TF.FileFunction,Plated,1,4,PTH
FMAT,2
INCH
; #@! TA.AperFunction,Plated,PTH,ViaDrill
T1C0.0157
; #@! TA.AperFunction,Plated,PTH,ComponentDrill
T2C0.0394
%
G90
G05
T1
X6.0335Y-3.1772
X6.0925Y-3.1772
X6.1299Y-3.1772
X6.1713Y-3.0335
X6.1713Y-3.0886
X6.1811Y-3.1772
X6.2303Y-3.1772
X6.2697Y-3.1772
X6.3091Y-3.1772
X6.3386Y-3.0335
X6.3386Y-3.0886
X6.3484Y-3.1772
X6.3878Y-3.1772
X6.4272Y-3.1772
X6.4567Y-3.0374
X6.4567Y-3.0886
X6.4665Y-3.1772
X6.5059Y-3.1772
X6.5453Y-3.1772
X6.5748Y-3.0886
X6.5768Y-3.0492
X6.5846Y-3.1772
X6.624Y-3.1772
X6.6634Y-3.1772
X6.7028Y-3.1772
X6.7224Y-3.0886
X6.7421Y-3.1772
T2
X5.178Y-2.8346
X5.178Y-2.9346
X5.278Y-2.8346
X5.278Y-2.9346
X5.378Y-2.8346
X5.378Y-2.9346
X5.478Y-2.8346
X5.478Y-2.9346
X5.578Y-2.8346
X5.578Y-2.9346
X5.678Y-2.8346
X5.678Y-2.9346
X5.778Y-2.8346
X5.778Y-2.9346
X5.878Y-2.8346
X5.878Y-2.9346
X5.978Y-2.8346
X5.978Y-2.9346
X6.078Y-2.8346
X6.078Y-2.9346
X6.178Y-2.8346
X6.178Y-2.9346
X6.278Y-2.8346
X6.278Y-2.9346
X6.378Y-2.8346
X6.378Y-2.9346
X6.478Y-2.8346
X6.478Y-2.9346
X6.578Y-2.8346
X6.578Y-2.9346
X6.678Y-2.8346
X6.678Y-2.9346
X6.778Y-2.8346
X6.778Y-2.9346
X6.878Y-2.8346
X6.878Y-2.9346
X6.978Y-2.8346
X6.978Y-2.9346
X7.078Y-2.8346
X7.078Y-2.9346
X7.178Y-2.8346
X7.178Y-2.9346
X7.278Y-2.8346
X7.278Y-2.9346
X7.378Y-2.8346
X7.378Y-2.9346
X7.478Y-2.8346
X7.478Y-2.9346
X7.578Y-2.8346
X7.578Y-2.9346
T0
M30
